<?xml version="1.0" standalone="no"?>
<!DOCTYPE svg PUBLIC "-//W3C//DTD SVG 1.1//EN" "http://www.w3.org/Graphics/SVG/1.1/DTD/svg11.dtd" >
<svg>
<metadata>
Created by FontForge 20090914 at Mon Apr 10 11:50:14 2017
 By www-data
Copyright 2007-2009 Dalton Maag Ltd. All rights reserved. This font may not be altered in any way without prior permission of Dalton Maag Ltd. 
</metadata>
<defs>
<font id="TondoCorp-Regular" horiz-adv-x="466" >
  <font-face 
    font-family="Tondo Corp"
    font-weight="400"
    font-stretch="normal"
    units-per-em="1000"
    panose-1="2 15 5 3 2 2 2 2 2 4"
    ascent="800"
    descent="-200"
    x-height="502"
    cap-height="694.001"
    bbox="-114.999 -265.002 1302 950.003"
    underline-thickness="50"
    underline-position="-50"
    unicode-range="U+0008-U+FB04"
  />
<missing-glyph horiz-adv-x="500" 
d="M50 0v750h400v-750h-400zM400 50v650h-300v-650h300z" />
    <glyph glyph-name="f_f" unicode="ff" horiz-adv-x="622" 
d="M558 642c-19.333 0 -35.334 -5.33496 -48.001 -16.002s-19 -30.667 -19 -60v-64h88c13.333 0 22.333 -3.16699 27 -9.5s7 -15.166 7 -26.499s-2.33301 -20.166 -7 -26.499s-13.667 -9.5 -27 -9.5h-88v-398c0 -15.333 -3.83301 -25.833 -11.5 -31.5
s-18.167 -8.5 -31.5 -8.5s-23.666 2.83301 -30.999 8.5s-11 16.167 -11 31.5v398h-226v-398c0 -15.333 -3.83301 -25.833 -11.5 -31.5s-18.167 -8.5 -31.5 -8.5s-23.666 2.83301 -30.999 8.5s-11 16.167 -11 31.5v398h-46c-13.333 0 -22.333 3.16699 -27 9.5
s-7 15.166 -7 26.499s2.33301 20.166 7 26.499s13.667 9.5 27 9.5h46v70c0 41.333 12.833 74.833 38.5 100.5s63.167 38.5 112.5 38.5c13.333 0 26.166 -1.16699 38.499 -3.5s23.166 -5.66602 32.499 -9.99902s16.833 -9.66602 22.5 -15.999s8.5 -13.5 8.5 -21.5
c0 -11.333 -3.16699 -20.5 -9.5 -27.5s-14.166 -10.5 -23.499 -10.5c-6 0 -11.167 1 -15.5 3s-9 4.33301 -14 7s-10.5 5 -16.5 7s-13.333 3 -22 3c-19.333 0 -35.333 -5.33301 -48 -16s-19 -30.667 -19 -60v-64h226v70c0 41.333 12.833 74.833 38.5 100.5
s63.167 38.5 112.5 38.5c14 0 27.833 -1.5 41.5 -4.5s25.667 -7 36 -12s18.833 -10.833 25.5 -17.5s10 -14 10 -22c0 -11.333 -3.5 -21 -10.5 -29s-15.167 -12 -24.5 -12c-6 0 -11.5 1.5 -16.5 4.5l-16 9.5c-5.66699 3.33301 -12 6.5 -19 9.5s-15.5 4.5 -25.5 4.5z" />
    <glyph glyph-name="f_i" unicode="fi" horiz-adv-x="544" 
d="M389 430h-209.001v-398c0 -15.333 -3.83301 -25.833 -11.5 -31.5s-18.167 -8.5 -31.5 -8.5s-23.666 2.83301 -30.999 8.5s-11 16.167 -11 31.5v398h-46c-13.333 0 -22.333 3.16699 -27 9.5s-7 15.166 -7 26.499s2.33301 20.166 7 26.499s13.667 9.5 27 9.5h46v50
c0 20.667 3.5 40.5 10.5 59.5s17.667 35.833 32 50.5s32.166 26.5 53.499 35.5s46.333 13.5 75 13.5c43.333 0 81 -6.66699 113 -20c13.333 -5.33301 24.333 -11.5 33 -18.5s13 -15.167 13 -24.5c0 -11.333 -3.16699 -20.5 -9.5 -27.5s-14.166 -10.5 -23.499 -10.5
c-6.66699 0 -13 1.16699 -19 3.5l-19 7.5c-12 4.66699 -25 9.33398 -39 14.001s-30 7 -48 7c-28.667 0 -50.334 -8.66699 -65.001 -26s-22 -40.666 -22 -69.999v-44h254c26.667 0 40 -14.667 40 -44v-426c0 -15.333 -3.83301 -25.833 -11.5 -31.5s-18.167 -8.5 -31.5 -8.5
s-23.666 2.83301 -30.999 8.5s-11 16.167 -11 31.5v398z" />
    <glyph glyph-name="f_l" unicode="fl" horiz-adv-x="557" 
d="M247 642c-19.333 0 -35.333 -5.33301 -48 -16s-19 -30.667 -19 -60v-64h216v159c0 15.333 3.66699 25.833 11 31.5s17.666 8.5 30.999 8.5s23.833 -2.83301 31.5 -8.5s11.5 -16.167 11.5 -31.5v-629c0 -15.333 -3.83301 -25.833 -11.5 -31.5s-18.167 -8.5 -31.5 -8.5
s-23.666 2.83301 -30.999 8.5s-11 16.167 -11 31.5v398h-216v-398c0 -15.333 -3.83301 -25.833 -11.5 -31.5s-18.167 -8.5 -31.5 -8.5s-23.666 2.83301 -30.999 8.5s-11 16.167 -11 31.5v398h-46c-13.333 0 -22.333 3.16699 -27 9.5s-7 15.166 -7 26.499
s2.33301 20.166 7 26.499s13.667 9.5 27 9.5h46v70c0 41.333 12.833 74.833 38.5 100.5s63.167 38.5 112.5 38.5c13.333 0 26.166 -1.16699 38.499 -3.5s23.166 -5.66602 32.499 -9.99902s16.833 -9.66602 22.5 -15.999s8.5 -13.5 8.5 -21.5
c0 -11.333 -3.16699 -20.5 -9.5 -27.5s-14.166 -10.5 -23.499 -10.5c-6 0 -11.167 1 -15.5 3s-9 4.33301 -14 7s-10.5 5 -16.5 7s-13.333 3 -22 3z" />
    <glyph glyph-name="f_f_i" unicode="ffi" horiz-adv-x="856" 
d="M701 430l-209.001 -0.00195312v-398c0 -15.333 -3.83301 -25.833 -11.5 -31.5s-18.167 -8.5 -31.5 -8.5s-23.666 2.83301 -30.999 8.5s-11 16.167 -11 31.5v398h-227v-398c0 -15.333 -3.83301 -25.833 -11.5 -31.5s-18.167 -8.5 -31.5 -8.5s-23.666 2.83301 -30.999 8.5
s-11 16.167 -11 31.5v398h-46c-13.333 0 -22.333 3.16699 -27 9.5s-7 15.166 -7 26.499s2.33301 20.166 7 26.499s13.667 9.5 27 9.5h46v70c0 41.333 12.833 74.833 38.5 100.5s63.167 38.5 112.5 38.5c13.333 0 26.166 -1.16699 38.499 -3.5
s23.166 -5.66602 32.499 -9.99902s16.833 -9.66602 22.5 -15.999s8.5 -13.5 8.5 -21.5c0 -11.333 -3.16699 -20.5 -9.5 -27.5s-14.166 -10.5 -23.499 -10.5c-6 0 -11.167 1 -15.5 3s-9 4.33301 -14 7s-10.5 5 -16.5 7s-13.333 3 -22 3c-19.333 0 -35.333 -5.33301 -48 -16
s-19 -30.667 -19 -60v-64h227v50c0 20.667 3.5 40.5 10.5 59.5s17.667 35.833 32 50.5s32.166 26.5 53.499 35.5s46.333 13.5 75 13.5c43.333 0 81 -6.66699 113 -20c13.333 -5.33301 24.333 -11.5 33 -18.5s13 -15.167 13 -24.5c0 -11.333 -3.16699 -20.5 -9.5 -27.5
s-14.166 -10.5 -23.499 -10.5c-6.66699 0 -13 1.16699 -19 3.5l-19 7.5c-12 4.66699 -25 9.33398 -39 14.001s-30 7 -48 7c-28.667 0 -50.334 -8.66699 -65.001 -26s-22 -40.666 -22 -69.999v-44h254c26.667 0 40 -14.667 40 -44v-426
c0 -15.333 -3.83301 -25.833 -11.5 -31.5s-18.167 -8.5 -31.5 -8.5s-23.666 2.83301 -30.999 8.5s-11 16.167 -11 31.5v398z" />
    <glyph glyph-name="f_f_l" unicode="ffl" horiz-adv-x="868" 
d="M558 642c-19.333 0 -35.333 -5.33496 -48 -16.002s-19 -30.667 -19 -60v-64h216v159c0 15.333 3.66699 25.833 11 31.5s17.666 8.5 30.999 8.5s23.833 -2.83301 31.5 -8.5s11.5 -16.167 11.5 -31.5v-629c0 -15.333 -3.83301 -25.833 -11.5 -31.5s-18.167 -8.5 -31.5 -8.5
s-23.666 2.83301 -30.999 8.5s-11 16.167 -11 31.5v398h-216v-398c0 -15.333 -3.83301 -25.833 -11.5 -31.5s-18.167 -8.5 -31.5 -8.5s-23.666 2.83301 -30.999 8.5s-11 16.167 -11 31.5v398h-226v-398c0 -15.333 -3.83301 -25.833 -11.5 -31.5s-18.167 -8.5 -31.5 -8.5
s-23.666 2.83301 -30.999 8.5s-11 16.167 -11 31.5v398h-46c-13.333 0 -22.333 3.16699 -27 9.5s-7 15.166 -7 26.499s2.33301 20.166 7 26.499s13.667 9.5 27 9.5h46v70c0 41.333 12.833 74.833 38.5 100.5s63.167 38.5 112.5 38.5c13.333 0 26.166 -1.16699 38.499 -3.5
s23.166 -5.66602 32.499 -9.99902s16.833 -9.66602 22.5 -15.999s8.5 -13.5 8.5 -21.5c0 -11.333 -3.16699 -20.5 -9.5 -27.5s-14.166 -10.5 -23.499 -10.5c-6 0 -11.167 1 -15.5 3s-9 4.33301 -14 7s-10.5 5 -16.5 7s-13.333 3 -22 3c-19.333 0 -35.333 -5.33301 -48 -16
s-19 -30.667 -19 -60v-64h226v70c0 41.333 12.833 74.833 38.5 100.5s63.167 38.5 112.5 38.5c13.333 0 26.166 -1.16699 38.499 -3.5s23.166 -5.66602 32.499 -9.99902s16.833 -9.66602 22.5 -15.999s8.5 -13.5 8.5 -21.5c0 -11.333 -3.16699 -20.5 -9.5 -27.5
s-14.166 -10.5 -23.499 -10.5c-6 0 -11.167 1 -15.5 3s-9 4.33301 -14 7s-10.5 5 -16.5 7s-13.333 3 -22 3z" />
    <glyph glyph-name=".notdef" horiz-adv-x="500" 
d="M50 0v750h400v-750h-400zM400 50v650h-300v-650h300z" />
    <glyph glyph-name=".null" horiz-adv-x="0" 
 />
    <glyph glyph-name=".null" horiz-adv-x="0" 
 />
    <glyph glyph-name=".null" horiz-adv-x="0" 
 />
    <glyph glyph-name="nonmarkingreturn" unicode="&#x9;" horiz-adv-x="245" 
 />
    <glyph glyph-name="nonmarkingreturn" unicode="&#xd;" horiz-adv-x="245" 
 />
    <glyph glyph-name="space" unicode=" " horiz-adv-x="245" 
 />
    <glyph glyph-name="exclam" unicode="!" horiz-adv-x="272" 
d="M90 534v126c0 15.333 3.83301 26 11.5 32s19.167 9 34.5 9s26.833 -3 34.5 -9s11.5 -16.667 11.5 -32v-126l-10 -298c-0.666992 -13.333 -4 -22.333 -10 -27s-15 -7 -27 -7s-20.667 2.33301 -26 7s-8.33301 13.667 -9 27zM80 47c0 15.333 5.5 28.5 16.5 39.5
s23.833 16.5 38.5 16.5c15.333 0 28.5 -5.5 39.5 -16.5s16.5 -24.167 16.5 -39.5c0 -14.667 -5.5 -27.5 -16.5 -38.5s-24.167 -16.5 -39.5 -16.5c-14.667 0 -27.5 5.5 -38.5 16.5s-16.5 23.833 -16.5 38.5z" />
    <glyph glyph-name="quotedbl" unicode="&#x22;" horiz-adv-x="368" 
d="M53 621v39c0 15.333 3.83301 26 11.5 32s19.167 9 34.5 9s26.833 -3 34.5 -9s11.5 -16.667 11.5 -32v-39l-9 -127c-1.33301 -13.333 -5 -22.166 -11 -26.499s-15 -6.5 -27 -6.5c-12.667 0 -21.5 2.16699 -26.5 6.5s-8.16699 13.166 -9.5 26.499zM223 621v39
c0 15.333 3.83301 26 11.5 32s19.167 9 34.5 9s26.833 -3 34.5 -9s11.5 -16.667 11.5 -32v-39l-9 -127c-1.33301 -13.333 -5 -22.166 -11 -26.499s-15 -6.5 -27 -6.5c-12.667 0 -21.5 2.16699 -26.5 6.5s-8.16699 13.166 -9.5 26.499z" />
    <glyph glyph-name="numbersign" unicode="#" horiz-adv-x="642" 
d="M71 415c-13.333 0 -22.333 3.16699 -27 9.5s-7 15.166 -7 26.499s2.33301 20 7 26s13.667 9 27 9h125l24 169c2 14 5.66699 23.5 11 28.5s14.666 7.5 27.999 7.5c12.667 0 22.5 -2.33301 29.5 -7s9.5 -14.334 7.5 -29.001l-24 -169h137l24 169c2 14 5.66699 23.5 11 28.5
s14.666 7.5 27.999 7.5c12.667 0 22.5 -2.33301 29.5 -7s9.5 -14.334 7.5 -29.001l-24 -169h87c13.333 0 22.333 -3 27 -9s7 -14.667 7 -26s-2.33301 -20.166 -7 -26.499s-13.667 -9.5 -27 -9.5h-97l-19 -139h116c13.333 0 22.333 -3 27 -9s7 -14.667 7 -26
s-2.33301 -20.166 -7 -26.499s-13.667 -9.5 -27 -9.5h-126l-24 -169c-2 -14 -5.66699 -23.5 -11 -28.5s-14.666 -7.5 -27.999 -7.5c-12.667 0 -22.5 2.33301 -29.5 7s-9.5 14.334 -7.5 29.001l24 169h-137l-24 -169c-2 -14 -5.66699 -23.5 -11 -28.5
s-14.666 -7.5 -27.999 -7.5c-12.667 -0 -22.5 2.33301 -29.5 7s-9.5 14.334 -7.5 29.001l24 169h-86c-13.333 0 -22.333 3.16699 -27 9.5s-7 15.166 -7 26.499s2.33301 20 7 26s13.667 9 27 9h96l19 139h-115zM243 276h137l19 139h-137z" />
    <glyph glyph-name="dollar" unicode="$" horiz-adv-x="610" 
d="M272 740c0 13.333 3.00488 22.335 9.00488 27.002s14.667 7 26 7s20.166 -2.33301 26.499 -7s9.5 -13.667 9.5 -27v-59c28 -3.33301 52.667 -8.66602 74 -15.999s39.833 -15.166 55.5 -23.499s28.667 -16.833 39 -25.5s18.166 -16 23.499 -22s9 -11.833 11 -17.5
s3 -10.834 3 -15.501c0 -9.33301 -4.5 -18.166 -13.5 -26.499s-18.833 -12.5 -29.5 -12.5s-22 7 -34 21l-16 15c-6 6.66699 -14.167 13.334 -24.5 20.001s-22.833 13 -37.5 19s-31.667 10.667 -51 14v-236l47 -12c57.333 -14.667 100.333 -36.334 129 -65.001
s43 -67.334 43 -116.001c0 -29.333 -5.33301 -55.333 -16 -78s-25.834 -42 -45.501 -58s-42.834 -28.5 -69.501 -37.5s-56 -14.167 -88 -15.5v-51c0 -13.333 -3.16699 -22.333 -9.5 -27s-15.166 -7 -26.499 -7s-20 2.33301 -26 7s-9 13.667 -9 27v52
c-30 2.66699 -56.5 7.33398 -79.5 14.001s-42.833 14.167 -59.5 22.5s-30.5 16.666 -41.5 24.999s-19.167 15.5 -24.5 21.5c-9.33301 9.33301 -14.833 16.666 -16.5 21.999s-2.5 10.666 -2.5 15.999c0 10 4.5 19 13.5 27s18.833 12 29.5 12
c5.33301 0 10.666 -1.33301 15.999 -4s10 -5.66699 14 -9c4.66699 -5.33301 10.834 -11.833 18.501 -19.5s17.5 -15.167 29.5 -22.5s26.333 -14.333 43 -21s36.667 -11.334 60 -14.001v246l-11 3c-32.667 8 -61.834 17.5 -87.501 28.5s-47.334 24 -65.001 39
s-31.167 32.333 -40.5 52s-14 42.167 -14 67.5c0 24 4.5 46.833 13.5 68.5s22.5 40.667 40.5 57s40.667 29.5 68 39.5s59.333 16 96 18v57zM477.005 174.002c0 30 -10.833 54.502 -32.5 73.502s-55.5 34.167 -101.5 45.5v-232c42 3.33301 74.833 14.166 98.5 32.499
s35.5 45.166 35.5 80.499zM137.005 504.004c0 -10.667 1.5 -20.999 4.5 -30.999s8.83301 -19.5 17.5 -28.5s21 -17.5 37 -25.5s37 -15.333 63 -22l13 -4v221c-28 -2 -50.667 -6.83301 -68 -14.5s-31 -16.834 -41 -27.501s-16.833 -22 -20.5 -34s-5.5 -23.333 -5.5 -34z" />
    <glyph glyph-name="percent" unicode="%" horiz-adv-x="949" 
d="M304 472c0 48 -8 85.833 -24 113.5s-38.667 41.5 -68 41.5c-30 0 -52.833 -13.833 -68.5 -41.5s-23.5 -65.5 -23.5 -113.5c0 -48.667 7.83301 -86.5 23.5 -113.5s38.5 -40.5 68.5 -40.5c29.333 0 52 13.5 68 40.5s24 64.833 24 113.5zM380 472
c0 -71.333 -15 -126.166 -45 -164.499s-71 -57.5 -123 -57.5s-93 19.167 -123 57.5s-45 93.166 -45 164.499s15 126.166 45 164.499s71 57.5 123 57.5s93 -19.167 123 -57.5s45 -93.166 45 -164.499zM829 205c0 48 -8 85.833 -24 113.5s-38.667 41.5 -68 41.5
c-30 0 -52.833 -13.833 -68.5 -41.5s-23.5 -65.5 -23.5 -113.5c0 -48.667 7.83301 -86.5 23.5 -113.5s38.5 -40.5 68.5 -40.5c29.333 0 52 13.5 68 40.5s24 64.833 24 113.5zM905 205c0 -71.333 -15 -126.166 -45 -164.499s-71 -57.5 -123 -57.5s-93 19.167 -123 57.5
s-45 93.166 -45 164.499s15 126.166 45 164.499s71 57.5 123 57.5s93 -19.167 123 -57.5s45 -93.166 45 -164.499zM598 671c6.66699 14 16.333 20.999 29 20.999c12 0 22.167 -3.16699 30.5 -9.5s12.5 -13.166 12.5 -20.499c0 -3.33301 -0.333008 -6.66602 -1 -9.99902
s-2.33398 -7.66602 -5.00098 -12.999l-313 -633c-3.33301 -7.33301 -7.33301 -13 -12 -17s-11.667 -6 -21 -6c-11.333 0 -20.833 3 -28.5 9s-11.5 12.667 -11.5 20c0 3.33301 0.333008 6.66602 1 9.99902s2.33398 7.66602 5.00098 12.999z" />
    <glyph glyph-name="ampersand" unicode="&#x26;" horiz-adv-x="678" 
d="M399 559c0 8.66699 -1.50098 17.667 -4.50098 27s-8 18 -15 26s-16.167 14.5 -27.5 19.5s-25.333 7.5 -42 7.5c-30 0 -52.5 -8.5 -67.5 -25.5s-22.5 -38.167 -22.5 -63.5c0 -19.333 5.33301 -38.833 16 -58.5s23.334 -39.167 38.001 -58.5
c17.333 8.66699 33.5 17.5 48.5 26.5s28.167 18.5 39.5 28.5s20.333 20.833 27 32.5s10 24.5 10 38.5zM242.999 342c-32.667 -19.333 -59.335 -40.667 -80.002 -64s-31 -53.333 -31 -90c0 -20.667 3.66699 -39.167 11 -55.5s17.333 -30 30 -41s27.834 -19.333 45.501 -25
s36.834 -8.5 57.501 -8.5c34 0 64.5 7.33301 91.5 22s49.167 32.667 66.5 54c-30.667 30 -62.667 63.167 -96 99.5s-65 72.5 -95 108.5zM645.998 56.999c7.33301 -6 11.999 -11.001 13.999 -15.001s3 -8.33301 3 -13c0 -12 -4.66699 -22.5 -14 -31.5
s-19.333 -13.5 -30 -13.5c-5.33301 0 -10.333 1.33301 -15 4s-8.33398 5 -11.001 7l-29 23.5l-25 20.5l-23.5 20.5l-25.5 22.5c-28 -30 -60.167 -53.833 -96.5 -71.5s-76.833 -26.5 -121.5 -26.5c-37.333 0 -70 5.33301 -98 16s-51.5 25.167 -70.5 43.5
s-33.333 39.833 -43 64.5s-14.5 51 -14.5 79c0 25.333 3.83301 48.333 11.5 69s18.334 39.5 32.001 56.5s30 32.5 49 46.5s39.833 27 62.5 39c-21.333 28 -36.833 53.333 -46.5 76s-14.5 46.334 -14.5 71.001c0 24 4.16699 45.667 12.5 65s20 35.833 35 49.5
s32.667 24 53 31s42.833 10.5 67.5 10.5c30.667 0 56.5 -4.16699 77.5 -12.5s38 -19.166 51 -32.499s22.5 -28.166 28.5 -44.499s9 -32.5 9 -48.5c0 -24 -4.16699 -44.833 -12.5 -62.5s-19.666 -33.667 -33.999 -48s-31.166 -27.333 -50.499 -39s-40 -22.834 -62 -33.501
l77 -88c26 -28.667 56.667 -59.334 92 -92.001c4.66699 7.33301 9 15.5 13 24.5s7.5 18 10.5 27s5.66699 17.333 8 25s4.16602 13.5 5.49902 17.5c4 18 15.333 27 34 27c8.66699 0 17.667 -2.33301 27 -7s14 -12 14 -22c0 -4.66699 -0.5 -9.16699 -1.5 -13.5l-3.5 -14.5
c-2 -9.33301 -7.5 -25.333 -16.5 -48s-20.5 -45.667 -34.5 -69l46 -40z" />
    <glyph glyph-name="quotesingle" unicode="'" horiz-adv-x="198" 
d="M53 621v39c0 15.333 3.83301 26 11.5 32s19.167 9 34.5 9s26.833 -3 34.5 -9s11.5 -16.667 11.5 -32v-39l-9 -127c-1.33301 -13.333 -5 -22.166 -11 -26.499s-15 -6.5 -27 -6.5c-12.667 0 -21.5 2.16699 -26.5 6.5s-8.16699 13.166 -9.5 26.499z" />
    <glyph glyph-name="parenleft" unicode="(" horiz-adv-x="378" 
d="M154 311c0 -34 3.33301 -67.834 10 -101.501s17.5 -67.167 32.5 -100.5s35 -66.333 60 -99s56.167 -64.334 93.5 -95.001c6.66699 -5.33301 10.834 -10 12.501 -14s2.5 -7.66699 2.5 -11c0 -9.33301 -3.33301 -17.666 -10 -24.999s-14.667 -11 -24 -11
c-5.33301 0 -10.5 1.16699 -15.5 3.5s-10.5 5.16602 -16.5 8.49902c-32 20.667 -62.167 45.834 -90.5 75.501s-53.333 63.334 -75 101.001s-38.667 79 -51 124s-18.5 93.167 -18.5 144.5s6.16699 99.666 18.5 144.999s29.333 86.833 51 124.5s46.667 71.334 75 101.001
s58.5 55.167 90.5 76.5c6 3.33301 11.5 6.16602 16.5 8.49902s10.167 3.5 15.5 3.5c9.33301 0 17.333 -3.66699 24 -11s10 -15.666 10 -24.999c0 -3.33301 -0.833008 -7 -2.5 -11s-5.83398 -8.66699 -12.501 -14c-37.333 -31.333 -68.5 -63.333 -93.5 -96
s-45 -65.667 -60 -99s-25.833 -67 -32.5 -101s-10 -68 -10 -102z" />
    <glyph glyph-name="parenright" unicode=")" horiz-adv-x="378" 
d="M224 311c0 34 -3.33301 68.001 -10 102.001s-17.5 67.667 -32.5 101s-35.167 66.333 -60.5 99s-56.333 64.667 -93 96c-6.66699 5.33301 -10.834 10 -12.501 14s-2.5 7.66699 -2.5 11c0 9.33301 3.33301 17.666 10 24.999s14.667 11 24 11
c5.33301 0 10.5 -1.16699 15.5 -3.5s10.5 -5.16602 16.5 -8.49902c32 -21.333 62.167 -46.833 90.5 -76.5s53.333 -63.334 75 -101.001s38.667 -79.167 51 -124.5s18.5 -93.666 18.5 -144.999s-6.16699 -99.5 -18.5 -144.5s-29.333 -86.333 -51 -124
s-46.667 -71.334 -75 -101.001s-58.5 -54.834 -90.5 -75.501c-6 -3.33301 -11.5 -6.16602 -16.5 -8.49902s-10.167 -3.5 -15.5 -3.5c-9.33301 0 -17.333 3.66699 -24 11s-10 15.666 -10 24.999c0 3.33301 0.833008 7 2.5 11s5.83398 8.66699 12.501 14
c36.667 30.667 67.667 62.334 93 95.001s45.5 65.667 60.5 99s25.833 66.833 32.5 100.5s10 67.5 10 101.5z" />
    <glyph glyph-name="asterisk" unicode="*" horiz-adv-x="388" 
d="M163 574l-0.000976562 107c0 11.333 2.66699 18.833 8 22.5s13 5.5 23 5.5c10.667 0 18.5 -1.83301 23.5 -5.5s7.5 -11.167 7.5 -22.5v-107l98 35c5.33301 2.66699 10.333 4 15 4c9.33301 0 17 -7.33301 23 -22c3.33301 -8 5 -14.333 5 -19
c0 -9.33301 -6.66699 -16 -20 -20l-105 -35l68 -88c5.33301 -7.33301 8 -13 8 -17c0 -4.66699 -1.83301 -8.66699 -5.5 -12s-8.16699 -7 -13.5 -11c-7.33301 -5.33301 -14 -8 -20 -8c-8 0 -15.333 5 -22 15l-62 86l-62 -86c-7.33301 -10 -14.666 -15 -21.999 -15
c-6 0 -12.667 2.66699 -20 8c-5.33301 4 -9.83301 7.66699 -13.5 11s-5.5 7.33301 -5.5 12c0 4 2.66699 9.66699 8 17l68 88l-105 35c-13.333 4 -20 10.667 -20 20c0 4.66699 1.66699 11 5 19c6 14.667 13.667 22 23 22c4.66699 0 9.66699 -1.33301 15 -4z" />
    <glyph glyph-name="plus" unicode="+" horiz-adv-x="610" 
d="M114 301c-13.333 0 -22.666 3.5 -27.999 10.5s-8 16.5 -8 28.5s2.66699 21.333 8 28s14.666 10 27.999 10h151v161c0 14.667 3.33301 24.667 10 30s16.334 8 29.001 8c13.333 0 23.333 -2.66699 30 -8s10 -15.333 10 -30v-161h152c13.333 0 22.666 -3.33301 27.999 -10
s8 -16 8 -28s-2.66699 -21.5 -8 -28.5s-14.666 -10.5 -27.999 -10.5h-152v-160c0 -14.667 -3.33301 -24.667 -10 -30s-16.667 -8 -30 -8c-12.667 0 -22.334 2.66699 -29.001 8s-10 15.333 -10 30v160h-151z" />
    <glyph glyph-name="comma" unicode="," horiz-adv-x="205" 
d="M105 -107c-4.66699 -5.33301 -8.83008 -8.5 -12.4971 -9.5s-6.83398 -1.5 -9.50098 -1.5c-8.66699 0 -16.167 2.33301 -22.5 7s-9.5 10.667 -9.5 18c0 3.33301 0.5 6.83301 1.5 10.5s4.16699 8.83398 9.5 15.501c7.33301 9.33301 14.666 19.666 21.999 30.999
s11.666 24 12.999 38c-14.667 1.33301 -26.5 6.83301 -35.5 16.5s-13.5 21.5 -13.5 35.5c0 18.667 5.33301 33.167 16 43.5s24.667 15.5 42 15.5s31.833 -6 43.5 -18s17.5 -30 17.5 -54c0 -20 -2.83301 -38.5 -8.5 -55.5s-12.167 -32 -19.5 -45s-14.333 -23.667 -21 -32
s-11 -13.5 -13 -15.5z" />
    <glyph glyph-name="hyphen" unicode="-" horiz-adv-x="284" 
d="M62 215c-14 0 -23.833 3.83301 -29.5 11.5s-8.5 18.167 -8.5 31.5s2.83301 23.5 8.5 30.5s15.5 10.5 29.5 10.5h160c14 0 23.833 -3.5 29.5 -10.5s8.5 -17.167 8.5 -30.5s-2.83301 -23.833 -8.5 -31.5s-15.5 -11.5 -29.5 -11.5h-160z" />
    <glyph glyph-name="period" unicode="." horiz-adv-x="213" 
d="M46 52c0 16 6 30.167 18 42.5s26 18.5 42 18.5s30.167 -6.16699 42.5 -18.5s18.5 -26.5 18.5 -42.5s-6.16699 -30 -18.5 -42s-26.5 -18 -42.5 -18s-30 6 -42 18s-18 26 -18 42z" />
    <glyph glyph-name="slash" unicode="/" horiz-adv-x="454" 
d="M364 678c4 7.33301 8.33301 13 13 17s11 6 19 6c13.333 0 24 -3.16699 32 -9.5s12 -14.166 12 -23.499c0 -8.66699 -3.66699 -19.334 -11 -32.001l-339 -621c-4 -7.33301 -8.33301 -13 -13 -17s-11 -6 -19 -6c-13.333 0 -24 3.16699 -32 9.5s-12 14.166 -12 23.499
c0 8.66699 3.66699 19.334 11 32.001z" />
    <glyph glyph-name="zero" unicode="0" horiz-adv-x="610" 
d="M476 344c0 41.333 -3.66699 79 -11 113s-18.166 63 -32.499 87s-32.166 42.667 -53.499 56s-46 20 -74 20s-52.667 -6.66699 -74 -20s-39.166 -32 -53.499 -56s-25.166 -53 -32.499 -87s-11 -71.667 -11 -113c0 -42 3.66699 -80.333 11 -115
s18.166 -64.334 32.499 -89.001s32.166 -43.667 53.499 -57s46 -20 74 -20s52.667 6.66699 74 20s39.166 32.333 53.499 57s25.166 54.334 32.499 89.001s11 73 11 115zM563 344c0 -56 -5.83203 -106.167 -17.499 -150.5s-28.5 -81.666 -50.5 -111.999s-49 -53.5 -81 -69.5
s-68.333 -24 -109 -24s-77 8 -109 24s-59 39.167 -81 69.5s-38.833 67.666 -50.5 111.999s-17.5 94.5 -17.5 150.5c0 112.667 22.667 199.167 68 259.5s108.666 90.5 189.999 90.5c82 0 145.5 -30.167 190.5 -90.5s67.5 -146.833 67.5 -259.5z" />
    <glyph glyph-name="one" unicode="1" horiz-adv-x="610" 
d="M154 0c-13.333 0 -22.3359 3.16406 -27.0029 9.49707s-7 15.166 -7 26.499s2.33301 20.166 7 26.499s13.667 9.5 27 9.5h129v504c-18.667 -14 -36.834 -26.167 -54.501 -36.5s-30.167 -17.166 -37.5 -20.499s-13.166 -5.66602 -17.499 -6.99902s-9.16602 -2 -14.499 -2
c-11.333 0 -19.833 5 -25.5 15s-8.5 19.667 -8.5 29c0 6.66699 1.83301 12.334 5.5 17.001s10.834 9.66699 21.501 15c8 4 17.167 8.83301 27.5 14.5s21 12 32 19s21.833 14.333 32.5 22s20.334 15.5 29.001 23.5c7.33301 6 14 10.667 20 14s15.333 5 28 5h4
c13.333 0 23.833 -2.83301 31.5 -8.5s11.5 -16.167 11.5 -31.5v-572h129c13.333 0 22.333 -3.16699 27 -9.5s7 -15.166 7 -26.499s-2.33301 -20.166 -7 -26.499s-13.667 -9.5 -27 -9.5h-343z" />
    <glyph glyph-name="two" unicode="2" horiz-adv-x="610" 
d="M158 518c-5.33301 -10.667 -10.6709 -17.332 -16.0039 -19.999s-11.666 -4 -18.999 -4c-10 0 -19.667 3 -29 9s-14 14.667 -14 26c0 5.33301 0.666992 11.333 2 18s4.33301 14.334 9 23.001s12 20 22 34s23.667 27.667 41 41s38.833 24.833 64.5 34.5
s56.167 14.5 91.5 14.5c32 0 60.833 -4.33301 86.5 -13s47.834 -21.334 66.501 -38.001s33 -37.334 43 -62.001s15 -53.334 15 -86.001c0 -22.667 -3.66699 -44.834 -11 -66.501s-17.5 -43 -30.5 -64s-28.167 -41.833 -45.5 -62.5s-36.333 -41.334 -57 -62.001l-44.5 -44
l-47.5 -45l-47 -42.5c-15.333 -13.667 -29.666 -25.834 -42.999 -36.501h307c13.333 0 22.333 -3.16699 27 -9.5s7 -15.166 7 -26.499s-2.33301 -20.166 -7 -26.499s-13.667 -9.5 -27 -9.5h-377c-17.333 0 -29.333 3.66699 -36 11s-10 18.333 -10 33c0 11.333 2 20.5 6 27.5
s10.667 14.167 20 21.5l43 36.5l56 50l55.5 51.5c17.667 16.667 31.5 30.334 41.5 41.001l52.5 55.5c16.333 17.667 30.5 35.334 42.5 53.001s21.5 35.5 28.5 53.5s10.5 37.333 10.5 58c0 44 -12 76.833 -36 98.5s-56 32.5 -96 32.5c-24 0 -44.333 -4 -61 -12
s-30.667 -17.5 -42 -28.5s-20.166 -22.5 -26.499 -34.5z" />
    <glyph glyph-name="three" unicode="3" horiz-adv-x="610" 
d="M66 95c-4.66699 7.33301 -8.66797 14.5078 -12.001 21.5078s-5 15.167 -5 24.5c0 12 5.16699 21.667 15.5 29s20.5 11 30.5 11c7.33301 0 13.666 -1.83301 18.999 -5.5s11 -10.5 17 -20.5c4.66699 -8 11 -17.5 19 -28.5s18 -21.333 30 -31s26.833 -17.834 44.5 -24.501
s38.834 -10 63.501 -10c50 0 88.333 12 115 36s40 58 40 102c0 81.333 -54 122 -162 122h-10c-13.333 0 -22.333 3.16699 -27 9.5s-7 15.166 -7 26.499s2.33301 20.166 7 26.499s13.667 9.5 27 9.5h11c49.333 0 85.333 11.5 108 34.5s34 51.5 34 85.5
c0 36 -11 63.167 -33 81.5s-53 27.5 -93 27.5c-22.667 0 -42.167 -3.16699 -58.5 -9.5s-30.5 -14.333 -42.5 -24s-22.167 -19.834 -30.5 -30.501l-21.5 -28c-5.33301 -7.33301 -10.333 -12.5 -15 -15.5s-10 -4.5 -16 -4.5c-12.667 0 -23.167 3.5 -31.5 10.5
s-12.5 15.5 -12.5 25.5c0 8.66699 1.83301 16.334 5.5 23.001s7.16699 12.667 10.5 18c4.66699 6 12.167 15 22.5 27s24.166 23.833 41.499 35.5s38.333 22 63 31s53.667 13.5 87 13.5c68 0 120 -15.333 156 -46s54 -73.334 54 -128.001
c0 -34.667 -8.5 -65.834 -25.5 -93.501s-41.167 -48.5 -72.5 -62.5c32.667 -12.667 60.667 -32.5 84 -59.5s35 -63.167 35 -108.5c0 -34 -6.16699 -64 -18.5 -90s-29.333 -47.667 -51 -65s-47 -30.5 -76 -39.5s-60.167 -13.5 -93.5 -13.5c-38 0 -70.167 4.16699 -96.5 12.5
s-48.166 18.166 -65.499 29.499s-31.166 23.166 -41.499 35.499s-17.833 22.166 -22.5 29.499z" />
    <glyph glyph-name="four" unicode="4" horiz-adv-x="610" 
d="M383 221v347l-240 -347h240zM363 657c6.66699 9.33301 14.165 16.167 22.498 20.5s19.833 6.5 34.5 6.5c13.333 0 23.833 -2.83301 31.5 -8.5s11.5 -16.167 11.5 -31.5v-423h54c13.333 0 22.333 -2.66699 27 -8s7 -13.666 7 -24.999s-2.33301 -20.333 -7 -27
s-13.667 -10 -27 -10h-54v-118c0 -15.333 -3.66699 -25.833 -11 -31.5s-17.666 -8.5 -30.999 -8.5s-23 2.83301 -29 8.5s-9 16.167 -9 31.5v118h-279c-17.333 0 -29.666 4.16699 -36.999 12.5s-11 19.166 -11 32.499c0 8.66699 1.66699 16.5 5 23.5s8.33301 15.167 15 24.5z
" />
    <glyph glyph-name="five" unicode="5" horiz-adv-x="610" 
d="M181 349c-5.33301 -4 -11.333 -8.00098 -18 -12.001s-15 -6 -25 -6c-30.667 0 -46 12.667 -46 38v5l18 263c1.33301 15.333 5.83301 26.333 13.5 33s18.5 10 32.5 10h309c13.333 0 22.333 -3.33301 27 -10s7 -15.667 7 -27s-2.33301 -20.5 -7 -27.5
s-13.667 -10.5 -27 -10.5h-284l-12 -194c2.66699 3.33301 8 8 16 14s18 12 30 18s26.167 11.167 42.5 15.5s34.166 6.5 53.499 6.5c38 0 70.833 -6 98.5 -18s50.667 -28.5 69 -49.5s31.833 -45.833 40.5 -74.5s13 -59.334 13 -92.001c0 -40 -5.83301 -75.167 -17.5 -105.5
s-28 -55.666 -49 -75.999s-45.667 -35.666 -74 -45.999s-59.5 -15.5 -93.5 -15.5c-34.667 0 -64 3.83301 -88 11.5s-44.167 16.834 -60.5 27.501s-29.166 21.667 -38.499 33s-16.333 20.666 -21 27.999s-8.5 14.833 -11.5 22.5s-4.5 16.167 -4.5 25.5c0 12 5 21.167 15 27.5
s20 9.5 30 9.5c7.33301 0 13.833 -1.66699 19.5 -5s11.167 -10.333 16.5 -21c2.66699 -6 6.5 -13.833 11.5 -23.5s12.667 -19.334 23 -29.001s23.833 -18 40.5 -25s37.667 -10.5 63 -10.5c52 0 90.5 15.833 115.5 47.5s37.5 72.834 37.5 123.501
c0 55.333 -13.5 96.666 -40.5 123.999s-61.833 41 -104.5 41c-16 0 -30.833 -2 -44.5 -6s-25.667 -8.66699 -36 -14s-18.833 -10.666 -25.5 -15.999z" />
    <glyph glyph-name="six" unicode="6" horiz-adv-x="610" 
d="M463 225c0 22.667 -2.66797 44.166 -8.00098 64.499s-14 38 -26 53s-27.5 26.833 -46.5 35.5s-42.167 13 -69.5 13c-26.667 0 -49.667 -4.66699 -69 -14s-35.166 -21.833 -47.499 -37.5s-21.333 -33.667 -27 -54s-8.5 -41.5 -8.5 -63.5c0 -21.333 3 -41.833 9 -61.5
s15.333 -37.167 28 -52.5s28.5 -27.666 47.5 -36.999s41.5 -14 67.5 -14s48.5 4.66699 67.5 14s34.667 21.833 47 37.5s21.333 33.5 27 53.5s8.5 41 8.5 63zM330.999 622.999c-50 0 -90.165 -19.833 -120.498 -59.5s-46.833 -101.5 -49.5 -185.5
c13.333 22.667 34.5 42.167 63.5 58.5s62.167 24.5 99.5 24.5c34.667 0 65.834 -5.66699 93.501 -17s51.167 -27.166 70.5 -47.499s34.166 -45 44.499 -74s15.5 -61.167 15.5 -96.5c0 -34.667 -5.33301 -66.5 -16 -95.5s-26 -54 -46 -75s-44.333 -37.5 -73 -49.5
s-61 -18 -97 -18c-84 0 -145.833 26.5 -185.5 79.5s-59.5 131.833 -59.5 236.5c0 50 3.66699 98.5 11 145.5s20.833 88.667 40.5 125s46.5 65.333 80.5 87s78 32.5 132 32.5c26 0 48.833 -2.66699 68.5 -8s36.5 -11.333 50.5 -18s25 -13.5 33 -20.5s13 -11.833 15 -14.5
c5.33301 -7.33301 9.16602 -13.333 11.499 -18s3.5 -10 3.5 -16c0 -10.667 -3.33301 -19.167 -10 -25.5s-15.667 -9.5 -27 -9.5c-8.66699 0 -16.5 2.5 -23.5 7.5s-14.833 10.167 -23.5 15.5c-14 9.33301 -28.333 17.666 -43 24.999s-34.334 11 -59.001 11z" />
    <glyph glyph-name="seven" unicode="7" horiz-adv-x="610" 
d="M274 14c-2.66699 -6 -6.16504 -11.001 -10.498 -15.001s-10.5 -6 -18.5 -6c-11.333 0 -22.333 2.5 -33 7.5s-16 12.833 -16 23.5c0 5.33301 0.833008 11 2.5 17s3.5 11.667 5.5 17c36 92.667 75.667 183.334 119 272.001s90.666 179.667 141.999 273h-321v-59
c0 -13.333 -3.33301 -22.333 -10 -27s-16 -7 -28 -7s-21.333 2.33301 -28 7s-10 13.667 -10 27v93c0 15.333 4.16699 26.333 12.5 33s19.5 10 33.5 10h397c30.667 0 46 -15 46 -45c0 -8 -1.33301 -16.167 -4 -24.5s-7.66699 -18.833 -15 -31.5l-67.5 -129l-69 -140
l-67 -146.5c-21.667 -49.667 -41.834 -99.5 -60.501 -149.5z" />
    <glyph glyph-name="eight" unicode="8" horiz-adv-x="610" 
d="M445 509c0 13.333 -2.33008 27 -6.99707 41s-12.5 26.5 -23.5 37.5s-25.333 20 -43 27s-39.5 10.5 -65.5 10.5s-48 -3.5 -66 -10.5s-32.333 -16 -43 -27s-18.334 -23.5 -23.001 -37.5s-7 -27.667 -7 -41c0 -19.333 4.16699 -36.333 12.5 -51
s19.166 -26.834 32.499 -36.501s28.333 -16.834 45 -21.501s33 -7 49 -7s32.333 2.33301 49 7s31.667 11.834 45 21.501s24.166 21.834 32.499 36.501s12.5 31.667 12.5 51zM467.003 191c0 24 -4.66699 44.333 -14 61s-21.5 30.5 -36.5 41.5s-32.167 19 -51.5 24
s-39 7.5 -59 7.5s-39.667 -2.5 -59 -7.5s-36.666 -13 -51.999 -24s-27.666 -24.833 -36.999 -41.5s-14 -37 -14 -61s4.66699 -44.5 14 -61.5s21.666 -30.833 36.999 -41.5s32.666 -18.334 51.999 -23.001s39 -7 59 -7c19.333 0 38.5 2.33301 57.5 7
s36.167 12.334 51.5 23.001s27.833 24.5 37.5 41.5s14.5 37.5 14.5 61.5zM555.003 188c0 -24 -4.33398 -47.834 -13.001 -71.501s-22.667 -45 -42 -64s-44.833 -34.5 -76.5 -46.5s-70.834 -18 -117.501 -18c-47.333 0 -86.833 6 -118.5 18s-57.334 27.5 -77.001 46.5
s-33.667 40.333 -42 64s-12.5 47.5 -12.5 71.5c0 22 3.33301 42.333 10 61s15.834 35.167 27.501 49.5s25.334 26.833 41.001 37.5s32.5 19 50.5 25c-27.333 12.667 -51.166 31.5 -71.499 56.5s-30.5 55.5 -30.5 91.5c0 34 6.83301 62.833 20.5 86.5s31.167 42.667 52.5 57
s45.333 24.833 72 31.5s52.667 10 78 10c26 0 52.167 -3.33301 78.5 -10s50.166 -17.167 71.499 -31.5s38.833 -33.333 52.5 -57s20.5 -52.5 20.5 -86.5c0 -35.333 -10.167 -65.666 -30.5 -90.999s-44.166 -44.333 -71.499 -57c36 -12 66.333 -32.5 91 -61.5
s37 -66.167 37 -111.5z" />
    <glyph glyph-name="nine" unicode="9" horiz-adv-x="610" 
d="M146 456c0 -22.667 2.66797 -44.166 8.00098 -64.499s14 -38 26 -53s27.5 -26.833 46.5 -35.5s42.167 -13 69.5 -13c26.667 0 49.667 4.66699 69 14s35.166 21.833 47.499 37.5s21.5 33.667 27.5 54s9 41.5 9 63.5c0 21.333 -3 42 -9 62s-15.333 37.667 -28 53
s-28.667 27.666 -48 36.999s-42 14 -68 14s-48.5 -4.66699 -67.5 -14s-34.667 -21.833 -47 -37.5s-21.333 -33.667 -27 -54s-8.5 -41.5 -8.5 -63.5zM279.001 59.001c50 0 90.001 19.668 120.001 59.001s46.333 101 49 185c-13.333 -22.667 -34.5 -42.167 -63.5 -58.5
s-62.167 -24.5 -99.5 -24.5c-34.667 0 -65.834 5.5 -93.501 16.5s-51.167 26.833 -70.5 47.5s-34.166 45.5 -44.499 74.5s-15.5 61.167 -15.5 96.5c0 34.667 5.33301 66.5 16 95.5s26.167 54.167 46.5 75.5s45.166 38 74.499 50s62.333 18 99 18
c82 0 142.667 -26.5 182 -79.5s59 -131.833 59 -236.5c0 -50 -3.66699 -98.5 -11 -145.5s-20.833 -88.667 -40.5 -125s-46.5 -65.333 -80.5 -87s-78 -32.5 -132 -32.5c-26 0 -48.667 2.16699 -68 6.5s-35.666 9.33301 -48.999 15s-23.833 11.334 -31.5 17.001l-15.5 11.5
c-12 11.333 -18 22.666 -18 33.999c0 10.667 4.16699 20.167 12.5 28.5s17.166 12.5 26.499 12.5c10.667 0 19.667 -2.83301 27 -8.5l25 -18.5c9.33301 -6.66699 21.333 -12.834 36 -18.501s34.667 -8.5 60 -8.5z" />
    <glyph glyph-name="colon" unicode=":" horiz-adv-x="213" 
d="M46 440c0 16 6 30.167 18 42.5s26 18.5 42 18.5s30.167 -6.16699 42.5 -18.5s18.5 -26.5 18.5 -42.5s-6.16699 -30 -18.5 -42s-26.5 -18 -42.5 -18s-30 6 -42 18s-18 26 -18 42zM46 52c0 16 6 30.167 18 42.5s26 18.5 42 18.5s30.167 -6.16699 42.5 -18.5
s18.5 -26.5 18.5 -42.5s-6.16699 -30 -18.5 -42s-26.5 -18 -42.5 -18s-30 6 -42 18s-18 26 -18 42z" />
    <glyph glyph-name="semicolon" unicode=";" horiz-adv-x="207" 
d="M107 -107c-4.66699 -5.33301 -8.83008 -8.5 -12.4971 -9.5s-6.83398 -1.5 -9.50098 -1.5c-8.66699 0 -16.167 2.33301 -22.5 7s-9.5 10.667 -9.5 18c0 3.33301 0.5 6.83301 1.5 10.5s4.16699 8.83398 9.5 15.501c7.33301 9.33301 14.666 19.666 21.999 30.999
s11.666 24 12.999 38c-14.667 1.33301 -26.5 6.83301 -35.5 16.5s-13.5 21.5 -13.5 35.5c0 18.667 5.33301 33.167 16 43.5s24.667 15.5 42 15.5s31.833 -6 43.5 -18s17.5 -30 17.5 -54c0 -20 -2.83301 -38.5 -8.5 -55.5s-12.167 -32 -19.5 -45s-14.333 -23.667 -21 -32
s-11 -13.5 -13 -15.5zM48.0039 440c0 16 6 30.167 18 42.5s26 18.5 42 18.5s30.167 -6.16699 42.5 -18.5s18.5 -26.5 18.5 -42.5s-6.16699 -30 -18.5 -42s-26.5 -18 -42.5 -18s-30 6 -42 18s-18 26 -18 42z" />
    <glyph glyph-name="less" unicode="&#x3c;" horiz-adv-x="610" 
d="M96 298c-10 5.33301 -16.5 11.333 -19.5 18s-4.5 14.667 -4.5 24s1.5 17.166 4.5 23.499s9.5 12.166 19.5 17.499l380 189c6 3.33301 10.667 5.33301 14 6s7 1 11 1c9.33301 0 17.666 -4.5 24.999 -13.5s11 -19.5 11 -31.5c0 -11.333 -7.33301 -20.666 -22 -27.999
l-336 -165l336 -163c14.667 -7.33301 22 -16.666 22 -27.999c0 -12 -3.66699 -22.5 -11 -31.5s-15.666 -13.5 -24.999 -13.5c-4 0 -7.66699 0.333008 -11 1s-8 2.66699 -14 6z" />
    <glyph glyph-name="equal" unicode="=" horiz-adv-x="610" 
d="M114 199c-13.333 0 -22.666 3.5 -27.999 10.5s-8 16.5 -8 28.5s2.66699 21.333 8 28s14.666 10 27.999 10h382c13.333 0 22.666 -3.33301 27.999 -10s8 -16 8 -28s-2.66699 -21.5 -8 -28.5s-14.666 -10.5 -27.999 -10.5h-382zM114 403
c-13.333 0 -22.666 3.5 -27.999 10.5s-8 16.5 -8 28.5s2.66699 21.333 8 28s14.666 10 27.999 10h382c13.333 0 22.666 -3.33301 27.999 -10s8 -16 8 -28s-2.66699 -21.5 -8 -28.5s-14.666 -10.5 -27.999 -10.5h-382z" />
    <glyph glyph-name="greater" unicode="&#x3e;" horiz-adv-x="610" 
d="M133 110c-6 -3.33301 -10.667 -5.33301 -14 -6s-7 -1 -11 -1c-9.33301 0 -17.666 4.5 -24.999 13.5s-11 19.5 -11 31.5c0 11.333 7.33301 20.666 22 27.999l336 163l-336 165c-14.667 7.33301 -22 16.666 -22 27.999c0 12 3.66699 22.5 11 31.5s15.666 13.5 24.999 13.5
c4 0 7.66699 -0.333008 11 -1s8 -2.66699 14 -6l380 -189c10 -5.33301 16.5 -11.166 19.5 -17.499s4.5 -14.166 4.5 -23.499s-1.5 -17.333 -4.5 -24s-9.5 -12.667 -19.5 -18z" />
    <glyph glyph-name="question" unicode="?" horiz-adv-x="531" 
d="M53 586c4 7.33301 10.502 18.0039 19.502 32.0039s21.667 27.833 38 41.5s37.166 25.5 62.499 35.5s56.333 15 93 15c32 0 61.167 -4.33301 87.5 -13s49 -21.167 68 -37.5s33.833 -36.5 44.5 -60.5s16 -51.333 16 -82c0 -24.667 -3.33301 -46.5 -10 -65.5
s-15.5 -35.833 -26.5 -50.5s-23.333 -27.834 -37 -39.501s-27.5 -22.5 -41.5 -32.5c-15.333 -11.333 -27.833 -21.5 -37.5 -30.5s-17.167 -17.5 -22.5 -25.5s-9 -16.167 -11 -24.5s-3 -17.833 -3 -28.5c0 -14.667 -3.33301 -24.667 -10 -30s-16.667 -8 -30 -8
c-12.667 0 -22.334 2.66699 -29.001 8s-10 15.333 -10 30v11c0 19.333 2.66699 36.333 8 51s12.333 27.667 21 39s18.5 21.666 29.5 30.999s22.5 18.333 34.5 27c10.667 8 21.167 16.333 31.5 25s19.5 18.167 27.5 28.5s14.333 22.166 19 35.499s7 29 7 47
c0 39.333 -11.5 69.333 -34.5 90s-55.167 31 -96.5 31c-26 0 -47.5 -4 -64.5 -12s-30.833 -17.5 -41.5 -28.5s-18.5 -22.333 -23.5 -34s-8.83301 -21.167 -11.5 -28.5c-4 -12 -9 -19.5 -15 -22.5s-13.333 -4.5 -22 -4.5c-11.333 0 -21.333 3 -30 9s-13 14.667 -13 26
c0 5.33301 0.833008 11.666 2.5 18.999s5.16699 16 10.5 26zM198.002 47.0039c0 15.333 5.5 28.5 16.5 39.5s23.833 16.5 38.5 16.5c15.333 0 28.5 -5.5 39.5 -16.5s16.5 -24.167 16.5 -39.5c0 -14.667 -5.5 -27.5 -16.5 -38.5s-24.167 -16.5 -39.5 -16.5
c-14.667 0 -27.5 5.5 -38.5 16.5s-16.5 23.833 -16.5 38.5z" />
    <glyph glyph-name="at" unicode="@" horiz-adv-x="917" 
d="M564 213c0 20.667 -2.66699 40.668 -8 60.001s-13 36.166 -23 50.499s-22.5 25.833 -37.5 34.5s-31.833 13 -50.5 13c-21.333 0 -39.5 -4.16699 -54.5 -12.5s-27.333 -19.5 -37 -33.5s-16.834 -30.5 -21.501 -49.5s-7 -38.833 -7 -59.5s2.33301 -40.667 7 -60
s11.834 -36.333 21.501 -51s22 -26.5 37 -35.5s33.167 -13.5 54.5 -13.5c18.667 0 35.5 3.83301 50.5 11.5s27.5 18.5 37.5 32.5s17.667 30.667 23 50s8 40.333 8 63zM686 -180.999c-9.33301 -3.33301 -29.667 -9.00391 -61 -17.0039s-76.333 -12 -135 -12
c-62.667 0 -120.834 10 -174.501 30s-100.334 48.167 -140.001 84.5s-70.667 80.166 -93 131.499s-33.5 108 -33.5 170c0 60.667 10.333 116.834 31 168.501s49.334 96.334 86.001 134.001s80 67 130 88s104.333 31.5 163 31.5c62 0 118.167 -10.5 168.5 -31.5
s93.333 -49.167 129 -84.5s63.167 -76.166 82.5 -122.499s29 -94.5 29 -144.5c0 -54.667 -6.66699 -99 -20 -133s-30 -60.333 -50 -79s-41.5 -31.334 -64.5 -38.001s-43.833 -10 -62.5 -10c-30 0 -53.167 6.16699 -69.5 18.5s-27.166 29.5 -32.499 51.5
c-12.667 -21.333 -30.834 -38.333 -54.501 -51s-49.5 -19 -77.5 -19c-30 0 -57 5.66699 -81 17s-44.667 27.333 -62 48s-30.666 45.167 -39.999 73.5s-14 59.166 -14 92.499s4.66699 63.833 14 91.5s22.666 51.5 39.999 71.5s38 35.667 62 47s51 17 81 17
c17.333 0 32.833 -2.16699 46.5 -6.5s25.667 -10 36 -17s19 -14.667 26 -23s12.5 -16.166 16.5 -23.499v18c0 14 3.33301 23.667 10 29s16.334 8 29.001 8c13.333 0 23.333 -2.66699 30 -8s10 -15 10 -29v-292c0 -11.333 2.5 -21.166 7.5 -29.499s15.167 -12.5 30.5 -12.5
c12.667 0 25.334 2.83301 38.001 8.5s24 15.667 34 30s18.167 33.833 24.5 58.5s9.5 55.667 9.5 93c0 38.667 -7.5 76.5 -22.5 113.5s-36.5 69.667 -64.5 98s-62.167 51.166 -102.5 68.499s-85.833 26 -136.5 26c-47.333 0 -91 -8.5 -131 -25.5s-74.5 -40.833 -103.5 -71.5
s-51.667 -67.5 -68 -110.5s-24.5 -90.167 -24.5 -141.5s9 -97.666 27 -138.999s43.167 -76.666 75.5 -105.999s70.833 -52 115.5 -68s93.667 -24 147 -24c46 0 81.5 3.33301 106.5 10s41.833 11.334 50.5 14.001c6.66699 2 11.5 3.16699 14.5 3.5s6.5 0.5 10.5 0.5
c11.333 -0.666992 19.666 -6 24.999 -16s8 -18.667 8 -26c0 -9.33301 -2 -16.5 -6 -21.5s-10.667 -9.16699 -20 -12.5z" />
    <glyph glyph-name="A" unicode="A" horiz-adv-x="672" 
d="M71 -7c-12 0 -23.5029 3.16895 -34.5029 9.50195s-16.5 15.166 -16.5 26.499c0 2 0.333008 4.66699 1 8s2.33398 7.66602 5.00098 12.999l263 624c4 8 9.5 14.5 16.5 19.5s17.5 7.5 31.5 7.5c15.333 0 26.5 -2.5 33.5 -7.5s12.167 -11.5 15.5 -19.5l261 -622
c2.66699 -5.33301 4.16699 -9.5 4.5 -12.5s0.5 -5.83301 0.5 -8.5c0 -12 -5.5 -21.333 -16.5 -28s-22.833 -10 -35.5 -10c-9.33301 0 -16.666 2.5 -21.999 7.5s-9.66602 11.167 -12.999 18.5l-77 180h-306l-78 -181c-7.33301 -16.667 -18.333 -25 -33 -25zM335.997 585.002
l-123 -312h244z" />
    <glyph glyph-name="B" unicode="B" horiz-adv-x="642" 
d="M483 503c0 20 -3 37.1709 -9 51.5039s-16 26.166 -30 35.499s-32.5 16.166 -55.5 20.499s-51.5 6.5 -85.5 6.5h-134v-228h126c35.333 0 65 2.33301 89 7s43.333 11.667 58 21s25.167 21.166 31.5 35.499s9.5 31.166 9.5 50.499zM505 195.004
c0 20 -2.99902 37.5 -8.99902 52.5s-16.333 27.667 -31 38s-33.834 18 -57.501 23s-53.5 7.5 -89.5 7.5h-149v-239h161c63.333 0 108.333 9.66699 135 29s40 49 40 89zM306.001 694.004c92 0 159.5 -14.498 202.5 -43.498s64.5 -75.833 64.5 -140.5
c0 -34.667 -8.5 -64.667 -25.5 -90s-41.5 -45.333 -73.5 -60c42 -14.667 73 -36.834 93 -66.501s30 -62.5 30 -98.5c0 -66.667 -21.5 -115.834 -64.5 -147.501s-109.167 -47.5 -198.5 -47.5h-205c-14 0 -25.167 3.33301 -33.5 10s-12.5 17.667 -12.5 33v608
c0 15.333 4.16699 26.333 12.5 33s19.5 10 33.5 10h177z" />
    <glyph glyph-name="C" unicode="C" horiz-adv-x="696" 
d="M571 183c6 10.667 11.8369 18.501 17.5039 23.501s12.834 7.5 21.501 7.5c9.33301 0 19.333 -2.66699 30 -8s16 -15.333 16 -30c0 -13.333 -5.16699 -29.166 -15.5 -47.499s-21.5 -34.5 -33.5 -48.5c-4.66699 -5.33301 -12.834 -13.5 -24.501 -24.5
s-27 -21.833 -46 -32.5s-41.5 -20 -67.5 -28s-56 -12 -90 -12c-49.333 0 -94.166 8.66699 -134.499 26s-74.833 41.666 -103.5 72.999s-50.834 69.333 -66.501 114s-23.5 94.667 -23.5 150s7.83301 105.5 23.5 150.5s37.834 83.333 66.501 115s63.167 56.167 103.5 73.5
s85.166 26 134.499 26c32.667 0 61.667 -3.66699 87 -11s47 -15.833 65 -25.5s32.667 -19.667 44 -30s19.666 -18.5 24.999 -24.5c12 -14 23.5 -30.167 34.5 -48.5s16.5 -34.166 16.5 -47.499c0 -14.667 -5.5 -24.667 -16.5 -30s-21.167 -8 -30.5 -8
c-8.66699 0 -15.834 2.5 -21.501 7.5s-10.834 11.833 -15.501 20.5c-7.33301 13.333 -16.333 26.833 -27 40.5s-23.334 26.167 -38.001 37.5s-32 20.666 -52 27.999s-43.333 11 -70 11c-38 0 -71.5 -7 -100.5 -21s-53.5 -33.5 -73.5 -58.5s-35 -55 -45 -90
s-15 -73.5 -15 -115.5c0 -41.333 5 -79.5 15 -114.5s25 -65 45 -90s44.5 -44.5 73.5 -58.5s62.5 -21 100.5 -21c30 0 55.667 4.16699 77 12.5s39.333 18.666 54 30.999s26.667 25.5 36 39.5s17.333 26.667 24 38z" />
    <glyph glyph-name="D" unicode="D" horiz-adv-x="714" 
d="M569 346c0 46 -6.33203 86 -18.999 120s-30.334 62.167 -53.001 84.5s-50 39 -82 50s-67 16.5 -105 16.5h-138v-540h138c38.667 0 74 5.5 106 16.5s59.333 27.5 82 49.5s40.167 49.833 52.5 83.5s18.5 73.5 18.5 119.5zM130.001 0
c-14.667 0 -26.167 3.33105 -34.5 9.99805s-12.5 17.667 -12.5 33v608c0 15.333 4.16699 26.333 12.5 33s19.833 10 34.5 10h186c52 0 99.333 -7 142 -21s79.334 -35.167 110.001 -63.5s54.334 -64.333 71.001 -108s25 -95.5 25 -155.5
c0 -59.333 -8.33301 -110.666 -25 -153.999s-40.334 -79.166 -71.001 -107.499s-67.334 -49.5 -110.001 -63.5s-90 -21 -142 -21h-186z" />
    <glyph glyph-name="E" unicode="E" horiz-adv-x="603" 
d="M171 316v-238.997h354c13.333 0 22.833 -3.16699 28.5 -9.5s8.5 -15.833 8.5 -28.5s-2.83301 -22.334 -8.5 -29.001s-15.167 -10 -28.5 -10h-396c-14 0 -25.167 3.33301 -33.5 10s-12.5 17.667 -12.5 33v608c0 15.333 4.16699 26.333 12.5 33s19.5 10 33.5 10h396
c13.333 0 22.833 -3.16699 28.5 -9.5s8.5 -15.833 8.5 -28.5s-2.83301 -22.334 -8.5 -29.001s-15.167 -10 -28.5 -10h-354v-224h335c13.333 0 22.833 -3.16699 28.5 -9.5s8.5 -15.833 8.5 -28.5s-2.83301 -22.334 -8.5 -29.001s-15.167 -10 -28.5 -10h-335z" />
    <glyph glyph-name="F" unicode="F" horiz-adv-x="566" 
d="M83 651c0 15.333 4.16699 26.335 12.5 33.002s19.5 10 33.5 10h376c13.333 0 22.833 -3.16699 28.5 -9.5s8.5 -15.833 8.5 -28.5s-2.83301 -22.334 -8.5 -29.001s-15.167 -10 -28.5 -10h-334v-225h305c13.333 0 22.833 -3.16699 28.5 -9.5s8.5 -15.833 8.5 -28.5
s-2.83301 -22.334 -8.5 -29.001s-15.167 -10 -28.5 -10h-305v-281c0 -15.333 -3.83301 -26 -11.5 -32s-18.5 -9 -32.5 -9s-24.833 3 -32.5 9s-11.5 16.667 -11.5 32v617z" />
    <glyph glyph-name="G" unicode="G" horiz-adv-x="730" 
d="M608 622c12 -14 22.332 -28.3359 30.999 -43.0029s13 -28.667 13 -42c0 -7.33301 -1.66699 -13.333 -5 -18s-7.33301 -8.5 -12 -11.5s-9.66699 -5 -15 -6s-10.333 -1.5 -15 -1.5c-8.66699 0 -15.5 2.16699 -20.5 6.5s-10.833 11.833 -17.5 22.5
c-21.333 36 -46.666 62.167 -75.999 78.5s-64.333 24.5 -105 24.5c-36 0 -68.667 -6 -98 -18s-54.5 -30.167 -75.5 -54.5s-37.333 -54.666 -49 -90.999s-17.5 -78.833 -17.5 -127.5c0 -90.667 18.833 -159.834 56.5 -207.501s93.834 -71.5 168.501 -71.5
c20 0 42.667 2.66699 68 8s49.5 16 72.5 32s42.333 39 58 69s23.5 69.667 23.5 119h-173c-13.333 0 -22.833 3.33301 -28.5 10s-8.5 16.334 -8.5 29.001s2.83301 22.167 8.5 28.5s15.167 9.5 28.5 9.5h204c14 0 25.167 -3.33301 33.5 -10s12.5 -17.667 12.5 -33v-296
c0 -13.333 -3.33301 -22.5 -10 -27.5s-16 -7.5 -28 -7.5c-12.667 0 -22.167 2.5 -28.5 7.5s-9.5 14.167 -9.5 27.5v69c-8.66699 -11.333 -19.167 -23.666 -31.5 -36.999s-27.833 -25.666 -46.5 -36.999s-40.834 -20.833 -66.501 -28.5s-56.5 -11.5 -92.5 -11.5
c-48.667 0 -92 8.33301 -130 25s-70 40.5 -96 71.5s-45.833 68.5 -59.5 112.5s-20.5 93.667 -20.5 149c0 47.333 6.16699 93.333 18.5 138s32 84.167 59 118.5s61.667 61.833 104 82.5s93.5 31 153.5 31c44.667 0 86.5 -7.5 125.5 -22.5s71.167 -37.167 96.5 -66.5z" />
    <glyph glyph-name="H" unicode="H" horiz-adv-x="721" 
d="M83 660c0 15.333 4 26 12 32s19 9 33 9s24.833 -3 32.5 -9s11.5 -16.667 11.5 -32v-253h377v253c0 15.333 3.83301 26 11.5 32s18.5 9 32.5 9s25 -3 33 -9s12 -16.667 12 -32v-626c0 -15.333 -4 -26 -12 -32s-19 -9 -33 -9s-24.833 3 -32.5 9s-11.5 16.667 -11.5 32v296
h-377v-296c0 -15.333 -3.83301 -26 -11.5 -32s-18.5 -9 -32.5 -9s-25 3 -33 9s-12 16.667 -12 32v626z" />
    <glyph glyph-name="I" unicode="I" horiz-adv-x="254" 
d="M83 660c0 15.333 3.83301 26 11.5 32s18.5 9 32.5 9s24.833 -3 32.5 -9s11.5 -16.667 11.5 -32v-626c0 -15.333 -3.83301 -26 -11.5 -32s-18.5 -9 -32.5 -9s-24.833 3 -32.5 9s-11.5 16.667 -11.5 32v626z" />
    <glyph glyph-name="J" unicode="J" horiz-adv-x="537" 
d="M245 59c47.333 0 80.501 13.502 99.501 40.502s28.5 69.167 28.5 126.5v434c0 15.333 3.83301 26 11.5 32s18.5 9 32.5 9s24.833 -3 32.5 -9s11.5 -16.667 11.5 -32v-433c0 -84.667 -18.833 -146.5 -56.5 -185.5s-94.167 -58.5 -169.5 -58.5
c-32.667 0 -60.334 4.33301 -83.001 13s-41.5 19.167 -56.5 31.5s-27.167 25.666 -36.5 39.999s-16.666 27.5 -21.999 39.5c-6 14 -9 26.667 -9 38c0 14.667 5.5 25.167 16.5 31.5s21.833 9.5 32.5 9.5s18.667 -3.33301 24 -10s10.666 -15.334 15.999 -26.001
c6 -12 12.833 -23.5 20.5 -34.5s16.5 -20.667 26.5 -29s21.5 -15 34.5 -20s28.5 -7.5 46.5 -7.5z" />
    <glyph glyph-name="K" unicode="K" horiz-adv-x="636" 
d="M162 34c0 -15.333 -3.83496 -26.001 -11.502 -32.001s-18.5 -9 -32.5 -9c-14.667 0 -25.834 3 -33.501 9s-11.5 16.667 -11.5 32v626c0 15.333 3.83301 26 11.5 32s18.834 9 33.501 9c14 0 24.833 -3 32.5 -9s11.5 -16.667 11.5 -32v-297l338 322
c10.667 10.667 21.334 16 32.001 16c12 0 22.167 -4.33301 30.5 -13s12.5 -17.667 12.5 -27c0 -3.33301 -1.16699 -7.66602 -3.5 -12.999s-7.16602 -11.666 -14.499 -18.999l-226 -217l275 -351c4.66699 -6 7.5 -11.333 8.5 -16s1.5 -8.33398 1.5 -11.001
c0 -5.33301 -1.5 -10.5 -4.5 -15.5s-6.83301 -9.33301 -11.5 -13s-9.66699 -6.66699 -15 -9s-10.333 -3.5 -15 -3.5c-15.333 0 -29.333 8 -42 24l-262 337l-104 -98v-222z" />
    <glyph glyph-name="L" unicode="L" horiz-adv-x="563" 
d="M83 660c0 15.333 3.83301 26.001 11.5 32.001s18.5 9 32.5 9s24.833 -3 32.5 -9s11.5 -16.667 11.5 -32v-583h334c13.333 0 22.833 -3.16699 28.5 -9.5s8.5 -15.833 8.5 -28.5s-2.83301 -22.334 -8.5 -29.001s-15.167 -10 -28.5 -10h-376
c-14 -0 -25.167 3.33301 -33.5 10s-12.5 17.667 -12.5 33v617z" />
    <glyph glyph-name="M" unicode="M" horiz-adv-x="870" 
d="M168 544l-0.00195312 -512c0 -14.667 -3.83301 -24.834 -11.5 -30.501s-18.167 -8.5 -31.5 -8.5s-23.666 2.83301 -30.999 8.5s-11 15.834 -11 30.501v617c0 19.333 5.16699 32.833 15.5 40.5s24.5 11.5 42.5 11.5c18.667 0 32.334 -3.16699 41.001 -9.5
s15.667 -15.833 21 -28.5l234 -559l234 559c5.33301 12.667 12.166 22.167 20.499 28.5s21.5 9.5 39.5 9.5s31.833 -3.83301 41.5 -11.5s14.5 -21.167 14.5 -40.5v-617c0 -14.667 -3.66699 -24.834 -11 -30.501s-17.666 -8.5 -30.999 -8.5s-23.833 2.83301 -31.5 8.5
s-11.5 15.834 -11.5 30.501v513l-216 -510c-4 -9.33301 -10 -17.333 -18 -24s-19 -10 -33 -10s-25 3.33301 -33 10s-14 14.667 -18 24z" />
    <glyph glyph-name="N" unicode="N" horiz-adv-x="719" 
d="M169 558v-526c0 -14.667 -3.83301 -24.834 -11.5 -30.501s-18.167 -8.5 -31.5 -8.5s-23.833 2.83301 -31.5 8.5s-11.5 15.834 -11.5 30.501v626c0 16 4.5 27.167 13.5 33.5s21.833 9.5 38.5 9.5c16 0 28.167 -3.5 36.5 -10.5s16.166 -16.167 23.499 -27.5l355 -529v528
c0 14.667 3.83301 24.834 11.5 30.501s18.167 8.5 31.5 8.5s23.833 -2.83301 31.5 -8.5s11.5 -15.834 11.5 -30.501v-626c0 -16 -4.5 -27.167 -13.5 -33.5s-21.833 -9.5 -38.5 -9.5c-16 0 -28.167 3.5 -36.5 10.5s-16.166 16.167 -23.499 27.5z" />
    <glyph glyph-name="O" unicode="O" horiz-adv-x="764" 
d="M713 347c0 -56 -8 -106.5 -24 -151.5s-38.5 -83.333 -67.5 -115s-63.833 -55.834 -104.5 -72.501s-85.667 -25 -135 -25s-94.333 8.33301 -135 25s-75.5 40.834 -104.5 72.501s-51.5 70 -67.5 115s-24 95.5 -24 151.5s8 106.5 24 151.5s38.5 83.333 67.5 115
s63.833 55.834 104.5 72.501s85.667 25 135 25s94.333 -8.33301 135 -25s75.5 -40.834 104.5 -72.501s51.5 -70 67.5 -115s24 -95.5 24 -151.5zM146 347c0 -43.333 5 -82.5 15 -117.5s25 -64.833 45 -89.5s44.667 -43.834 74 -57.501s63.333 -20.5 102 -20.5
s72.667 6.83301 102 20.5s54 32.834 74 57.501s35 54.5 45 89.5s15 74.167 15 117.5c0 42.667 -5 81.667 -15 117s-25 65.333 -45 90s-44.667 43.834 -74 57.501s-63.333 20.5 -102 20.5s-72.667 -6.83301 -102 -20.5s-54 -32.834 -74 -57.501s-35 -54.667 -45 -90
s-15 -74.333 -15 -117z" />
    <glyph glyph-name="P" unicode="P" horiz-adv-x="613" 
d="M296 352c35.333 0 65.001 3.16797 89.001 9.50098s43.167 15.333 57.5 27s24.666 25.667 30.999 42s9.5 34.5 9.5 54.5c0 19.333 -3 37.166 -9 53.499s-16 30.5 -30 42.5s-32.333 21.333 -55 28s-50.667 10 -84 10h-135v-267h126zM126.001 -6.99902
c-14 0 -24.667 3 -32 9s-11 16.667 -11 32v617c0 15.333 4.16699 26.333 12.5 33s19.5 10 33.5 10h179c91.333 0 158.333 -18 201 -54s64 -87.667 64 -155c0 -18.667 -3.16699 -40 -9.5 -64s-18.833 -46.667 -37.5 -68s-44.5 -39.333 -77.5 -54s-76.167 -22 -129.5 -22h-149
v-243c0 -15.333 -3.83301 -26 -11.5 -32s-18.5 -9 -32.5 -9z" />
    <glyph glyph-name="Q" unicode="Q" horiz-adv-x="764" 
d="M713 347c0 -68.667 -11.668 -128.5 -35.001 -179.5s-55.666 -92.167 -96.999 -123.5l51 -80c4.66699 -7.33301 7.66699 -13.5 9 -18.5s2 -9.16699 2 -12.5c0 -11.333 -5 -20.5 -15 -27.5s-19.667 -10.5 -29 -10.5c-4.66699 0 -9.66699 1.16699 -15 3.5
s-11.666 9.16602 -18.999 20.499l-55 86c-40.667 -14.667 -83.334 -22 -128.001 -22c-49.333 0 -94.333 8.33301 -135 25s-75.5 40.834 -104.5 72.501s-51.5 70 -67.5 115s-24 95.5 -24 151.5s8 106.5 24 151.5s38.5 83.333 67.5 115s63.833 55.834 104.5 72.501
s85.667 25 135 25s94.333 -8.33301 135 -25s75.5 -40.834 104.5 -72.501s51.5 -70 67.5 -115s24 -95.5 24 -151.5zM145.999 347c0 -43.333 4.99902 -82.499 14.999 -117.499s25 -64.833 45 -89.5s44.667 -43.834 74 -57.501s63.333 -20.5 102 -20.5
c31.333 0 59 4.33301 83 13l-43 68c-5.33301 8 -8.5 14.333 -9.5 19s-1.5 8.66699 -1.5 12c0 10.667 5 19.5 15 26.5s19.667 10.5 29 10.5c4.66699 0 9.83398 -1.16699 15.501 -3.5s12.167 -8.83301 19.5 -19.5l45 -72c55.333 51.333 83 128.333 83 231
c0 42.667 -5 81.667 -15 117s-25 65.333 -45 90s-44.667 43.834 -74 57.501s-63.333 20.5 -102 20.5s-72.667 -6.83301 -102 -20.5s-54 -32.834 -74 -57.501s-35 -54.667 -45 -90s-15 -74.333 -15 -117z" />
    <glyph glyph-name="R" unicode="R" horiz-adv-x="629" 
d="M170 619l0.000976562 -248h130c35.333 0 64.666 2.66699 87.999 8s42 13.166 56 23.499s23.833 23.166 29.5 38.499s8.5 33 8.5 53c0 19.333 -2.83301 36.833 -8.5 52.5s-15.5 28.834 -29.5 39.501s-32.333 18.834 -55 24.501s-51 8.5 -85 8.5h-134zM579.001 59
c4 -8 6.33203 -14.001 6.99902 -18.001s1 -7.33301 1 -10c0 -12 -5.16699 -21.333 -15.5 -28s-21.833 -10 -34.5 -10c-9.33301 0 -17 2.5 -23 7.5s-12 13.5 -18 25.5l-143 272c-5.33301 -0.666992 -10.833 -1.16699 -16.5 -1.5s-11.5 -0.5 -17.5 -0.5h-149v-262
c0 -15.333 -3.83301 -26 -11.5 -32s-18.5 -9 -32.5 -9s-24.667 3 -32 9s-11 16.667 -11 32v617c0 15.333 4.16699 26.333 12.5 33s19.5 10 33.5 10h178c92 0 159.333 -16.667 202 -50s64 -83.333 64 -150c0 -14.667 -1.83301 -30.5 -5.5 -47.5s-10.167 -33.667 -19.5 -50
s-22.666 -31.666 -39.999 -45.999s-39.333 -26.5 -66 -36.5z" />
    <glyph glyph-name="S" unicode="S" horiz-adv-x="604" 
d="M386 376c58 -17.333 100.502 -40.833 127.502 -70.5s40.5 -69.834 40.5 -120.501c0 -35.333 -6.5 -65.666 -19.5 -90.999s-30.333 -46.333 -52 -63s-46.667 -28.834 -75 -36.501s-57.5 -11.5 -87.5 -11.5c-50 0 -97.833 7 -143.5 21s-84.5 38 -116.5 72
c-8.66699 9.33301 -13.834 17.166 -15.501 23.499s-2.5 12.166 -2.5 17.499c0 10.667 5 20.334 15 29.001s20.333 13 31 13c6 -0.666992 11.333 -2.66699 16 -6s9 -7 13 -11c32 -32.667 63.667 -54.834 95 -66.501s66.666 -17.5 105.999 -17.5
c42.667 0 77.834 9.83301 105.501 29.5s41.5 48.5 41.5 86.5c0 33.333 -10 59.666 -30 78.999s-53 35.666 -99 48.999l-87 25c-62 17.333 -108.167 40.666 -138.5 69.999s-45.5 70.333 -45.5 123c0 33.333 7.16699 62 21.5 86s33 43.833 56 59.5s48.333 27.167 76 34.5
s55.167 11 82.5 11c46 0 89.167 -7.66699 129.5 -23s74.5 -40.666 102.5 -75.999c5.33301 -7.33301 9 -13.666 11 -18.999s3 -10.666 3 -15.999c0 -11.333 -4.33301 -20.666 -13 -27.999s-18 -11 -28 -11c-6.66699 0 -12.834 1.5 -18.501 4.5s-12.167 8.16699 -19.5 15.5
c-25.333 28 -51 48 -77 60s-56.333 18 -91 18c-18.667 0 -36.667 -2.33301 -54 -7s-32.833 -11.667 -46.5 -21s-24.667 -21.166 -33 -35.499s-12.5 -30.833 -12.5 -49.5c0 -12.667 1.83301 -24.167 5.5 -34.5s10 -20.166 19 -29.499s21.5 -18 37.5 -26s36 -15.667 60 -23z
" />
    <glyph glyph-name="T" unicode="T" horiz-adv-x="602" 
d="M345 34c0 -15.333 -3.83301 -26 -11.5 -32s-18.5 -9 -32.5 -9s-24.833 3 -32.5 9s-11.5 16.667 -11.5 32v583h-209c-14 0 -23.833 3.33301 -29.5 10s-8.5 16.334 -8.5 29.001s2.83301 22.167 8.5 28.5s15.5 9.5 29.5 9.5h506c14 0 23.833 -3.16699 29.5 -9.5
s8.5 -15.833 8.5 -28.5s-2.83301 -22.334 -8.5 -29.001s-15.5 -10 -29.5 -10h-209v-583z" />
    <glyph glyph-name="U" unicode="U" horiz-adv-x="711" 
d="M544 660c0 15.333 3.83105 26 11.498 32s18.5 9 32.5 9s25 -3 33 -9s12 -16.667 12 -32v-407c0 -40 -6 -76.5 -18 -109.5s-29.667 -61.333 -53 -85s-52.333 -42.167 -87 -55.5s-74.667 -20 -120 -20s-85.166 6.66699 -119.499 20s-63.166 31.833 -86.499 55.5
s-41 52 -53 85s-18 69.5 -18 109.5v407c0 15.333 4 26 12 32s19 9 33 9s24.833 -3 32.5 -9s11.5 -16.667 11.5 -32v-400c0 -66.667 16.667 -116.5 50 -149.5s79.333 -49.5 138 -49.5c60 0 106.5 16.5 139.5 49.5s49.5 82.833 49.5 149.5v400z" />
    <glyph glyph-name="V" unicode="V" horiz-adv-x="644" 
d="M369 20c-3.33301 -8 -8.49707 -14.499 -15.4971 -19.499s-17.833 -7.5 -32.5 -7.5c-15.333 0 -26.5 2.5 -33.5 7.5s-12.167 11.5 -15.5 19.5l-236 607c-3.33301 7.33301 -6 13.833 -8 19.5s-3 11.167 -3 16.5c0 12 5.5 21.333 16.5 28s22.833 10 35.5 10
c17.333 0 28.666 -7.66699 33.999 -23l211 -561l215 562c3.33301 7.33301 7.16602 12.833 11.499 16.5s11.166 5.5 20.499 5.5c12 0 23.333 -3.16699 34 -9.5s16 -15.166 16 -26.499c0 -4.66699 -1 -9.83398 -3 -15.501s-4.66699 -11.834 -8 -18.501z" />
    <glyph glyph-name="W" unicode="W" horiz-adv-x="934" 
d="M820 675c4.66699 17.333 15.667 25.999 33 25.999c12.667 0 24.334 -2.83301 35.001 -8.5s16 -14.5 16 -26.5c0 -5.33301 -1 -11.5 -3 -18.5l-6 -20.5l-176 -601c-6 -22 -22.667 -33 -50 -33c-26.667 0 -43 11 -49 33l-154 517l-153 -517c-6 -22 -22.333 -33 -49 -33
c-27.333 0 -44 11 -50 33l-176 601c-1.33301 6 -3 12.667 -5 20s-3 13.333 -3 18c0 12 5.33301 21 16 27s22.667 9 36 9c18 0 29.333 -8.66699 34 -26l150 -542l154 535c3.33301 10.667 8.66602 18.834 15.999 24.501s18 8.5 32 8.5c26 0 42 -11 48 -33l154 -535z" />
    <glyph glyph-name="X" unicode="X" horiz-adv-x="625" 
d="M512 683c6 7.33301 11.5 12.167 16.5 14.5s11.167 3.5 18.5 3.5c9.33301 0 18.5 -3.33301 27.5 -10s13.5 -15.667 13.5 -27c0 -5.33301 -1.33301 -10.666 -4 -15.999s-6 -10.666 -10 -15.999l-209 -272l223 -294c11.333 -16 17 -28.333 17 -37
c0 -10.667 -5 -19.334 -15 -26.001s-20.333 -10 -31 -10c-7.33301 0 -13.833 1.5 -19.5 4.5s-12.167 9.16699 -19.5 18.5l-208 274l-215 -279c-5.33301 -7.33301 -10.666 -12.166 -15.999 -14.499s-11.333 -3.5 -18 -3.5c-10 0 -19.667 3.16699 -29 9.5s-14 14.833 -14 25.5
c0 9.33301 4 19.666 12 30.999l229 298l-208 275c-4 5.33301 -7.33301 10.666 -10 15.999s-4 10.666 -4 15.999c0 11.333 5.16699 20.333 15.5 27s20.166 10 29.499 10c7.33301 0 13.833 -1.16699 19.5 -3.5s11.5 -7.16602 17.5 -14.499l194 -258z" />
    <glyph glyph-name="Y" unicode="Y" horiz-adv-x="605" 
d="M259 319l-114.499 155.001l-114.5 156c-3.33301 5.33301 -6.33301 10.666 -9 15.999s-4 10.666 -4 15.999c0 11.333 5.16699 20.666 15.5 27.999s20.5 11 30.5 11c14 0 25 -6 33 -18l209 -292l206 289c9.33301 14 20.666 21 33.999 21
c9.33301 0 18.833 -3.33301 28.5 -10s14.5 -15.667 14.5 -27c0 -5.33301 -1.33301 -10.666 -4 -15.999s-5.66699 -10.666 -9 -15.999l-227 -314v-284c0 -15.333 -3.83301 -26 -11.5 -32s-18.5 -9 -32.5 -9s-25 3 -33 9s-12 16.667 -12 32v285z" />
    <glyph glyph-name="Z" unicode="Z" horiz-adv-x="597" 
d="M73 0c-31.333 0 -47 14.667 -47 44c0 8 1.5 15.5 4.5 22.5s8.83301 16.167 17.5 27.5l410 523h-372c-13.333 0 -22.833 3.33301 -28.5 10s-8.5 16.334 -8.5 29.001s2.83301 22.167 8.5 28.5s15.167 9.5 28.5 9.5h432c31.333 0 47 -14.667 47 -44
c0 -8 -1.66699 -15.5 -5 -22.5s-9 -16.167 -17 -27.5l-411 -523h401c14 0 23.833 -3.16699 29.5 -9.5s8.5 -15.833 8.5 -28.5s-2.83301 -22.334 -8.5 -29.001s-15.5 -10 -29.5 -10h-460z" />
    <glyph glyph-name="bracketleft" unicode="[" horiz-adv-x="295" 
d="M83 695c0 15.333 4.16699 26.3291 12.5 32.9961s19.5 10 33.5 10h115c12.667 0 21.167 -2.66699 25.5 -8s6.5 -13.666 6.5 -24.999s-2.16699 -19.666 -6.5 -24.999s-12.833 -8 -25.5 -8h-80v-742h80c12.667 0 21.167 -2.66699 25.5 -8s6.5 -13.666 6.5 -24.999
s-2.16699 -19.666 -6.5 -24.999s-12.833 -8 -25.5 -8h-115c-14 0 -25.167 3.33301 -33.5 10s-12.5 17.667 -12.5 33v788z" />
    <glyph glyph-name="backslash" unicode="\" horiz-adv-x="454" 
d="M429 57c7.33301 -12.667 11 -23.334 11 -32.001c0 -9.33301 -4 -17.166 -12 -23.499s-18.667 -9.5 -32 -9.5c-8 0 -14.333 2 -19 6s-9 9.66699 -13 17l-339 621c-7.33301 12.667 -11 23.334 -11 32.001c0 9.33301 4 17.166 12 23.499s18.667 9.5 32 9.5
c8 0 14.333 -2 19 -6s9 -9.66699 13 -17z" />
    <glyph glyph-name="bracketright" unicode="]" horiz-adv-x="295" 
d="M212 -93c0 -15.333 -4.16699 -26.3291 -12.5 -32.9961s-19.5 -10 -33.5 -10h-115c-12.667 0 -21.167 2.66699 -25.5 8s-6.5 13.666 -6.5 24.999s2.16699 19.666 6.5 24.999s12.833 8 25.5 8h80v742h-80c-12.667 0 -21.167 2.66699 -25.5 8s-6.5 13.666 -6.5 24.999
s2.16699 19.666 6.5 24.999s12.833 8 25.5 8h115c14 0 25.167 -3.33301 33.5 -10s12.5 -17.667 12.5 -33v-788z" />
    <glyph glyph-name="asciicircum" unicode="^" horiz-adv-x="478" 
d="M240 590l-119 -241c-3.33301 -7.33301 -7.33301 -13.166 -12 -17.499s-12.667 -6.5 -24 -6.5s-21.333 3.16699 -30 9.5s-13 14.166 -13 23.499c0 4 0.5 8 1.5 12s3.5 9.66699 7.5 17l139 278c5.33301 10 11.5 17.333 18.5 22s17.167 7 30.5 7c14 0 24.5 -2.33301 31.5 -7
s13.167 -12 18.5 -22l139 -278c4 -7.33301 6.5 -13 7.5 -17s1.5 -8 1.5 -12c0 -9.33301 -4.33301 -17.166 -13 -23.499s-18.667 -9.5 -30 -9.5s-19.333 2.16699 -24 6.5s-8.66699 10.166 -12 17.499z" />
    <glyph glyph-name="underscore" unicode="_" horiz-adv-x="494" 
d="M457 -141c13.333 0 22.333 -3.16699 27 -9.5s7 -15.166 7 -26.499s-2.33301 -20.166 -7 -26.499s-13.667 -9.5 -27 -9.5h-420c-13.333 0 -22.333 3.16699 -27 9.5s-7 15.166 -7 26.499s2.33301 20.166 7 26.499s13.667 9.5 27 9.5h420z" />
    <glyph glyph-name="grave" unicode="`" horiz-adv-x="392" 
d="M261 632c8.66699 -9.33301 13.001 -19.3311 13.001 -29.998c0 -8.66699 -3 -15.834 -9 -21.501s-13.667 -8.5 -23 -8.5s-17.333 2 -24 6s-13.334 9 -20.001 15l-85 76c-15.333 14 -23 26.333 -23 37c0 11.333 4.83301 22 14.5 32s21.5 15 35.5 15
c10 0 19 -3.33301 27 -10s17.333 -16.334 28 -29.001z" />
    <glyph glyph-name="a" unicode="a" horiz-adv-x="559" 
d="M398 313l-0.000976562 20c0 38 -9.83301 66.333 -29.5 85s-51.5 28 -95.5 28c-17.333 0 -32.333 -2 -45 -6s-23.5 -8.66699 -32.5 -14s-16.333 -11 -22 -17s-10.5 -11.333 -14.5 -16c-6.66699 -8 -12.334 -13.333 -17.001 -16s-10.667 -4 -18 -4
c-10.667 0 -20.5 3.16699 -29.5 9.5s-13.5 14.5 -13.5 24.5c0 5.33301 0.5 9.66602 1.5 12.999s2.5 7 4.5 11c0.666992 2 4.66699 7.66699 12 17s18.5 19.333 33.5 30s34.333 20.167 58 28.5s52.5 12.5 86.5 12.5c38 0 70.167 -4.83301 96.5 -14.5s47.5 -22.5 63.5 -38.5
s27.667 -34.5 35 -55.5s11 -42.833 11 -65.5v-319c0 -22 -14.333 -33 -43 -33c-19.333 0 -31.166 4.33301 -35.499 13s-6.5 20.667 -6.5 36v30c-6.66699 -9.33301 -14.667 -19 -24 -29s-20.833 -19.167 -34.5 -27.5s-30 -15.166 -49 -20.499s-40.833 -8 -65.5 -8
c-30 0 -55.833 3.66699 -77.5 11s-39.667 17.5 -54 30.5s-25 28.333 -32 46s-10.5 36.5 -10.5 56.5c0 26 4.66699 50 14 72s25.333 40.833 48 56.5s52.834 28 90.501 37s85.167 14.167 142.5 15.5zM342.999 245c-42.667 -0.666992 -77.333 -3.66602 -104 -8.99902
s-47.667 -12.5 -63 -21.5s-25.833 -19.833 -31.5 -32.5s-8.5 -27 -8.5 -43c0 -22.667 7.83301 -42.167 23.5 -58.5s41.5 -24.5 77.5 -24.5c31.333 0 59.833 7.16699 85.5 21.5s45.167 32.166 58.5 53.499c11.333 18 17 42.333 17 73v42z" />
    <glyph glyph-name="b" unicode="b" horiz-adv-x="595" 
d="M76 661c0 15.333 3.66895 25.8311 11.002 31.498s17.666 8.5 30.999 8.5s23.833 -2.83301 31.5 -8.5s11.5 -16.167 11.5 -31.5v-228c5.33301 10 13 20.167 23 30.5s21.833 19.5 35.5 27.5s29.167 14.667 46.5 20s36.666 8 57.999 8c34.667 0 65.667 -6.5 93 -19.5
s50.5 -31.167 69.5 -54.5s33.333 -51.166 43 -83.499s14.5 -68.166 14.5 -107.499s-4.83301 -75.5 -14.5 -108.5s-24 -61.5 -43 -85.5s-42.167 -42.667 -69.5 -56s-58.333 -20 -93 -20c-40.667 0 -75.167 9 -103.5 27s-49.5 40 -63.5 66v-46
c0 -14.667 -3.5 -24.667 -10.5 -30s-17.167 -8 -30.5 -8s-23.333 2.66699 -30 8s-10 15.333 -10 30v630zM454.002 250.998c0 28.667 -2.99902 54.667 -8.99902 78s-15 43.5 -27 60.5s-27 30.167 -45 39.5s-39 14 -63 14c-48 0 -85.333 -16.833 -112 -50.5
s-40 -80.167 -40 -139.5c0 -28 3.16699 -53.833 9.5 -77.5s15.833 -44.167 28.5 -61.5s28.334 -30.833 47.001 -40.5s40 -14.5 64 -14.5c23.333 0 44.166 4.66699 62.499 14s33.666 22.5 45.999 39.5s21.833 37.333 28.5 61s10 49.5 10 77.5z" />
    <glyph glyph-name="c" unicode="c" horiz-adv-x="525" 
d="M404 126c8 11.333 14.4971 18.999 19.4971 22.999s11.833 6 20.5 6c9.33301 0 18.5 -3.33301 27.5 -10s13.5 -15 13.5 -25c0 -9.33301 -2.33301 -18.333 -7 -27c-3.33301 -7.33301 -9.5 -17.166 -18.5 -29.499s-21.333 -24.5 -37 -36.5s-34.667 -22.333 -57 -31
s-48.833 -13 -79.5 -13c-38 0 -71.667 6.66699 -101 20s-54 31.833 -74 55.5s-35.333 52 -46 85s-16 69.167 -16 108.5s5.33301 75.333 16 108s26 60.834 46 84.501s44.667 42 74 55s63 19.5 101 19.5c28.667 0 53.834 -3.5 75.501 -10.5s40.334 -15.833 56.001 -26.5
s28.334 -22.334 38.001 -35.001s17.167 -24.334 22.5 -35.001c2.66699 -5.33301 4.66699 -10.333 6 -15s2 -9.66699 2 -15c0 -12 -4.33301 -21.5 -13 -28.5s-18 -10.5 -28 -10.5c-7.33301 0 -13.5 1.5 -18.5 4.5s-11.167 9.83301 -18.5 20.5l-15 21
c-6 8.66699 -13.667 17 -23 25s-20.833 14.833 -34.5 20.5s-30.167 8.5 -49.5 8.5c-50 0 -87 -17 -111 -51s-36 -80.333 -36 -139c0 -60 12 -107.333 36 -142s61 -52 111 -52c18 0 33.333 2.16699 46 6.5s23.5 9.83301 32.5 16.5s16.5 13.834 22.5 21.501z" />
    <glyph glyph-name="d" unicode="d" horiz-adv-x="595" 
d="M519 31c0 -14.667 -3.33398 -24.667 -10.001 -30s-16.667 -8 -30 -8s-23.5 2.66699 -30.5 8s-10.5 15.333 -10.5 30v46c-14 -26 -35.167 -48 -63.5 -66s-62.833 -27 -103.5 -27c-35.333 0 -66.5 6.66699 -93.5 20s-50 31.833 -69 55.5s-33.333 52 -43 85
s-14.5 69.167 -14.5 108.5s4.83301 75.333 14.5 108s24 60.667 43 84s42 41.5 69 54.5s58.167 19.5 93.5 19.5c20.667 0 39.834 -2.66699 57.501 -8s33.334 -12 47.001 -20s25.5 -17.167 35.5 -27.5s17.667 -20.5 23 -30.5v228c0 15.333 3.83301 25.833 11.5 31.5
s18.167 8.5 31.5 8.5s23.666 -2.83301 30.999 -8.5s11 -16.167 11 -31.5v-630zM140.999 250c0 -58 12.667 -104.332 38 -138.999s61.666 -52 108.999 -52c24 0 45.333 4.83301 64 14.5s34.334 23.167 47.001 40.5s22.167 37.833 28.5 61.5s9.5 49.5 9.5 77.5
c0 59.333 -13.333 105.833 -40 139.5s-64 50.5 -112 50.5c-24 0 -45 -4.66699 -63 -14s-33 -22.5 -45 -39.5s-21 -37.333 -27 -61s-9 -49.834 -9 -78.501z" />
    <glyph glyph-name="e" unicode="e" horiz-adv-x="566" 
d="M290 446c-23.333 0 -43.668 -3.83398 -61.001 -11.501s-32 -18 -44 -31s-21.5 -28.333 -28.5 -46s-11.5 -36.167 -13.5 -55.5h291c-2 18.667 -6.16699 36.834 -12.5 54.501s-15.333 33 -27 46s-26.167 23.5 -43.5 31.5s-37.666 12 -60.999 12zM519.998 262.999
c0 -24 -13.6699 -36 -41.0029 -36h-340c0 -54 13.5 -95.667 40.5 -125s65.167 -44 114.5 -44c19.333 0 36.166 2.5 50.499 7.5s26.5 11 36.5 18s18.167 14.167 24.5 21.5s11.5 13.666 15.5 18.999c4.66699 6.66699 9.16699 11.667 13.5 15s10.833 5 19.5 5
c9.33301 0 18.5 -3 27.5 -9s13.5 -14 13.5 -24c0 -8.66699 -3.66699 -19 -11 -31c-6 -9.33301 -13.833 -19.5 -23.5 -30.5s-22 -21.5 -37 -31.5s-33.167 -18.333 -54.5 -25s-46.333 -10 -75 -10c-37.333 0 -71.166 6.5 -101.499 19.5s-56.166 31.333 -77.499 55
s-37.666 52 -48.999 85s-17 69.167 -17 108.5c0 40 5.66699 76.333 17 109s27.5 60.834 48.5 84.501s46.333 42 76 55s62.834 19.5 99.501 19.5c37.333 0 70.333 -6.5 99 -19.5s52.667 -31 72 -54s34 -50.167 44 -81.5s15 -65 15 -101z" />
    <glyph glyph-name="f" unicode="f" horiz-adv-x="311" 
d="M247 642c-19.333 0 -35.334 -5.33301 -48.001 -16s-19 -30.667 -19 -60v-64h88c13.333 0 22.333 -3.16699 27 -9.5s7 -15.166 7 -26.499s-2.33301 -20.166 -7 -26.499s-13.667 -9.5 -27 -9.5h-88v-397c0 -15.333 -3.83301 -25.833 -11.5 -31.5s-18.167 -8.5 -31.5 -8.5
s-23.666 2.83301 -30.999 8.5s-11 16.167 -11 31.5v397h-46c-13.333 0 -22.333 3.16699 -27 9.5s-7 15.166 -7 26.499s2.33301 20.166 7 26.499s13.667 9.5 27 9.5h46v70c0 41.333 12.833 74.833 38.5 100.5s63.167 38.5 112.5 38.5c14 0 27.833 -1.5 41.5 -4.5
s25.667 -7 36 -12s18.833 -10.833 25.5 -17.5s10 -14 10 -22c0 -11.333 -3.5 -21 -10.5 -29s-15.167 -12 -24.5 -12c-6 0 -11.5 1.5 -16.5 4.5l-16 9.5c-5.66699 3.33301 -12 6.5 -19 9.5s-15.5 4.5 -25.5 4.5z" />
    <glyph glyph-name="g" unicode="g" horiz-adv-x="595" 
d="M141 256c0 -58.667 12.5 -104.333 37.5 -137s61.5 -49 109.5 -49c48.667 0 85.667 17.333 111 52s38 80 38 136c0 60 -13.333 105.833 -40 137.5s-64 47.5 -112 47.5s-84 -16.667 -108 -50s-36 -79 -36 -137zM434 80.001
c-13.333 -22.667 -33.668 -42.501 -61.001 -59.501s-61.333 -25.5 -102 -25.5c-35.333 0 -66.5 6.33301 -93.5 19s-50 30.5 -69 53.5s-33.333 50.833 -43 83.5s-14.5 68.667 -14.5 108c0 38 4.83301 72.833 14.5 104.5s24 59 43 82s42 41 69 54s58.167 19.5 93.5 19.5
c20.667 0 40 -2.66699 58 -8s34 -12.333 48 -21s26.167 -18.5 36.5 -29.5s18.5 -22.167 24.5 -33.5v44c0 14.667 3.5 24.667 10.5 30s17.167 8 30.5 8s23.333 -2.66699 30 -8s10 -15.333 10 -30v-456c0 -44 -5.83301 -81.167 -17.5 -111.5s-27.667 -54.833 -48 -73.5
s-44.666 -32.167 -72.999 -40.5s-59.5 -12.5 -93.5 -12.5c-28 0 -53.833 2.5 -77.5 7.5s-43.834 11.167 -60.501 18.5c-17.333 8 -31.5 16.167 -42.5 24.5s-16.5 18.833 -16.5 31.5c0 6 1.5 11.833 4.5 17.5s6.16699 10.5 9.5 14.5c2.66699 3.33301 6.33398 6.5 11.001 9.5
s10 4.5 16 4.5s11.667 -1.66699 17 -5l7 -4c19.333 -11.333 40 -21.666 62 -30.999s47.667 -14 77 -14c40.667 0 74.167 12 100.5 36s39.5 63.667 39.5 119v74z" />
    <glyph glyph-name="h" unicode="h" horiz-adv-x="582" 
d="M161 430c9.33301 17.333 21.668 32.002 37.001 44.002c18 15.333 38.5 26.666 61.5 33.999s46.167 11 69.5 11c52.667 0 95.334 -14.667 128.001 -44s49 -74.333 49 -135v-312c0 -23.333 -13.667 -35 -41 -35c-29.333 0 -44 11.667 -44 35v291
c0 40 -8.16699 70.167 -24.5 90.5s-45.833 30.5 -88.5 30.5c-26 0 -48.333 -5.83301 -67 -17.5s-33.834 -26.834 -45.501 -45.501s-20.334 -39.667 -26.001 -63s-8.5 -46.333 -8.5 -69v-212c0 -15.333 -3.83301 -25.833 -11.5 -31.5s-18.167 -8.5 -31.5 -8.5
s-23.666 2.83301 -30.999 8.5s-11 16.167 -11 31.5v628c0 15.333 3.66699 25.833 11 31.5s17.666 8.5 30.999 8.5s23.833 -2.83301 31.5 -8.5s11.5 -16.167 11.5 -31.5v-231z" />
    <glyph glyph-name="i" unicode="i" horiz-adv-x="237" 
d="M76 469c0 15.333 3.66699 25.833 11 31.5s17.666 8.5 30.999 8.5s23.833 -2.83301 31.5 -8.5s11.5 -16.167 11.5 -31.5v-436c0 -15.333 -3.83301 -25.833 -11.5 -31.5s-18.167 -8.5 -31.5 -8.5s-23.666 2.83301 -30.999 8.5s-11 16.167 -11 31.5v436zM64 647
c0 17.333 5.16699 30.833 15.5 40.5s23.166 14.5 38.499 14.5s28.166 -4.83301 38.499 -14.5s15.5 -23.167 15.5 -40.5s-5.16699 -30.833 -15.5 -40.5s-23.166 -14.5 -38.499 -14.5s-28.166 4.83301 -38.499 14.5s-15.5 23.167 -15.5 40.5z" />
    <glyph glyph-name="j" unicode="j" horiz-adv-x="237" 
d="M161 -84c0 -41.333 -12.667 -74.833 -38 -100.5s-61 -38.5 -107 -38.5c-15.333 0 -30.166 1.33301 -44.499 4s-27 6.5 -38 11.5s-19.833 11 -26.5 18s-10 14.5 -10 22.5c0 11.333 3.5 21 10.5 29s15.167 12 24.5 12c6 0 11.5 -1.16699 16.5 -3.5l16.5 -8
c6 -3 12.667 -5.66699 20 -8s16 -3.5 26 -3.5c19.333 0 35 5.33301 47 16s18 30.667 18 60v542c0 15.333 3.66699 25.833 11 31.5s17.666 8.5 30.999 8.5s23.833 -2.83301 31.5 -8.5s11.5 -16.167 11.5 -31.5v-553zM64 647c0 17.333 5.16699 30.833 15.5 40.5
s23.166 14.5 38.499 14.5s28.166 -4.83301 38.499 -14.5s15.5 -23.167 15.5 -40.5s-5.16699 -30.833 -15.5 -40.5s-23.166 -14.5 -38.499 -14.5s-28.166 4.83301 -38.499 14.5s-15.5 23.167 -15.5 40.5z" />
    <glyph glyph-name="k" unicode="k" horiz-adv-x="525" 
d="M161 300l240.003 196.001c4.66699 3.33301 9.16699 6.33301 13.5 9s9.16602 4 14.499 4c11.333 0 20.833 -3.83301 28.5 -11.5s11.5 -16.167 11.5 -25.5c0 -3.33301 -0.833008 -7.5 -2.5 -12.5s-6.16699 -10.5 -13.5 -16.5l-141 -117l179 -270
c3.33301 -5.33301 5.66602 -10.5 6.99902 -15.5s2 -8.5 2 -10.5c-0.666992 -11.333 -6.33398 -20.333 -17.001 -27s-21.667 -10 -33 -10c-6 0 -11.333 1.16699 -16 3.5s-10 8.16602 -16 17.499l-172 262l-85 -72v-171c0 -15.333 -3.83301 -25.833 -11.5 -31.5
s-18.167 -8.5 -31.5 -8.5s-23.666 2.83301 -30.999 8.5s-11 16.167 -11 31.5v628c0 15.333 3.66699 25.833 11 31.5s17.666 8.5 30.999 8.5s23.833 -2.83301 31.5 -8.5s11.5 -16.167 11.5 -31.5v-361z" />
    <glyph glyph-name="l" unicode="l" horiz-adv-x="237" 
d="M76 661c0 15.333 3.66699 25.833 11 31.5s17.666 8.5 30.999 8.5s23.833 -2.83301 31.5 -8.5s11.5 -16.167 11.5 -31.5v-628c0 -15.333 -3.83301 -25.833 -11.5 -31.5s-18.167 -8.5 -31.5 -8.5s-23.666 2.83301 -30.999 8.5s-11 16.167 -11 31.5v628z" />
    <glyph glyph-name="m" unicode="m" horiz-adv-x="887" 
d="M640 519c52.667 0 94.3301 -14.1641 124.997 -42.4971s46 -71.833 46 -130.5v-318c0 -23.333 -13.667 -35 -41 -35c-29.333 0 -44 11.667 -44 35v291c0 18.667 -1.5 35.667 -4.5 51s-8.5 28.166 -16.5 38.499s-18.833 18.333 -32.5 24s-31.167 8.5 -52.5 8.5
c-26 0 -47.667 -6 -65 -18s-31 -27.333 -41 -46s-17.167 -39.667 -21.5 -63s-6.5 -46.333 -6.5 -69v-217c0 -23.333 -13.667 -35 -41 -35c-29.333 0 -44 11.667 -44 35v291c0 18.667 -1.5 35.667 -4.5 51s-8.5 28.166 -16.5 38.499s-18.833 18.333 -32.5 24
s-31.167 8.5 -52.5 8.5c-26 0 -47.667 -5.83301 -65 -17.5s-31 -26.834 -41 -45.501s-17.167 -39.667 -21.5 -63s-6.5 -46.333 -6.5 -69v-213c0 -15.333 -3.83301 -25.833 -11.5 -31.5s-18.167 -8.5 -31.5 -8.5s-23.666 2.83301 -30.999 8.5s-11 16.167 -11 31.5v438
c0 14.667 3.33301 24.667 10 30s16.667 8 30 8s23.5 -2.66699 30.5 -8s10.5 -15.333 10.5 -30v-47c0.666992 2.66699 3.33398 8.66699 8.00098 18c5.33301 10.667 14 21.667 26 33s28.167 21.5 48.5 30.5s45.833 13.5 76.5 13.5c40.667 0 73.834 -8.16699 99.501 -24.5
s44.167 -38.5 55.5 -66.5c14 27.333 35.667 49.333 65 66s64 25 104 25z" />
    <glyph glyph-name="n" unicode="n" horiz-adv-x="582" 
d="M161 33c0 -15.333 -3.83398 -25.832 -11.501 -31.499s-18.167 -8.5 -31.5 -8.5s-23.666 2.83301 -30.999 8.5s-11 16.167 -11 31.5v438c0 14.667 3.33301 24.667 10 30s16.667 8 30 8s23.5 -2.66699 30.5 -8s10.5 -15.333 10.5 -30v-47c9.33301 17.333 22 33 38 47
c13.333 12 30.833 23 52.5 33s48.834 15 81.501 15c52.667 0 95.334 -14.667 128.001 -44s49 -74.333 49 -135v-312c0 -23.333 -13.667 -35 -41 -35c-29.333 0 -44 11.667 -44 35v291c0 39.333 -8.16699 69.333 -24.5 90s-45.833 31 -88.5 31
c-26 0 -48.333 -5.83301 -67 -17.5s-33.834 -26.834 -45.501 -45.501s-20.334 -39.5 -26.001 -62.5s-8.5 -45.833 -8.5 -68.5v-213z" />
    <glyph glyph-name="o" unicode="o" horiz-adv-x="588" 
d="M139 252c0 -60.667 13.333 -108.334 40 -143.001s65 -52 115 -52s88.333 17.333 115 52s40 82.334 40 143.001s-13.333 108 -40 142s-65 51 -115 51s-88.333 -17 -115 -51s-40 -81.333 -40 -142zM49 252c0 42 5.83301 79.5 17.5 112.5s28.334 61 50.001 84
s47.5 40.5 77.5 52.5s63.333 18 100 18s70 -6 100 -18s55.833 -29.5 77.5 -52.5s38.334 -51 50.001 -84s17.5 -70.5 17.5 -112.5s-5.83301 -79.667 -17.5 -113s-28.334 -61.5 -50.001 -84.5s-47.5 -40.667 -77.5 -53s-63.333 -18.5 -100 -18.5s-70 6.16699 -100 18.5
s-55.833 30 -77.5 53s-38.334 51.167 -50.001 84.5s-17.5 71 -17.5 113z" />
    <glyph glyph-name="p" unicode="p" horiz-adv-x="595" 
d="M76 471c0 14.667 3.33203 24.667 9.99902 30s16.667 8 30 8s23.5 -2.66699 30.5 -8s10.5 -15.333 10.5 -30v-49c14 27.333 35.167 50.333 63.5 69s62.833 28 103.5 28c34.667 0 65.667 -6.5 93 -19.5s50.5 -31.167 69.5 -54.5s33.333 -51.333 43 -84s14.5 -69 14.5 -109
c0 -39.333 -4.83301 -75.5 -14.5 -108.5s-24 -61.333 -43 -85s-42.167 -42.167 -69.5 -55.5s-58.333 -20 -93 -20c-42 0 -76.333 8 -103 24s-46.667 34.667 -60 56v-236c0 -15.333 -3.83301 -25.833 -11.5 -31.5s-18.167 -8.5 -31.5 -8.5s-23.666 2.83301 -30.999 8.5
s-11 16.167 -11 31.5v644zM453.999 250c0 58.667 -12 105.332 -36 139.999s-59.667 52 -107 52c-24 0 -45.5 -5.16699 -64.5 -15.5s-35 -24.5 -48 -42.5s-23 -38.833 -30 -62.5s-10.5 -48.834 -10.5 -75.501c0 -59.333 13.333 -105.666 40 -138.999s64 -50 112 -50
c24 0 45 4.66699 63 14s33 22.5 45 39.5s21 37.333 27 61s9 49.834 9 78.501z" />
    <glyph glyph-name="q" unicode="q" horiz-adv-x="595" 
d="M141 249c0 -56.667 12.667 -102.669 38 -138.002s61.666 -53 108.999 -53c24 0 45.333 4.83301 64 14.5s34.334 23.334 47.001 41.001s22.167 38.334 28.5 62.001s9.5 49.5 9.5 77.5c0 59.333 -13.333 105.833 -40 139.5s-64 50.5 -112 50.5s-84 -17.667 -108 -53
s-36 -82.333 -36 -141zM434 70.998c-13.333 -23.333 -33.668 -43.833 -61.001 -61.5s-61.333 -26.5 -102 -26.5c-35.333 0 -66.5 6.66699 -93.5 20s-50 32 -69 56s-33.333 52.333 -43 85s-14.5 68.667 -14.5 108c0 40 4.83301 76.333 14.5 109s24 60.667 43 84
s42 41.5 69 54.5s58.167 19.5 93.5 19.5c20.667 0 40 -2.66699 58 -8s34 -12.333 48 -21s26.167 -18.5 36.5 -29.5s18.5 -22.167 24.5 -33.5v44c0 14.667 3.5 24.667 10.5 30s17.167 8 30.5 8s23.333 -2.66699 30 -8s10 -15.333 10 -30v-644
c0 -15.333 -3.83301 -25.833 -11.5 -31.5s-18.167 -8.5 -31.5 -8.5s-23.666 2.83301 -30.999 8.5s-11 16.167 -11 31.5v244z" />
    <glyph glyph-name="r" unicode="r" horiz-adv-x="363" 
d="M161 33c0 -15.333 -3.83398 -25.833 -11.501 -31.5s-18.167 -8.5 -31.5 -8.5s-23.666 2.83301 -30.999 8.5s-11 16.167 -11 31.5v438c0 14.667 3.33301 24.667 10 30s16.667 8 30 8s23.5 -2.66699 30.5 -8s10.5 -15.333 10.5 -30v-57c18 33.333 40.5 57.5 67.5 72.5
s55.833 22.5 86.5 22.5c15.333 0 26.333 -3.33301 33 -10s10 -17.334 10 -32.001c0 -15.333 -3.33301 -26.666 -10 -33.999s-17.667 -11 -33 -11c-100 0 -150 -62.333 -150 -187v-202z" />
    <glyph glyph-name="s" unicode="s" horiz-adv-x="512" 
d="M72 32c-7.33301 6 -12.501 11.833 -15.501 17.5s-4.5 11.167 -4.5 16.5c0 11.333 4 21.833 12 31.5s17.667 14.5 29 14.5c6.66699 0 12.834 -1.33301 18.501 -4s12.167 -6.66699 19.5 -12c11.333 -8 27.666 -17 48.999 -27s48 -15 80 -15c35.333 0 62.5 7 81.5 21
s28.5 33 28.5 57c0 8.66699 -1 17 -3 25s-6.5 15.667 -13.5 23s-17.167 13.833 -30.5 19.5s-31.333 10.167 -54 13.5l-61 10c-43.333 6.66699 -78.833 22 -106.5 46s-41.5 57.667 -41.5 101c0 47.333 17.5 84 52.5 110s82.5 39 142.5 39
c26.667 0 49.834 -1.83301 69.501 -5.5s36.167 -8.16699 49.5 -13.5s24.333 -10.833 33 -16.5s15.334 -10.5 20.001 -14.5c12.667 -10.667 19 -21.334 19 -32.001s-3.16699 -20.167 -9.5 -28.5s-15.5 -12.5 -27.5 -12.5c-7.33301 0 -14.166 1.5 -20.499 4.5
s-13.833 7.16699 -22.5 12.5c-12.667 7.33301 -27.834 15 -45.501 23s-40.834 12 -69.501 12c-36 0 -62.5 -6.66699 -79.5 -20s-25.5 -30.333 -25.5 -51c0 -8.66699 1 -17 3 -25s6.16699 -15.5 12.5 -22.5s15.666 -13.167 27.999 -18.5s28.833 -9.33301 49.5 -12l62 -10
c51.333 -7.33301 89.833 -23.166 115.5 -47.499s38.5 -58.5 38.5 -102.5c0 -48.667 -17 -86.834 -51 -114.501s-82.667 -41.5 -146 -41.5c-25.333 0 -48.166 1.66699 -68.499 5s-38.333 7.5 -54 12.5s-28.667 10.333 -39 16s-18.5 10.834 -24.5 15.501z" />
    <glyph glyph-name="t" unicode="t" horiz-adv-x="352" 
d="M49 430c-13.333 0 -22.333 3.16699 -27 9.5s-7 15.166 -7 26.499s2.33301 20.166 7 26.499s13.667 9.5 27 9.5h45v103c0 12.667 1.16699 22 3.5 28s7.16602 11.333 14.499 16c12 7.33301 25 11 39 11c18.667 0 28 -9.66699 28 -29v-129h94
c13.333 0 22.333 -3.16699 27 -9.5s7 -15.166 7 -26.499s-2.33301 -20.166 -7 -26.499s-13.667 -9.5 -27 -9.5h-94v-296c0 -29.333 4.5 -49.333 13.5 -60s24.167 -16 45.5 -16c8 0 14.833 1 20.5 3s10.834 4 15.501 6l13.5 6c4.33301 2 9.5 3 15.5 3
c9.33301 0 17.5 -4 24.5 -12s10.5 -17.667 10.5 -29c0 -16 -10.333 -28.5 -31 -37.5s-46.667 -13.5 -78 -13.5c-46 0 -80 11.167 -102 33.5s-33 54.833 -33 97.5v315h-45z" />
    <glyph glyph-name="u" unicode="u" horiz-adv-x="582" 
d="M421 469c0 15.333 3.83203 25.832 11.499 31.499s18.167 8.5 31.5 8.5s23.666 -2.83301 30.999 -8.5s11 -16.167 11 -31.5v-438c0 -14.667 -3.33301 -24.667 -10 -30s-16.667 -8 -30 -8s-23.5 2.66699 -30.5 8s-10.5 15.333 -10.5 30v48c-9.33301 -18 -22 -34 -38 -48
c-13.333 -12 -31 -23 -53 -33s-49 -15 -81 -15c-26 0 -50 3.66699 -72 11s-40.667 18.333 -56 33s-27.333 33.167 -36 55.5s-13 48.833 -13 79.5v312c0 23.333 13.667 35 41 35c29.333 0 44 -11.667 44 -35v-291c0 -39.333 8 -69.333 24 -90s45.667 -31 89 -31
c26 0 48.333 5.83301 67 17.5s33.834 26.834 45.501 45.501s20.334 39.667 26.001 63s8.5 46.333 8.5 69v212z" />
    <glyph glyph-name="v" unicode="v" horiz-adv-x="511" 
d="M30 437l-7.49902 18.501c-2.33301 5.66699 -3.5 11.167 -3.5 16.5c0 11.333 5.16699 20.333 15.5 27s21.833 10 34.5 10c15.333 0 26.666 -9.33301 33.999 -28l154 -378l155 380c4 9.33301 8.33301 16 13 20s11 6 19 6c12 0 23 -3 33 -9s15 -14.667 15 -26
c0 -4.66699 -1.16699 -9.83398 -3.5 -15.501l-7.5 -17.5l-179 -422c-3.33301 -8 -8.5 -14.333 -15.5 -19s-17.833 -7 -32.5 -7s-25.5 2.33301 -32.5 7s-12.167 11 -15.5 19z" />
    <glyph glyph-name="w" unicode="w" horiz-adv-x="750" 
d="M331 477c4 12 9.33496 20.334 16.002 25.001s16.667 7 30 7s23.5 -2.16699 30.5 -6.5s12.167 -12.833 15.5 -25.5l112 -370l116 379c2 7.33301 5.16699 13 9.5 17s11.166 6 20.499 6c11.333 0 22.5 -2.66699 33.5 -8s16.5 -13.666 16.5 -24.999
c0 -4.66699 -0.666992 -8.83398 -2 -12.501s-2.66602 -7.83398 -3.99902 -12.501l-145 -427c-3.33301 -10.667 -8.83301 -18.5 -16.5 -23.5s-18.834 -7.5 -33.501 -7.5s-25.834 2.33301 -33.501 7s-13.167 12.667 -16.5 24l-109 355l-106 -355
c-3.33301 -11.333 -8.83301 -19.333 -16.5 -24s-18.834 -7 -33.501 -7s-25.834 2.5 -33.501 7.5s-13.167 12.833 -16.5 23.5l-140 423c-1.33301 5.33301 -2.66602 9.83301 -3.99902 13.5s-2 8.16699 -2 13.5c0 12 5.83301 20.833 17.5 26.5s23.167 8.5 34.5 8.5
c9.33301 0 16.333 -2.33301 21 -7s8.33398 -10.667 11.001 -18l118 -377z" />
    <glyph glyph-name="x" unicode="x" horiz-adv-x="493" 
d="M379 491c6 7.33301 11.499 12.167 16.499 14.5s10.5 3.5 16.5 3.5c9.33301 0 18.333 -3.83301 27 -11.5s13 -16.5 13 -26.5c0 -8.66699 -3.33301 -17.334 -10 -26.001l-144 -179l165 -209c4 -5.33301 6.66699 -10 8 -14s2 -8.66699 2 -14
c0 -10 -4.83301 -18.5 -14.5 -25.5s-19.167 -10.5 -28.5 -10.5c-6 0 -11.667 1.16699 -17 3.5s-11.333 7.5 -18 15.5l-149 189l-151 -190c-6 -7.33301 -12 -12.166 -18 -14.499s-12 -3.5 -18 -3.5c-9.33301 0 -18.166 3.5 -26.499 10.5s-12.5 15.5 -12.5 25.5
c0 9.33301 3.33301 18.333 10 27l168 209l-145 179c-6.66699 9.33301 -10 18.333 -10 27c0 10 5 19 15 27s19.667 12 29 12c6 0 11.5 -1.16699 16.5 -3.5s10.833 -7.5 17.5 -15.5l127 -165z" />
    <glyph glyph-name="y" unicode="y" horiz-adv-x="508" 
d="M205 -186c-4.66699 -9.33301 -9.66504 -16.333 -14.998 -21s-13.333 -7 -24 -7c-11.333 0 -21 3.16699 -29 9.5s-12 15.166 -12 26.499c0 3.33301 0.5 7.33301 1.5 12s3.16699 10.334 6.5 17.001l73 164l-175 422c-2.66699 6.66699 -5.33398 12.834 -8.00098 18.501
s-4 11.167 -4 16.5c0 11.333 5.16699 20.333 15.5 27s21.833 10 34.5 10c15.333 0 26.666 -9.33301 33.999 -28l149 -366l157 368c4 9.33301 8.33301 16 13 20s11 6 19 6c12 0 23 -3 33 -9s15 -14.667 15 -26c0 -4.66699 -1.16699 -9.83398 -3.5 -15.501l-7.5 -17.5z" />
    <glyph glyph-name="z" unicode="z" horiz-adv-x="502" 
d="M139 72h300c13.333 0 22.333 -3.16699 27 -9.5s7 -15.166 7 -26.499s-2.33301 -20.166 -7 -26.499s-13.667 -9.5 -27 -9.5h-362c-32.667 0 -49 14.667 -49 44c0 8 1.33301 14.833 4 20.5s8.33398 13.5 17.001 23.5l297 342h-270c-13.333 0 -22.333 3.16699 -27 9.5
s-7 15.166 -7 26.499s2.33301 20.166 7 26.499s13.667 9.5 27 9.5h331c32.667 0 49 -14.667 49 -44c0 -8 -1.33301 -14.833 -4 -20.5s-8.33398 -13.5 -17.001 -23.5z" />
    <glyph glyph-name="braceleft" unicode="{" horiz-adv-x="307" 
d="M151 302c15.333 -8.66699 26 -22 32 -40s9 -41 9 -69v-205c0 -17.333 2.33301 -31.333 7 -42s16.667 -16 36 -16h21c12.667 0 21.167 -2.66699 25.5 -8s6.5 -13.666 6.5 -24.999s-2.16699 -19.666 -6.5 -24.999s-12.833 -8 -25.5 -8h-36c-22 0 -40.167 3.16699 -54.5 9.5
s-25.5 14.833 -33.5 25.5s-13.5 23 -16.5 37s-4.5 28.667 -4.5 44v238c0 16.667 -4.5 28.5 -13.5 35.5s-18.833 11.167 -29.5 12.5c-11.333 1.33301 -19.166 4.66602 -23.499 9.99902s-6.5 14 -6.5 26c0 11.333 2.16699 19.666 6.5 24.999s12.166 8.66602 23.499 9.99902
c10.667 1.33301 20.5 5.5 29.5 12.5s13.5 18.833 13.5 35.5v237c0 15.333 1.5 30 4.5 44s8.5 26.333 16.5 37s19.167 19.167 33.5 25.5s32.5 9.5 54.5 9.5h36c12.667 0 21.167 -2.66699 25.5 -8s6.5 -13.666 6.5 -24.999s-2.16699 -19.666 -6.5 -24.999s-12.833 -8 -25.5 -8
h-21c-19.333 0 -31.333 -5.33301 -36 -16s-7 -24.667 -7 -42v-204c0 -28 -3 -50.833 -9 -68.5s-16.667 -30.834 -32 -39.501z" />
    <glyph glyph-name="bar" unicode="|" horiz-adv-x="257" 
d="M89 698c0 15.333 3.5 25.833 10.5 31.5s16.5 8.5 28.5 8.5c13.333 0 23.5 -2.83301 30.5 -8.5s10.5 -16.167 10.5 -31.5v-794c0 -15.333 -3.5 -25.833 -10.5 -31.5s-17.167 -8.5 -30.5 -8.5c-12 0 -21.5 2.83301 -28.5 8.5s-10.5 16.167 -10.5 31.5v794z" />
    <glyph glyph-name="braceright" unicode="}" horiz-adv-x="307" 
d="M156 302c-15.333 8.66699 -26 21.834 -32 39.501s-9 40.5 -9 68.5v204c0 17.333 -2.33301 31.333 -7 42s-16.667 16 -36 16h-21c-12.667 0 -21.167 2.66699 -25.5 8s-6.5 13.666 -6.5 24.999s2.16699 19.666 6.5 24.999s12.833 8 25.5 8h36
c22 0 40.167 -3.16699 54.5 -9.5s25.5 -14.833 33.5 -25.5s13.5 -23 16.5 -37s4.5 -28.667 4.5 -44v-237c0 -16.667 4.5 -28.5 13.5 -35.5s18.833 -11.167 29.5 -12.5c11.333 -1.33301 19.166 -4.66602 23.499 -9.99902s6.5 -13.666 6.5 -24.999
c0 -12 -2.16699 -20.667 -6.5 -26s-12.166 -8.66602 -23.499 -9.99902c-10.667 -1.33301 -20.5 -5.5 -29.5 -12.5s-13.5 -18.833 -13.5 -35.5v-238c0 -15.333 -1.5 -30 -4.5 -44s-8.5 -26.333 -16.5 -37s-19.167 -19.167 -33.5 -25.5s-32.5 -9.5 -54.5 -9.5h-36
c-12.667 0 -21.167 2.66699 -25.5 8s-6.5 13.666 -6.5 24.999s2.16699 19.666 6.5 24.999s12.833 8 25.5 8h21c19.333 0 31.333 5.33301 36 16s7 24.667 7 42v205c0 28 3 51 9 69s16.667 31.333 32 40z" />
    <glyph glyph-name="asciitilde" unicode="~" horiz-adv-x="573" 
d="M484 332c6 6.66699 12.6641 9.99902 19.9971 9.99902c2.66699 0 6.5 -0.833008 11.5 -2.5s10 -4.16699 15 -7.5s9.5 -7.16602 13.5 -11.499s6 -9.5 6 -15.5c0 -5.33301 -2.16699 -12 -6.5 -20s-13.833 -20 -28.5 -36c-11.333 -12 -25.666 -23 -42.999 -33
s-35.666 -15 -54.999 -15c-21.333 0 -41.833 3.33301 -61.5 10s-39.167 14.667 -58.5 24l-59 28c-13.333 6.66699 -26.166 12.334 -38.499 17.001s-25.833 7 -40.5 7c-17.333 0 -31.5 -5.16699 -42.5 -15.5s-20.833 -21.166 -29.5 -32.499c-6 -6.66699 -12.667 -10 -20 -10
c-2.66699 0 -6.5 0.833008 -11.5 2.5s-10 4.16699 -15 7.5s-9.5 7.16602 -13.5 11.499s-6 9.5 -6 15.5c0 5.33301 2.16699 12 6.5 20s13.833 20 28.5 36c12 13.333 26.333 24.666 43 33.999s35.334 14 56.001 14c21.333 0 41.666 -3.33301 60.999 -10
s38.666 -14.667 57.999 -24l64 -30c12.667 -6 25 -11 37 -15s24.667 -6 38 -6c16.667 0 30.334 5 41.001 15s20.667 20.667 30 32z" />
    <glyph glyph-name="uni00A0" unicode="&#xa0;" horiz-adv-x="245" 
 />
    <glyph glyph-name="exclamdown" unicode="&#xa1;" horiz-adv-x="262" 
d="M177 -23v-126c0 -15.333 -3.83301 -26 -11.5 -32s-19.167 -9 -34.5 -9s-26.833 3 -34.5 9s-11.5 16.667 -11.5 32v126l10 298c0.666992 13.333 4 22.333 10 27s15 7 27 7s20.667 -2.33301 26 -7s8.33301 -13.667 9 -27zM187 464c0 -15.333 -5.5 -28.5 -16.5 -39.5
s-23.833 -16.5 -38.5 -16.5c-15.333 0 -28.5 5.5 -39.5 16.5s-16.5 24.167 -16.5 39.5c0 14.667 5.5 27.5 16.5 38.5s24.167 16.5 39.5 16.5c14.667 0 27.5 -5.5 38.5 -16.5s16.5 -23.833 16.5 -38.5z" />
    <glyph glyph-name="cent" unicode="&#xa2;" horiz-adv-x="610" 
d="M440 225c7.33301 12 13.6689 19.835 19.002 23.502s12.333 5.5 21 5.5c9.33301 0 19 -3.66699 29 -11s15 -16 15 -26c0 -9.33301 -2.33301 -18.333 -7 -27c-3.33301 -6.66699 -8.83301 -15.334 -16.5 -26.001s-17.667 -21.334 -30 -32.001s-27.333 -20.667 -45 -30
s-38.5 -15.666 -62.5 -18.999v-74c0 -13.333 -3.16699 -22.333 -9.5 -27s-15.166 -7 -26.499 -7s-20 2.33301 -26 7s-9 13.667 -9 27v73c-32.667 4 -61.667 13.167 -87 27.5s-46.666 33.166 -63.999 56.499s-30.5 50.5 -39.5 81.5s-13.5 64.833 -13.5 101.5
c0 36 4.5 69.5 13.5 100.5s22.167 58.167 39.5 81.5s38.666 42.166 63.999 56.499s54.333 23.5 87 27.5v69c0 13.333 3 22.333 9 27s14.667 7 26 7s20.166 -2.33301 26.499 -7s9.5 -13.667 9.5 -27v-70c22.667 -3.33301 42.5 -8.66602 59.5 -15.999s31.667 -16 44 -26
s22.666 -20.333 30.999 -31s14.833 -21 19.5 -31c2.66699 -5.33301 4.66699 -10.333 6 -15s2 -9.66699 2 -15c0 -12 -4.83301 -21.667 -14.5 -29s-19.5 -11 -29.5 -11c-7.33301 0 -13.833 1.33301 -19.5 4s-11.5 9.66699 -17.5 21l-8.5 14.5
c-3.66699 6.33301 -8.83398 13 -15.501 20s-14.667 13.833 -24 20.5s-20.333 12 -33 16v-376c12 3.33301 22.333 7.83301 31 13.5s16 11.667 22 18s11 12.5 15 18.5s7 11 9 15zM178.003 350.002c0 -52.667 9.33301 -95.833 28 -129.5s47.334 -54.167 86.001 -61.5v379
c-38.667 -8 -67.334 -28.5 -86.001 -61.5s-28 -75.167 -28 -126.5z" />
    <glyph glyph-name="sterling" unicode="&#xa3;" horiz-adv-x="610" 
d="M338 623c-27.333 0 -50.1689 -3.33594 -68.502 -10.0029s-32.833 -15.667 -43.5 -27s-18.167 -24.166 -22.5 -38.499s-6.5 -29.166 -6.5 -44.499c0 -22 3.66699 -42.5 11 -61.5s15.666 -38.5 24.999 -58.5h191c13.333 0 22.333 -2.66699 27 -8s7 -13.666 7 -24.999
s-2.33301 -19.833 -7 -25.5s-13.667 -8.5 -27 -8.5h-164c4.66699 -15.333 8.66699 -31.333 12 -48s5 -34.667 5 -54s-3.83301 -37.166 -11.5 -53.499s-16.667 -30.5 -27 -42.5s-20.666 -22 -30.999 -30s-17.833 -13.333 -22.5 -16h352c13.333 0 22.333 -3.16699 27 -9.5
s7 -15.166 7 -26.499s-2.33301 -20.166 -7 -26.499s-13.667 -9.5 -27 -9.5h-415c-17.333 0 -29.333 3.5 -36 10.5s-10 17.833 -10 32.5c0 11.333 1.83301 20.666 5.5 27.999s10.5 13.666 20.5 18.999c13.333 7.33301 25.833 14.666 37.5 21.999s21.667 15.666 30 24.999
s14.833 20 19.5 32s7 26.667 7 44c0 19.333 -2.66699 37.166 -8 53.499s-12 32.833 -20 49.5h-95c-13.333 0 -22.333 2.83301 -27 8.5s-7 14.167 -7 25.5s2.33301 19.666 7 24.999s13.667 8 27 8h63c-7.33301 16.667 -13.166 34.334 -17.499 53.001s-6.5 39.667 -6.5 63
c0 26.667 4.66699 51.834 14 75.501s23.166 44.334 41.499 62.001s41.166 31.667 68.499 42s59 15.5 95 15.5c35.333 0 66 -4.66699 92 -14s48 -20.5 66 -33.5s32.333 -26.167 43 -39.5s18.334 -24.333 23.001 -33s7.66699 -16.334 9 -23.001s2 -12.667 2 -18
c0 -11.333 -4.66699 -20 -14 -26s-19 -9 -29 -9c-7.33301 0 -13.666 1.33301 -18.999 4s-10.666 9.33398 -15.999 20.001c-4 8 -9.5 17.833 -16.5 29.5s-16.333 22.667 -28 33s-26.167 19.333 -43.5 27s-38 11.5 -62 11.5z" />
    <glyph glyph-name="currency" unicode="&#xa4;" horiz-adv-x="574" 
d="M445 345c0 20 -3.83301 38.833 -11.5 56.5s-18 33.167 -31 46.5s-28.5 23.833 -46.5 31.5s-37 11.5 -57 11.5c-20.667 0 -40 -3.83301 -58 -11.5s-33.5 -18.167 -46.5 -31.5s-23.167 -28.833 -30.5 -46.5s-11 -36.5 -11 -56.5s3.66699 -39 11 -57s17.5 -33.5 30.5 -46.5
s28.5 -23.333 46.5 -31s37.333 -11.5 58 -11.5c20 0 39 3.83301 57 11.5s33.5 18 46.5 31s23.333 28.5 31 46.5s11.5 37 11.5 57zM432 150c-21.333 -10.667 -43.668 -19.499 -67.001 -26.499s-45 -10.5 -65 -10.5c-26.667 0 -50.667 2.83301 -72 8.5
s-40.666 15.834 -57.999 30.501l-66 -63c-10.667 -10 -23.667 -15 -39 -15c-10.667 0 -20.834 4 -30.501 12s-14.5 19.667 -14.5 35c0 12.667 4.66699 23.667 14 33l69 69c-11.333 20 -19.833 40 -25.5 60s-8.5 40.667 -8.5 62s3 42.5 9 63.5s14.667 41.833 26 62.5l-72 66
c-6 5.33301 -9.83301 10.833 -11.5 16.5s-2.5 11.167 -2.5 16.5c0 8 1.83301 15.333 5.5 22s8.16699 12.5 13.5 17.5s11.333 9 18 12s13 4.5 19 4.5c12.667 0 24.667 -5.66699 36 -17l68 -69c7.33301 5.33301 16 10.166 26 14.499s20.5 8.16602 31.5 11.499s22 6 33 8
s21.5 3 31.5 3c24.667 0 46.834 -3 66.501 -9s40.167 -16.333 61.5 -31l65 65c10.667 11.333 21 17 31 17c14 0 26.5 -4.66699 37.5 -14s16.5 -21.666 16.5 -36.999c0 -12 -4.33301 -22.333 -13 -31l-69 -70c11.333 -20.667 20 -40.834 26 -60.501s9 -40.167 9 -61.5
c0 -20 -3 -40.333 -9 -61s-14.667 -41 -26 -61l69 -68c7.33301 -8.66699 11 -18.667 11 -30c0 -15.333 -5.5 -27 -16.5 -35s-21.167 -12 -30.5 -12c-8.66699 0 -16.167 2 -22.5 6s-12.5 8.66699 -18.5 14z" />
    <glyph glyph-name="yen" unicode="&#xa5;" horiz-adv-x="610" 
d="M261 162h-130.001c-13.333 0 -22.333 2.83301 -27 8.5s-7 14.167 -7 25.5s2.33301 19.666 7 24.999s13.667 8 27 8h130v90h-130c-13.333 0 -22.333 2.83301 -27 8.5s-7 14.167 -7 25.5s2.33301 19.666 7 24.999s13.667 8 27 8h86l-153 229
c-3.33301 5.33301 -6.33301 10.666 -9 15.999s-4 10.666 -4 15.999c0 11.333 4.66699 20.333 14 27s18.333 10 27 10c14 0 25.667 -6.66699 35 -20l179 -275l182 277c5.33301 7.33301 10.333 12.166 15 14.499s10.334 3.5 17.001 3.5c9.33301 0 18.333 -3.16699 27 -9.5
s13 -15.166 13 -26.499c0 -5.33301 -1.33301 -10.666 -4 -15.999s-5.66699 -10.666 -9 -15.999l-154 -230h89c13.333 0 22.333 -2.66699 27 -8s7 -13.666 7 -24.999s-2.33301 -19.833 -7 -25.5s-13.667 -8.5 -27 -8.5h-133v-90h133c13.333 0 22.333 -2.66699 27 -8
s7 -13.666 7 -24.999s-2.33301 -19.833 -7 -25.5s-13.667 -8.5 -27 -8.5h-133v-128c0 -15.333 -3.83301 -26 -11.5 -32s-18.5 -9 -32.5 -9s-24.833 3 -32.5 9s-11.5 16.667 -11.5 32v128z" />
    <glyph glyph-name="brokenbar" unicode="&#xa6;" horiz-adv-x="257" 
d="M89 212c0 15.333 3.5 25.833 10.5 31.5s16.5 8.5 28.5 8.5c13.333 0 23.5 -2.83301 30.5 -8.5s10.5 -16.167 10.5 -31.5v-308c0 -15.333 -3.5 -25.833 -10.5 -31.5s-17.167 -8.5 -30.5 -8.5c-12 0 -21.5 2.83301 -28.5 8.5s-10.5 16.167 -10.5 31.5v308zM89 698
c0 15.333 3.5 25.833 10.5 31.5s16.5 8.5 28.5 8.5c13.333 0 23.5 -2.83301 30.5 -8.5s10.5 -16.167 10.5 -31.5v-308c0 -15.333 -3.5 -25.833 -10.5 -31.5s-17.167 -8.5 -30.5 -8.5c-12 0 -21.5 2.83301 -28.5 8.5s-10.5 16.167 -10.5 31.5v308z" />
    <glyph glyph-name="section" unicode="&#xa7;" horiz-adv-x="558" 
d="M129 28l19.5039 -14.4883c7.66699 -5.66699 17.167 -11.334 28.5 -17.001s24.5 -10.334 39.5 -14.001s32.833 -5.5 53.5 -5.5c41.333 0 72.833 7.33301 94.5 22s32.5 36.667 32.5 66c0 27.333 -8.5 49 -25.5 65s-42.833 25.667 -77.5 29l-66 6
c-18 2 -36.833 6.16699 -56.5 12.5s-37.834 15.166 -54.501 26.499s-30.334 25.666 -41.001 42.999s-16 38 -16 62c0 16.667 2.5 31.834 7.5 45.501s11.833 25.667 20.5 36s18.334 19.166 29.001 26.499s21.667 13.666 33 18.999c-25.333 13.333 -44.333 29.5 -57 48.5
s-19 40.167 -19 63.5c0 19.333 3.83301 38.666 11.5 57.999s19.834 36.666 36.501 51.999s38 27.833 64 37.5s57 14.5 93 14.5c24.667 0 47 -2 67 -6s37.667 -8.83301 53 -14.5s28.166 -11.5 38.499 -17.5s17.5 -10.667 21.5 -14c9.33301 -7.33301 15.5 -14 18.5 -20
s4.5 -11.667 4.5 -17c0 -11.333 -4.5 -22 -13.5 -32s-19.167 -15 -30.5 -15c-6.66699 0 -13 1.5 -19 4.5s-12.333 7.16699 -19 12.5l-19.5 14c-7.66699 5.33301 -16.834 10.166 -27.501 14.499s-23 8.16602 -37 11.499s-30 5 -48 5c-32.667 0 -58.667 -7.83301 -78 -23.5
s-29 -36.834 -29 -63.501c0 -8 1.66699 -16.5 5 -25.5s9 -17.333 17 -25s19 -14.334 33 -20.001s31.667 -9.83398 53 -12.501l58 -7c58 -7.33301 98.667 -23.166 122 -47.499s35 -54.833 35 -91.5c0 -14.667 -2.5 -28.5 -7.5 -41.5s-11.833 -25 -20.5 -36
s-18.667 -20.333 -30 -28s-23.333 -13.167 -36 -16.5c35.333 -11.333 60.166 -29.333 74.499 -54s21.5 -50.667 21.5 -78c0 -22.667 -4.66699 -43.834 -14 -63.501s-23 -36.667 -41 -51s-40.5 -25.666 -67.5 -33.999s-58.5 -12.5 -94.5 -12.5c-30 0 -56.5 2.16699 -79.5 6.5
s-42.833 9.66602 -59.5 15.999s-30.334 13 -41.001 20s-18.667 12.833 -24 17.5c-12 12 -18 23 -18 33c0 11.333 4.5 22 13.5 32s19.167 15 30.5 15c6.66699 0 13 -1.5 19 -4.5s12.333 -7.16699 19 -12.5zM400.004 313.012c0 25.333 -12.832 45.999 -38.499 61.999
s-59.834 24 -102.501 24c-36 0 -64.167 -8 -84.5 -24s-30.5 -36 -30.5 -60c0 -22.667 10.667 -41.667 32 -57s56.333 -23 105 -23c34 0 62.333 6.83301 85 20.5s34 32.834 34 57.501z" />
    <glyph glyph-name="dieresis" unicode="&#xa8;" horiz-adv-x="500" 
d="M361 707c14 0 26.667 -4.33301 38 -13s17 -21.667 17 -39c0 -16 -5 -28.667 -15 -38s-23.333 -14 -40 -14s-30 4.66699 -40 14s-15 22 -15 38c0 15.333 5.16699 27.833 15.5 37.5s23.5 14.5 39.5 14.5zM149 707c13.333 0 26.001 -4.33301 38.001 -13s18 -21.667 18 -39
c0 -16 -5.16699 -28.667 -15.5 -38s-23.833 -14 -40.5 -14s-29.834 4.66699 -39.501 14s-14.5 22 -14.5 38c0 15.333 5 27.833 15 37.5s23 14.5 39 14.5z" />
    <glyph glyph-name="copyright" unicode="&#xa9;" horiz-adv-x="862" 
d="M438 138c-32 0 -60.4971 5.16406 -85.4971 15.4971s-46.167 25 -63.5 44s-30.5 42 -39.5 69s-13.5 56.833 -13.5 89.5c0 32 4.83301 61.333 14.5 88s23.5 49.834 41.5 69.501s39.5 34.834 64.5 45.501s52.833 16 83.5 16c38 0 71.833 -8.5 101.5 -25.5
s52.167 -38.167 67.5 -63.5c9.33301 -15.333 14 -30 14 -44c0 -8.66699 -4.33301 -16 -13 -22s-17.667 -9 -27 -9c-8 0 -14.833 1.33301 -20.5 4s-10.834 8.33398 -15.501 17.001l-16 25c-5.33301 8 -12 15 -20 21s-18 10.833 -30 14.5s-26.667 5.5 -44 5.5
c-39.333 0 -68.333 -13.167 -87 -39.5s-28 -60.5 -28 -102.5c0 -43.333 9.66699 -78 29 -104s49.666 -39 90.999 -39c24 0 43.833 3.83301 59.5 11.5s28.167 20.5 37.5 38.5c4.66699 9.33301 9.16699 15.666 13.5 18.999s9.5 5 15.5 5c10 0 20.167 -3.16699 30.5 -9.5
s15.5 -14.833 15.5 -25.5c0 -12 -3.33301 -23.667 -10 -35s-14.334 -21.666 -23.001 -30.999c-15.333 -16 -35.5 -28 -60.5 -36s-52.5 -12 -82.5 -12zM820.003 354.997c0 -51.333 -10.167 -99.666 -30.5 -144.999s-48.166 -85 -83.499 -119s-76.5 -60.833 -123.5 -80.5
s-97.5 -29.5 -151.5 -29.5s-104.5 9.83301 -151.5 29.5s-88.167 46.5 -123.5 80.5s-63.166 73.667 -83.499 119s-30.5 93.666 -30.5 144.999s10.167 99.666 30.5 144.999s48.166 85 83.499 119s76.5 60.833 123.5 80.5s97.5 29.5 151.5 29.5s104.5 -9.83301 151.5 -29.5
s88.167 -46.5 123.5 -80.5s63.166 -73.667 83.499 -119s30.5 -93.666 30.5 -144.999zM739.003 354.997c0 42 -8.16699 81.667 -24.5 119s-38.5 69.833 -66.5 97.5s-60.667 49.667 -98 66s-77 24.5 -119 24.5s-81.667 -8.16699 -119 -24.5s-70 -38.333 -98 -66
s-50.167 -60.167 -66.5 -97.5s-24.5 -77 -24.5 -119s8.16699 -81.667 24.5 -119s38.5 -69.833 66.5 -97.5s60.667 -49.667 98 -66s77 -24.5 119 -24.5s81.667 8.16699 119 24.5s70 38.333 98 66s50.167 60.167 66.5 97.5s24.5 77 24.5 119z" />
    <glyph glyph-name="ordfeminine" unicode="&#xaa;" horiz-adv-x="389" 
d="M269 519c-26 -1.33301 -46.333 -3.16504 -61 -5.49805s-25.667 -4.5 -33 -6.5c-26 -6.66699 -43.167 -14.834 -51.5 -24.501s-12.5 -20.834 -12.5 -33.501c0 -12 3.5 -22.5 10.5 -31.5s20.167 -13.5 39.5 -13.5c14 0 27.5 2.5 40.5 7.5s24.5 11.833 34.5 20.5
s18 18.667 24 30s9 23.333 9 36v21zM346 371.001c0 -11.333 -3.83496 -19.166 -11.502 -23.499s-17.5 -6.5 -29.5 -6.5c-10.667 0 -19.334 2.16699 -26.001 6.5s-10 12.166 -10 23.499v34c-13.333 -19.333 -30.666 -34.666 -51.999 -45.999s-47.333 -17 -78 -17
c-33.333 0 -59.833 9 -79.5 27s-29.5 42 -29.5 72c0 18 3.5 33.5 10.5 46.5s16.167 24 27.5 33s24.333 16.333 39 22s29.667 10.167 45 13.5c18.667 3.33301 36.167 6.16602 52.5 8.49902s37.833 4.16602 64.5 5.49902v14c0 19.333 -5.16699 34.333 -15.5 45
s-31.5 16 -63.5 16c-15.333 0 -30.333 -2 -45 -6s-29.667 -12.667 -45 -26l-13 -10c-3.33301 -2.66699 -7.66602 -4 -12.999 -4c-9.33301 0 -17.5 3.83301 -24.5 11.5s-10.5 15.834 -10.5 24.501c0 8 3.66699 16.5 11 25.5s17.833 17.167 31.5 24.5s30.334 13.333 50.001 18
s41.5 7 65.5 7c50 0 87.333 -10 112 -30s37 -51 37 -93v-216z" />
    <glyph glyph-name="guillemotleft" unicode="&#xab;" horiz-adv-x="542" 
d="M55 234c-3.33301 4 -6.66699 8.83398 -10 14.501s-5 11.167 -5 16.5c0 6 1.33301 11.333 4 16s5.66699 8.66699 9 12l143 162c10.667 12 21.334 18 32.001 18c11.333 0 21.5 -4.33301 30.5 -13s13.5 -18.334 13.5 -29.001c0 -5.33301 -1.33301 -10.5 -4 -15.5
s-7.66699 -11.5 -15 -19.5l-114 -128l111 -130c6.66699 -7.33301 11.167 -13.333 13.5 -18s3.5 -9.66699 3.5 -15c0 -10.667 -4.5 -20 -13.5 -28s-18.833 -12 -29.5 -12c-12.667 0 -24.334 6.33301 -35.001 19zM279.999 234.001c-3.33301 4 -6.66699 8.83398 -10 14.501
s-5 11.167 -5 16.5c0 6 1.33301 11.333 4 16s5.66699 8.66699 9 12l143 162c10.667 12 21.334 18 32.001 18c11.333 0 21.5 -4.33301 30.5 -13s13.5 -18.334 13.5 -29.001c0 -5.33301 -1.33301 -10.5 -4 -15.5s-7.66699 -11.5 -15 -19.5l-114 -128l111 -130
c6.66699 -7.33301 11.167 -13.333 13.5 -18s3.5 -9.66699 3.5 -15c0 -10.667 -4.5 -20 -13.5 -28s-18.833 -12 -29.5 -12c-12.667 0 -24.334 6.33301 -35.001 19z" />
    <glyph glyph-name="logicalnot" unicode="&#xac;" horiz-adv-x="610" 
d="M496 462c13.333 0 22.667 -3.33203 28 -9.99902s8 -16.334 8 -29.001v-211c0 -13.333 -3.33301 -22.666 -10 -27.999s-16 -8 -28 -8s-21.5 2.66699 -28.5 8s-10.5 14.666 -10.5 27.999v173h-341c-13.333 0 -22.666 3.5 -27.999 10.5s-8 16.5 -8 28.5s2.66699 21.333 8 28
s14.666 10 27.999 10h382z" />
    <glyph glyph-name="uni00AD" unicode="&#xad;" horiz-adv-x="284" 
d="M62 215c-14 0 -23.833 3.83301 -29.5 11.5s-8.5 18.167 -8.5 31.5s2.83301 23.5 8.5 30.5s15.5 10.5 29.5 10.5h160c14 0 23.833 -3.5 29.5 -10.5s8.5 -17.167 8.5 -30.5s-2.83301 -23.833 -8.5 -31.5s-15.5 -11.5 -29.5 -11.5h-160z" />
    <glyph glyph-name="registered" unicode="&#xae;" horiz-adv-x="862" 
d="M820 355c0 -51.333 -10.167 -99.666 -30.5 -144.999s-48.166 -85 -83.499 -119s-76.5 -60.833 -123.5 -80.5s-97.5 -29.5 -151.5 -29.5s-104.5 9.83301 -151.5 29.5s-88.167 46.5 -123.5 80.5s-63.166 73.667 -83.499 119s-30.5 93.666 -30.5 144.999
s10.167 99.666 30.5 144.999s48.166 85 83.499 119s76.5 60.833 123.5 80.5s97.5 29.5 151.5 29.5s104.5 -9.83301 151.5 -29.5s88.167 -46.5 123.5 -80.5s63.166 -73.667 83.499 -119s30.5 -93.666 30.5 -144.999zM739 355c0 42 -8.16699 81.667 -24.5 119
s-38.5 69.833 -66.5 97.5s-60.667 49.667 -98 66s-77 24.5 -119 24.5s-81.667 -8.16699 -119 -24.5s-70 -38.333 -98 -66s-50.167 -60.167 -66.5 -97.5s-24.5 -77 -24.5 -119s8.16699 -81.667 24.5 -119s38.5 -69.833 66.5 -97.5s60.667 -49.667 98 -66s77 -24.5 119 -24.5
s81.667 8.16699 119 24.5s70 38.333 98 66s50.167 60.167 66.5 97.5s24.5 77 24.5 119zM466 301h-100.999v-122c0 -21.333 -12.333 -32 -37 -32c-12.667 0 -22.667 2.5 -30 7.5s-11 13.167 -11 24.5v358c0 8.66699 2.16699 16 6.5 22s12.166 9 23.499 9h110
c57.333 0 100.666 -10.833 129.999 -32.5s44 -56.834 44 -105.501c0 -21.333 -4.5 -42 -13.5 -62s-25.833 -36.667 -50.5 -50l47 -121c2 -5.33301 3 -11.666 3 -18.999c0 -20.667 -12.667 -31 -38 -31c-13.333 0 -22.666 2.83301 -27.999 8.5s-10.333 14.167 -15 25.5z
M520.001 435c0 19.333 -6.16797 35 -18.501 47s-30.166 18 -53.499 18h-83v-130h87c23.333 0 40.5 5.66699 51.5 17s16.5 27.333 16.5 48z" />
    <glyph glyph-name="macron" unicode="&#xaf;" horiz-adv-x="350" 
d="M58 615c-11.333 0 -19.833 2.66699 -25.5 8s-8.5 15.666 -8.5 30.999c0 14 2.5 24.167 7.5 30.5s14.167 9.5 27.5 9.5h222c13.333 0 22.5 -3.16699 27.5 -9.5s7.5 -16.5 7.5 -30.5c0 -15.333 -3 -25.666 -9 -30.999s-15.667 -8 -29 -8h-220z" />
    <glyph glyph-name="degree" unicode="&#xb0;" horiz-adv-x="378" 
d="M351 552c0 -22 -4.33301 -42.5 -13 -61.5s-20.334 -35.667 -35.001 -50s-31.834 -25.666 -51.501 -33.999s-40.5 -12.5 -62.5 -12.5s-42.833 4.16699 -62.5 12.5s-36.834 19.666 -51.501 33.999s-26.334 31 -35.001 50s-13 39.5 -13 61.5s4.33301 42.5 13 61.5
s20.334 35.667 35.001 50s31.834 25.666 51.501 33.999s40.5 12.5 62.5 12.5s42.833 -4.16699 62.5 -12.5s36.834 -19.666 51.501 -33.999s26.334 -31 35.001 -50s13 -39.5 13 -61.5zM286 552c0 13.333 -2.66699 26 -8 38s-12.333 22.5 -21 31.5s-19 16.167 -31 21.5
s-24.333 8 -37 8c-13.333 0 -25.833 -2.66699 -37.5 -8s-21.834 -12.5 -30.501 -21.5s-15.667 -19.5 -21 -31.5s-8 -24.667 -8 -38s2.66699 -26 8 -38s12.333 -22.5 21 -31.5s18.834 -16.167 30.501 -21.5s24.167 -8 37.5 -8c12.667 0 25 2.66699 37 8s22.333 12.5 31 21.5
s15.667 19.5 21 31.5s8 24.667 8 38z" />
    <glyph glyph-name="plusminus" unicode="&#xb1;" horiz-adv-x="610" 
d="M496 78c13.333 0 22.666 -3.33301 27.999 -10s8 -16 8 -28s-2.66699 -21.5 -8 -28.5s-14.666 -10.5 -27.999 -10.5h-382c-13.333 0 -22.666 3.5 -27.999 10.5s-8 16.5 -8 28.5s2.66699 21.333 8 28s14.666 10 27.999 10h382zM114 331c-13.333 0 -22.666 3.5 -27.999 10.5
s-8 16.5 -8 28.5s2.66699 21.333 8 28s14.666 10 27.999 10h151v161c0 14.667 3.33301 24.667 10 30s16.334 8 29.001 8c13.333 0 23.333 -2.66699 30 -8s10 -15.333 10 -30v-161h152c13.333 0 22.666 -3.33301 27.999 -10s8 -16 8 -28s-2.66699 -21.5 -8 -28.5
s-14.666 -10.5 -27.999 -10.5h-152v-160c0 -14.667 -3.33301 -24.667 -10 -30s-16.667 -8 -30 -8c-12.667 0 -22.334 2.66699 -29.001 8s-10 15.333 -10 30v160h-151z" />
    <glyph glyph-name="twosuperior" unicode="&#xb2;" 
d="M237 628c-21.333 0 -38.667 -4.33398 -52 -13.001s-24.666 -18.334 -33.999 -29.001l-19 -21c-6 -6.66699 -13.667 -10 -23 -10c-8.66699 0 -16.667 3 -24 9s-11 13.333 -11 22s2.83301 16.834 8.5 24.501s10.834 13.834 15.501 18.501
c14.667 15.333 33.834 30 57.501 44s54.167 21 91.5 21c19.333 0 37.666 -2.66699 54.999 -8s32.666 -13.333 45.999 -24s23.833 -24.167 31.5 -40.5s11.5 -35.5 11.5 -57.5c0 -20 -3.16699 -38.5 -9.5 -55.5s-14.666 -32.667 -24.999 -47s-21.833 -27.833 -34.5 -40.5
s-25.334 -24.667 -38.001 -36c-9.33301 -8 -19.5 -16.167 -30.5 -24.5l-43.5 -32.5h162c18.667 0 28 -11 28 -33c0 -9.33301 -2 -17.833 -6 -25.5s-12 -11.5 -24 -11.5h-256c-10.667 0 -17.834 3.33301 -21.501 10s-5.5 13.334 -5.5 20.001c0 10 2 18.167 6 24.5
s11.333 13.5 22 21.5c20.667 14.667 42.5 31 65.5 49s44.333 36.667 64 56s36 38.833 49 58.5s19.5 39.167 19.5 58.5c0 23.333 -6.66699 41.166 -20 53.499s-32 18.5 -56 18.5z" />
    <glyph glyph-name="threesuperior" unicode="&#xb3;" 
d="M246 694c42.667 0 76.3369 -9.3291 101.004 -27.9961s37 -46 37 -82c0 -24.667 -6.83301 -46 -20.5 -64s-30.167 -31.333 -49.5 -40c25.333 -6.66699 45.833 -18.334 61.5 -35.001s23.5 -38.334 23.5 -65.001c0 -22 -4.5 -41 -13.5 -57s-21 -29.167 -36 -39.5
s-31.833 -18 -50.5 -23s-37.334 -7.5 -56.001 -7.5c-34.667 0 -63.834 4.5 -87.501 13.5s-43.167 20.167 -58.5 33.5c-6 5.33301 -11.333 11.333 -16 18s-7 14.334 -7 23.001c0 9.33301 3.66699 17.5 11 24.5s15.666 10.5 24.999 10.5c6.66699 0 12.5 -2 17.5 -6l18.5 -15
c11.333 -9.33301 24.333 -18 39 -26s33 -12 55 -12c23.333 0 42.5 5.16699 57.5 15.5s22.5 26.166 22.5 47.499c0 12.667 -2.5 23 -7.5 31s-11.5 14.333 -19.5 19s-17.167 8 -27.5 10s-20.833 3 -31.5 3h-19c-8 0 -13.667 3.5 -17 10.5s-5 14.5 -5 22.5
c0 7.33301 1.66699 14.833 5 22.5s9 11.5 17 11.5h17c24 0 43 5 57 15s21 25.333 21 46c0 21.333 -7.33301 36.666 -22 45.999s-31.667 14 -51 14s-35.333 -3.83301 -48 -11.5s-25 -17.834 -37 -30.501c-5.33301 -6 -10.5 -10.833 -15.5 -14.5s-10.167 -5.5 -15.5 -5.5
c-9.33301 0 -17.833 3.16699 -25.5 9.5s-11.5 13.5 -11.5 21.5c0 8.66699 2.66699 16.5 8 23.5s10.666 13.167 15.999 18.5c14.667 14.667 33.5 27 56.5 37s50.167 15 81.5 15z" />
    <glyph glyph-name="acute" unicode="&#xb4;" horiz-adv-x="392" 
d="M166 711c10.667 12.667 20.334 22.167 29.001 28.5s18 9.5 28 9.5c15.333 0 27 -4.33301 35 -13s12 -18.667 12 -30c0 -10.667 -7.66699 -23 -23 -37l-85 -76c-6.66699 -6 -13.334 -11 -20.001 -15s-14.667 -6 -24 -6s-16.833 2.66699 -22.5 8s-8.5 12.333 -8.5 21
c0 10.667 4.33301 20.667 13 30z" />
    <glyph glyph-name="mu" unicode="&#xb5;" horiz-adv-x="620" 
d="M287 -13c-10.667 0 -21.8311 0.999023 -33.498 2.99902s-22.667 5.33301 -33 10s-20 10.334 -29 17.001s-16.167 15 -21.5 25v-223c0 -28 -14 -42 -42 -42c-13.333 0 -24.5 3.16699 -33.5 9.5s-13.5 17.166 -13.5 32.499v654c0 15.333 3.66699 26.166 11 32.499
s19 9.5 35 9.5c13.333 0 24.333 -3.16699 33 -9.5s13 -17.166 13 -32.499v-274c0 -15.333 1 -29.166 3 -41.499s5 -22.833 9 -31.5c7.33301 -16 19.833 -29.667 37.5 -41s38.167 -17 61.5 -17c22.667 0 42.167 3.5 58.5 10.5s30 15.667 41 26s19.5 21.333 25.5 33
s10 21.834 12 30.501c3.33301 15.333 5.5 31.5 6.5 48.5s1.5 31.167 1.5 42.5v211c0 15.333 3.66699 26.666 11 33.999s19.666 11 36.999 11c13.333 0 24 -3.33301 32 -10s12 -17.667 12 -33v-353c0 -16.667 2.16699 -27.834 6.5 -33.501s10.5 -8.5 18.5 -8.5
c6 0 12.667 1 20 3s13.666 3 18.999 3c10.667 0 18.334 -3.66699 23.001 -11s7 -16.666 7 -27.999c0 -10.667 -1.66699 -19 -5 -25c-6 -11.333 -16 -19.166 -30 -23.499s-29.333 -6.5 -46 -6.5c-28.667 0 -50.834 7.66699 -66.501 23s-25.167 33.666 -28.5 54.999
c-10 -16.667 -21.167 -30.167 -33.5 -40.5s-25.166 -18.5 -38.499 -24.5s-26.833 -10 -40.5 -12s-26.834 -3 -39.501 -3z" />
    <glyph glyph-name="paragraph" unicode="&#xb6;" horiz-adv-x="609" 
d="M435 614l-140.002 -0.00195312v-668c0 -15.333 -3.83301 -26 -11.5 -32s-18.5 -9 -32.5 -9s-24.833 3 -32.5 9s-11.5 16.667 -11.5 32v356c-21.333 2.66699 -41.666 8.83398 -60.999 18.501s-36.333 22.5 -51 38.5s-26.167 35 -34.5 57s-12.5 47 -12.5 75
c0 64.667 20.167 114.334 60.5 149.001s97.5 52 171.5 52h207c12.667 0 21.834 -3.66699 27.501 -11s8.5 -17.333 8.5 -30v-705c0 -15.333 -3.83301 -26 -11.5 -32s-18.5 -9 -32.5 -9s-24.833 3 -32.5 9s-11.5 16.667 -11.5 32v668z" />
    <glyph glyph-name="periodcentered" unicode="&#xb7;" horiz-adv-x="231" 
d="M55 351c0 16 6 30.167 18 42.5s26 18.5 42 18.5s30.167 -6.16699 42.5 -18.5s18.5 -26.5 18.5 -42.5s-6.16699 -30 -18.5 -42s-26.5 -18 -42.5 -18s-30 6 -42 18s-18 26 -18 42z" />
    <glyph glyph-name="cedilla" unicode="&#xb8;" horiz-adv-x="468" 
d="M340 -131c0 -26.667 -9.16699 -49.4971 -27.5 -68.4971s-48.166 -28.5 -89.499 -28.5c-22.667 0 -40.5 2.16699 -53.5 6.5s-23.167 8.16602 -30.5 11.499c-14.667 8 -22 18.333 -22 31c0 8 2.66699 15.667 8 23s12.666 11 21.999 11c6 0 11.667 -1.16699 17 -3.5
s10.666 -5 15.999 -8s11.333 -5.66699 18 -8s14.334 -3.5 23.001 -3.5c14 0 25.333 3 34 9s13 15 13 27c0 8.66699 -2 15.667 -6 21s-9.16699 9.16602 -15.5 11.499s-13.833 3.83301 -22.5 4.5s-17.667 1 -27 1c-14.667 0 -23.667 2.66699 -27 8s-4 11.666 -2 18.999l21 67
h59l-11 -41c36 -3.33301 62.167 -12.5 78.5 -27.5s24.5 -35.833 24.5 -62.5z" />
    <glyph glyph-name="onesuperior" unicode="&#xb9;" 
d="M299 299c0 -10.667 -2.16895 -20.168 -6.50195 -28.501s-14.833 -12.5 -31.5 -12.5c-26.667 0 -40 14.667 -40 44v296l-16 -8l-20.5 -10.5c-7 -3.66699 -13.833 -7 -20.5 -10l-17 -7.5l-18 -6.5c-6.66699 -2.33301 -13.667 -3.5 -21 -3.5c-8 0 -15.167 2.5 -21.5 7.5
s-9.5 13.833 -9.5 26.5c0 9.33301 3 16.5 9 21.5s15.667 10.833 29 17.5l44.5 23c11.667 6 24.834 13.667 39.501 23c9.33301 6 18.833 11.333 28.5 16s20.834 7 33.501 7c10 0 18.833 -3.16699 26.5 -9.5s11.5 -17.166 11.5 -32.499v-353z" />
    <glyph glyph-name="ordmasculine" unicode="&#xba;" horiz-adv-x="417" 
d="M384 527c0 -28.667 -4.33203 -54.332 -12.999 -76.999s-20.5 -41.834 -35.5 -57.501s-33.167 -27.667 -54.5 -36s-44.333 -12.5 -69 -12.5c-54.667 0 -97.334 16 -128.001 48s-46 76.333 -46 133c0 28 4.33301 53.5 13 76.5s20.834 42.5 36.501 58.5
s34.167 28.333 55.5 37s44.666 13 69.999 13s48.5 -4.33301 69.5 -13s39 -21 54 -37s26.667 -35.167 35 -57.5s12.5 -47.5 12.5 -75.5zM303.001 524.002c0 36 -7.66699 64.833 -23 86.5s-38 32.5 -68 32.5c-28.667 0 -51.167 -10.833 -67.5 -32.5s-24.5 -50.5 -24.5 -86.5
c0 -34 7.83301 -61.333 23.5 -82s38.5 -31 68.5 -31s52.667 10.333 68 31s23 48 23 82z" />
    <glyph glyph-name="guillemotright" unicode="&#xbb;" horiz-adv-x="542" 
d="M128 84c-10.667 -12.667 -22.335 -19.001 -35.002 -19.001c-10.667 0 -20.5 4 -29.5 12s-13.5 17.333 -13.5 28c0 5.33301 1.16699 10.333 3.5 15s6.83301 10.667 13.5 18l111 130l-114 128c-7.33301 8 -12.333 14.5 -15 19.5s-4 10.167 -4 15.5
c0 10.667 4.5 20.334 13.5 29.001s19.167 13 30.5 13c10.667 0 21.334 -6 32.001 -18l143 -162c3.33301 -3.33301 6.33301 -7.33301 9 -12s4 -10 4 -16c0 -5.33301 -1.66699 -10.833 -5 -16.5s-6.66602 -10.5 -9.99902 -14.5zM352.999 83.999
c-10.667 -12.667 -22.335 -19.001 -35.002 -19.001c-10.667 0 -20.5 4 -29.5 12s-13.5 17.333 -13.5 28c0 5.33301 1.16699 10.333 3.5 15s6.83301 10.667 13.5 18l111 130l-114 128c-7.33301 8 -12.333 14.5 -15 19.5s-4 10.167 -4 15.5c0 10.667 4.5 20.334 13.5 29.001
s19.167 13 30.5 13c10.667 0 21.334 -6 32.001 -18l143 -162c3.33301 -3.33301 6.33301 -7.33301 9 -12s4 -10 4 -16c0 -5.33301 -1.66699 -10.833 -5 -16.5s-6.66602 -10.5 -9.99902 -14.5z" />
    <glyph glyph-name="onequarter" unicode="&#xbc;" horiz-adv-x="961" 
d="M568 671c6.66699 14 16.333 20.999 29 20.999c12 0 22.167 -3.16699 30.5 -9.5s12.5 -13.166 12.5 -20.499c0 -3.33301 -0.333008 -6.66602 -1 -9.99902s-2.33398 -7.66602 -5.00098 -12.999l-312 -631c-3.33301 -7.33301 -7.33301 -13 -12 -17s-11.667 -6 -21 -6
c-11.333 0 -20.833 3 -28.5 9s-11.5 12.667 -11.5 20c0 3.33301 0.333008 6.66602 1 9.99902s2.33398 7.66602 5.00098 12.999zM239.999 298.999c0 -10.667 -2.16895 -20.168 -6.50195 -28.501s-14.833 -12.5 -31.5 -12.5c-26.667 0 -40 14.667 -40 44v296l-16 -8
l-20.5 -10.5c-7 -3.66699 -13.833 -7 -20.5 -10l-17 -7.5l-18 -6.5c-6.66699 -2.33301 -13.667 -3.5 -21 -3.5c-8 0 -15.167 2.5 -21.5 7.5s-9.5 13.833 -9.5 26.5c0 9.33301 3 16.5 9 21.5s15.667 10.833 29 17.5l44.5 23c11.667 6 24.834 13.667 39.501 23
c9.33301 6 18.833 11.333 28.5 16s20.834 7 33.501 7c10 0 18.833 -3.16699 26.5 -9.5s11.5 -17.166 11.5 -32.499v-353zM749.997 336.998l-139 -174h139v174zM749.997 97.998l-186 -0.000976562c-24.667 0 -37 10.333 -37 31c0 9.33301 1.5 17 4.5 23s6.5 11.667 10.5 17
l191 238c8.66699 10.667 17 18.334 25 23.001s18.333 7 31 7c11.333 0 20.333 -2.83301 27 -8.5s10 -14.834 10 -27.501v-238h45c8.66699 0 14.667 -3.16699 18 -9.5s5 -14.166 5 -23.499c0 -8.66699 -1.83301 -16.167 -5.5 -22.5s-10.167 -9.5 -19.5 -9.5h-43v-65
c0 -8 -2.5 -15.333 -7.5 -22s-14.5 -10 -28.5 -10c-26.667 0 -40 10.667 -40 32v65z" />
    <glyph glyph-name="onehalf" unicode="&#xbd;" horiz-adv-x="961" 
d="M535 671c6.66699 14 16.333 20.999 29 20.999c12 0 22.167 -3.16699 30.5 -9.5s12.5 -13.166 12.5 -20.499c0 -3.33301 -0.333008 -6.66602 -1 -9.99902s-2.33398 -7.66602 -5.00098 -12.999l-312 -631c-3.33301 -7.33301 -7.33301 -13 -12 -17s-11.667 -6 -21 -6
c-11.333 0 -20.833 3 -28.5 9s-11.5 12.667 -11.5 20c0 3.33301 0.333008 6.66602 1 9.99902s2.33398 7.66602 5.00098 12.999zM227.999 298.999c0 -10.667 -2.16895 -20.168 -6.50195 -28.501s-14.833 -12.5 -31.5 -12.5c-26.667 0 -40 14.667 -40 44v296l-16 -8
l-20.5 -10.5c-7 -3.66699 -13.833 -7 -20.5 -10l-17 -7.5l-18 -6.5c-6.66699 -2.33301 -13.667 -3.5 -21 -3.5c-8 0 -15.167 2.5 -21.5 7.5s-9.5 13.833 -9.5 26.5c0 9.33301 3 16.5 9 21.5s15.667 10.833 29 17.5l44.5 23c11.667 6 24.834 13.667 39.501 23
c9.33301 6 18.833 11.333 28.5 16s20.834 7 33.501 7c10 0 18.833 -3.16699 26.5 -9.5s11.5 -17.166 11.5 -32.499v-353zM739.997 370.998c-21.333 0 -38.667 -4.33398 -52 -13.001s-24.666 -18.334 -33.999 -29.001l-19 -21c-6 -6.66699 -13.667 -10 -23 -10
c-8.66699 0 -16.667 3 -24 9s-11 13.333 -11 22s2.83301 16.834 8.5 24.501s10.834 13.834 15.501 18.501c14.667 15.333 33.834 30 57.501 44s54.167 21 91.5 21c19.333 0 37.666 -2.66699 54.999 -8s32.666 -13.333 45.999 -24s23.833 -24.167 31.5 -40.5
s11.5 -35.5 11.5 -57.5c0 -20 -3.16699 -38.5 -9.5 -55.5s-14.666 -32.667 -24.999 -47s-21.833 -27.833 -34.5 -40.5s-25.334 -24.667 -38.001 -36c-9.33301 -8 -19.5 -16.167 -30.5 -24.5l-43.5 -32.5h162c18.667 0 28 -11 28 -33c0 -9.33301 -2 -17.833 -6 -25.5
s-12 -11.5 -24 -11.5h-256c-10.667 0 -17.834 3.33301 -21.501 10s-5.5 13.334 -5.5 20.001c0 10 2 18.167 6 24.5s11.333 13.5 22 21.5c20.667 14.667 42.5 31 65.5 49s44.333 36.667 64 56s36 38.833 49 58.5s19.5 39.167 19.5 58.5c0 23.333 -6.66699 41.166 -20 53.499
s-32 18.5 -56 18.5z" />
    <glyph glyph-name="threequarters" unicode="&#xbe;" horiz-adv-x="961" 
d="M621 671c6.66699 14 16.333 20.999 29 20.999c12 0 22.167 -3.16699 30.5 -9.5s12.5 -13.166 12.5 -20.499c0 -3.33301 -0.333008 -6.66602 -1 -9.99902s-2.33398 -7.66602 -5.00098 -12.999l-312 -631c-3.33301 -7.33301 -7.33301 -13 -12 -17s-11.667 -6 -21 -6
c-11.333 0 -20.833 3 -28.5 9s-11.5 12.667 -11.5 20c0 3.33301 0.333008 6.66602 1 9.99902s2.33398 7.66602 5.00098 12.999zM208.999 693.999c42.667 0 76.3369 -9.3291 101.004 -27.9961s37 -46 37 -82c0 -24.667 -6.83301 -46 -20.5 -64s-30.167 -31.333 -49.5 -40
c25.333 -6.66699 45.833 -18.334 61.5 -35.001s23.5 -38.334 23.5 -65.001c0 -22 -4.5 -41 -13.5 -57s-21 -29.167 -36 -39.5s-31.833 -18 -50.5 -23s-37.334 -7.5 -56.001 -7.5c-34.667 0 -63.834 4.5 -87.501 13.5s-43.167 20.167 -58.5 33.5
c-6 5.33301 -11.333 11.333 -16 18s-7 14.334 -7 23.001c0 9.33301 3.66699 17.5 11 24.5s15.666 10.5 24.999 10.5c6.66699 0 12.5 -2 17.5 -6l18.5 -15c11.333 -9.33301 24.333 -18 39 -26s33 -12 55 -12c23.333 0 42.5 5.16699 57.5 15.5s22.5 26.166 22.5 47.499
c0 12.667 -2.5 23 -7.5 31s-11.5 14.333 -19.5 19s-17.167 8 -27.5 10s-20.833 3 -31.5 3h-19c-8 0 -13.667 3.5 -17 10.5s-5 14.5 -5 22.5c0 7.33301 1.66699 14.833 5 22.5s9 11.5 17 11.5h17c24 0 43 5 57 15s21 25.333 21 46c0 21.333 -7.33301 36.666 -22 45.999
s-31.667 14 -51 14s-35.333 -3.83301 -48 -11.5s-25 -17.834 -37 -30.501c-5.33301 -6 -10.5 -10.833 -15.5 -14.5s-10.167 -5.5 -15.5 -5.5c-9.33301 0 -17.833 3.16699 -25.5 9.5s-11.5 13.5 -11.5 21.5c0 8.66699 2.66699 16.5 8 23.5s10.666 13.167 15.999 18.5
c14.667 14.667 33.5 27 56.5 37s50.167 15 81.5 15zM772.002 337.003l-139 -174h139v174zM772.002 98.0029l-186 -0.000976562c-24.667 0 -37 10.333 -37 31c0 9.33301 1.5 17 4.5 23s6.5 11.667 10.5 17l191 238c8.66699 10.667 17 18.334 25 23.001s18.333 7 31 7
c11.333 0 20.333 -2.83301 27 -8.5s10 -14.834 10 -27.501v-238h45c8.66699 0 14.667 -3.16699 18 -9.5s5 -14.166 5 -23.499c0 -8.66699 -1.83301 -16.167 -5.5 -22.5s-10.167 -9.5 -19.5 -9.5h-43v-65c0 -8 -2.5 -15.333 -7.5 -22s-14.5 -10 -28.5 -10
c-26.667 0 -40 10.667 -40 32v65z" />
    <glyph glyph-name="questiondown" unicode="&#xbf;" horiz-adv-x="537" 
d="M484 -75c-4 -7.33301 -10.502 -18.0039 -19.502 -32.0039s-21.667 -27.833 -38 -41.5s-37.166 -25.5 -62.499 -35.5s-56.333 -15 -93 -15c-32 0 -61.167 4.33301 -87.5 13s-49 21.167 -68 37.5s-33.833 36.5 -44.5 60.5s-16 51.333 -16 82c0 24.667 3.33301 46.5 10 65.5
s15.5 35.833 26.5 50.5s23.333 27.834 37 39.501s27.5 22.5 41.5 32.5c15.333 11.333 27.833 21.5 37.5 30.5s17.167 17.5 22.5 25.5s9 16.167 11 24.5s3 17.833 3 28.5c0 14.667 3.33301 24.667 10 30s16.667 8 30 8c12.667 0 22.334 -2.66699 29.001 -8s10 -15.333 10 -30
v-11c0 -19.333 -2.66699 -36.333 -8 -51s-12.333 -27.667 -21 -39s-18.5 -21.666 -29.5 -30.999s-22.5 -18.333 -34.5 -27c-10.667 -8 -21.167 -16.333 -31.5 -25s-19.5 -18.167 -27.5 -28.5s-14.333 -22.166 -19 -35.499s-7 -29 -7 -47c0 -39.333 11.5 -69.333 34.5 -90
s55.167 -31 96.5 -31c26 0 47.5 4 64.5 12s30.833 17.5 41.5 28.5s18.5 22.333 23.5 34s8.83301 21.167 11.5 28.5c4 12 9 19.5 15 22.5s13.333 4.5 22 4.5c11.333 0 21.333 -3 30 -9s13 -14.667 13 -26c0 -5.33301 -0.833008 -11.666 -2.5 -18.999s-5.16699 -16 -10.5 -26z
M338.998 463.996c0 -15.333 -5.5 -28.5 -16.5 -39.5s-23.833 -16.5 -38.5 -16.5c-15.333 0 -28.5 5.5 -39.5 16.5s-16.5 24.167 -16.5 39.5c0 14.667 5.5 27.5 16.5 38.5s24.167 16.5 39.5 16.5c14.667 0 27.5 -5.5 38.5 -16.5s16.5 -23.833 16.5 -38.5z" />
    <glyph glyph-name="Agrave" unicode="&#xc0;" horiz-adv-x="672" 
d="M71 -7c-12 0 -23.5029 3.16895 -34.5029 9.50195s-16.5 15.166 -16.5 26.499c0 2 0.333008 4.66699 1 8s2.33398 7.66602 5.00098 12.999l263 624c4 8 9.5 14.5 16.5 19.5s17.5 7.5 31.5 7.5c15.333 0 26.5 -2.5 33.5 -7.5s12.167 -11.5 15.5 -19.5l261 -622
c2.66699 -5.33301 4.16699 -9.5 4.5 -12.5s0.5 -5.83301 0.5 -8.5c0 -12 -5.5 -21.333 -16.5 -28s-22.833 -10 -35.5 -10c-9.33301 0 -16.666 2.5 -21.999 7.5s-9.66602 11.167 -12.999 18.5l-77 180h-306l-78 -181c-7.33301 -16.667 -18.333 -25 -33 -25zM335.997 585.002
l-123 -312h244zM419.997 809.002c7.33301 -5.33301 12.667 -10.168 16 -14.501s5 -10.166 5 -17.499c0 -9.33301 -3.16699 -17.166 -9.5 -23.499s-14.166 -9.5 -23.499 -9.5c-8.66699 0 -16.667 1.33301 -24 4s-14 5.66699 -20 9l-99 53c-11.333 6 -19.5 12.167 -24.5 18.5
s-7.5 14.166 -7.5 23.499c0 11.333 4.16699 22 12.5 32s19.166 15 32.499 15c9.33301 0 18.5 -2.66699 27.5 -8s18.833 -12 29.5 -20z" />
    <glyph glyph-name="Aacute" unicode="&#xc1;" horiz-adv-x="672" 
d="M71 -7c-12 0 -23.5029 3.16895 -34.5029 9.50195s-16.5 15.166 -16.5 26.499c0 2 0.333008 4.66699 1 8s2.33398 7.66602 5.00098 12.999l263 624c4 8 9.5 14.5 16.5 19.5s17.5 7.5 31.5 7.5c15.333 0 26.5 -2.5 33.5 -7.5s12.167 -11.5 15.5 -19.5l261 -622
c2.66699 -5.33301 4.16699 -9.5 4.5 -12.5s0.5 -5.83301 0.5 -8.5c0 -12 -5.5 -21.333 -16.5 -28s-22.833 -10 -35.5 -10c-9.33301 0 -16.666 2.5 -21.999 7.5s-9.66602 11.167 -12.999 18.5l-77 180h-306l-78 -181c-7.33301 -16.667 -18.333 -25 -33 -25zM335.997 585.002
l-123 -312h244zM335.997 868.002c10.667 8 20.833 14.502 30.5 19.502s19.167 7.5 28.5 7.5c13.333 0 23.833 -4.33301 31.5 -13s11.5 -18.667 11.5 -30c0 -9.33301 -2.5 -17.166 -7.5 -23.499s-13.167 -12.5 -24.5 -18.5l-99 -53c-6 -3.33301 -12.5 -6.33301 -19.5 -9
s-14.833 -4 -23.5 -4c-9.33301 0 -17 2.66699 -23 8s-9 12.666 -9 21.999c0 7.33301 1.33301 13.166 4 17.499s7.66699 9.16602 15 14.499z" />
    <glyph glyph-name="Acircumflex" unicode="&#xc2;" horiz-adv-x="672" 
d="M71 -7c-12 0 -23.5029 3.16895 -34.5029 9.50195s-16.5 15.166 -16.5 26.499c0 2 0.333008 4.66699 1 8s2.33398 7.66602 5.00098 12.999l263 624c4 8 9.5 14.5 16.5 19.5s17.5 7.5 31.5 7.5c15.333 0 26.5 -2.5 33.5 -7.5s12.167 -11.5 15.5 -19.5l261 -622
c2.66699 -5.33301 4.16699 -9.5 4.5 -12.5s0.5 -5.83301 0.5 -8.5c0 -12 -5.5 -21.333 -16.5 -28s-22.833 -10 -35.5 -10c-9.33301 0 -16.666 2.5 -21.999 7.5s-9.66602 11.167 -12.999 18.5l-77 180h-306l-78 -181c-7.33301 -16.667 -18.333 -25 -33 -25zM335.997 585.002
l-123 -312h244zM276.997 871.002c12.667 10.667 23.499 18.6689 32.499 24.002s19.167 8 30.5 8c10 0 19.333 -2.33301 28 -7s19 -12.667 31 -24l76 -69c5.33301 -4.66699 8.5 -9.33398 9.5 -14.001s1.5 -9 1.5 -13c0 -9.33301 -3.33301 -17 -10 -23s-14.667 -9 -24 -9
s-17 1.83301 -23 5.5s-12.333 8.16699 -19 13.5l-71 63l-74 -62c-7.33301 -5.33301 -14.333 -10 -21 -14s-14.667 -6 -24 -6s-17.166 2.83301 -23.499 8.5s-9.5 13.167 -9.5 22.5c0 5.33301 0.666992 10.166 2 14.499s4.33301 8.83301 9 13.5z" />
    <glyph glyph-name="Atilde" unicode="&#xc3;" horiz-adv-x="672" 
d="M71 -7c-12 0 -23.5029 3.16895 -34.5029 9.50195s-16.5 15.166 -16.5 26.499c0 2 0.333008 4.66699 1 8s2.33398 7.66602 5.00098 12.999l263 624c4 8 9.5 14.5 16.5 19.5s17.5 7.5 31.5 7.5c15.333 0 26.5 -2.5 33.5 -7.5s12.167 -11.5 15.5 -19.5l261 -622
c2.66699 -5.33301 4.16699 -9.5 4.5 -12.5s0.5 -5.83301 0.5 -8.5c0 -12 -5.5 -21.333 -16.5 -28s-22.833 -10 -35.5 -10c-9.33301 0 -16.666 2.5 -21.999 7.5s-9.66602 11.167 -12.999 18.5l-77 180h-306l-78 -181c-7.33301 -16.667 -18.333 -25 -33 -25zM335.997 585.002
l-123 -312h244zM412.997 760.002c-12 0 -22.832 1.16797 -32.499 3.50098s-19.5 5.5 -29.5 9.5l-38 15c-10 4 -19.167 7.33301 -27.5 10s-16.166 4 -23.499 4c-12 0 -21.167 -2.33301 -27.5 -7s-13.166 -11.334 -20.499 -20.001
c-2.66699 -3.33301 -5.83398 -6.5 -9.50098 -9.5s-8.16699 -4.5 -13.5 -4.5c-7.33301 0 -14 2.16699 -20 6.5s-9 10.833 -9 19.5c0 9.33301 2.16699 18 6.5 26s9.16602 15.667 14.499 23c10.667 12.667 22.834 23 36.501 31s27.834 12 42.501 12c12 0 23 -1.5 33 -4.5
s20.667 -6.83301 32 -11.5l37 -14c7.33301 -3.33301 15.666 -6.33301 24.999 -9s17.666 -4 24.999 -4c13.333 0 22.666 2.16699 27.999 6.5s10.666 11.166 15.999 20.499c2.66699 4.66699 5.83398 8.66699 9.50098 12s8.16699 5 13.5 5s11.5 -2 18.5 -6
s10.5 -9.66699 10.5 -17c0 -4 -0.666992 -9.33301 -2 -16c-5.33301 -23.333 -17 -42.666 -35 -57.999s-38 -23 -60 -23z" />
    <glyph glyph-name="Adieresis" unicode="&#xc4;" horiz-adv-x="672" 
d="M71 -7c-12 0 -23.5029 3.16895 -34.5029 9.50195s-16.5 15.166 -16.5 26.499c0 2 0.333008 4.66699 1 8s2.33398 7.66602 5.00098 12.999l263 624c4 8 9.5 14.5 16.5 19.5s17.5 7.5 31.5 7.5c15.333 0 26.5 -2.5 33.5 -7.5s12.167 -11.5 15.5 -19.5l261 -622
c2.66699 -5.33301 4.16699 -9.5 4.5 -12.5s0.5 -5.83301 0.5 -8.5c0 -12 -5.5 -21.333 -16.5 -28s-22.833 -10 -35.5 -10c-9.33301 0 -16.666 2.5 -21.999 7.5s-9.66602 11.167 -12.999 18.5l-77 180h-306l-78 -181c-7.33301 -16.667 -18.333 -25 -33 -25zM335.997 585.002
l-123 -312h244zM435.997 855.002c13.333 0 25.333 -4 36 -12s16 -20.333 16 -37c0 -15.333 -4.83301 -27.333 -14.5 -36s-22.167 -13 -37.5 -13s-27.833 4.33301 -37.5 13s-14.5 20.667 -14.5 36c0 14.667 4.83301 26.5 14.5 35.5s22.167 13.5 37.5 13.5zM235.997 855.002
c13.333 0 25.5 -4 36.5 -12s16.5 -20.333 16.5 -37c0 -15.333 -5 -27.333 -15 -36s-22.667 -13 -38 -13s-27.666 4.33301 -36.999 13s-14 20.667 -14 36c0 14.667 4.66699 26.5 14 35.5s21.666 13.5 36.999 13.5z" />
    <glyph glyph-name="Aring" unicode="&#xc5;" horiz-adv-x="672" 
d="M71 -7c-12 0 -23.5029 3.16895 -34.5029 9.50195s-16.5 15.166 -16.5 26.499c0 2 0.333008 4.66699 1 8s2.33398 7.66602 5.00098 12.999l263 624c4 8 9.5 14.5 16.5 19.5s17.5 7.5 31.5 7.5c15.333 0 26.5 -2.5 33.5 -7.5s12.167 -11.5 15.5 -19.5l261 -622
c2.66699 -5.33301 4.16699 -9.5 4.5 -12.5s0.5 -5.83301 0.5 -8.5c0 -12 -5.5 -21.333 -16.5 -28s-22.833 -10 -35.5 -10c-9.33301 0 -16.666 2.5 -21.999 7.5s-9.66602 11.167 -12.999 18.5l-77 180h-306l-78 -181c-7.33301 -16.667 -18.333 -25 -33 -25zM335.997 585.002
l-123 -312h244zM446.997 843.002c0 -14.667 -2.83301 -28.5 -8.5 -41.5s-13.334 -24.333 -23.001 -34s-21.167 -17.334 -34.5 -23.001s-27.666 -8.5 -42.999 -8.5s-29.666 2.83301 -42.999 8.5s-24.833 13.334 -34.5 23.001s-17.334 21 -23.001 34s-8.5 26.833 -8.5 41.5
s2.83301 28.5 8.5 41.5s13.334 24.333 23.001 34s21.167 17.334 34.5 23.001s27.666 8.5 42.999 8.5s29.666 -2.83301 42.999 -8.5s24.833 -13.334 34.5 -23.001s17.334 -21 23.001 -34s8.5 -26.833 8.5 -41.5zM393.997 843.002c0 15.333 -5.5 28.833 -16.5 40.5
s-24.167 17.5 -39.5 17.5s-28.5 -5.83301 -39.5 -17.5s-16.5 -25.167 -16.5 -40.5s5.5 -28.833 16.5 -40.5s24.167 -17.5 39.5 -17.5s28.5 5.83301 39.5 17.5s16.5 25.167 16.5 40.5z" />
    <glyph glyph-name="AE" unicode="&#xc6;" horiz-adv-x="963" 
d="M531 316l-0.000976562 -238.995h354c13.333 0 22.833 -3.16699 28.5 -9.5s8.5 -15.833 8.5 -28.5s-2.83301 -22.334 -8.5 -29.001s-15.167 -10 -28.5 -10h-396c-14 0 -25.167 3.33301 -33.5 10s-12.5 17.667 -12.5 33v156h-231l-108 -183
c-3.33301 -5.33301 -8.16602 -10.833 -14.499 -16.5s-13.166 -8.5 -20.499 -8.5c-12 0 -23.167 3.16699 -33.5 9.5s-15.5 15.166 -15.5 26.499c0 2 0.166992 4.66699 0.5 8s2.16602 7.66602 5.49902 12.999l362 615c12.667 20.667 29.667 31 51 31h446
c13.333 0 22.833 -3.16699 28.5 -9.5s8.5 -15.833 8.5 -28.5s-2.83301 -22.334 -8.5 -29.001s-15.167 -10 -28.5 -10h-354v-224h335c13.333 0 22.833 -3.16699 28.5 -9.5s8.5 -15.833 8.5 -28.5s-2.83301 -22.334 -8.5 -29.001s-15.167 -10 -28.5 -10h-335zM442.999 273.005
v330l-189 -330h189z" />
    <glyph glyph-name="Ccedilla" unicode="&#xc7;" horiz-adv-x="696" 
d="M501 -131c0 -26.667 -9.16211 -49.4961 -27.4951 -68.4961s-48.166 -28.5 -89.499 -28.5c-22.667 0 -40.5 2.16699 -53.5 6.5s-23.167 8.16602 -30.5 11.499c-14.667 8 -22 18.333 -22 31c0 8 2.66699 15.667 8 23s12.666 11 21.999 11c6 0 11.667 -1.16699 17 -3.5
s10.666 -5 15.999 -8s11.333 -5.66699 18 -8s14.334 -3.5 23.001 -3.5c14 0 25.333 3 34 9s13 15 13 27c0 8.66699 -2 15.667 -6 21s-9.16699 9.16602 -15.5 11.499s-13.833 3.83301 -22.5 4.5s-17.667 1 -27 1c-14.667 0 -23.667 2.66699 -27 8s-4 11.666 -2 18.999l16 52
c-36 2.66699 -69.667 10.667 -101 24c-40 17.333 -74.333 41.666 -103 72.999s-50.834 69.333 -66.501 114s-23.5 94.667 -23.5 150s7.83301 105.5 23.5 150.5s37.834 83.333 66.501 115s63.167 56.167 103.5 73.5s85.166 26 134.499 26c32.667 0 61.667 -3.66699 87 -11
s47 -15.833 65 -25.5s32.667 -19.667 44 -30s19.666 -18.5 24.999 -24.5c12 -14 23.5 -30.167 34.5 -48.5s16.5 -34.166 16.5 -47.499c0 -14.667 -5.5 -24.667 -16.5 -30s-21.167 -8 -30.5 -8c-8.66699 0 -15.834 2.5 -21.501 7.5s-10.834 11.833 -15.501 20.5
c-7.33301 13.333 -16.333 26.833 -27 40.5s-23.334 26.167 -38.001 37.5s-32 20.666 -52 27.999s-43.333 11 -70 11c-38 0 -71.5 -7 -100.5 -21s-53.5 -33.5 -73.5 -58.5s-35 -55 -45 -90s-15 -73.5 -15 -115.5c0 -41.333 5 -79.5 15 -114.5s25 -65 45 -90
s44.5 -44.5 73.5 -58.5s62.5 -21 100.5 -21c30 0 55.667 4.16699 77 12.5s39.333 18.666 54 30.999s26.667 25.5 36 39.5s17.333 26.667 24 38c6 10.667 11.833 18.5 17.5 23.5s12.834 7.5 21.501 7.5c9.33301 0 19.333 -2.66699 30 -8s16 -15.333 16 -30
c0 -13.333 -5.16699 -29.166 -15.5 -47.499s-21.5 -34.5 -33.5 -48.5c-4.66699 -5.33301 -12.834 -13.5 -24.501 -24.5s-27 -21.833 -46 -32.5s-41.5 -20 -67.5 -28c-19.333 -6 -41 -9.66699 -65 -11l-6 -25c36 -3.33301 62.167 -12.5 78.5 -27.5s24.5 -35.833 24.5 -62.5z
" />
    <glyph glyph-name="Egrave" unicode="&#xc8;" horiz-adv-x="603" 
d="M171 316v-238.997h354c13.333 0 22.833 -3.16699 28.5 -9.5s8.5 -15.833 8.5 -28.5s-2.83301 -22.334 -8.5 -29.001s-15.167 -10 -28.5 -10h-396c-14 0 -25.167 3.33301 -33.5 10s-12.5 17.667 -12.5 33v608c0 15.333 4.16699 26.333 12.5 33s19.5 10 33.5 10h396
c13.333 0 22.833 -3.16699 28.5 -9.5s8.5 -15.833 8.5 -28.5s-2.83301 -22.334 -8.5 -29.001s-15.167 -10 -28.5 -10h-354v-224h335c13.333 0 22.833 -3.16699 28.5 -9.5s8.5 -15.833 8.5 -28.5s-2.83301 -22.334 -8.5 -29.001s-15.167 -10 -28.5 -10h-335zM385 809.003
c7.33301 -5.33301 12.667 -10.168 16 -14.501s5 -10.166 5 -17.499c0 -9.33301 -3.16699 -17.166 -9.5 -23.499s-14.166 -9.5 -23.499 -9.5c-8.66699 0 -16.667 1.33301 -24 4s-14 5.66699 -20 9l-99 53c-11.333 6 -19.5 12.167 -24.5 18.5s-7.5 14.166 -7.5 23.499
c0 11.333 4.16699 22 12.5 32s19.166 15 32.499 15c9.33301 0 18.5 -2.66699 27.5 -8s18.833 -12 29.5 -20z" />
    <glyph glyph-name="Eacute" unicode="&#xc9;" horiz-adv-x="603" 
d="M171 316v-238.997h354c13.333 0 22.833 -3.16699 28.5 -9.5s8.5 -15.833 8.5 -28.5s-2.83301 -22.334 -8.5 -29.001s-15.167 -10 -28.5 -10h-396c-14 0 -25.167 3.33301 -33.5 10s-12.5 17.667 -12.5 33v608c0 15.333 4.16699 26.333 12.5 33s19.5 10 33.5 10h396
c13.333 0 22.833 -3.16699 28.5 -9.5s8.5 -15.833 8.5 -28.5s-2.83301 -22.334 -8.5 -29.001s-15.167 -10 -28.5 -10h-354v-224h335c13.333 0 22.833 -3.16699 28.5 -9.5s8.5 -15.833 8.5 -28.5s-2.83301 -22.334 -8.5 -29.001s-15.167 -10 -28.5 -10h-335zM335 868.003
c10.667 8 20.833 14.502 30.5 19.502s19.167 7.5 28.5 7.5c13.333 0 23.833 -4.33301 31.5 -13s11.5 -18.667 11.5 -30c0 -9.33301 -2.5 -17.166 -7.5 -23.499s-13.167 -12.5 -24.5 -18.5l-99 -53c-6 -3.33301 -12.5 -6.33301 -19.5 -9s-14.833 -4 -23.5 -4
c-9.33301 0 -17 2.66699 -23 8s-9 12.666 -9 21.999c0 7.33301 1.33301 13.166 4 17.499s7.66699 9.16602 15 14.499z" />
    <glyph glyph-name="Ecircumflex" unicode="&#xca;" horiz-adv-x="603" 
d="M171 316v-238.997h354c13.333 0 22.833 -3.16699 28.5 -9.5s8.5 -15.833 8.5 -28.5s-2.83301 -22.334 -8.5 -29.001s-15.167 -10 -28.5 -10h-396c-14 0 -25.167 3.33301 -33.5 10s-12.5 17.667 -12.5 33v608c0 15.333 4.16699 26.333 12.5 33s19.5 10 33.5 10h396
c13.333 0 22.833 -3.16699 28.5 -9.5s8.5 -15.833 8.5 -28.5s-2.83301 -22.334 -8.5 -29.001s-15.167 -10 -28.5 -10h-354v-224h335c13.333 0 22.833 -3.16699 28.5 -9.5s8.5 -15.833 8.5 -28.5s-2.83301 -22.334 -8.5 -29.001s-15.167 -10 -28.5 -10h-335zM262 871.003
c12.667 10.667 23.499 18.6689 32.499 24.002s19.167 8 30.5 8c10 0 19.333 -2.33301 28 -7s19 -12.667 31 -24l76 -69c5.33301 -4.66699 8.5 -9.33398 9.5 -14.001s1.5 -9 1.5 -13c0 -9.33301 -3.33301 -17 -10 -23s-14.667 -9 -24 -9s-17 1.83301 -23 5.5
s-12.333 8.16699 -19 13.5l-71 63l-74 -62c-7.33301 -5.33301 -14.333 -10 -21 -14s-14.667 -6 -24 -6s-17.166 2.83301 -23.499 8.5s-9.5 13.167 -9.5 22.5c0 5.33301 0.666992 10.166 2 14.499s4.33301 8.83301 9 13.5z" />
    <glyph glyph-name="Edieresis" unicode="&#xcb;" horiz-adv-x="603" 
d="M171 316v-238.997h354c13.333 0 22.833 -3.16699 28.5 -9.5s8.5 -15.833 8.5 -28.5s-2.83301 -22.334 -8.5 -29.001s-15.167 -10 -28.5 -10h-396c-14 0 -25.167 3.33301 -33.5 10s-12.5 17.667 -12.5 33v608c0 15.333 4.16699 26.333 12.5 33s19.5 10 33.5 10h396
c13.333 0 22.833 -3.16699 28.5 -9.5s8.5 -15.833 8.5 -28.5s-2.83301 -22.334 -8.5 -29.001s-15.167 -10 -28.5 -10h-354v-224h335c13.333 0 22.833 -3.16699 28.5 -9.5s8.5 -15.833 8.5 -28.5s-2.83301 -22.334 -8.5 -29.001s-15.167 -10 -28.5 -10h-335zM421 855.003
c13.333 0 25.333 -4 36 -12s16 -20.333 16 -37c0 -15.333 -4.83301 -27.333 -14.5 -36s-22.167 -13 -37.5 -13s-27.833 4.33301 -37.5 13s-14.5 20.667 -14.5 36c0 14.667 4.83301 26.5 14.5 35.5s22.167 13.5 37.5 13.5zM221 855.003c13.333 0 25.5 -4 36.5 -12
s16.5 -20.333 16.5 -37c0 -15.333 -5 -27.333 -15 -36s-22.667 -13 -38 -13s-27.666 4.33301 -36.999 13s-14 20.667 -14 36c0 14.667 4.66699 26.5 14 35.5s21.666 13.5 36.999 13.5z" />
    <glyph glyph-name="Igrave" unicode="&#xcc;" horiz-adv-x="254" 
d="M83 660c0 15.333 3.83301 26 11.5 32s18.5 9 32.5 9s24.833 -3 32.5 -9s11.5 -16.667 11.5 -32v-626c0 -15.333 -3.83301 -26 -11.5 -32s-18.5 -9 -32.5 -9s-24.833 3 -32.5 9s-11.5 16.667 -11.5 32v626zM213 809c7.33301 -5.33301 12.667 -10.168 16 -14.501
s5 -10.166 5 -17.499c0 -9.33301 -3.16699 -17.166 -9.5 -23.499s-14.166 -9.5 -23.499 -9.5c-8.66699 0 -16.667 1.33301 -24 4s-14 5.66699 -20 9l-99 53c-11.333 6 -19.5 12.167 -24.5 18.5s-7.5 14.166 -7.5 23.499c0 11.333 4.16699 22 12.5 32s19.166 15 32.499 15
c9.33301 0 18.5 -2.66699 27.5 -8s18.833 -12 29.5 -20z" />
    <glyph glyph-name="Iacute" unicode="&#xcd;" horiz-adv-x="254" 
d="M83 660c0 15.333 3.83301 26 11.5 32s18.5 9 32.5 9s24.833 -3 32.5 -9s11.5 -16.667 11.5 -32v-626c0 -15.333 -3.83301 -26 -11.5 -32s-18.5 -9 -32.5 -9s-24.833 3 -32.5 9s-11.5 16.667 -11.5 32v626zM129 868c10.667 8 20.833 14.502 30.5 19.502
s19.167 7.5 28.5 7.5c13.333 0 23.833 -4.33301 31.5 -13s11.5 -18.667 11.5 -30c0 -9.33301 -2.5 -17.166 -7.5 -23.499s-13.167 -12.5 -24.5 -18.5l-99 -53c-6 -3.33301 -12.5 -6.33301 -19.5 -9s-14.833 -4 -23.5 -4c-9.33301 0 -17 2.66699 -23 8s-9 12.666 -9 21.999
c0 7.33301 1.33301 13.166 4 17.499s7.66699 9.16602 15 14.499z" />
    <glyph glyph-name="Icircumflex" unicode="&#xce;" horiz-adv-x="254" 
d="M83 660c0 15.333 3.83301 26 11.5 32s18.5 9 32.5 9s24.833 -3 32.5 -9s11.5 -16.667 11.5 -32v-626c0 -15.333 -3.83301 -26 -11.5 -32s-18.5 -9 -32.5 -9s-24.833 3 -32.5 9s-11.5 16.667 -11.5 32v626zM70 871c12.667 10.667 23.499 18.6689 32.499 24.002
s19.167 8 30.5 8c10 0 19.333 -2.33301 28 -7s19 -12.667 31 -24l76 -69c5.33301 -4.66699 8.5 -9.33398 9.5 -14.001s1.5 -9 1.5 -13c0 -9.33301 -3.33301 -17 -10 -23s-14.667 -9 -24 -9s-17 1.83301 -23 5.5s-12.333 8.16699 -19 13.5l-71 63l-74 -62
c-7.33301 -5.33301 -14.333 -10 -21 -14s-14.667 -6 -24 -6s-17.166 2.83301 -23.499 8.5s-9.5 13.167 -9.5 22.5c0 5.33301 0.666992 10.166 2 14.499s4.33301 8.83301 9 13.5z" />
    <glyph glyph-name="Idieresis" unicode="&#xcf;" horiz-adv-x="254" 
d="M83 660c0 15.333 3.83301 26 11.5 32s18.5 9 32.5 9s24.833 -3 32.5 -9s11.5 -16.667 11.5 -32v-626c0 -15.333 -3.83301 -26 -11.5 -32s-18.5 -9 -32.5 -9s-24.833 3 -32.5 9s-11.5 16.667 -11.5 32v626zM229 855c13.333 0 25.333 -4 36 -12s16 -20.333 16 -37
c0 -15.333 -4.83301 -27.333 -14.5 -36s-22.167 -13 -37.5 -13s-27.833 4.33301 -37.5 13s-14.5 20.667 -14.5 36c0 14.667 4.83301 26.5 14.5 35.5s22.167 13.5 37.5 13.5zM29 855c13.333 0 25.5 -4 36.5 -12s16.5 -20.333 16.5 -37c0 -15.333 -5 -27.333 -15 -36
s-22.667 -13 -38 -13s-27.666 4.33301 -36.999 13s-14 20.667 -14 36c0 14.667 4.66699 26.5 14 35.5s21.666 13.5 36.999 13.5z" />
    <glyph glyph-name="Eth" unicode="&#xd0;" horiz-adv-x="715" 
d="M131 0c-14.667 0 -26.167 3.33105 -34.5 9.99805s-12.5 17.667 -12.5 33v267h-50c-11.333 0 -19.833 2.5 -25.5 7.5s-8.5 14.5 -8.5 28.5c0 13.333 2.5 23 7.5 29s14.167 9 27.5 9h49v267c0 15.333 4.16699 26.333 12.5 33s19.833 10 34.5 10h186c52 0 99.333 -7 142 -21
s79.334 -35.167 110.001 -63.5s54.334 -64.333 71.001 -108s25 -95.5 25 -155.5c0 -59.333 -8.33301 -110.666 -25 -153.999s-40.334 -79.166 -71.001 -107.499s-67.334 -49.5 -110.001 -63.5s-90 -21 -142 -21h-186zM570 345.998c0 46 -6.33203 86 -18.999 120
s-30.334 62.167 -53.001 84.5s-50 39 -82 50s-67 16.5 -105 16.5h-138v-233h188c13.333 0 22.5 -3 27.5 -9s7.5 -15.667 7.5 -29c0 -14 -3 -23.5 -9 -28.5s-15.667 -7.5 -29 -7.5h-185v-233h138c38.667 0 74 5.5 106 16.5s59.333 27.5 82 49.5s40.167 49.833 52.5 83.5
s18.5 73.5 18.5 119.5z" />
    <glyph glyph-name="Ntilde" unicode="&#xd1;" horiz-adv-x="719" 
d="M169 558v-526c0 -14.667 -3.83301 -24.834 -11.5 -30.501s-18.167 -8.5 -31.5 -8.5s-23.833 2.83301 -31.5 8.5s-11.5 15.834 -11.5 30.501v626c0 16 4.5 27.167 13.5 33.5s21.833 9.5 38.5 9.5c16 0 28.167 -3.5 36.5 -10.5s16.166 -16.167 23.499 -27.5l355 -529v528
c0 14.667 3.83301 24.834 11.5 30.501s18.167 8.5 31.5 8.5s23.833 -2.83301 31.5 -8.5s11.5 -15.834 11.5 -30.501v-626c0 -16 -4.5 -27.167 -13.5 -33.5s-21.833 -9.5 -38.5 -9.5c-16 0 -28.167 3.5 -36.5 10.5s-16.166 16.167 -23.499 27.5zM455 760
c-12 0 -22.832 1.16797 -32.499 3.50098s-19.5 5.5 -29.5 9.5l-38 15c-10 4 -19.167 7.33301 -27.5 10s-16.166 4 -23.499 4c-12 0 -21.167 -2.33301 -27.5 -7s-13.166 -11.334 -20.499 -20.001c-2.66699 -3.33301 -5.83398 -6.5 -9.50098 -9.5s-8.16699 -4.5 -13.5 -4.5
c-7.33301 0 -14 2.16699 -20 6.5s-9 10.833 -9 19.5c0 9.33301 2.16699 18 6.5 26s9.16602 15.667 14.499 23c10.667 12.667 22.834 23 36.501 31s27.834 12 42.501 12c12 0 23 -1.5 33 -4.5s20.667 -6.83301 32 -11.5l37 -14c7.33301 -3.33301 15.666 -6.33301 24.999 -9
s17.666 -4 24.999 -4c13.333 0 22.666 2.16699 27.999 6.5s10.666 11.166 15.999 20.499c2.66699 4.66699 5.83398 8.66699 9.50098 12s8.16699 5 13.5 5s11.5 -2 18.5 -6s10.5 -9.66699 10.5 -17c0 -4 -0.666992 -9.33301 -2 -16c-5.33301 -23.333 -17 -42.666 -35 -57.999
s-38 -23 -60 -23z" />
    <glyph glyph-name="Ograve" unicode="&#xd2;" horiz-adv-x="764" 
d="M713 347c0 -56 -8 -106.5 -24 -151.5s-38.5 -83.333 -67.5 -115s-63.833 -55.834 -104.5 -72.501s-85.667 -25 -135 -25s-94.333 8.33301 -135 25s-75.5 40.834 -104.5 72.501s-51.5 70 -67.5 115s-24 95.5 -24 151.5s8 106.5 24 151.5s38.5 83.333 67.5 115
s63.833 55.834 104.5 72.501s85.667 25 135 25s94.333 -8.33301 135 -25s75.5 -40.834 104.5 -72.501s51.5 -70 67.5 -115s24 -95.5 24 -151.5zM146 347c0 -43.333 5 -82.5 15 -117.5s25 -64.833 45 -89.5s44.667 -43.834 74 -57.501s63.333 -20.5 102 -20.5
s72.667 6.83301 102 20.5s54 32.834 74 57.501s35 54.5 45 89.5s15 74.167 15 117.5c0 42.667 -5 81.667 -15 117s-25 65.333 -45 90s-44.667 43.834 -74 57.501s-63.333 20.5 -102 20.5s-72.667 -6.83301 -102 -20.5s-54 -32.834 -74 -57.501s-35 -54.667 -45 -90
s-15 -74.333 -15 -117zM466 809c7.33301 -5.33301 12.667 -10.168 16 -14.501s5 -10.166 5 -17.499c0 -9.33301 -3.16699 -17.166 -9.5 -23.499s-14.166 -9.5 -23.499 -9.5c-8.66699 0 -16.667 1.33301 -24 4s-14 5.66699 -20 9l-99 53c-11.333 6 -19.5 12.167 -24.5 18.5
s-7.5 14.166 -7.5 23.499c0 11.333 4.16699 22 12.5 32s19.166 15 32.499 15c9.33301 0 18.5 -2.66699 27.5 -8s18.833 -12 29.5 -20z" />
    <glyph glyph-name="Oacute" unicode="&#xd3;" horiz-adv-x="764" 
d="M713 347c0 -56 -8 -106.5 -24 -151.5s-38.5 -83.333 -67.5 -115s-63.833 -55.834 -104.5 -72.501s-85.667 -25 -135 -25s-94.333 8.33301 -135 25s-75.5 40.834 -104.5 72.501s-51.5 70 -67.5 115s-24 95.5 -24 151.5s8 106.5 24 151.5s38.5 83.333 67.5 115
s63.833 55.834 104.5 72.501s85.667 25 135 25s94.333 -8.33301 135 -25s75.5 -40.834 104.5 -72.501s51.5 -70 67.5 -115s24 -95.5 24 -151.5zM146 347c0 -43.333 5 -82.5 15 -117.5s25 -64.833 45 -89.5s44.667 -43.834 74 -57.501s63.333 -20.5 102 -20.5
s72.667 6.83301 102 20.5s54 32.834 74 57.501s35 54.5 45 89.5s15 74.167 15 117.5c0 42.667 -5 81.667 -15 117s-25 65.333 -45 90s-44.667 43.834 -74 57.501s-63.333 20.5 -102 20.5s-72.667 -6.83301 -102 -20.5s-54 -32.834 -74 -57.501s-35 -54.667 -45 -90
s-15 -74.333 -15 -117zM382 868c10.667 8 20.833 14.502 30.5 19.502s19.167 7.5 28.5 7.5c13.333 0 23.833 -4.33301 31.5 -13s11.5 -18.667 11.5 -30c0 -9.33301 -2.5 -17.166 -7.5 -23.499s-13.167 -12.5 -24.5 -18.5l-99 -53c-6 -3.33301 -12.5 -6.33301 -19.5 -9
s-14.833 -4 -23.5 -4c-9.33301 0 -17 2.66699 -23 8s-9 12.666 -9 21.999c0 7.33301 1.33301 13.166 4 17.499s7.66699 9.16602 15 14.499z" />
    <glyph glyph-name="Ocircumflex" unicode="&#xd4;" horiz-adv-x="764" 
d="M713 347c0 -56 -8 -106.5 -24 -151.5s-38.5 -83.333 -67.5 -115s-63.833 -55.834 -104.5 -72.501s-85.667 -25 -135 -25s-94.333 8.33301 -135 25s-75.5 40.834 -104.5 72.501s-51.5 70 -67.5 115s-24 95.5 -24 151.5s8 106.5 24 151.5s38.5 83.333 67.5 115
s63.833 55.834 104.5 72.501s85.667 25 135 25s94.333 -8.33301 135 -25s75.5 -40.834 104.5 -72.501s51.5 -70 67.5 -115s24 -95.5 24 -151.5zM146 347c0 -43.333 5 -82.5 15 -117.5s25 -64.833 45 -89.5s44.667 -43.834 74 -57.501s63.333 -20.5 102 -20.5
s72.667 6.83301 102 20.5s54 32.834 74 57.501s35 54.5 45 89.5s15 74.167 15 117.5c0 42.667 -5 81.667 -15 117s-25 65.333 -45 90s-44.667 43.834 -74 57.501s-63.333 20.5 -102 20.5s-72.667 -6.83301 -102 -20.5s-54 -32.834 -74 -57.501s-35 -54.667 -45 -90
s-15 -74.333 -15 -117zM322 871c12.667 10.667 23.499 18.6689 32.499 24.002s19.167 8 30.5 8c10 0 19.333 -2.33301 28 -7s19 -12.667 31 -24l76 -69c5.33301 -4.66699 8.5 -9.33398 9.5 -14.001s1.5 -9 1.5 -13c0 -9.33301 -3.33301 -17 -10 -23s-14.667 -9 -24 -9
s-17 1.83301 -23 5.5s-12.333 8.16699 -19 13.5l-71 63l-74 -62c-7.33301 -5.33301 -14.333 -10 -21 -14s-14.667 -6 -24 -6s-17.166 2.83301 -23.499 8.5s-9.5 13.167 -9.5 22.5c0 5.33301 0.666992 10.166 2 14.499s4.33301 8.83301 9 13.5z" />
    <glyph glyph-name="Otilde" unicode="&#xd5;" horiz-adv-x="764" 
d="M713 347c0 -56 -8 -106.5 -24 -151.5s-38.5 -83.333 -67.5 -115s-63.833 -55.834 -104.5 -72.501s-85.667 -25 -135 -25s-94.333 8.33301 -135 25s-75.5 40.834 -104.5 72.501s-51.5 70 -67.5 115s-24 95.5 -24 151.5s8 106.5 24 151.5s38.5 83.333 67.5 115
s63.833 55.834 104.5 72.501s85.667 25 135 25s94.333 -8.33301 135 -25s75.5 -40.834 104.5 -72.501s51.5 -70 67.5 -115s24 -95.5 24 -151.5zM146 347c0 -43.333 5 -82.5 15 -117.5s25 -64.833 45 -89.5s44.667 -43.834 74 -57.501s63.333 -20.5 102 -20.5
s72.667 6.83301 102 20.5s54 32.834 74 57.501s35 54.5 45 89.5s15 74.167 15 117.5c0 42.667 -5 81.667 -15 117s-25 65.333 -45 90s-44.667 43.834 -74 57.501s-63.333 20.5 -102 20.5s-72.667 -6.83301 -102 -20.5s-54 -32.834 -74 -57.501s-35 -54.667 -45 -90
s-15 -74.333 -15 -117zM459 760c-12 0 -22.832 1.16797 -32.499 3.50098s-19.5 5.5 -29.5 9.5l-38 15c-10 4 -19.167 7.33301 -27.5 10s-16.166 4 -23.499 4c-12 0 -21.167 -2.33301 -27.5 -7s-13.166 -11.334 -20.499 -20.001
c-2.66699 -3.33301 -5.83398 -6.5 -9.50098 -9.5s-8.16699 -4.5 -13.5 -4.5c-7.33301 0 -14 2.16699 -20 6.5s-9 10.833 -9 19.5c0 9.33301 2.16699 18 6.5 26s9.16602 15.667 14.499 23c10.667 12.667 22.834 23 36.501 31s27.834 12 42.501 12c12 0 23 -1.5 33 -4.5
s20.667 -6.83301 32 -11.5l37 -14c7.33301 -3.33301 15.666 -6.33301 24.999 -9s17.666 -4 24.999 -4c13.333 0 22.666 2.16699 27.999 6.5s10.666 11.166 15.999 20.499c2.66699 4.66699 5.83398 8.66699 9.50098 12s8.16699 5 13.5 5s11.5 -2 18.5 -6
s10.5 -9.66699 10.5 -17c0 -4 -0.666992 -9.33301 -2 -16c-5.33301 -23.333 -17 -42.666 -35 -57.999s-38 -23 -60 -23z" />
    <glyph glyph-name="Odieresis" unicode="&#xd6;" horiz-adv-x="764" 
d="M713 347c0 -56 -8 -106.5 -24 -151.5s-38.5 -83.333 -67.5 -115s-63.833 -55.834 -104.5 -72.501s-85.667 -25 -135 -25s-94.333 8.33301 -135 25s-75.5 40.834 -104.5 72.501s-51.5 70 -67.5 115s-24 95.5 -24 151.5s8 106.5 24 151.5s38.5 83.333 67.5 115
s63.833 55.834 104.5 72.501s85.667 25 135 25s94.333 -8.33301 135 -25s75.5 -40.834 104.5 -72.501s51.5 -70 67.5 -115s24 -95.5 24 -151.5zM146 347c0 -43.333 5 -82.5 15 -117.5s25 -64.833 45 -89.5s44.667 -43.834 74 -57.501s63.333 -20.5 102 -20.5
s72.667 6.83301 102 20.5s54 32.834 74 57.501s35 54.5 45 89.5s15 74.167 15 117.5c0 42.667 -5 81.667 -15 117s-25 65.333 -45 90s-44.667 43.834 -74 57.501s-63.333 20.5 -102 20.5s-72.667 -6.83301 -102 -20.5s-54 -32.834 -74 -57.501s-35 -54.667 -45 -90
s-15 -74.333 -15 -117zM481 855c13.333 0 25.333 -4 36 -12s16 -20.333 16 -37c0 -15.333 -4.83301 -27.333 -14.5 -36s-22.167 -13 -37.5 -13s-27.833 4.33301 -37.5 13s-14.5 20.667 -14.5 36c0 14.667 4.83301 26.5 14.5 35.5s22.167 13.5 37.5 13.5zM281 855
c13.333 0 25.5 -4 36.5 -12s16.5 -20.333 16.5 -37c0 -15.333 -5 -27.333 -15 -36s-22.667 -13 -38 -13s-27.666 4.33301 -36.999 13s-14 20.667 -14 36c0 14.667 4.66699 26.5 14 35.5s21.666 13.5 36.999 13.5z" />
    <glyph glyph-name="multiply" unicode="&#xd7;" horiz-adv-x="610" 
d="M139 448c-8 8 -12.001 16.333 -12.001 25c0 10 4.66699 19.667 14 29c8.66699 8.66699 18.334 13 29.001 13c9.33301 0 18 -4 26 -12l110 -108l111 114c9.33301 9.33301 18.333 14 27 14s18 -5 28 -15c5.33301 -5.33301 8.83301 -10 10.5 -14s2.5 -8.33301 2.5 -13
c0 -8.66699 -4.66699 -17.667 -14 -27l-112 -114l112 -109c7.33301 -7.33301 11 -15 11 -23c0 -9.33301 -4.66699 -19.333 -14 -30c-9.33301 -9.33301 -19 -14 -29 -14c-8.66699 0 -17 4 -25 12l-111 110l-113 -113c-9.33301 -9.33301 -18.333 -14 -27 -14
c-8 0 -16.667 4.66699 -26 14c-10 10 -15 19.333 -15 28s4.66699 17.667 14 27l113 113z" />
    <glyph glyph-name="Oslash" unicode="&#xd8;" horiz-adv-x="764" 
d="M713 346c0 -56 -7.99902 -106.5 -23.999 -151.5s-38.5 -83.333 -67.5 -115s-63.833 -55.834 -104.5 -72.501s-85.667 -25 -135 -25c-64.667 0 -122 14.333 -172 43l-48 -70c-9.33301 -13.333 -19.666 -20 -30.999 -20c-9.33301 0 -19 3.83301 -29 11.5
s-15 16.834 -15 27.501c0 8.66699 3.33301 17.667 10 27l50 74c-30.667 32 -54.334 70.5 -71.001 115.5s-25 96.833 -25 155.5c0 56 8 106.667 24 152s38.5 83.666 67.5 114.999s63.833 55.5 104.5 72.5s85.667 25.5 135 25.5c62.667 0 118.334 -13.667 167.001 -41l34 51
c9.33301 13.333 19.666 20 30.999 20c9.33301 0 19.166 -4 29.499 -12s15.5 -17.333 15.5 -28c0 -8 -3.33301 -16.333 -10 -25l-37 -54c32 -32 56.833 -71.167 74.5 -117.5s26.5 -99.166 26.5 -158.499zM618.001 346c0 41.333 -4.66699 78.999 -14 112.999
s-23.333 63.667 -42 89l-306 -454c34 -22 76 -33 126 -33c38.667 0 72.667 6.83301 102 20.5s54 32.834 74 57.501s35 54.5 45 89.5s15 74.167 15 117.5zM146.001 345.999c0 -80.667 17.333 -145.999 52 -195.999l304 452c-16.667 9.33301 -35 16.666 -55 21.999
s-41.667 8 -65 8c-38.667 0 -72.667 -6.83301 -102 -20.5s-54 -33 -74 -58s-35 -55.167 -45 -90.5s-15 -74.333 -15 -117z" />
    <glyph glyph-name="Ugrave" unicode="&#xd9;" horiz-adv-x="711" 
d="M544 660c0 15.333 3.83105 26 11.498 32s18.5 9 32.5 9s25 -3 33 -9s12 -16.667 12 -32v-407c0 -40 -6 -76.5 -18 -109.5s-29.667 -61.333 -53 -85s-52.333 -42.167 -87 -55.5s-74.667 -20 -120 -20s-85.166 6.66699 -119.499 20s-63.166 31.833 -86.499 55.5
s-41 52 -53 85s-18 69.5 -18 109.5v407c0 15.333 4 26 12 32s19 9 33 9s24.833 -3 32.5 -9s11.5 -16.667 11.5 -32v-400c0 -66.667 16.667 -116.5 50 -149.5s79.333 -49.5 138 -49.5c60 0 106.5 16.5 139.5 49.5s49.5 82.833 49.5 149.5v400zM438.998 809
c7.33301 -5.33301 12.667 -10.168 16 -14.501s5 -10.166 5 -17.499c0 -9.33301 -3.16699 -17.166 -9.5 -23.499s-14.166 -9.5 -23.499 -9.5c-8.66699 0 -16.667 1.33301 -24 4s-14 5.66699 -20 9l-99 53c-11.333 6 -19.5 12.167 -24.5 18.5s-7.5 14.166 -7.5 23.499
c0 11.333 4.16699 22 12.5 32s19.166 15 32.499 15c9.33301 0 18.5 -2.66699 27.5 -8s18.833 -12 29.5 -20z" />
    <glyph glyph-name="Uacute" unicode="&#xda;" horiz-adv-x="711" 
d="M544 660c0 15.333 3.83105 26 11.498 32s18.5 9 32.5 9s25 -3 33 -9s12 -16.667 12 -32v-407c0 -40 -6 -76.5 -18 -109.5s-29.667 -61.333 -53 -85s-52.333 -42.167 -87 -55.5s-74.667 -20 -120 -20s-85.166 6.66699 -119.499 20s-63.166 31.833 -86.499 55.5
s-41 52 -53 85s-18 69.5 -18 109.5v407c0 15.333 4 26 12 32s19 9 33 9s24.833 -3 32.5 -9s11.5 -16.667 11.5 -32v-400c0 -66.667 16.667 -116.5 50 -149.5s79.333 -49.5 138 -49.5c60 0 106.5 16.5 139.5 49.5s49.5 82.833 49.5 149.5v400zM368.998 868
c10.667 8 20.833 14.502 30.5 19.502s19.167 7.5 28.5 7.5c13.333 0 23.833 -4.33301 31.5 -13s11.5 -18.667 11.5 -30c0 -9.33301 -2.5 -17.166 -7.5 -23.499s-13.167 -12.5 -24.5 -18.5l-99 -53c-6 -3.33301 -12.5 -6.33301 -19.5 -9s-14.833 -4 -23.5 -4
c-9.33301 0 -17 2.66699 -23 8s-9 12.666 -9 21.999c0 7.33301 1.33301 13.166 4 17.499s7.66699 9.16602 15 14.499z" />
    <glyph glyph-name="Ucircumflex" unicode="&#xdb;" horiz-adv-x="711" 
d="M544 660c0 15.333 3.83105 26 11.498 32s18.5 9 32.5 9s25 -3 33 -9s12 -16.667 12 -32v-407c0 -40 -6 -76.5 -18 -109.5s-29.667 -61.333 -53 -85s-52.333 -42.167 -87 -55.5s-74.667 -20 -120 -20s-85.166 6.66699 -119.499 20s-63.166 31.833 -86.499 55.5
s-41 52 -53 85s-18 69.5 -18 109.5v407c0 15.333 4 26 12 32s19 9 33 9s24.833 -3 32.5 -9s11.5 -16.667 11.5 -32v-400c0 -66.667 16.667 -116.5 50 -149.5s79.333 -49.5 138 -49.5c60 0 106.5 16.5 139.5 49.5s49.5 82.833 49.5 149.5v400zM305.998 871
c12.667 10.667 23.499 18.6689 32.499 24.002s19.167 8 30.5 8c10 0 19.333 -2.33301 28 -7s19 -12.667 31 -24l76 -69c5.33301 -4.66699 8.5 -9.33398 9.5 -14.001s1.5 -9 1.5 -13c0 -9.33301 -3.33301 -17 -10 -23s-14.667 -9 -24 -9s-17 1.83301 -23 5.5
s-12.333 8.16699 -19 13.5l-71 63l-74 -62c-7.33301 -5.33301 -14.333 -10 -21 -14s-14.667 -6 -24 -6s-17.166 2.83301 -23.499 8.5s-9.5 13.167 -9.5 22.5c0 5.33301 0.666992 10.166 2 14.499s4.33301 8.83301 9 13.5z" />
    <glyph glyph-name="Udieresis" unicode="&#xdc;" horiz-adv-x="711" 
d="M544 660c0 15.333 3.83105 26 11.498 32s18.5 9 32.5 9s25 -3 33 -9s12 -16.667 12 -32v-407c0 -40 -6 -76.5 -18 -109.5s-29.667 -61.333 -53 -85s-52.333 -42.167 -87 -55.5s-74.667 -20 -120 -20s-85.166 6.66699 -119.499 20s-63.166 31.833 -86.499 55.5
s-41 52 -53 85s-18 69.5 -18 109.5v407c0 15.333 4 26 12 32s19 9 33 9s24.833 -3 32.5 -9s11.5 -16.667 11.5 -32v-400c0 -66.667 16.667 -116.5 50 -149.5s79.333 -49.5 138 -49.5c60 0 106.5 16.5 139.5 49.5s49.5 82.833 49.5 149.5v400zM462.998 855
c13.333 0 25.333 -4 36 -12s16 -20.333 16 -37c0 -15.333 -4.83301 -27.333 -14.5 -36s-22.167 -13 -37.5 -13s-27.833 4.33301 -37.5 13s-14.5 20.667 -14.5 36c0 14.667 4.83301 26.5 14.5 35.5s22.167 13.5 37.5 13.5zM262.998 855c13.333 0 25.5 -4 36.5 -12
s16.5 -20.333 16.5 -37c0 -15.333 -5 -27.333 -15 -36s-22.667 -13 -38 -13s-27.666 4.33301 -36.999 13s-14 20.667 -14 36c0 14.667 4.66699 26.5 14 35.5s21.666 13.5 36.999 13.5z" />
    <glyph glyph-name="Yacute" unicode="&#xdd;" horiz-adv-x="605" 
d="M259 319l-114.499 155.001l-114.5 156c-3.33301 5.33301 -6.33301 10.666 -9 15.999s-4 10.666 -4 15.999c0 11.333 5.16699 20.666 15.5 27.999s20.5 11 30.5 11c14 0 25 -6 33 -18l209 -292l206 289c9.33301 14 20.666 21 33.999 21
c9.33301 0 18.833 -3.33301 28.5 -10s14.5 -15.667 14.5 -27c0 -5.33301 -1.33301 -10.666 -4 -15.999s-5.66699 -10.666 -9 -15.999l-227 -314v-284c0 -15.333 -3.83301 -26 -11.5 -32s-18.5 -9 -32.5 -9s-25 3 -33 9s-12 16.667 -12 32v285zM330.001 868.001
c10.667 8 20.833 14.502 30.5 19.502s19.167 7.5 28.5 7.5c13.333 0 23.833 -4.33301 31.5 -13s11.5 -18.667 11.5 -30c0 -9.33301 -2.5 -17.166 -7.5 -23.499s-13.167 -12.5 -24.5 -18.5l-99 -53c-6 -3.33301 -12.5 -6.33301 -19.5 -9s-14.833 -4 -23.5 -4
c-9.33301 0 -17 2.66699 -23 8s-9 12.666 -9 21.999c0 7.33301 1.33301 13.166 4 17.499s7.66699 9.16602 15 14.499z" />
    <glyph glyph-name="Thorn" unicode="&#xde;" horiz-adv-x="619" 
d="M83 660c0 15.333 3.83301 26 11.5 32s18.5 9 32.5 9s24.833 -3 32.5 -9s11.5 -16.667 11.5 -32v-86h137c91.333 0 158.333 -18 201 -54s64 -87.667 64 -155c0 -18.667 -3.16699 -40 -9.5 -64s-18.833 -46.667 -37.5 -68s-44.5 -39.333 -77.5 -54s-76.167 -22 -129.5 -22
h-149v-125c0 -15.333 -3.83301 -26 -11.5 -32s-18.5 -9 -32.5 -9s-24.667 3 -32 9s-11 16.667 -11 32v628zM296 232c35.333 0 65.001 3.16797 89.001 9.50098s43.167 15.333 57.5 27s24.666 25.667 30.999 42s9.5 34.5 9.5 54.5c0 19.333 -3 37.166 -9 53.499
s-16 30.5 -30 42.5s-32.333 21.333 -55 28s-50.667 10 -84 10h-135v-267h126z" />
    <glyph glyph-name="germandbls" unicode="&#xdf;" horiz-adv-x="597" 
d="M76 494c0 30 4.33008 58.1758 12.9971 84.5088s21.834 49.166 39.501 68.499s40 34.666 67 45.999s59.167 17 96.5 17c32 0 60.5 -4.33301 85.5 -13s45.833 -20.667 62.5 -36s29.334 -33.5 38.001 -54.5s13 -43.5 13 -67.5s-3.66699 -45.167 -11 -63.5
s-16.333 -33.666 -27 -45.999s-22.5 -22.333 -35.5 -30s-24.5 -12.834 -34.5 -15.501c16 -0.666992 33.5 -4.33398 52.5 -11.001s36.5 -17.334 52.5 -32.001s29.167 -33.667 39.5 -57s15.5 -51.333 15.5 -84c0 -39.333 -5.16699 -72.5 -15.5 -99.5
s-24.333 -49.167 -42 -66.5s-38.334 -29.833 -62.001 -37.5s-49.167 -11.5 -76.5 -11.5c-21.333 0 -39.666 1.5 -54.999 4.5s-28.333 6.5 -39 10.5s-19 8 -25 12s-10 7 -12 9c-5.33301 5.33301 -8.66602 10.166 -9.99902 14.499s-2 9.16602 -2 14.499
c0 11.333 3.83301 21.166 11.5 29.499s17.167 12.5 28.5 12.5c6.66699 0 13.167 -1.83301 19.5 -5.5s13.166 -7.83398 20.499 -12.501s15.833 -8.83398 25.5 -12.501s21.5 -5.5 35.5 -5.5c12.667 0 25.667 1.83301 39 5.5s25.333 10.334 36 20.001
s19.334 23.334 26.001 41.001s10 40.5 10 68.5c0 28.667 -4.66699 52.667 -14 72s-21.666 34.666 -36.999 45.999s-33 19.5 -53 24.5s-40.667 7.5 -62 7.5h-21c-11.333 0 -19.333 4 -24 12s-7 16.667 -7 26s2.5 18.166 7.5 26.499s12.167 12.5 21.5 12.5h28
c12.667 0 25.667 1.66699 39 5s25.166 9.33301 35.499 18s18.833 20.334 25.5 35.001s10 33.334 10 56.001c0 20 -3.5 36.667 -10.5 50s-16.167 24.166 -27.5 32.499s-24 14.166 -38 17.499s-28 5 -42 5c-46.667 0 -79.334 -14.5 -98.001 -43.5s-28 -67.167 -28 -114.5v-447
c0 -15.333 -3.83301 -25.833 -11.5 -31.5s-18.167 -8.5 -31.5 -8.5s-23.666 2.83301 -30.999 8.5s-11 16.167 -11 31.5v462z" />
    <glyph glyph-name="agrave" unicode="&#xe0;" horiz-adv-x="559" 
d="M398 313l-0.000976562 20c0 38 -9.83301 66.333 -29.5 85s-51.5 28 -95.5 28c-17.333 0 -32.333 -2 -45 -6s-23.5 -8.66699 -32.5 -14s-16.333 -11 -22 -17s-10.5 -11.333 -14.5 -16c-6.66699 -8 -12.334 -13.333 -17.001 -16s-10.667 -4 -18 -4
c-10.667 0 -20.5 3.16699 -29.5 9.5s-13.5 14.5 -13.5 24.5c0 5.33301 0.5 9.66602 1.5 12.999s2.5 7 4.5 11c0.666992 2 4.66699 7.66699 12 17s18.5 19.333 33.5 30s34.333 20.167 58 28.5s52.5 12.5 86.5 12.5c38 0 70.167 -4.83301 96.5 -14.5s47.5 -22.5 63.5 -38.5
s27.667 -34.5 35 -55.5s11 -42.833 11 -65.5v-319c0 -22 -14.333 -33 -43 -33c-19.333 0 -31.166 4.33301 -35.499 13s-6.5 20.667 -6.5 36v30c-6.66699 -9.33301 -14.667 -19 -24 -29s-20.833 -19.167 -34.5 -27.5s-30 -15.166 -49 -20.499s-40.833 -8 -65.5 -8
c-30 0 -55.833 3.66699 -77.5 11s-39.667 17.5 -54 30.5s-25 28.333 -32 46s-10.5 36.5 -10.5 56.5c0 26 4.66699 50 14 72s25.333 40.833 48 56.5s52.834 28 90.501 37s85.167 14.167 142.5 15.5zM342.999 245c-42.667 -0.666992 -77.333 -3.66602 -104 -8.99902
s-47.667 -12.5 -63 -21.5s-25.833 -19.833 -31.5 -32.5s-8.5 -27 -8.5 -43c0 -22.667 7.83301 -42.167 23.5 -58.5s41.5 -24.5 77.5 -24.5c31.333 0 59.833 7.16699 85.5 21.5s45.167 32.166 58.5 53.499c11.333 18 17 42.333 17 73v42zM360 632.001
c8.66699 -9.33301 13.001 -19.3311 13.001 -29.998c0 -8.66699 -3 -15.834 -9 -21.501s-13.667 -8.5 -23 -8.5s-17.333 2 -24 6s-13.334 9 -20.001 15l-85 76c-15.333 14 -23 26.333 -23 37c0 11.333 4.83301 22 14.5 32s21.5 15 35.5 15c10 0 19 -3.33301 27 -10
s17.333 -16.334 28 -29.001z" />
    <glyph glyph-name="aacute" unicode="&#xe1;" horiz-adv-x="559" 
d="M398 313l-0.000976562 20c0 38 -9.83301 66.333 -29.5 85s-51.5 28 -95.5 28c-17.333 0 -32.333 -2 -45 -6s-23.5 -8.66699 -32.5 -14s-16.333 -11 -22 -17s-10.5 -11.333 -14.5 -16c-6.66699 -8 -12.334 -13.333 -17.001 -16s-10.667 -4 -18 -4
c-10.667 0 -20.5 3.16699 -29.5 9.5s-13.5 14.5 -13.5 24.5c0 5.33301 0.5 9.66602 1.5 12.999s2.5 7 4.5 11c0.666992 2 4.66699 7.66699 12 17s18.5 19.333 33.5 30s34.333 20.167 58 28.5s52.5 12.5 86.5 12.5c38 0 70.167 -4.83301 96.5 -14.5s47.5 -22.5 63.5 -38.5
s27.667 -34.5 35 -55.5s11 -42.833 11 -65.5v-319c0 -22 -14.333 -33 -43 -33c-19.333 0 -31.166 4.33301 -35.499 13s-6.5 20.667 -6.5 36v30c-6.66699 -9.33301 -14.667 -19 -24 -29s-20.833 -19.167 -34.5 -27.5s-30 -15.166 -49 -20.499s-40.833 -8 -65.5 -8
c-30 0 -55.833 3.66699 -77.5 11s-39.667 17.5 -54 30.5s-25 28.333 -32 46s-10.5 36.5 -10.5 56.5c0 26 4.66699 50 14 72s25.333 40.833 48 56.5s52.834 28 90.501 37s85.167 14.167 142.5 15.5zM342.999 245c-42.667 -0.666992 -77.333 -3.66602 -104 -8.99902
s-47.667 -12.5 -63 -21.5s-25.833 -19.833 -31.5 -32.5s-8.5 -27 -8.5 -43c0 -22.667 7.83301 -42.167 23.5 -58.5s41.5 -24.5 77.5 -24.5c31.333 0 59.833 7.16699 85.5 21.5s45.167 32.166 58.5 53.499c11.333 18 17 42.333 17 73v42zM299 711.001
c10.667 12.667 20.334 22.167 29.001 28.5s18 9.5 28 9.5c15.333 0 27 -4.33301 35 -13s12 -18.667 12 -30c0 -10.667 -7.66699 -23 -23 -37l-85 -76c-6.66699 -6 -13.334 -11 -20.001 -15s-14.667 -6 -24 -6s-16.833 2.66699 -22.5 8s-8.5 12.333 -8.5 21
c0 10.667 4.33301 20.667 13 30z" />
    <glyph glyph-name="acircumflex" unicode="&#xe2;" horiz-adv-x="559" 
d="M398 313l-0.000976562 20c0 38 -9.83301 66.333 -29.5 85s-51.5 28 -95.5 28c-17.333 0 -32.333 -2 -45 -6s-23.5 -8.66699 -32.5 -14s-16.333 -11 -22 -17s-10.5 -11.333 -14.5 -16c-6.66699 -8 -12.334 -13.333 -17.001 -16s-10.667 -4 -18 -4
c-10.667 0 -20.5 3.16699 -29.5 9.5s-13.5 14.5 -13.5 24.5c0 5.33301 0.5 9.66602 1.5 12.999s2.5 7 4.5 11c0.666992 2 4.66699 7.66699 12 17s18.5 19.333 33.5 30s34.333 20.167 58 28.5s52.5 12.5 86.5 12.5c38 0 70.167 -4.83301 96.5 -14.5s47.5 -22.5 63.5 -38.5
s27.667 -34.5 35 -55.5s11 -42.833 11 -65.5v-319c0 -22 -14.333 -33 -43 -33c-19.333 0 -31.166 4.33301 -35.499 13s-6.5 20.667 -6.5 36v30c-6.66699 -9.33301 -14.667 -19 -24 -29s-20.833 -19.167 -34.5 -27.5s-30 -15.166 -49 -20.499s-40.833 -8 -65.5 -8
c-30 0 -55.833 3.66699 -77.5 11s-39.667 17.5 -54 30.5s-25 28.333 -32 46s-10.5 36.5 -10.5 56.5c0 26 4.66699 50 14 72s25.333 40.833 48 56.5s52.834 28 90.501 37s85.167 14.167 142.5 15.5zM342.999 245c-42.667 -0.666992 -77.333 -3.66602 -104 -8.99902
s-47.667 -12.5 -63 -21.5s-25.833 -19.833 -31.5 -32.5s-8.5 -27 -8.5 -43c0 -22.667 7.83301 -42.167 23.5 -58.5s41.5 -24.5 77.5 -24.5c31.333 0 59.833 7.16699 85.5 21.5s45.167 32.166 58.5 53.499c11.333 18 17 42.333 17 73v42zM226 712.001
c11.333 12 21.998 20.666 31.998 25.999s20 8 30 8c11.333 0 22.166 -2.66699 32.499 -8s21.166 -14 32.499 -26l73 -79c4.66699 -5.33301 7.83398 -10.666 9.50098 -15.999s2.5 -10 2.5 -14c0 -9.33301 -3.33301 -16.833 -10 -22.5s-14.667 -8.5 -24 -8.5
c-8.66699 0 -16.167 1.83301 -22.5 5.5s-12.166 8.83398 -17.499 15.501l-75 78l-74 -78c-6.66699 -6.66699 -13.167 -11.834 -19.5 -15.501s-14.166 -5.5 -23.499 -5.5s-17.166 2.83301 -23.499 8.5s-9.5 13.167 -9.5 22.5c0 11.333 4.33301 21.333 13 30z" />
    <glyph glyph-name="atilde" unicode="&#xe3;" horiz-adv-x="559" 
d="M398 313l-0.000976562 20c0 38 -9.83301 66.333 -29.5 85s-51.5 28 -95.5 28c-17.333 0 -32.333 -2 -45 -6s-23.5 -8.66699 -32.5 -14s-16.333 -11 -22 -17s-10.5 -11.333 -14.5 -16c-6.66699 -8 -12.334 -13.333 -17.001 -16s-10.667 -4 -18 -4
c-10.667 0 -20.5 3.16699 -29.5 9.5s-13.5 14.5 -13.5 24.5c0 5.33301 0.5 9.66602 1.5 12.999s2.5 7 4.5 11c0.666992 2 4.66699 7.66699 12 17s18.5 19.333 33.5 30s34.333 20.167 58 28.5s52.5 12.5 86.5 12.5c38 0 70.167 -4.83301 96.5 -14.5s47.5 -22.5 63.5 -38.5
s27.667 -34.5 35 -55.5s11 -42.833 11 -65.5v-319c0 -22 -14.333 -33 -43 -33c-19.333 0 -31.166 4.33301 -35.499 13s-6.5 20.667 -6.5 36v30c-6.66699 -9.33301 -14.667 -19 -24 -29s-20.833 -19.167 -34.5 -27.5s-30 -15.166 -49 -20.499s-40.833 -8 -65.5 -8
c-30 0 -55.833 3.66699 -77.5 11s-39.667 17.5 -54 30.5s-25 28.333 -32 46s-10.5 36.5 -10.5 56.5c0 26 4.66699 50 14 72s25.333 40.833 48 56.5s52.834 28 90.501 37s85.167 14.167 142.5 15.5zM342.999 245c-42.667 -0.666992 -77.333 -3.66602 -104 -8.99902
s-47.667 -12.5 -63 -21.5s-25.833 -19.833 -31.5 -32.5s-8.5 -27 -8.5 -43c0 -22.667 7.83301 -42.167 23.5 -58.5s41.5 -24.5 77.5 -24.5c31.333 0 59.833 7.16699 85.5 21.5s45.167 32.166 58.5 53.499c11.333 18 17 42.333 17 73v42zM356 596.001
c-12 0 -22.832 1.16797 -32.499 3.50098s-19.5 5.5 -29.5 9.5l-38 15c-10 4 -19.167 7.33301 -27.5 10s-16.166 4 -23.499 4c-12 0 -21.167 -2.33301 -27.5 -7s-13.166 -11.334 -20.499 -20.001c-2.66699 -3.33301 -5.83398 -6.5 -9.50098 -9.5s-8.16699 -4.5 -13.5 -4.5
c-7.33301 0 -14 2.16699 -20 6.5s-9 10.833 -9 19.5c0 9.33301 2.16699 18 6.5 26s9.16602 15.667 14.499 23c10.667 12.667 22.834 23 36.501 31s27.834 12 42.501 12c12 0 23 -1.5 33 -4.5s20.667 -6.83301 32 -11.5l37 -14c7.33301 -3.33301 15.666 -6.33301 24.999 -9
s17.666 -4 24.999 -4c13.333 0 22.666 2.16699 27.999 6.5s10.666 11.166 15.999 20.499c2.66699 4.66699 5.83398 8.66699 9.50098 12s8.16699 5 13.5 5s11.5 -2 18.5 -6s10.5 -9.66699 10.5 -17c0 -4 -0.666992 -9.33301 -2 -16c-5.33301 -23.333 -17 -42.666 -35 -57.999
s-38 -23 -60 -23z" />
    <glyph glyph-name="adieresis" unicode="&#xe4;" horiz-adv-x="559" 
d="M398 313l-0.000976562 20c0 38 -9.83301 66.333 -29.5 85s-51.5 28 -95.5 28c-17.333 0 -32.333 -2 -45 -6s-23.5 -8.66699 -32.5 -14s-16.333 -11 -22 -17s-10.5 -11.333 -14.5 -16c-6.66699 -8 -12.334 -13.333 -17.001 -16s-10.667 -4 -18 -4
c-10.667 0 -20.5 3.16699 -29.5 9.5s-13.5 14.5 -13.5 24.5c0 5.33301 0.5 9.66602 1.5 12.999s2.5 7 4.5 11c0.666992 2 4.66699 7.66699 12 17s18.5 19.333 33.5 30s34.333 20.167 58 28.5s52.5 12.5 86.5 12.5c38 0 70.167 -4.83301 96.5 -14.5s47.5 -22.5 63.5 -38.5
s27.667 -34.5 35 -55.5s11 -42.833 11 -65.5v-319c0 -22 -14.333 -33 -43 -33c-19.333 0 -31.166 4.33301 -35.499 13s-6.5 20.667 -6.5 36v30c-6.66699 -9.33301 -14.667 -19 -24 -29s-20.833 -19.167 -34.5 -27.5s-30 -15.166 -49 -20.499s-40.833 -8 -65.5 -8
c-30 0 -55.833 3.66699 -77.5 11s-39.667 17.5 -54 30.5s-25 28.333 -32 46s-10.5 36.5 -10.5 56.5c0 26 4.66699 50 14 72s25.333 40.833 48 56.5s52.834 28 90.501 37s85.167 14.167 142.5 15.5zM342.999 245c-42.667 -0.666992 -77.333 -3.66602 -104 -8.99902
s-47.667 -12.5 -63 -21.5s-25.833 -19.833 -31.5 -32.5s-8.5 -27 -8.5 -43c0 -22.667 7.83301 -42.167 23.5 -58.5s41.5 -24.5 77.5 -24.5c31.333 0 59.833 7.16699 85.5 21.5s45.167 32.166 58.5 53.499c11.333 18 17 42.333 17 73v42zM385 707.001
c14 0 26.667 -4.33301 38 -13s17 -21.667 17 -39c0 -16 -5 -28.667 -15 -38s-23.333 -14 -40 -14s-30 4.66699 -40 14s-15 22 -15 38c0 15.333 5.16699 27.833 15.5 37.5s23.5 14.5 39.5 14.5zM173 707.001c13.333 0 26.001 -4.33301 38.001 -13s18 -21.667 18 -39
c0 -16 -5.16699 -28.667 -15.5 -38s-23.833 -14 -40.5 -14s-29.834 4.66699 -39.501 14s-14.5 22 -14.5 38c0 15.333 5 27.833 15 37.5s23 14.5 39 14.5z" />
    <glyph glyph-name="aring" unicode="&#xe5;" horiz-adv-x="559" 
d="M398 313l-0.000976562 20c0 38 -9.83301 66.333 -29.5 85s-51.5 28 -95.5 28c-17.333 0 -32.333 -2 -45 -6s-23.5 -8.66699 -32.5 -14s-16.333 -11 -22 -17s-10.5 -11.333 -14.5 -16c-6.66699 -8 -12.334 -13.333 -17.001 -16s-10.667 -4 -18 -4
c-10.667 0 -20.5 3.16699 -29.5 9.5s-13.5 14.5 -13.5 24.5c0 5.33301 0.5 9.66602 1.5 12.999s2.5 7 4.5 11c0.666992 2 4.66699 7.66699 12 17s18.5 19.333 33.5 30s34.333 20.167 58 28.5s52.5 12.5 86.5 12.5c38 0 70.167 -4.83301 96.5 -14.5s47.5 -22.5 63.5 -38.5
s27.667 -34.5 35 -55.5s11 -42.833 11 -65.5v-319c0 -22 -14.333 -33 -43 -33c-19.333 0 -31.166 4.33301 -35.499 13s-6.5 20.667 -6.5 36v30c-6.66699 -9.33301 -14.667 -19 -24 -29s-20.833 -19.167 -34.5 -27.5s-30 -15.166 -49 -20.499s-40.833 -8 -65.5 -8
c-30 0 -55.833 3.66699 -77.5 11s-39.667 17.5 -54 30.5s-25 28.333 -32 46s-10.5 36.5 -10.5 56.5c0 26 4.66699 50 14 72s25.333 40.833 48 56.5s52.834 28 90.501 37s85.167 14.167 142.5 15.5zM342.999 245c-42.667 -0.666992 -77.333 -3.66602 -104 -8.99902
s-47.667 -12.5 -63 -21.5s-25.833 -19.833 -31.5 -32.5s-8.5 -27 -8.5 -43c0 -22.667 7.83301 -42.167 23.5 -58.5s41.5 -24.5 77.5 -24.5c31.333 0 59.833 7.16699 85.5 21.5s45.167 32.166 58.5 53.499c11.333 18 17 42.333 17 73v42zM391 679.001
c0 -14.667 -2.83301 -28.5 -8.5 -41.5s-13.334 -24.333 -23.001 -34s-21.167 -17.334 -34.5 -23.001s-27.666 -8.5 -42.999 -8.5s-29.666 2.83301 -42.999 8.5s-24.833 13.334 -34.5 23.001s-17.334 21 -23.001 34s-8.5 26.833 -8.5 41.5s2.83301 28.5 8.5 41.5
s13.334 24.333 23.001 34s21.167 17.334 34.5 23.001s27.666 8.5 42.999 8.5s29.666 -2.83301 42.999 -8.5s24.833 -13.334 34.5 -23.001s17.334 -21 23.001 -34s8.5 -26.833 8.5 -41.5zM338 679.001c0 15.333 -5.5 28.833 -16.5 40.5s-24.167 17.5 -39.5 17.5
s-28.5 -5.83301 -39.5 -17.5s-16.5 -25.167 -16.5 -40.5s5.5 -28.833 16.5 -40.5s24.167 -17.5 39.5 -17.5s28.5 5.83301 39.5 17.5s16.5 25.167 16.5 40.5z" />
    <glyph glyph-name="ae" unicode="&#xe6;" horiz-adv-x="908" 
d="M862 270c0 -23.333 -13.6641 -34.999 -40.9971 -34.999h-340c1.33301 -58.667 15.166 -102.5 41.499 -131.5s64.166 -43.5 113.499 -43.5c19.333 0 36.166 2.5 50.499 7.5s26.5 11 36.5 18s18.167 14.167 24.5 21.5s11.5 13.666 15.5 18.999
c4.66699 6.66699 9.16699 11.667 13.5 15s10.833 5 19.5 5c9.33301 0 18.5 -3 27.5 -9s13.5 -14 13.5 -24c0 -8.66699 -3.66699 -19 -11 -31c-6 -9.33301 -13.833 -19.5 -23.5 -30.5s-22 -21.5 -37 -31.5s-33.167 -18.333 -54.5 -25s-46.333 -10 -75 -10
c-46 0 -86.333 9.33301 -121 28s-60.667 45 -78 79c-6 -9.33301 -14 -20.166 -24 -32.499s-23.167 -24 -39.5 -35s-36 -20.333 -59 -28s-50.5 -11.5 -82.5 -11.5c-32.667 0 -60.5 3.83301 -83.5 11.5s-41.667 18.167 -56 31.5s-24.833 29.333 -31.5 48s-10 38.667 -10 60
c0 24.667 4.5 47.5 13.5 68.5s24.833 39 47.5 54s52.834 26.667 90.501 35s85.5 12.5 143.5 12.5h52v24c0 38 -9.83301 67 -29.5 87s-51.5 30 -95.5 30c-17.333 0 -32.333 -2 -45 -6s-23.5 -8.66699 -32.5 -14s-16.333 -11 -22 -17s-10.5 -11.333 -14.5 -16
c-6.66699 -8 -12.334 -13.333 -17.001 -16s-10.667 -4 -18 -4c-10.667 0 -20.5 3.16699 -29.5 9.5s-13.5 14.5 -13.5 24.5c0 5.33301 0.5 9.66602 1.5 12.999s2.5 7 4.5 11c0.666992 2 4.66699 7.66699 12 17s18.5 19.333 33.5 30s34.333 20.167 58 28.5
s52.5 12.5 86.5 12.5c48 0 85.833 -7.66699 113.5 -23s49.167 -37.333 64.5 -66c18.667 26 43.167 47.333 73.5 64s64.833 25 103.5 25c37.333 0 70.333 -6.33301 99 -19s52.667 -30 72 -52s34 -48.333 44 -79s15 -64 15 -100zM343.003 240.001
c-42.667 0 -77.333 -2.33203 -104 -6.99902s-47.667 -11.334 -63 -20.001s-25.833 -19.167 -31.5 -31.5s-8.5 -25.833 -8.5 -40.5c0 -25.333 7.83301 -46.166 23.5 -62.499s41.5 -24.5 77.5 -24.5c31.333 0 59.833 7.16699 85.5 21.5s45.167 32.166 58.5 53.499
c6 9.33301 10.333 20.5 13 33.5s4 26.833 4 41.5v36h-55zM632.004 447.002c-23.333 0 -43.668 -4 -61.001 -12s-32 -18.5 -44 -31.5s-21.5 -28.167 -28.5 -45.5s-11.5 -35.333 -13.5 -54h291c-2 20 -6.16699 38.667 -12.5 56s-15.333 32.5 -27 45.5
s-26.167 23.167 -43.5 30.5s-37.666 11 -60.999 11z" />
    <glyph glyph-name="ccedilla" unicode="&#xe7;" horiz-adv-x="525" 
d="M399 -131c0 -26.667 -9.16895 -49.498 -27.502 -68.498s-48.166 -28.5 -89.499 -28.5c-22.667 0 -40.5 2.16699 -53.5 6.5s-23.167 8.16602 -30.5 11.499c-14.667 8 -22 18.333 -22 31c0 8 2.66699 15.667 8 23s12.666 11 21.999 11c6 0 11.667 -1.16699 17 -3.5
s10.666 -5 15.999 -8s11.333 -5.66699 18 -8s14.334 -3.5 23.001 -3.5c14 0 25.333 3 34 9s13 15 13 27c0 8.66699 -2 15.667 -6 21s-9.16699 9.16602 -15.5 11.499s-13.833 3.83301 -22.5 4.5s-17.667 1 -27 1c-14.667 0 -23.667 2.66699 -27 8s-4 11.666 -2 18.999l16 53
c-20.667 3.33301 -40 9 -58 17c-29.333 13.333 -54 31.833 -74 55.5s-35.333 52 -46 85s-16 69.167 -16 108.5s5.33301 75.333 16 108s26 60.834 46 84.501s44.667 42 74 55s63 19.5 101 19.5c28.667 0 53.834 -3.5 75.501 -10.5s40.334 -15.833 56.001 -26.5
s28.334 -22.334 38.001 -35.001s17.167 -24.334 22.5 -35.001c2.66699 -5.33301 4.66699 -10.333 6 -15s2 -9.66699 2 -15c0 -12 -4.33301 -21.5 -13 -28.5s-18 -10.5 -28 -10.5c-7.33301 0 -13.5 1.5 -18.5 4.5s-11.167 9.83301 -18.5 20.5l-15 21
c-6 8.66699 -13.667 17 -23 25s-20.833 14.833 -34.5 20.5s-30.167 8.5 -49.5 8.5c-50 0 -87 -17 -111 -51s-36 -80.333 -36 -139c0 -60 12 -107.333 36 -142s61 -52 111 -52c18 0 33.333 2.16699 46 6.5s23.5 9.83301 32.5 16.5s16.5 13.834 22.5 21.501l17 22.5
c8 11.333 14.5 19 19.5 23s11.833 6 20.5 6c9.33301 0 18.5 -3.33301 27.5 -10s13.5 -15 13.5 -25c0 -9.33301 -2.33301 -18.333 -7 -27c-3.33301 -7.33301 -9.5 -17.166 -18.5 -29.499s-21.333 -24.5 -37 -36.5s-34.834 -22.333 -57.501 -31
c-18 -6.66699 -39 -10.667 -63 -12l-6 -25c36 -3.33301 62.167 -12.5 78.5 -27.5s24.5 -35.833 24.5 -62.5z" />
    <glyph glyph-name="egrave" unicode="&#xe8;" horiz-adv-x="566" 
d="M290 446c-23.333 0 -43.668 -3.83398 -61.001 -11.501s-32 -18 -44 -31s-21.5 -28.333 -28.5 -46s-11.5 -36.167 -13.5 -55.5h291c-2 18.667 -6.16699 36.834 -12.5 54.501s-15.333 33 -27 46s-26.167 23.5 -43.5 31.5s-37.666 12 -60.999 12zM519.998 262.999
c0 -24 -13.6699 -36 -41.0029 -36h-340c0 -54 13.5 -95.667 40.5 -125s65.167 -44 114.5 -44c19.333 0 36.166 2.5 50.499 7.5s26.5 11 36.5 18s18.167 14.167 24.5 21.5s11.5 13.666 15.5 18.999c4.66699 6.66699 9.16699 11.667 13.5 15s10.833 5 19.5 5
c9.33301 0 18.5 -3 27.5 -9s13.5 -14 13.5 -24c0 -8.66699 -3.66699 -19 -11 -31c-6 -9.33301 -13.833 -19.5 -23.5 -30.5s-22 -21.5 -37 -31.5s-33.167 -18.333 -54.5 -25s-46.333 -10 -75 -10c-37.333 0 -71.166 6.5 -101.499 19.5s-56.166 31.333 -77.499 55
s-37.666 52 -48.999 85s-17 69.167 -17 108.5c0 40 5.66699 76.333 17 109s27.5 60.834 48.5 84.501s46.333 42 76 55s62.834 19.5 99.501 19.5c37.333 0 70.333 -6.5 99 -19.5s52.667 -31 72 -54s34 -50.167 44 -81.5s15 -65 15 -101zM363.995 631.999
c8.66699 -9.33301 13.001 -19.3311 13.001 -29.998c0 -8.66699 -3 -15.834 -9 -21.501s-13.667 -8.5 -23 -8.5s-17.333 2 -24 6s-13.334 9 -20.001 15l-85 76c-15.333 14 -23 26.333 -23 37c0 11.333 4.83301 22 14.5 32s21.5 15 35.5 15c10 0 19 -3.33301 27 -10
s17.333 -16.334 28 -29.001z" />
    <glyph glyph-name="eacute" unicode="&#xe9;" horiz-adv-x="566" 
d="M290 446c-23.333 0 -43.668 -3.83398 -61.001 -11.501s-32 -18 -44 -31s-21.5 -28.333 -28.5 -46s-11.5 -36.167 -13.5 -55.5h291c-2 18.667 -6.16699 36.834 -12.5 54.501s-15.333 33 -27 46s-26.167 23.5 -43.5 31.5s-37.666 12 -60.999 12zM519.998 262.999
c0 -24 -13.6699 -36 -41.0029 -36h-340c0 -54 13.5 -95.667 40.5 -125s65.167 -44 114.5 -44c19.333 0 36.166 2.5 50.499 7.5s26.5 11 36.5 18s18.167 14.167 24.5 21.5s11.5 13.666 15.5 18.999c4.66699 6.66699 9.16699 11.667 13.5 15s10.833 5 19.5 5
c9.33301 0 18.5 -3 27.5 -9s13.5 -14 13.5 -24c0 -8.66699 -3.66699 -19 -11 -31c-6 -9.33301 -13.833 -19.5 -23.5 -30.5s-22 -21.5 -37 -31.5s-33.167 -18.333 -54.5 -25s-46.333 -10 -75 -10c-37.333 0 -71.166 6.5 -101.499 19.5s-56.166 31.333 -77.499 55
s-37.666 52 -48.999 85s-17 69.167 -17 108.5c0 40 5.66699 76.333 17 109s27.5 60.834 48.5 84.501s46.333 42 76 55s62.834 19.5 99.501 19.5c37.333 0 70.333 -6.5 99 -19.5s52.667 -31 72 -54s34 -50.167 44 -81.5s15 -65 15 -101zM309.995 710.999
c10.667 12.667 20.334 22.167 29.001 28.5s18 9.5 28 9.5c15.333 0 27 -4.33301 35 -13s12 -18.667 12 -30c0 -10.667 -7.66699 -23 -23 -37l-85 -76c-6.66699 -6 -13.334 -11 -20.001 -15s-14.667 -6 -24 -6s-16.833 2.66699 -22.5 8s-8.5 12.333 -8.5 21
c0 10.667 4.33301 20.667 13 30z" />
    <glyph glyph-name="ecircumflex" unicode="&#xea;" horiz-adv-x="566" 
d="M290 446c-23.333 0 -43.668 -3.83398 -61.001 -11.501s-32 -18 -44 -31s-21.5 -28.333 -28.5 -46s-11.5 -36.167 -13.5 -55.5h291c-2 18.667 -6.16699 36.834 -12.5 54.501s-15.333 33 -27 46s-26.167 23.5 -43.5 31.5s-37.666 12 -60.999 12zM519.998 262.999
c0 -24 -13.6699 -36 -41.0029 -36h-340c0 -54 13.5 -95.667 40.5 -125s65.167 -44 114.5 -44c19.333 0 36.166 2.5 50.499 7.5s26.5 11 36.5 18s18.167 14.167 24.5 21.5s11.5 13.666 15.5 18.999c4.66699 6.66699 9.16699 11.667 13.5 15s10.833 5 19.5 5
c9.33301 0 18.5 -3 27.5 -9s13.5 -14 13.5 -24c0 -8.66699 -3.66699 -19 -11 -31c-6 -9.33301 -13.833 -19.5 -23.5 -30.5s-22 -21.5 -37 -31.5s-33.167 -18.333 -54.5 -25s-46.333 -10 -75 -10c-37.333 0 -71.166 6.5 -101.499 19.5s-56.166 31.333 -77.499 55
s-37.666 52 -48.999 85s-17 69.167 -17 108.5c0 40 5.66699 76.333 17 109s27.5 60.834 48.5 84.501s46.333 42 76 55s62.834 19.5 99.501 19.5c37.333 0 70.333 -6.5 99 -19.5s52.667 -31 72 -54s34 -50.167 44 -81.5s15 -65 15 -101zM227.995 711.999
c11.333 12 21.998 20.666 31.998 25.999s20 8 30 8c11.333 0 22.166 -2.66699 32.499 -8s21.166 -14 32.499 -26l73 -79c4.66699 -5.33301 7.83398 -10.666 9.50098 -15.999s2.5 -10 2.5 -14c0 -9.33301 -3.33301 -16.833 -10 -22.5s-14.667 -8.5 -24 -8.5
c-8.66699 0 -16.167 1.83301 -22.5 5.5s-12.166 8.83398 -17.499 15.501l-75 78l-74 -78c-6.66699 -6.66699 -13.167 -11.834 -19.5 -15.501s-14.166 -5.5 -23.499 -5.5s-17.166 2.83301 -23.499 8.5s-9.5 13.167 -9.5 22.5c0 11.333 4.33301 21.333 13 30z" />
    <glyph glyph-name="edieresis" unicode="&#xeb;" horiz-adv-x="566" 
d="M290 446c-23.333 0 -43.668 -3.83398 -61.001 -11.501s-32 -18 -44 -31s-21.5 -28.333 -28.5 -46s-11.5 -36.167 -13.5 -55.5h291c-2 18.667 -6.16699 36.834 -12.5 54.501s-15.333 33 -27 46s-26.167 23.5 -43.5 31.5s-37.666 12 -60.999 12zM519.998 262.999
c0 -24 -13.6699 -36 -41.0029 -36h-340c0 -54 13.5 -95.667 40.5 -125s65.167 -44 114.5 -44c19.333 0 36.166 2.5 50.499 7.5s26.5 11 36.5 18s18.167 14.167 24.5 21.5s11.5 13.666 15.5 18.999c4.66699 6.66699 9.16699 11.667 13.5 15s10.833 5 19.5 5
c9.33301 0 18.5 -3 27.5 -9s13.5 -14 13.5 -24c0 -8.66699 -3.66699 -19 -11 -31c-6 -9.33301 -13.833 -19.5 -23.5 -30.5s-22 -21.5 -37 -31.5s-33.167 -18.333 -54.5 -25s-46.333 -10 -75 -10c-37.333 0 -71.166 6.5 -101.499 19.5s-56.166 31.333 -77.499 55
s-37.666 52 -48.999 85s-17 69.167 -17 108.5c0 40 5.66699 76.333 17 109s27.5 60.834 48.5 84.501s46.333 42 76 55s62.834 19.5 99.501 19.5c37.333 0 70.333 -6.5 99 -19.5s52.667 -31 72 -54s34 -50.167 44 -81.5s15 -65 15 -101zM395.995 706.999
c14 0 26.667 -4.33301 38 -13s17 -21.667 17 -39c0 -16 -5 -28.667 -15 -38s-23.333 -14 -40 -14s-30 4.66699 -40 14s-15 22 -15 38c0 15.333 5.16699 27.833 15.5 37.5s23.5 14.5 39.5 14.5zM183.995 706.999c13.333 0 26.001 -4.33301 38.001 -13s18 -21.667 18 -39
c0 -16 -5.16699 -28.667 -15.5 -38s-23.833 -14 -40.5 -14s-29.834 4.66699 -39.501 14s-14.5 22 -14.5 38c0 15.333 5 27.833 15 37.5s23 14.5 39 14.5z" />
    <glyph glyph-name="igrave" unicode="&#xec;" horiz-adv-x="237" 
d="M76 469c0 15.333 3.66699 25.833 11 31.5s17.666 8.5 30.999 8.5s23.833 -2.83301 31.5 -8.5s11.5 -16.167 11.5 -31.5v-437c0 -15.333 -3.83301 -25.833 -11.5 -31.5s-18.167 -8.5 -31.5 -8.5s-23.666 2.83301 -30.999 8.5s-11 16.167 -11 31.5v437zM176 632
c8.66699 -9.33301 13.001 -19.3311 13.001 -29.998c0 -8.66699 -3 -15.834 -9 -21.501s-13.667 -8.5 -23 -8.5s-17.333 2 -24 6s-13.334 9 -20.001 15l-85 76c-15.333 14 -23 26.333 -23 37c0 11.333 4.83301 22 14.5 32s21.5 15 35.5 15c10 0 19 -3.33301 27 -10
s17.333 -16.334 28 -29.001z" />
    <glyph glyph-name="iacute" unicode="&#xed;" horiz-adv-x="237" 
d="M76 469c0 15.333 3.66699 25.833 11 31.5s17.666 8.5 30.999 8.5s23.833 -2.83301 31.5 -8.5s11.5 -16.167 11.5 -31.5v-437c0 -15.333 -3.83301 -25.833 -11.5 -31.5s-18.167 -8.5 -31.5 -8.5s-23.666 2.83301 -30.999 8.5s-11 16.167 -11 31.5v437zM123 711
c10.667 12.667 20.334 22.167 29.001 28.5s18 9.5 28 9.5c15.333 0 27 -4.33301 35 -13s12 -18.667 12 -30c0 -10.667 -7.66699 -23 -23 -37l-85 -76c-6.66699 -6 -13.334 -11 -20.001 -15s-14.667 -6 -24 -6s-16.833 2.66699 -22.5 8s-8.5 12.333 -8.5 21
c0 10.667 4.33301 20.667 13 30z" />
    <glyph glyph-name="icircumflex" unicode="&#xee;" horiz-adv-x="237" 
d="M76 469c0 15.333 3.66699 25.833 11 31.5s17.666 8.5 30.999 8.5s23.833 -2.83301 31.5 -8.5s11.5 -16.167 11.5 -31.5v-437c0 -15.333 -3.83301 -25.833 -11.5 -31.5s-18.167 -8.5 -31.5 -8.5s-23.666 2.83301 -30.999 8.5s-11 16.167 -11 31.5v437zM59 712
c11.333 12 21.998 20.666 31.998 25.999s20 8 30 8c11.333 0 22.166 -2.66699 32.499 -8s21.166 -14 32.499 -26l73 -79c4.66699 -5.33301 7.83398 -10.666 9.50098 -15.999s2.5 -10 2.5 -14c0 -9.33301 -3.33301 -16.833 -10 -22.5s-14.667 -8.5 -24 -8.5
c-8.66699 0 -16.167 1.83301 -22.5 5.5s-12.166 8.83398 -17.499 15.501l-75 78l-74 -78c-6.66699 -6.66699 -13.167 -11.834 -19.5 -15.501s-14.166 -5.5 -23.499 -5.5s-17.166 2.83301 -23.499 8.5s-9.5 13.167 -9.5 22.5c0 11.333 4.33301 21.333 13 30z" />
    <glyph glyph-name="idieresis" unicode="&#xef;" horiz-adv-x="237" 
d="M207 707c14 0 26.667 -4.33301 38 -13s17 -21.667 17 -39c0 -16 -5 -28.667 -15 -38s-23.333 -14 -40 -14s-30 4.66699 -40 14s-15 22 -15 38c0 15.333 5.16699 27.833 15.5 37.5s23.5 14.5 39.5 14.5zM29 707c13.333 0 26.001 -4.33301 38.001 -13s18 -21.667 18 -39
c0 -16 -5.16699 -28.667 -15.5 -38s-23.833 -14 -40.5 -14s-29.834 4.66699 -39.501 14s-14.5 22 -14.5 38c0 15.333 5 27.833 15 37.5s23 14.5 39 14.5zM76.001 469c0 15.333 3.66699 25.833 11 31.5s17.666 8.5 30.999 8.5s23.833 -2.83301 31.5 -8.5
s11.5 -16.167 11.5 -31.5v-437c0 -15.333 -3.83301 -25.833 -11.5 -31.5s-18.167 -8.5 -31.5 -8.5s-23.666 2.83301 -30.999 8.5s-11 16.167 -11 31.5v437z" />
    <glyph glyph-name="eth" unicode="&#xf0;" horiz-adv-x="586" 
d="M335 616c-10 5.33301 -20.499 9.50488 -31.499 12.5049s-22.833 4.5 -35.5 4.5c-19.333 0 -35.5 -2.16699 -48.5 -6.5s-25.833 -10.166 -38.5 -17.499l-27.5 -16.5c-9 -5.66699 -18.167 -8.5 -27.5 -8.5c-7.33301 0 -13.166 1.16699 -17.499 3.5s-8.5 5.5 -12.5 9.5
c-8 8 -12 17 -12 27c0 11.333 6 22.333 18 33c17.333 15.333 40.333 28 69 38s61.334 15 98.001 15c30 0 56.667 -3.83301 80 -11.5s44.666 -18.834 63.999 -33.501l84 52c9.33301 5.33301 17.333 8 24 8c11.333 0 20.666 -6.33301 27.999 -19
c5.33301 -8.66699 8 -16.334 8 -23.001c0 -12 -7 -22.333 -21 -31l-71 -44c24 -36 41.5 -79.333 52.5 -130s16.5 -106 16.5 -166c0 -50.667 -4.83301 -96.334 -14.5 -137.001s-24.5 -75.334 -44.5 -104.001s-45.667 -50.667 -77 -66s-69 -23 -113 -23
c-40 0 -75 6.33301 -105 19s-55.167 30 -75.5 52s-35.666 48 -45.999 78s-15.5 62.667 -15.5 98c0 33.333 5.16699 64.666 15.5 93.999s25.333 55 45 77s44 39.5 73 52.5s62.167 19.5 99.5 19.5c30 0 55.667 -4.5 77 -13.5s38.666 -19.167 51.999 -30.5
c16 -12.667 29 -27 39 -43c-4.66699 39.333 -11 73.666 -19 102.999s-18.667 54 -32 74l-66 -41c-9.33301 -6 -18.333 -9 -27 -9c-14.667 0 -25.334 6.33301 -32.001 19c-4.66699 6.66699 -7 13.667 -7 21c0 12 6.66699 22.333 20 31zM133.001 225.005
c0 -24.667 3.49902 -47.499 10.499 -68.499s17.167 -39 30.5 -54s29.5 -26.833 48.5 -35.5s40.167 -13 63.5 -13c24 0 45.5 4.33301 64.5 13s34.833 20.667 47.5 36s22.334 33.333 29.001 54s10 43.334 10 68.001c0 25.333 -4 48.666 -12 69.999s-19 39.666 -33 54.999
s-30.667 27.166 -50 35.499s-40.333 12.5 -63 12.5c-22 0 -42 -4.16699 -60 -12.5s-33.333 -20.166 -46 -35.499s-22.5 -33.5 -29.5 -54.5s-10.5 -44.5 -10.5 -70.5z" />
    <glyph glyph-name="ntilde" unicode="&#xf1;" horiz-adv-x="582" 
d="M161 33c0 -15.333 -3.83398 -25.832 -11.501 -31.499s-18.167 -8.5 -31.5 -8.5s-23.666 2.83301 -30.999 8.5s-11 16.167 -11 31.5v438c0 14.667 3.33301 24.667 10 30s16.667 8 30 8s23.5 -2.66699 30.5 -8s10.5 -15.333 10.5 -30v-47c9.33301 17.333 22 33 38 47
c13.333 12 30.833 23 52.5 33s48.834 15 81.501 15c52.667 0 95.334 -14.667 128.001 -44s49 -74.333 49 -135v-312c0 -23.333 -13.667 -35 -41 -35c-29.333 0 -44 11.667 -44 35v291c0 39.333 -8.16699 69.333 -24.5 90s-45.833 31 -88.5 31
c-26 0 -48.333 -5.83301 -67 -17.5s-33.834 -26.834 -45.501 -45.501s-20.334 -39.5 -26.001 -62.5s-8.5 -45.833 -8.5 -68.5v-213zM384.999 596.001c-12 0 -22.832 1.16797 -32.499 3.50098s-19.5 5.5 -29.5 9.5l-38 15c-10 4 -19.167 7.33301 -27.5 10
s-16.166 4 -23.499 4c-12 0 -21.167 -2.33301 -27.5 -7s-13.166 -11.334 -20.499 -20.001c-2.66699 -3.33301 -5.83398 -6.5 -9.50098 -9.5s-8.16699 -4.5 -13.5 -4.5c-7.33301 0 -14 2.16699 -20 6.5s-9 10.833 -9 19.5c0 9.33301 2.16699 18 6.5 26
s9.16602 15.667 14.499 23c10.667 12.667 22.834 23 36.501 31s27.834 12 42.501 12c12 0 23 -1.5 33 -4.5s20.667 -6.83301 32 -11.5l37 -14c7.33301 -3.33301 15.666 -6.33301 24.999 -9s17.666 -4 24.999 -4c13.333 0 22.666 2.16699 27.999 6.5
s10.666 11.166 15.999 20.499c2.66699 4.66699 5.83398 8.66699 9.50098 12s8.16699 5 13.5 5s11.5 -2 18.5 -6s10.5 -9.66699 10.5 -17c0 -4 -0.666992 -9.33301 -2 -16c-5.33301 -23.333 -17 -42.666 -35 -57.999s-38 -23 -60 -23z" />
    <glyph glyph-name="ograve" unicode="&#xf2;" horiz-adv-x="588" 
d="M139 252c0 -60.667 13.333 -108.334 40 -143.001s65 -52 115 -52s88.333 17.333 115 52s40 82.334 40 143.001s-13.333 108 -40 142s-65 51 -115 51s-88.333 -17 -115 -51s-40 -81.333 -40 -142zM49 252c0 42 5.83301 79.5 17.5 112.5s28.334 61 50.001 84
s47.5 40.5 77.5 52.5s63.333 18 100 18s70 -6 100 -18s55.833 -29.5 77.5 -52.5s38.334 -51 50.001 -84s17.5 -70.5 17.5 -112.5s-5.83301 -79.667 -17.5 -113s-28.334 -61.5 -50.001 -84.5s-47.5 -40.667 -77.5 -53s-63.333 -18.5 -100 -18.5s-70 6.16699 -100 18.5
s-55.833 30 -77.5 53s-38.334 51.167 -50.001 84.5s-17.5 71 -17.5 113zM375 632c8.66699 -9.33301 13.001 -19.3311 13.001 -29.998c0 -8.66699 -3 -15.834 -9 -21.501s-13.667 -8.5 -23 -8.5s-17.333 2 -24 6s-13.334 9 -20.001 15l-85 76c-15.333 14 -23 26.333 -23 37
c0 11.333 4.83301 22 14.5 32s21.5 15 35.5 15c10 0 19 -3.33301 27 -10s17.333 -16.334 28 -29.001z" />
    <glyph glyph-name="oacute" unicode="&#xf3;" horiz-adv-x="588" 
d="M139 252c0 -60.667 13.333 -108.334 40 -143.001s65 -52 115 -52s88.333 17.333 115 52s40 82.334 40 143.001s-13.333 108 -40 142s-65 51 -115 51s-88.333 -17 -115 -51s-40 -81.333 -40 -142zM49 252c0 42 5.83301 79.5 17.5 112.5s28.334 61 50.001 84
s47.5 40.5 77.5 52.5s63.333 18 100 18s70 -6 100 -18s55.833 -29.5 77.5 -52.5s38.334 -51 50.001 -84s17.5 -70.5 17.5 -112.5s-5.83301 -79.667 -17.5 -113s-28.334 -61.5 -50.001 -84.5s-47.5 -40.667 -77.5 -53s-63.333 -18.5 -100 -18.5s-70 6.16699 -100 18.5
s-55.833 30 -77.5 53s-38.334 51.167 -50.001 84.5s-17.5 71 -17.5 113zM318 711c10.667 12.667 20.334 22.167 29.001 28.5s18 9.5 28 9.5c15.333 0 27 -4.33301 35 -13s12 -18.667 12 -30c0 -10.667 -7.66699 -23 -23 -37l-85 -76c-6.66699 -6 -13.334 -11 -20.001 -15
s-14.667 -6 -24 -6s-16.833 2.66699 -22.5 8s-8.5 12.333 -8.5 21c0 10.667 4.33301 20.667 13 30z" />
    <glyph glyph-name="ocircumflex" unicode="&#xf4;" horiz-adv-x="588" 
d="M139 252c0 -60.667 13.333 -108.334 40 -143.001s65 -52 115 -52s88.333 17.333 115 52s40 82.334 40 143.001s-13.333 108 -40 142s-65 51 -115 51s-88.333 -17 -115 -51s-40 -81.333 -40 -142zM49 252c0 42 5.83301 79.5 17.5 112.5s28.334 61 50.001 84
s47.5 40.5 77.5 52.5s63.333 18 100 18s70 -6 100 -18s55.833 -29.5 77.5 -52.5s38.334 -51 50.001 -84s17.5 -70.5 17.5 -112.5s-5.83301 -79.667 -17.5 -113s-28.334 -61.5 -50.001 -84.5s-47.5 -40.667 -77.5 -53s-63.333 -18.5 -100 -18.5s-70 6.16699 -100 18.5
s-55.833 30 -77.5 53s-38.334 51.167 -50.001 84.5s-17.5 71 -17.5 113zM232 712c11.333 12 21.998 20.666 31.998 25.999s20 8 30 8c11.333 0 22.166 -2.66699 32.499 -8s21.166 -14 32.499 -26l73 -79c4.66699 -5.33301 7.83398 -10.666 9.50098 -15.999s2.5 -10 2.5 -14
c0 -9.33301 -3.33301 -16.833 -10 -22.5s-14.667 -8.5 -24 -8.5c-8.66699 0 -16.167 1.83301 -22.5 5.5s-12.166 8.83398 -17.499 15.501l-75 78l-74 -78c-6.66699 -6.66699 -13.167 -11.834 -19.5 -15.501s-14.166 -5.5 -23.499 -5.5s-17.166 2.83301 -23.499 8.5
s-9.5 13.167 -9.5 22.5c0 11.333 4.33301 21.333 13 30z" />
    <glyph glyph-name="otilde" unicode="&#xf5;" horiz-adv-x="588" 
d="M139 252c0 -60.667 13.333 -108.334 40 -143.001s65 -52 115 -52s88.333 17.333 115 52s40 82.334 40 143.001s-13.333 108 -40 142s-65 51 -115 51s-88.333 -17 -115 -51s-40 -81.333 -40 -142zM49 252c0 42 5.83301 79.5 17.5 112.5s28.334 61 50.001 84
s47.5 40.5 77.5 52.5s63.333 18 100 18s70 -6 100 -18s55.833 -29.5 77.5 -52.5s38.334 -51 50.001 -84s17.5 -70.5 17.5 -112.5s-5.83301 -79.667 -17.5 -113s-28.334 -61.5 -50.001 -84.5s-47.5 -40.667 -77.5 -53s-63.333 -18.5 -100 -18.5s-70 6.16699 -100 18.5
s-55.833 30 -77.5 53s-38.334 51.167 -50.001 84.5s-17.5 71 -17.5 113zM371 596c-12 0 -22.832 1.16797 -32.499 3.50098s-19.5 5.5 -29.5 9.5l-38 15c-10 4 -19.167 7.33301 -27.5 10s-16.166 4 -23.499 4c-12 0 -21.167 -2.33301 -27.5 -7
s-13.166 -11.334 -20.499 -20.001c-2.66699 -3.33301 -5.83398 -6.5 -9.50098 -9.5s-8.16699 -4.5 -13.5 -4.5c-7.33301 0 -14 2.16699 -20 6.5s-9 10.833 -9 19.5c0 9.33301 2.16699 18 6.5 26s9.16602 15.667 14.499 23c10.667 12.667 22.834 23 36.501 31
s27.834 12 42.501 12c12 0 23 -1.5 33 -4.5s20.667 -6.83301 32 -11.5l37 -14c7.33301 -3.33301 15.666 -6.33301 24.999 -9s17.666 -4 24.999 -4c13.333 0 22.666 2.16699 27.999 6.5s10.666 11.166 15.999 20.499c2.66699 4.66699 5.83398 8.66699 9.50098 12
s8.16699 5 13.5 5s11.5 -2 18.5 -6s10.5 -9.66699 10.5 -17c0 -4 -0.666992 -9.33301 -2 -16c-5.33301 -23.333 -17 -42.666 -35 -57.999s-38 -23 -60 -23z" />
    <glyph glyph-name="odieresis" unicode="&#xf6;" horiz-adv-x="588" 
d="M139 252c0 -60.667 13.333 -108.334 40 -143.001s65 -52 115 -52s88.333 17.333 115 52s40 82.334 40 143.001s-13.333 108 -40 142s-65 51 -115 51s-88.333 -17 -115 -51s-40 -81.333 -40 -142zM49 252c0 42 5.83301 79.5 17.5 112.5s28.334 61 50.001 84
s47.5 40.5 77.5 52.5s63.333 18 100 18s70 -6 100 -18s55.833 -29.5 77.5 -52.5s38.334 -51 50.001 -84s17.5 -70.5 17.5 -112.5s-5.83301 -79.667 -17.5 -113s-28.334 -61.5 -50.001 -84.5s-47.5 -40.667 -77.5 -53s-63.333 -18.5 -100 -18.5s-70 6.16699 -100 18.5
s-55.833 30 -77.5 53s-38.334 51.167 -50.001 84.5s-17.5 71 -17.5 113zM399 707c14 0 26.667 -4.33301 38 -13s17 -21.667 17 -39c0 -16 -5 -28.667 -15 -38s-23.333 -14 -40 -14s-30 4.66699 -40 14s-15 22 -15 38c0 15.333 5.16699 27.833 15.5 37.5s23.5 14.5 39.5 14.5
zM187 707c13.333 0 26.001 -4.33301 38.001 -13s18 -21.667 18 -39c0 -16 -5.16699 -28.667 -15.5 -38s-23.833 -14 -40.5 -14s-29.834 4.66699 -39.501 14s-14.5 22 -14.5 38c0 15.333 5 27.833 15 37.5s23 14.5 39 14.5z" />
    <glyph glyph-name="divide" unicode="&#xf7;" horiz-adv-x="610" 
d="M244 149c0 16.667 6 31 18 43s26.667 18 44 18c16.667 0 31 -6 43 -18s18 -26.333 18 -43c0 -17.333 -6 -32 -18 -44s-26.333 -18 -43 -18c-17.333 0 -32 6 -44 18s-18 26.667 -18 44zM244 528c0 16.667 6 31 18 43s26.667 18 44 18c16.667 0 31 -6 43 -18
s18 -26.333 18 -43c0 -17.333 -6 -32 -18 -44s-26.333 -18 -43 -18c-17.333 0 -32 6 -44 18s-18 26.667 -18 44zM496 378c13.333 0 22.666 -3.33301 27.999 -10s8 -16 8 -28s-2.66699 -21.5 -8 -28.5s-14.666 -10.5 -27.999 -10.5h-382c-13.333 0 -22.666 3.5 -27.999 10.5
s-8 16.5 -8 28.5s2.66699 21.333 8 28s14.666 10 27.999 10h382z" />
    <glyph glyph-name="oslash" unicode="&#xf8;" horiz-adv-x="588" 
d="M49 250c0 42 5.83496 79.667 17.502 113s28.334 61.666 50.001 84.999s47.5 41.166 77.5 53.499s63.333 18.5 100 18.5c45.333 0 86 -9.33301 122 -28l52 73c9.33301 13.333 19.666 20 30.999 20c9.33301 0 19.166 -4 29.499 -12s15.5 -17.333 15.5 -28
c0 -8 -3.33301 -16.333 -10 -25l-55 -79c19.333 -22.667 34.166 -50.167 44.499 -82.5s15.5 -68.5 15.5 -108.5c0 -42 -5.83301 -79.5 -17.5 -112.5s-28.334 -61 -50.001 -84s-47.5 -40.5 -77.5 -52.5s-63.333 -18 -100 -18c-42.667 0 -81.667 8.33301 -117 25l-54 -77
c-9.33301 -13.333 -19.666 -20 -30.999 -20c-9.33301 0 -19 3.83301 -29 11.5s-15 16.834 -15 27.501c0 8.66699 3.33301 17.667 10 27l55 79c-20.667 22.667 -36.5 50.334 -47.5 83.001s-16.5 69.667 -16.5 111zM139.002 250c0 -49.333 8.66699 -89.667 26 -121l206 298
c-23.333 12.667 -49 19 -77 19c-50 0 -88.333 -17.5 -115 -52.5s-40 -82.833 -40 -143.5zM449.002 249.999c0 44.667 -7.66699 82.333 -23 113l-203 -291c20 -10 43.667 -15 71 -15c50 0 88.333 17 115 51s40 81.333 40 142z" />
    <glyph glyph-name="ugrave" unicode="&#xf9;" horiz-adv-x="582" 
d="M421 469c0 15.333 3.83203 25.832 11.499 31.499s18.167 8.5 31.5 8.5s23.666 -2.83301 30.999 -8.5s11 -16.167 11 -31.5v-438c0 -14.667 -3.33301 -24.667 -10 -30s-16.667 -8 -30 -8s-23.5 2.66699 -30.5 8s-10.5 15.333 -10.5 30v48c-9.33301 -18 -22 -34 -38 -48
c-13.333 -12 -31 -23 -53 -33s-49 -15 -81 -15c-26 0 -50 3.66699 -72 11s-40.667 18.333 -56 33s-27.333 33.167 -36 55.5s-13 48.833 -13 79.5v312c0 23.333 13.667 35 41 35c29.333 0 44 -11.667 44 -35v-291c0 -39.333 8 -69.333 24 -90s45.667 -31 89 -31
c26 0 48.333 5.83301 67 17.5s33.834 26.834 45.501 45.501s20.334 39.667 26.001 63s8.5 46.333 8.5 69v212zM345.999 631.999c8.66699 -9.33301 13.001 -19.3311 13.001 -29.998c0 -8.66699 -3 -15.834 -9 -21.501s-13.667 -8.5 -23 -8.5s-17.333 2 -24 6
s-13.334 9 -20.001 15l-85 76c-15.333 14 -23 26.333 -23 37c0 11.333 4.83301 22 14.5 32s21.5 15 35.5 15c10 0 19 -3.33301 27 -10s17.333 -16.334 28 -29.001z" />
    <glyph glyph-name="uacute" unicode="&#xfa;" horiz-adv-x="582" 
d="M421 469c0 15.333 3.83203 25.832 11.499 31.499s18.167 8.5 31.5 8.5s23.666 -2.83301 30.999 -8.5s11 -16.167 11 -31.5v-438c0 -14.667 -3.33301 -24.667 -10 -30s-16.667 -8 -30 -8s-23.5 2.66699 -30.5 8s-10.5 15.333 -10.5 30v48c-9.33301 -18 -22 -34 -38 -48
c-13.333 -12 -31 -23 -53 -33s-49 -15 -81 -15c-26 0 -50 3.66699 -72 11s-40.667 18.333 -56 33s-27.333 33.167 -36 55.5s-13 48.833 -13 79.5v312c0 23.333 13.667 35 41 35c29.333 0 44 -11.667 44 -35v-291c0 -39.333 8 -69.333 24 -90s45.667 -31 89 -31
c26 0 48.333 5.83301 67 17.5s33.834 26.834 45.501 45.501s20.334 39.667 26.001 63s8.5 46.333 8.5 69v212zM313.999 710.999c10.667 12.667 20.334 22.167 29.001 28.5s18 9.5 28 9.5c15.333 0 27 -4.33301 35 -13s12 -18.667 12 -30c0 -10.667 -7.66699 -23 -23 -37
l-85 -76c-6.66699 -6 -13.334 -11 -20.001 -15s-14.667 -6 -24 -6s-16.833 2.66699 -22.5 8s-8.5 12.333 -8.5 21c0 10.667 4.33301 20.667 13 30z" />
    <glyph glyph-name="ucircumflex" unicode="&#xfb;" horiz-adv-x="582" 
d="M421 469c0 15.333 3.83203 25.832 11.499 31.499s18.167 8.5 31.5 8.5s23.666 -2.83301 30.999 -8.5s11 -16.167 11 -31.5v-438c0 -14.667 -3.33301 -24.667 -10 -30s-16.667 -8 -30 -8s-23.5 2.66699 -30.5 8s-10.5 15.333 -10.5 30v48c-9.33301 -18 -22 -34 -38 -48
c-13.333 -12 -31 -23 -53 -33s-49 -15 -81 -15c-26 0 -50 3.66699 -72 11s-40.667 18.333 -56 33s-27.333 33.167 -36 55.5s-13 48.833 -13 79.5v312c0 23.333 13.667 35 41 35c29.333 0 44 -11.667 44 -35v-291c0 -39.333 8 -69.333 24 -90s45.667 -31 89 -31
c26 0 48.333 5.83301 67 17.5s33.834 26.834 45.501 45.501s20.334 39.667 26.001 63s8.5 46.333 8.5 69v212zM231.999 711.999c11.333 12 21.998 20.666 31.998 25.999s20 8 30 8c11.333 0 22.166 -2.66699 32.499 -8s21.166 -14 32.499 -26l73 -79
c4.66699 -5.33301 7.83398 -10.666 9.50098 -15.999s2.5 -10 2.5 -14c0 -9.33301 -3.33301 -16.833 -10 -22.5s-14.667 -8.5 -24 -8.5c-8.66699 0 -16.167 1.83301 -22.5 5.5s-12.166 8.83398 -17.499 15.501l-75 78l-74 -78
c-6.66699 -6.66699 -13.167 -11.834 -19.5 -15.501s-14.166 -5.5 -23.499 -5.5s-17.166 2.83301 -23.499 8.5s-9.5 13.167 -9.5 22.5c0 11.333 4.33301 21.333 13 30z" />
    <glyph glyph-name="udieresis" unicode="&#xfc;" horiz-adv-x="582" 
d="M421 469c0 15.333 3.83203 25.832 11.499 31.499s18.167 8.5 31.5 8.5s23.666 -2.83301 30.999 -8.5s11 -16.167 11 -31.5v-438c0 -14.667 -3.33301 -24.667 -10 -30s-16.667 -8 -30 -8s-23.5 2.66699 -30.5 8s-10.5 15.333 -10.5 30v48c-9.33301 -18 -22 -34 -38 -48
c-13.333 -12 -31 -23 -53 -33s-49 -15 -81 -15c-26 0 -50 3.66699 -72 11s-40.667 18.333 -56 33s-27.333 33.167 -36 55.5s-13 48.833 -13 79.5v312c0 23.333 13.667 35 41 35c29.333 0 44 -11.667 44 -35v-291c0 -39.333 8 -69.333 24 -90s45.667 -31 89 -31
c26 0 48.333 5.83301 67 17.5s33.834 26.834 45.501 45.501s20.334 39.667 26.001 63s8.5 46.333 8.5 69v212zM395.999 706.999c14 0 26.667 -4.33301 38 -13s17 -21.667 17 -39c0 -16 -5 -28.667 -15 -38s-23.333 -14 -40 -14s-30 4.66699 -40 14s-15 22 -15 38
c0 15.333 5.16699 27.833 15.5 37.5s23.5 14.5 39.5 14.5zM183.999 706.999c13.333 0 26.001 -4.33301 38.001 -13s18 -21.667 18 -39c0 -16 -5.16699 -28.667 -15.5 -38s-23.833 -14 -40.5 -14s-29.834 4.66699 -39.501 14s-14.5 22 -14.5 38c0 15.333 5 27.833 15 37.5
s23 14.5 39 14.5z" />
    <glyph glyph-name="yacute" unicode="&#xfd;" horiz-adv-x="508" 
d="M205 -186c-4.66699 -9.33301 -9.66504 -16.333 -14.998 -21s-13.333 -7 -24 -7c-11.333 0 -21 3.16699 -29 9.5s-12 15.166 -12 26.499c0 3.33301 0.5 7.33301 1.5 12s3.16699 10.334 6.5 17.001l73 164l-175 422c-2.66699 6.66699 -5.33398 12.834 -8.00098 18.501
s-4 11.167 -4 16.5c0 11.333 5.16699 20.333 15.5 27s21.833 10 34.5 10c15.333 0 26.666 -9.33301 33.999 -28l149 -366l157 368c4 9.33301 8.33301 16 13 20s11 6 19 6c12 0 23 -3 33 -9s15 -14.667 15 -26c0 -4.66699 -1.16699 -9.83398 -3.5 -15.501l-7.5 -17.5z
M289.002 711c10.667 12.667 20.334 22.167 29.001 28.5s18 9.5 28 9.5c15.333 0 27 -4.33301 35 -13s12 -18.667 12 -30c0 -10.667 -7.66699 -23 -23 -37l-85 -76c-6.66699 -6 -13.334 -11 -20.001 -15s-14.667 -6 -24 -6s-16.833 2.66699 -22.5 8s-8.5 12.333 -8.5 21
c0 10.667 4.33301 20.667 13 30z" />
    <glyph glyph-name="thorn" unicode="&#xfe;" horiz-adv-x="595" 
d="M76 663c0 14.667 3.33203 24.667 9.99902 30s16.667 8 30 8s23.5 -2.66699 30.5 -8s10.5 -15.333 10.5 -30v-241c14 27.333 35.167 50.333 63.5 69s62.833 28 103.5 28c34.667 0 65.667 -6.66699 93 -20s50.5 -32 69.5 -56s33.333 -52.5 43 -85.5
s14.5 -68.833 14.5 -107.5c0 -39.333 -4.83301 -75.333 -14.5 -108s-24 -60.667 -43 -84s-42.167 -41.5 -69.5 -54.5s-58.333 -19.5 -93 -19.5c-42 0 -76.333 7.83301 -103 23.5s-46.667 34.167 -60 55.5v-236c0 -15.333 -3.83301 -25.833 -11.5 -31.5
s-18.167 -8.5 -31.5 -8.5s-23.666 2.83301 -30.999 8.5s-11 16.167 -11 31.5v836zM453.999 250c0 28 -3 53.834 -9 77.501s-15 44 -27 61s-27 30.167 -45 39.5s-38.667 14 -62 14c-24 0 -45.5 -5.16699 -64.5 -15.5s-35 -24.5 -48 -42.5s-23 -38.833 -30 -62.5
s-10.5 -48.834 -10.5 -75.501c0 -59.333 13.333 -105.5 40 -138.5s64 -49.5 112 -49.5c24 0 45 4.66699 63 14s33 22.5 45 39.5s21 37.167 27 60.5s9 49.333 9 78z" />
    <glyph glyph-name="ydieresis" unicode="&#xff;" horiz-adv-x="508" 
d="M205 -186c-4.66699 -9.33301 -9.66504 -16.333 -14.998 -21s-13.333 -7 -24 -7c-11.333 0 -21 3.16699 -29 9.5s-12 15.166 -12 26.499c0 3.33301 0.5 7.33301 1.5 12s3.16699 10.334 6.5 17.001l73 164l-175 422c-2.66699 6.66699 -5.33398 12.834 -8.00098 18.501
s-4 11.167 -4 16.5c0 11.333 5.16699 20.333 15.5 27s21.833 10 34.5 10c15.333 0 26.666 -9.33301 33.999 -28l149 -366l157 368c4 9.33301 8.33301 16 13 20s11 6 19 6c12 0 23 -3 33 -9s15 -14.667 15 -26c0 -4.66699 -1.16699 -9.83398 -3.5 -15.501l-7.5 -17.5z
M363.002 707c14 0 26.667 -4.33301 38 -13s17 -21.667 17 -39c0 -16 -5 -28.667 -15 -38s-23.333 -14 -40 -14s-30 4.66699 -40 14s-15 22 -15 38c0 15.333 5.16699 27.833 15.5 37.5s23.5 14.5 39.5 14.5zM151.002 707c13.333 0 26.001 -4.33301 38.001 -13
s18 -21.667 18 -39c0 -16 -5.16699 -28.667 -15.5 -38s-23.833 -14 -40.5 -14s-29.834 4.66699 -39.501 14s-14.5 22 -14.5 38c0 15.333 5 27.833 15 37.5s23 14.5 39 14.5z" />
    <glyph glyph-name="Amacron" unicode="&#x100;" horiz-adv-x="672" 
d="M71 -7c-12 0 -23.5029 3.16895 -34.5029 9.50195s-16.5 15.166 -16.5 26.499c0 2 0.333008 4.66699 1 8s2.33398 7.66602 5.00098 12.999l263 624c4 8 9.5 14.5 16.5 19.5s17.5 7.5 31.5 7.5c15.333 0 26.5 -2.5 33.5 -7.5s12.167 -11.5 15.5 -19.5l261 -622
c2.66699 -5.33301 4.16699 -9.5 4.5 -12.5s0.5 -5.83301 0.5 -8.5c0 -12 -5.5 -21.333 -16.5 -28s-22.833 -10 -35.5 -10c-9.33301 0 -16.666 2.5 -21.999 7.5s-9.66602 11.167 -12.999 18.5l-77 180h-306l-78 -181c-7.33301 -16.667 -18.333 -25 -33 -25zM335.997 585.002
l-123 -312h244zM223.997 768.002c-11.333 0 -19.833 2.66699 -25.5 8s-8.5 15.666 -8.5 30.999c0 14 2.5 24.167 7.5 30.5s14.167 9.5 27.5 9.5h222c13.333 0 22.5 -3.16699 27.5 -9.5s7.5 -16.5 7.5 -30.5c0 -15.333 -3 -25.666 -9 -30.999s-15.667 -8 -29 -8h-220z" />
    <glyph glyph-name="amacron" unicode="&#x101;" horiz-adv-x="559" 
d="M398 313l-0.000976562 20c0 38 -9.83301 66.333 -29.5 85s-51.5 28 -95.5 28c-17.333 0 -32.333 -2 -45 -6s-23.5 -8.66699 -32.5 -14s-16.333 -11 -22 -17s-10.5 -11.333 -14.5 -16c-6.66699 -8 -12.334 -13.333 -17.001 -16s-10.667 -4 -18 -4
c-10.667 0 -20.5 3.16699 -29.5 9.5s-13.5 14.5 -13.5 24.5c0 5.33301 0.5 9.66602 1.5 12.999s2.5 7 4.5 11c0.666992 2 4.66699 7.66699 12 17s18.5 19.333 33.5 30s34.333 20.167 58 28.5s52.5 12.5 86.5 12.5c38 0 70.167 -4.83301 96.5 -14.5s47.5 -22.5 63.5 -38.5
s27.667 -34.5 35 -55.5s11 -42.833 11 -65.5v-319c0 -22 -14.333 -33 -43 -33c-19.333 0 -31.166 4.33301 -35.499 13s-6.5 20.667 -6.5 36v30c-6.66699 -9.33301 -14.667 -19 -24 -29s-20.833 -19.167 -34.5 -27.5s-30 -15.166 -49 -20.499s-40.833 -8 -65.5 -8
c-30 0 -55.833 3.66699 -77.5 11s-39.667 17.5 -54 30.5s-25 28.333 -32 46s-10.5 36.5 -10.5 56.5c0 26 4.66699 50 14 72s25.333 40.833 48 56.5s52.834 28 90.501 37s85.167 14.167 142.5 15.5zM342.999 245c-42.667 -0.666992 -77.333 -3.66602 -104 -8.99902
s-47.667 -12.5 -63 -21.5s-25.833 -19.833 -31.5 -32.5s-8.5 -27 -8.5 -43c0 -22.667 7.83301 -42.167 23.5 -58.5s41.5 -24.5 77.5 -24.5c31.333 0 59.833 7.16699 85.5 21.5s45.167 32.166 58.5 53.499c11.333 18 17 42.333 17 73v42zM167 615.001
c-11.333 0 -19.833 2.66699 -25.5 8s-8.5 15.666 -8.5 30.999c0 14 2.5 24.167 7.5 30.5s14.167 9.5 27.5 9.5h222c13.333 0 22.5 -3.16699 27.5 -9.5s7.5 -16.5 7.5 -30.5c0 -15.333 -3 -25.666 -9 -30.999s-15.667 -8 -29 -8h-220z" />
    <glyph glyph-name="Abreve" unicode="&#x102;" horiz-adv-x="672" 
d="M71 -7c-12 0 -23.5029 3.16895 -34.5029 9.50195s-16.5 15.166 -16.5 26.499c0 2 0.333008 4.66699 1 8s2.33398 7.66602 5.00098 12.999l263 624c4 8 9.5 14.5 16.5 19.5s17.5 7.5 31.5 7.5c15.333 0 26.5 -2.5 33.5 -7.5s12.167 -11.5 15.5 -19.5l261 -622
c2.66699 -5.33301 4.16699 -9.5 4.5 -12.5s0.5 -5.83301 0.5 -8.5c0 -12 -5.5 -21.333 -16.5 -28s-22.833 -10 -35.5 -10c-9.33301 0 -16.666 2.5 -21.999 7.5s-9.66602 11.167 -12.999 18.5l-77 180h-306l-78 -181c-7.33301 -16.667 -18.333 -25 -33 -25zM335.997 585.002
l-123 -312h244zM333.997 747.002c-26 0 -48.502 3.83301 -67.502 11.5s-34.5 17.167 -46.5 28.5s-21 23.333 -27 36s-9 24.334 -9 35.001c0 11.333 4 19.833 12 25.5s18.667 8.5 32 8.5c14 0 24.667 -6.66699 32 -20l10.5 -19.5c3.66699 -7 8.33398 -13.5 14.001 -19.5
s12.667 -11 21 -15s18.833 -6 31.5 -6c11.333 0 21 2 29 6s14.833 8.66699 20.5 14s10.334 11.166 14.001 17.499s6.83398 12.166 9.50098 17.499c4.66699 8.66699 9.66699 15 15 19s12.666 6 21.999 6c12.667 0 22.667 -2.83301 30 -8.5s11 -13.5 11 -23.5
c0 -12 -3.16699 -24.5 -9.5 -37.5s-16 -25.167 -29 -36.5s-29 -20.666 -48 -27.999s-41.5 -11 -67.5 -11z" />
    <glyph glyph-name="abreve" unicode="&#x103;" horiz-adv-x="559" 
d="M398 313l-0.000976562 20c0 38 -9.83301 66.333 -29.5 85s-51.5 28 -95.5 28c-17.333 0 -32.333 -2 -45 -6s-23.5 -8.66699 -32.5 -14s-16.333 -11 -22 -17s-10.5 -11.333 -14.5 -16c-6.66699 -8 -12.334 -13.333 -17.001 -16s-10.667 -4 -18 -4
c-10.667 0 -20.5 3.16699 -29.5 9.5s-13.5 14.5 -13.5 24.5c0 5.33301 0.5 9.66602 1.5 12.999s2.5 7 4.5 11c0.666992 2 4.66699 7.66699 12 17s18.5 19.333 33.5 30s34.333 20.167 58 28.5s52.5 12.5 86.5 12.5c38 0 70.167 -4.83301 96.5 -14.5s47.5 -22.5 63.5 -38.5
s27.667 -34.5 35 -55.5s11 -42.833 11 -65.5v-319c0 -22 -14.333 -33 -43 -33c-19.333 0 -31.166 4.33301 -35.499 13s-6.5 20.667 -6.5 36v30c-6.66699 -9.33301 -14.667 -19 -24 -29s-20.833 -19.167 -34.5 -27.5s-30 -15.166 -49 -20.499s-40.833 -8 -65.5 -8
c-30 0 -55.833 3.66699 -77.5 11s-39.667 17.5 -54 30.5s-25 28.333 -32 46s-10.5 36.5 -10.5 56.5c0 26 4.66699 50 14 72s25.333 40.833 48 56.5s52.834 28 90.501 37s85.167 14.167 142.5 15.5zM342.999 245c-42.667 -0.666992 -77.333 -3.66602 -104 -8.99902
s-47.667 -12.5 -63 -21.5s-25.833 -19.833 -31.5 -32.5s-8.5 -27 -8.5 -43c0 -22.667 7.83301 -42.167 23.5 -58.5s41.5 -24.5 77.5 -24.5c31.333 0 59.833 7.16699 85.5 21.5s45.167 32.166 58.5 53.499c11.333 18 17 42.333 17 73v42zM288 572.001
c-26 0 -48.502 3.83301 -67.502 11.5s-34.5 17.167 -46.5 28.5s-21 23.333 -27 36s-9 24.334 -9 35.001c0 11.333 4 19.833 12 25.5s18.667 8.5 32 8.5c14 0 24.667 -6.66699 32 -20l10.5 -19.5c3.66699 -7 8.33398 -13.5 14.001 -19.5s12.667 -11 21 -15s18.833 -6 31.5 -6
c11.333 0 21 2 29 6s14.833 8.66699 20.5 14s10.334 11.166 14.001 17.499s6.83398 12.166 9.50098 17.499c4.66699 8.66699 9.66699 15 15 19s12.666 6 21.999 6c12.667 0 22.667 -2.83301 30 -8.5s11 -13.5 11 -23.5c0 -12 -3.16699 -24.5 -9.5 -37.5
s-16 -25.167 -29 -36.5s-29 -20.666 -48 -27.999s-41.5 -11 -67.5 -11z" />
    <glyph glyph-name="Aogonek" unicode="&#x104;" horiz-adv-x="671" 
d="M70 -9c-12 0 -23.332 3.33105 -33.999 9.99805s-16 15.667 -16 27c0 2 0.166992 4.5 0.5 7.5s1.83301 7.16699 4.5 12.5l263 626c4 8 9.5 14.5 16.5 19.5s17.5 7.5 31.5 7.5c15.333 0 26.5 -2.5 33.5 -7.5s12.167 -11.5 15.5 -19.5l261 -624
c2.66699 -5.33301 4.16699 -9.5 4.5 -12.5s0.5 -5.83301 0.5 -8.5c0 -7.33301 -1.5 -13.333 -4.5 -18s-7.16699 -9 -12.5 -13c-20 -16 -37.5 -34.167 -52.5 -54.5s-22.5 -41.166 -22.5 -62.499c0 -19.333 5 -32.666 15 -39.999s21 -11 33 -11
c7.33301 0 13.5 0.666992 18.5 2s9.5 2.83301 13.5 4.5s7.83301 3.16699 11.5 4.5s7.83398 2 12.501 2c6 0 11.167 -3.16699 15.5 -9.5s6.5 -13.833 6.5 -22.5s-4.33301 -17 -13 -25c-7.33301 -6.66699 -17.833 -12 -31.5 -16s-28.5 -6 -44.5 -6c-22 0 -40.5 3 -55.5 9
s-27 13.833 -36 23.5s-15.5 20.667 -19.5 33s-6 24.833 -6 37.5c0 16.667 2.66699 32.167 8 46.5s12.166 27.5 20.499 39.5s17.666 23.167 27.999 33.5s20.5 19.5 30.5 27.5l-79 185h-306l-78 -183c-2.66699 -5.33301 -7 -10.833 -13 -16.5s-12.667 -8.5 -20 -8.5z
M335.001 584.998l-123 -312h244z" />
    <glyph glyph-name="aogonek" unicode="&#x105;" horiz-adv-x="559" 
d="M398 313l0.000976562 17.0039c0 38 -9.83301 66.333 -29.5 85s-51.5 28 -95.5 28c-17.333 0 -32.333 -2 -45 -6s-23.5 -8.66699 -32.5 -14s-16.333 -11 -22 -17s-10.5 -11.333 -14.5 -16c-6.66699 -8 -12.334 -13.333 -17.001 -16s-10.667 -4 -18 -4
c-10.667 0 -20.5 3.16699 -29.5 9.5s-13.5 14.5 -13.5 24.5c0 5.33301 0.5 9.66602 1.5 12.999s2.5 7 4.5 11c0.666992 2 4.66699 7.66699 12 17s18.5 19.333 33.5 30s34.333 20.167 58 28.5s52.5 12.5 86.5 12.5c38 0 70.167 -4.83301 96.5 -14.5s47.5 -22.5 63.5 -38.5
s27.667 -34.5 35 -55.5s11 -42.833 11 -65.5v-317c0 -13.333 -5.66699 -23.333 -17 -30c-23.333 -15.333 -41.5 -32.666 -54.5 -51.999s-19.5 -39.333 -19.5 -60c0 -20 5 -33.833 15 -41.5s21 -11.5 33 -11.5c7.33301 0 13.5 0.666992 18.5 2s9.5 2.83301 13.5 4.5
s7.83301 3.16699 11.5 4.5s7.83398 2 12.501 2c6 0 11.167 -3.16699 15.5 -9.5s6.5 -13.833 6.5 -22.5s-4.33301 -17 -13 -25c-7.33301 -6.66699 -17.833 -12 -31.5 -16s-28.167 -6 -43.5 -6c-22 0 -40.5 3 -55.5 9s-27 14 -36 24s-15.333 21 -19 33s-5.5 24 -5.5 36
c0 32 8.16699 59.667 24.5 83s36.166 43 59.499 59v64c-6.66699 -9.33301 -14.667 -18.833 -24 -28.5s-20.833 -18.334 -34.5 -26.001s-30 -13.834 -49 -18.501s-40.833 -7 -65.5 -7c-60 0 -104 13.167 -132 39.5s-42 61.166 -42 104.499c0 24.667 4.5 47.667 13.5 69
s24.667 39.666 47 54.999s52.5 27.5 90.5 36.5s86 14.167 144 15.5zM343.001 245.004c-42.667 -0.666992 -77.333 -3.66797 -104 -9.00098s-47.667 -12.666 -63 -21.999s-25.833 -20.166 -31.5 -32.499s-8.5 -25.833 -8.5 -40.5c0 -25.333 7.83301 -45 23.5 -59
s41.5 -21 77.5 -21c31.333 0 59.833 7.16699 85.5 21.5s45.167 32.166 58.5 53.499c11.333 18 17 40.667 17 68v42z" />
    <glyph glyph-name="Cacute" unicode="&#x106;" horiz-adv-x="696" 
d="M571 183c6 10.667 11.8369 18.501 17.5039 23.501s12.834 7.5 21.501 7.5c9.33301 0 19.333 -2.66699 30 -8s16 -15.333 16 -30c0 -13.333 -5.16699 -29.166 -15.5 -47.499s-21.5 -34.5 -33.5 -48.5c-4.66699 -5.33301 -12.834 -13.5 -24.501 -24.5
s-27 -21.833 -46 -32.5s-41.5 -20 -67.5 -28s-56 -12 -90 -12c-49.333 0 -94.166 8.66699 -134.499 26s-74.833 41.666 -103.5 72.999s-50.834 69.333 -66.501 114s-23.5 94.667 -23.5 150s7.83301 105.5 23.5 150.5s37.834 83.333 66.501 115s63.167 56.167 103.5 73.5
s85.166 26 134.499 26c32.667 0 61.667 -3.66699 87 -11s47 -15.833 65 -25.5s32.667 -19.667 44 -30s19.666 -18.5 24.999 -24.5c12 -14 23.5 -30.167 34.5 -48.5s16.5 -34.166 16.5 -47.499c0 -14.667 -5.5 -24.667 -16.5 -30s-21.167 -8 -30.5 -8
c-8.66699 0 -15.834 2.5 -21.501 7.5s-10.834 11.833 -15.501 20.5c-7.33301 13.333 -16.333 26.833 -27 40.5s-23.334 26.167 -38.001 37.5s-32 20.666 -52 27.999s-43.333 11 -70 11c-38 0 -71.5 -7 -100.5 -21s-53.5 -33.5 -73.5 -58.5s-35 -55 -45 -90
s-15 -73.5 -15 -115.5c0 -41.333 5 -79.5 15 -114.5s25 -65 45 -90s44.5 -44.5 73.5 -58.5s62.5 -21 100.5 -21c30 0 55.667 4.16699 77 12.5s39.333 18.666 54 30.999s26.667 25.5 36 39.5s17.333 26.667 24 38zM375.004 868.001c10.667 8 20.833 14.502 30.5 19.502
s19.167 7.5 28.5 7.5c13.333 0 23.833 -4.33301 31.5 -13s11.5 -18.667 11.5 -30c0 -9.33301 -2.5 -17.166 -7.5 -23.499s-13.167 -12.5 -24.5 -18.5l-99 -53c-6 -3.33301 -12.5 -6.33301 -19.5 -9s-14.833 -4 -23.5 -4c-9.33301 0 -17 2.66699 -23 8s-9 12.666 -9 21.999
c0 7.33301 1.33301 13.166 4 17.499s7.66699 9.16602 15 14.499z" />
    <glyph glyph-name="cacute" unicode="&#x107;" horiz-adv-x="525" 
d="M404 126c8 11.333 14.4971 18.999 19.4971 22.999s11.833 6 20.5 6c9.33301 0 18.5 -3.33301 27.5 -10s13.5 -15 13.5 -25c0 -9.33301 -2.33301 -18.333 -7 -27c-3.33301 -7.33301 -9.5 -17.166 -18.5 -29.499s-21.333 -24.5 -37 -36.5s-34.667 -22.333 -57 -31
s-48.833 -13 -79.5 -13c-38 0 -71.667 6.66699 -101 20s-54 31.833 -74 55.5s-35.333 52 -46 85s-16 69.167 -16 108.5s5.33301 75.333 16 108s26 60.834 46 84.501s44.667 42 74 55s63 19.5 101 19.5c28.667 0 53.834 -3.5 75.501 -10.5s40.334 -15.833 56.001 -26.5
s28.334 -22.334 38.001 -35.001s17.167 -24.334 22.5 -35.001c2.66699 -5.33301 4.66699 -10.333 6 -15s2 -9.66699 2 -15c0 -12 -4.33301 -21.5 -13 -28.5s-18 -10.5 -28 -10.5c-7.33301 0 -13.5 1.5 -18.5 4.5s-11.167 9.83301 -18.5 20.5l-15 21
c-6 8.66699 -13.667 17 -23 25s-20.833 14.833 -34.5 20.5s-30.167 8.5 -49.5 8.5c-50 0 -87 -17 -111 -51s-36 -80.333 -36 -139c0 -60 12 -107.333 36 -142s61 -52 111 -52c18 0 33.333 2.16699 46 6.5s23.5 9.83301 32.5 16.5s16.5 13.834 22.5 21.501zM295.997 710.999
c10.667 12.667 20.334 22.167 29.001 28.5s18 9.5 28 9.5c15.333 0 27 -4.33301 35 -13s12 -18.667 12 -30c0 -10.667 -7.66699 -23 -23 -37l-85 -76c-6.66699 -6 -13.334 -11 -20.001 -15s-14.667 -6 -24 -6s-16.833 2.66699 -22.5 8s-8.5 12.333 -8.5 21
c0 10.667 4.33301 20.667 13 30z" />
    <glyph glyph-name="Ccircumflex" unicode="&#x108;" horiz-adv-x="696" 
d="M571 183c6 10.667 11.8369 18.501 17.5039 23.501s12.834 7.5 21.501 7.5c9.33301 0 19.333 -2.66699 30 -8s16 -15.333 16 -30c0 -13.333 -5.16699 -29.166 -15.5 -47.499s-21.5 -34.5 -33.5 -48.5c-4.66699 -5.33301 -12.834 -13.5 -24.501 -24.5
s-27 -21.833 -46 -32.5s-41.5 -20 -67.5 -28s-56 -12 -90 -12c-49.333 0 -94.166 8.66699 -134.499 26s-74.833 41.666 -103.5 72.999s-50.834 69.333 -66.501 114s-23.5 94.667 -23.5 150s7.83301 105.5 23.5 150.5s37.834 83.333 66.501 115s63.167 56.167 103.5 73.5
s85.166 26 134.499 26c32.667 0 61.667 -3.66699 87 -11s47 -15.833 65 -25.5s32.667 -19.667 44 -30s19.666 -18.5 24.999 -24.5c12 -14 23.5 -30.167 34.5 -48.5s16.5 -34.166 16.5 -47.499c0 -14.667 -5.5 -24.667 -16.5 -30s-21.167 -8 -30.5 -8
c-8.66699 0 -15.834 2.5 -21.501 7.5s-10.834 11.833 -15.501 20.5c-7.33301 13.333 -16.333 26.833 -27 40.5s-23.334 26.167 -38.001 37.5s-32 20.666 -52 27.999s-43.333 11 -70 11c-38 0 -71.5 -7 -100.5 -21s-53.5 -33.5 -73.5 -58.5s-35 -55 -45 -90
s-15 -73.5 -15 -115.5c0 -41.333 5 -79.5 15 -114.5s25 -65 45 -90s44.5 -44.5 73.5 -58.5s62.5 -21 100.5 -21c30 0 55.667 4.16699 77 12.5s39.333 18.666 54 30.999s26.667 25.5 36 39.5s17.333 26.667 24 38zM320.004 871.001
c12.667 10.667 23.499 18.6689 32.499 24.002s19.167 8 30.5 8c10 0 19.333 -2.33301 28 -7s19 -12.667 31 -24l76 -69c5.33301 -4.66699 8.5 -9.33398 9.5 -14.001s1.5 -9 1.5 -13c0 -9.33301 -3.33301 -17 -10 -23s-14.667 -9 -24 -9s-17 1.83301 -23 5.5
s-12.333 8.16699 -19 13.5l-71 63l-74 -62c-7.33301 -5.33301 -14.333 -10 -21 -14s-14.667 -6 -24 -6s-17.166 2.83301 -23.499 8.5s-9.5 13.167 -9.5 22.5c0 5.33301 0.666992 10.166 2 14.499s4.33301 8.83301 9 13.5z" />
    <glyph glyph-name="ccircumflex" unicode="&#x109;" horiz-adv-x="525" 
d="M404 126c8 11.333 14.4971 18.999 19.4971 22.999s11.833 6 20.5 6c9.33301 0 18.5 -3.33301 27.5 -10s13.5 -15 13.5 -25c0 -9.33301 -2.33301 -18.333 -7 -27c-3.33301 -7.33301 -9.5 -17.166 -18.5 -29.499s-21.333 -24.5 -37 -36.5s-34.667 -22.333 -57 -31
s-48.833 -13 -79.5 -13c-38 0 -71.667 6.66699 -101 20s-54 31.833 -74 55.5s-35.333 52 -46 85s-16 69.167 -16 108.5s5.33301 75.333 16 108s26 60.834 46 84.501s44.667 42 74 55s63 19.5 101 19.5c28.667 0 53.834 -3.5 75.501 -10.5s40.334 -15.833 56.001 -26.5
s28.334 -22.334 38.001 -35.001s17.167 -24.334 22.5 -35.001c2.66699 -5.33301 4.66699 -10.333 6 -15s2 -9.66699 2 -15c0 -12 -4.33301 -21.5 -13 -28.5s-18 -10.5 -28 -10.5c-7.33301 0 -13.5 1.5 -18.5 4.5s-11.167 9.83301 -18.5 20.5l-15 21
c-6 8.66699 -13.667 17 -23 25s-20.833 14.833 -34.5 20.5s-30.167 8.5 -49.5 8.5c-50 0 -87 -17 -111 -51s-36 -80.333 -36 -139c0 -60 12 -107.333 36 -142s61 -52 111 -52c18 0 33.333 2.16699 46 6.5s23.5 9.83301 32.5 16.5s16.5 13.834 22.5 21.501zM222.997 711.999
c11.333 12 21.998 20.666 31.998 25.999s20 8 30 8c11.333 0 22.166 -2.66699 32.499 -8s21.166 -14 32.499 -26l73 -79c4.66699 -5.33301 7.83398 -10.666 9.50098 -15.999s2.5 -10 2.5 -14c0 -9.33301 -3.33301 -16.833 -10 -22.5s-14.667 -8.5 -24 -8.5
c-8.66699 0 -16.167 1.83301 -22.5 5.5s-12.166 8.83398 -17.499 15.501l-75 78l-74 -78c-6.66699 -6.66699 -13.167 -11.834 -19.5 -15.501s-14.166 -5.5 -23.499 -5.5s-17.166 2.83301 -23.499 8.5s-9.5 13.167 -9.5 22.5c0 11.333 4.33301 21.333 13 30z" />
    <glyph glyph-name="Cdotaccent" unicode="&#x10a;" horiz-adv-x="696" 
d="M571 183c6 10.667 11.8369 18.501 17.5039 23.501s12.834 7.5 21.501 7.5c9.33301 0 19.333 -2.66699 30 -8s16 -15.333 16 -30c0 -13.333 -5.16699 -29.166 -15.5 -47.499s-21.5 -34.5 -33.5 -48.5c-4.66699 -5.33301 -12.834 -13.5 -24.501 -24.5
s-27 -21.833 -46 -32.5s-41.5 -20 -67.5 -28s-56 -12 -90 -12c-49.333 0 -94.166 8.66699 -134.499 26s-74.833 41.666 -103.5 72.999s-50.834 69.333 -66.501 114s-23.5 94.667 -23.5 150s7.83301 105.5 23.5 150.5s37.834 83.333 66.501 115s63.167 56.167 103.5 73.5
s85.166 26 134.499 26c32.667 0 61.667 -3.66699 87 -11s47 -15.833 65 -25.5s32.667 -19.667 44 -30s19.666 -18.5 24.999 -24.5c12 -14 23.5 -30.167 34.5 -48.5s16.5 -34.166 16.5 -47.499c0 -14.667 -5.5 -24.667 -16.5 -30s-21.167 -8 -30.5 -8
c-8.66699 0 -15.834 2.5 -21.501 7.5s-10.834 11.833 -15.501 20.5c-7.33301 13.333 -16.333 26.833 -27 40.5s-23.334 26.167 -38.001 37.5s-32 20.666 -52 27.999s-43.333 11 -70 11c-38 0 -71.5 -7 -100.5 -21s-53.5 -33.5 -73.5 -58.5s-35 -55 -45 -90
s-15 -73.5 -15 -115.5c0 -41.333 5 -79.5 15 -114.5s25 -65 45 -90s44.5 -44.5 73.5 -58.5s62.5 -21 100.5 -21c30 0 55.667 4.16699 77 12.5s39.333 18.666 54 30.999s26.667 25.5 36 39.5s17.333 26.667 24 38zM380.004 876.001c16 0 30.499 -4.83301 43.499 -14.5
s19.5 -24.5 19.5 -44.5c0 -17.333 -5.66699 -31.333 -17 -42s-26.666 -16 -45.999 -16c-18.667 0 -33.667 5.33301 -45 16s-17 24.667 -17 42s5.83301 31.5 17.5 42.5s26.5 16.5 44.5 16.5z" />
    <glyph glyph-name="cdotaccent" unicode="&#x10b;" horiz-adv-x="525" 
d="M404 126c8 11.333 14.4971 18.999 19.4971 22.999s11.833 6 20.5 6c9.33301 0 18.5 -3.33301 27.5 -10s13.5 -15 13.5 -25c0 -9.33301 -2.33301 -18.333 -7 -27c-3.33301 -7.33301 -9.5 -17.166 -18.5 -29.499s-21.333 -24.5 -37 -36.5s-34.667 -22.333 -57 -31
s-48.833 -13 -79.5 -13c-38 0 -71.667 6.66699 -101 20s-54 31.833 -74 55.5s-35.333 52 -46 85s-16 69.167 -16 108.5s5.33301 75.333 16 108s26 60.834 46 84.501s44.667 42 74 55s63 19.5 101 19.5c28.667 0 53.834 -3.5 75.501 -10.5s40.334 -15.833 56.001 -26.5
s28.334 -22.334 38.001 -35.001s17.167 -24.334 22.5 -35.001c2.66699 -5.33301 4.66699 -10.333 6 -15s2 -9.66699 2 -15c0 -12 -4.33301 -21.5 -13 -28.5s-18 -10.5 -28 -10.5c-7.33301 0 -13.5 1.5 -18.5 4.5s-11.167 9.83301 -18.5 20.5l-15 21
c-6 8.66699 -13.667 17 -23 25s-20.833 14.833 -34.5 20.5s-30.167 8.5 -49.5 8.5c-50 0 -87 -17 -111 -51s-36 -80.333 -36 -139c0 -60 12 -107.333 36 -142s61 -52 111 -52c18 0 33.333 2.16699 46 6.5s23.5 9.83301 32.5 16.5s16.5 13.834 22.5 21.501zM286.997 711.999
c16 0 30.499 -4.83301 43.499 -14.5s19.5 -24.5 19.5 -44.5c0 -17.333 -5.66699 -31.333 -17 -42s-26.666 -16 -45.999 -16c-18.667 0 -33.667 5.33301 -45 16s-17 24.667 -17 42s5.83301 31.5 17.5 42.5s26.5 16.5 44.5 16.5z" />
    </font>
</defs>
</svg>
