<?xml version="1.0" standalone="no"?>
<!DOCTYPE svg PUBLIC "-//W3C//DTD SVG 1.1//EN" "http://www.w3.org/Graphics/SVG/1.1/DTD/svg11.dtd" >
<svg>
<metadata>
Created by FontForge 20090914 at Mon Apr 10 11:50:19 2017
 By www-data
Copyright 2007-2009 Dalton Maag Ltd. All rights reserved. This font may not be altered in any way without prior permission of Dalton Maag Ltd.
</metadata>
<defs>
<font id="TondoCorp-Bold" horiz-adv-x="466" >
  <font-face 
    font-family="Tondo Corp"
    font-weight="700"
    font-stretch="normal"
    units-per-em="1000"
    panose-1="2 15 8 3 2 2 2 2 2 4"
    ascent="800"
    descent="-200"
    x-height="514"
    cap-height="694.001"
    bbox="-104.003 -281.002 1413 965"
    underline-thickness="50"
    underline-position="-50"
    unicode-range="U+0008-U+FB04"
  />
<missing-glyph horiz-adv-x="500" 
d="M50 0v750h400v-750h-400zM400 50v650h-300v-650h300z" />
    <glyph glyph-name="f_f" unicode="ff" horiz-adv-x="667" 
d="M250 711c36 0 64.666 -4.16602 85.999 -12.499s32 -24.166 32 -47.499c0 -6.66699 -0.333008 -12.834 -1 -18.501s-2.66699 -11.167 -6 -16.5c-8 -13.333 -20.667 -20 -38 -20c-7.33301 0 -13 0.5 -17 1.5s-7.66699 2 -11 3s-7.16602 2 -11.499 3s-10.5 1.5 -18.5 1.5
c-13.333 0 -23.5 -3.66699 -30.5 -11s-10.5 -20.333 -10.5 -39v-41h192v40c0 22 3.33301 42.667 10 62s16.667 36 30 50s30.333 25 51 33s44.667 12 72 12c18 0 35.167 -1 51.5 -3s31 -5.66699 44 -11s23.333 -12.333 31 -21s11.5 -19.667 11.5 -33
c0 -6.66699 -0.333008 -12.834 -1 -18.501s-2.66699 -11.167 -6 -16.5c-8 -13.333 -20.667 -20 -38 -20c-7.33301 0 -14 0.833008 -20 2.5s-11.833 3.66699 -17.5 6s-11.667 4.33301 -18 6s-13.833 2.5 -22.5 2.5c-13.333 0 -23.5 -3.66699 -30.5 -11
s-10.5 -20.333 -10.5 -39v-41h73c14 0 23.667 -5.66699 29 -17s8 -22.666 8 -33.999c0 -12 -3 -24.167 -9 -36.5s-15.333 -18.5 -28 -18.5h-73v-365c0 -20 -5.83301 -34.333 -17.5 -43s-28.167 -13 -49.5 -13c-24.667 0 -42.5 4.66699 -53.5 14s-16.5 23 -16.5 41v366h-192
v-365c0 -20 -5.83301 -34.333 -17.5 -43s-28.167 -13 -49.5 -13c-24.667 0 -42.5 4.66699 -53.5 14s-16.5 23 -16.5 41v366h-44c-11.333 1.33301 -19.833 8 -25.5 20s-8.5 23.667 -8.5 35s2.83301 22.666 8.5 33.999s14.5 17 26.5 17h43v40c0 22 3.33301 42.667 10 62
s16.667 36 30 50s30.333 25 51 33s44.667 12 72 12z" />
    <glyph glyph-name="f_i" unicode="fi" horiz-adv-x="619" 
d="M481 -7c-47.333 0 -71.0029 17.9971 -71.0029 53.9971v361h-186v-360c0 -20 -5.83301 -34.333 -17.5 -43s-28.167 -13 -49.5 -13c-24.667 0 -42.5 4.66699 -53.5 14s-16.5 23 -16.5 41v361h-44c-11.333 1.33301 -19.833 8 -25.5 20s-8.5 23.667 -8.5 35
s2.83301 22.666 8.5 33.999s14.5 17 26.5 17h43v17c0 24 4.16699 46.833 12.5 68.5s21.333 40.834 39 57.501s40.334 29.834 68.001 39.501s60.834 14.5 99.501 14.5c10.667 0 26 -0.833008 46 -2.5s40 -5 60 -10s37.333 -12.333 52 -22s22 -22.5 22 -38.5
c0 -15.333 -4.16699 -28.5 -12.5 -39.5s-20.166 -16.5 -35.499 -16.5c-8 0 -16.167 1.16699 -24.5 3.5s-17.166 5 -26.499 8s-19.5 5.66699 -30.5 8s-23.5 3.5 -37.5 3.5c-20 0 -36.333 -2.5 -49 -7.5s-22.334 -11.333 -29.001 -19s-11.167 -16.167 -13.5 -25.5
s-3.5 -18.666 -3.5 -27.999v-11h260c18.667 0 34.167 -4.66699 46.5 -14s18.5 -26.666 18.5 -51.999v-399c0 -20 -6 -34.333 -18 -43s-28.667 -13 -50 -13z" />
    <glyph glyph-name="f_l" unicode="fl" horiz-adv-x="620" 
d="M250 711c36 0 64.666 -4.16699 85.999 -12.5s32 -24.166 32 -47.499c0 -6.66699 -0.333008 -12.834 -1 -18.501s-2.66699 -11.167 -6 -16.5c-8 -13.333 -20.667 -20 -38 -20c-7.33301 0 -13 0.5 -17 1.5s-7.66699 2 -11 3s-7.16602 2 -11.499 3s-10.5 1.5 -18.5 1.5
c-13.333 0 -23.5 -4 -30.5 -12s-10.5 -21.333 -10.5 -40v-39h187v129c0 38.667 24 58 72 58c17.333 0 32.833 -4.16699 46.5 -12.5s20.5 -22.166 20.5 -41.499v-598c0 -20 -6 -34.333 -18 -43s-28.667 -13 -50 -13c-47.333 0 -71 18 -71 54v361h-187v-359
c0 -20 -5.83301 -34.333 -17.5 -43s-28.167 -13 -49.5 -13c-24.667 0 -42.5 4.66699 -53.5 14s-16.5 23 -16.5 41v360h-44c-11.333 1.33301 -19.833 8 -25.5 20s-8.5 23.667 -8.5 35s2.83301 22.666 8.5 33.999s14.5 17 26.5 17h43v41c0 22 3.33301 42.5 10 61.5
s16.667 35.5 30 49.5s30.333 25 51 33s44.667 12 72 12z" />
    <glyph glyph-name="f_f_i" unicode="ffi" horiz-adv-x="948" 
d="M810 -7c-47.333 0 -71.0039 17.9971 -71.0039 53.9971v361h-186v-360c0 -20 -5.83301 -34.333 -17.5 -43s-28.167 -13 -49.5 -13c-24.667 0 -42.5 4.66699 -53.5 14s-16.5 23 -16.5 41v361h-192v-360c0 -20 -5.83301 -34.333 -17.5 -43s-28.167 -13 -49.5 -13
c-24.667 0 -42.5 4.66699 -53.5 14s-16.5 23 -16.5 41v361h-44c-11.333 1.33301 -19.833 8 -25.5 20s-8.5 23.667 -8.5 35s2.83301 22.666 8.5 33.999s14.5 17 26.5 17h43v40c0 22 3.33301 42.667 10 62s16.667 36 30 50s30.333 25 51 33s44.667 12 72 12
c36 0 64.667 -4.16699 86 -12.5s32 -24.166 32 -47.499c0 -6.66699 -0.333008 -12.834 -1 -18.501s-2.66699 -11.167 -6 -16.5c-8 -13.333 -20.667 -20 -38 -20c-7.33301 0 -13 0.5 -17 1.5s-7.66699 2 -11 3s-7.16602 2 -11.499 3s-10.5 1.5 -18.5 1.5
c-27.333 0 -41 -17.667 -41 -53v-38h192v17c0 24 4.16699 46.833 12.5 68.5s21.333 40.834 39 57.501s40.334 29.834 68.001 39.501s60.834 14.5 99.501 14.5c10.667 0 26 -0.833008 46 -2.5s40 -5 60 -10s37.333 -12.333 52 -22s22 -22.5 22 -38.5
c0 -15.333 -4.16699 -28.5 -12.5 -39.5s-20.166 -16.5 -35.499 -16.5c-8 0 -16.167 1.16699 -24.5 3.5s-17.166 5 -26.499 8s-19.5 5.66699 -30.5 8s-23.5 3.5 -37.5 3.5c-20 0 -36.333 -2.5 -49 -7.5s-22.334 -11.333 -29.001 -19s-11.167 -16.167 -13.5 -25.5
s-3.5 -18.666 -3.5 -27.999v-11h260c18.667 0 34.167 -4.66699 46.5 -14s18.5 -26.666 18.5 -51.999v-399c0 -20 -6 -34.333 -18 -43s-28.667 -13 -50 -13z" />
    <glyph glyph-name="f_f_l" unicode="ffl" horiz-adv-x="949" 
d="M579 711c36 0 64.665 -4.16699 85.998 -12.5s32 -24.166 32 -47.499c0 -6.66699 -0.333008 -12.834 -1 -18.501s-2.66699 -11.167 -6 -16.5c-8 -13.333 -20.667 -20 -38 -20c-7.33301 0 -13 0.5 -17 1.5s-7.66699 2 -11 3s-7.16602 2 -11.499 3s-10.5 1.5 -18.5 1.5
c-13.333 0 -23.5 -4 -30.5 -12s-10.5 -21.333 -10.5 -40v-39h187v129c0 38.667 24 58 72 58c17.333 0 32.833 -4.16699 46.5 -12.5s20.5 -22.166 20.5 -41.499v-598c0 -20 -6 -34.333 -18 -43s-28.667 -13 -50 -13c-47.333 0 -71 18 -71 54v361h-187v-359
c0 -20 -5.83301 -34.333 -17.5 -43s-28.167 -13 -49.5 -13c-24.667 0 -42.5 4.66699 -53.5 14s-16.5 23 -16.5 41v360h-192v-365c0 -20 -5.83301 -34.333 -17.5 -43s-28.167 -13 -49.5 -13c-24.667 0 -42.5 4.66699 -53.5 14s-16.5 23 -16.5 41v366h-44
c-11.333 1.33301 -19.833 8 -25.5 20s-8.5 23.667 -8.5 35s2.83301 22.666 8.5 33.999s14.5 17 26.5 17h43v39c0 22 3.33301 42.667 10 62s16.667 36 30 50s30.333 25 51 33s44.667 12 72 12c36 0 64.667 -4.16699 86 -12.5s32 -24.166 32 -47.499
c0 -6.66699 -0.333008 -12.834 -1 -18.501s-2.66699 -11.167 -6 -16.5c-8 -13.333 -20.667 -20 -38 -20c-7.33301 0 -13 0.5 -17 1.5s-7.66699 2 -11 3s-7.16602 2 -11.499 3s-10.5 1.5 -18.5 1.5c-27.333 0 -41 -17.667 -41 -53v-37h192v41c0 22 3.33301 42.5 10 61.5
s16.667 35.5 30 49.5s30.333 25 51 33s44.667 12 72 12z" />
    <glyph glyph-name=".notdef" horiz-adv-x="500" 
d="M50 0v750h400v-750h-400zM400 50v650h-300v-650h300z" />
    <glyph glyph-name=".null" horiz-adv-x="0" 
 />
    <glyph glyph-name=".null" horiz-adv-x="0" 
 />
    <glyph glyph-name=".null" horiz-adv-x="0" 
 />
    <glyph glyph-name="nonmarkingreturn" unicode="&#x9;" horiz-adv-x="245" 
 />
    <glyph glyph-name="nonmarkingreturn" unicode="&#xd;" horiz-adv-x="245" 
 />
    <glyph glyph-name="space" unicode=" " horiz-adv-x="245" 
 />
    <glyph glyph-name="exclam" unicode="!" horiz-adv-x="296" 
d="M68 63c0 22 7.83301 40.833 23.5 56.5s34.5 23.5 56.5 23.5s40.833 -7.83301 56.5 -23.5s23.5 -34.5 23.5 -56.5s-7.83301 -40.833 -23.5 -56.5s-34.5 -23.5 -56.5 -23.5s-40.833 7.83301 -56.5 23.5s-23.5 34.5 -23.5 56.5zM212 255
c-0.666992 -17.333 -6.33203 -30.167 -16.999 -38.5s-25.667 -12.5 -45 -12.5c-40.667 0 -62 17.333 -64 52l-15 268v122c0 18 7.5 31.667 22.5 41s34.167 14 57.5 14c21.333 0 39.166 -4.66699 53.499 -14s21.5 -23.333 21.5 -42v-121z" />
    <glyph glyph-name="quotedbl" unicode="&#x22;" horiz-adv-x="495" 
d="M428 460c-0.666992 -17.333 -6.33203 -30.167 -16.999 -38.5s-25.667 -12.5 -45 -12.5c-40.667 0 -62 17.333 -64 52l-15 106v79c0 18 7.5 31.667 22.5 41s34.167 14 57.5 14c21.333 0 39.166 -4.66699 53.499 -14s21.5 -23.333 21.5 -42v-78zM194.002 459.999
c-0.666992 -17.333 -6.33203 -30.167 -16.999 -38.5s-25.667 -12.5 -45 -12.5c-40.667 0 -62 17.333 -64 52l-15 106v79c0 18 7.5 31.667 22.5 41s34.167 14 57.5 14c21.333 0 39.166 -4.66699 53.499 -14s21.5 -23.333 21.5 -42v-78z" />
    <glyph glyph-name="numbersign" unicode="#" horiz-adv-x="687" 
d="M614 519c18.667 0 31.5 -4.66113 38.5 -13.9941s10.5 -23.333 10.5 -42c0 -20.667 -4.16699 -35.334 -12.5 -44.001s-21.166 -13 -38.499 -13h-75l-17 -122h79c18.667 0 31.5 -4.66699 38.5 -14s10.5 -23.333 10.5 -42c0 -20.667 -4.16699 -35.334 -12.5 -44.001
s-21.166 -13 -38.499 -13h-93l-19 -130c-4 -32 -25.667 -48 -65 -48c-18.667 0 -34.167 3.5 -46.5 10.5s-17.166 19.833 -14.499 38.5l19 129h-108l-19 -133c-4 -30 -25.667 -45 -65 -45c-18.667 0 -34.167 3.5 -46.5 10.5s-17.166 19.833 -14.499 38.5l19 129h-62
c-30 0 -45 19 -45 57c0 17.333 3.16699 30.666 9.5 39.999s18.166 14.666 35.499 15.999h78l17 122h-80c-30 0 -45 19 -45 57c0 17.333 3.16699 30.666 9.5 39.999s18.166 14.666 35.499 15.999h96l18 127c4 32 25.667 48 65 48c18.667 0 34.167 -3.5 46.5 -10.5
s17.166 -19.833 14.499 -38.5l-18 -126h108l18 128c4 31.333 25.667 47 65 47c18.667 0 34.167 -3.5 46.5 -10.5s17.166 -19.833 14.499 -38.5l-18 -126h61zM303 406.006l-17 -122h108l17 122h-108z" />
    <glyph glyph-name="dollar" unicode="$" horiz-adv-x="610" 
d="M260 748c0 14.667 4.16211 24.8262 12.4951 30.4932s18.166 8.5 29.499 8.5c10 0 19.5 -2.66699 28.5 -8s13.5 -16.666 13.5 -33.999v-60c24.667 -2.66699 49.5 -7.83398 74.5 -15.501s47.5 -17 67.5 -28s36.167 -23.5 48.5 -37.5s18.5 -28.667 18.5 -44
c0 -17.333 -5.16699 -31.166 -15.5 -41.499s-24.166 -15.5 -41.499 -15.5c-10 0 -18.667 1.83301 -26 5.5s-15.666 8.16699 -24.999 13.5c-21.333 12.667 -38.666 22.334 -51.999 29.001s-29.666 12 -48.999 16v-163c23.333 -7.33301 47.666 -15.666 72.999 -24.999
s48.333 -21.666 69 -36.999s37.667 -34.333 51 -57s20 -51 20 -85c0 -32 -5.5 -60 -16.5 -84s-26 -44.5 -45 -61.5s-41.5 -30.5 -67.5 -40.5s-54 -16.333 -84 -19v-64c0 -17.333 -4.5 -28.666 -13.5 -33.999s-18.5 -8 -28.5 -8c-11.333 0 -21.166 2.83301 -29.499 8.5
s-12.5 15.834 -12.5 30.501v66c-43.333 3.33301 -80.666 11 -111.999 23s-56.666 25.667 -75.999 41c-14 10.667 -23.167 21.334 -27.5 32.001s-6.5 20.667 -6.5 30c0 8 2 15.833 6 23.5s9 14.667 15 21s12.667 11.5 20 15.5s14 6 20 6c13.333 0 24.333 -2.83301 33 -8.5
l30 -19.5c16 -11.333 30.667 -20.333 44 -27s31.333 -12 54 -16v166l-13 4c-26 6.66699 -50.833 14.834 -74.5 24.501s-44.667 22.167 -63 37.5s-32.833 34.666 -43.5 57.999s-16 52.333 -16 87c0 26 5 50.167 15 72.5s24.167 42 42.5 59s40.333 30.833 66 41.5
s54.5 17 86.5 19v64zM424.995 182.992c0 22 -7.16699 39.167 -21.5 51.5s-34.166 22.833 -59.499 31.5v-154c25.333 2 45.166 8.66699 59.499 20s21.5 28.333 21.5 51zM187.995 500.992c0 -24 7 -41.833 21 -53.5s31 -20.5 51 -26.5v145c-24 -2 -42 -9 -54 -21
s-18 -26.667 -18 -44z" />
    <glyph glyph-name="percent" unicode="%" horiz-adv-x="1013" 
d="M985 216c0 -70.667 -16 -127.167 -48 -169.5s-78.667 -63.5 -140 -63.5c-30.667 0 -57.667 5.5 -81 16.5s-43 26.667 -59 47s-28 44.833 -36 73.5s-12 60.667 -12 96c0 34.667 4 66.334 12 95.001s20 53.167 36 73.5s35.667 36 59 47s50.333 16.5 81 16.5
s57.667 -5.5 81 -16.5s43 -26.667 59 -47s28 -44.833 36 -73.5s12 -60.334 12 -95.001zM866 216c0 48 -6.66895 81.5 -20.002 100.5s-29.666 28.5 -48.999 28.5s-35.666 -9.5 -48.999 -28.5s-20 -52.5 -20 -100.5c0 -48.667 6.33301 -82.5 19 -101.5
s29.334 -28.5 50.001 -28.5c19.333 0 35.666 9.5 48.999 28.5s20 52.833 20 101.5zM403.998 463c0 -70.667 -16 -127.167 -48 -169.5s-78.667 -63.5 -140 -63.5c-30.667 0 -57.667 5.5 -81 16.5s-43 26.667 -59 47s-28 44.833 -36 73.5s-12 60.667 -12 96
c0 34.667 4 66.334 12 95.001s20 53.167 36 73.5s35.667 36 59 47s50.333 16.5 81 16.5s57.667 -5.5 81 -16.5s43 -26.667 59 -47s28 -44.833 36 -73.5s12 -60.334 12 -95.001zM401.998 11c-4.66699 -8.66699 -10.667 -15.5 -18 -20.5s-17 -7.5 -29 -7.5
c-7.33301 0 -15 1.16699 -23 3.5s-15.333 5.66602 -22 9.99902s-12.167 9.66602 -16.5 15.999s-6.5 13.5 -6.5 21.5c0 7.33301 2 15 6 23l320 614c4.66699 8.66699 10.667 15.834 18 21.501s17 8.5 29 8.5c7.33301 0 15 -1.16699 23 -3.5s15.333 -5.66602 22 -9.99902
s12.167 -9.5 16.5 -15.5s6.5 -12.667 6.5 -20c0 -5.33301 -0.833008 -10.5 -2.5 -15.5s-3.5 -9.16699 -5.5 -12.5zM284.998 463c0 48 -6.66895 81.5 -20.002 100.5s-29.666 28.5 -48.999 28.5s-35.666 -9.5 -48.999 -28.5s-20 -52.5 -20 -100.5
c0 -48.667 6.33301 -82.5 19 -101.5s29.334 -28.5 50.001 -28.5c19.333 0 35.666 9.5 48.999 28.5s20 52.833 20 101.5z" />
    <glyph glyph-name="ampersand" unicode="&#x26;" horiz-adv-x="717" 
d="M684 94c9.33301 -7.33301 15.502 -14.499 18.502 -21.499s4.5 -14.5 4.5 -22.5c0 -7.33301 -2 -15 -6 -23s-9.16699 -15.167 -15.5 -21.5s-13.833 -11.5 -22.5 -15.5s-18 -6 -28 -6c-13.333 0 -24.833 2.83301 -34.5 8.5s-19.834 12.834 -30.501 21.501
c-7.33301 5.33301 -15.833 12.666 -25.5 21.999l-31.5 30c-32.667 -30 -67.667 -51.333 -105 -64s-76.333 -19 -117 -19c-45.333 0 -83.833 5.33301 -115.5 16s-57.5 25.167 -77.5 43.5s-34.667 39.666 -44 63.999s-14 49.833 -14 76.5c0 28 3.83301 52.5 11.5 73.5
s18 39.5 31 55.5s28 30.167 45 42.5s35.167 23.833 54.5 34.5c-14.667 22 -26.167 44.5 -34.5 67.5s-12.5 46.5 -12.5 70.5c0 26.667 5.33301 50.834 16 72.501s25 40 43 55s39 26.5 63 34.5s49.333 12 76 12c30.667 0 57.5 -4.33301 80.5 -13s42 -20 57 -34
s26.167 -30.167 33.5 -48.5s11 -37.5 11 -57.5c0 -23.333 -3.83301 -44 -11.5 -62s-18 -34 -31 -48s-28 -26.5 -45 -37.5s-34.833 -21.5 -53.5 -31.5c20 -20.667 40.667 -40.334 62 -59.001l64 -57c6.66699 16 12.5 32.333 17.5 49s8.83301 30.334 11.5 41.001
c3.33301 15.333 9.5 25.666 18.5 30.999s18.833 8 29.5 8c17.333 0 33.166 -4 47.499 -12s21.5 -20.667 21.5 -38c0 -13.333 -1.5 -27 -4.5 -41s-6.83301 -27.833 -11.5 -41.5s-10.167 -27 -16.5 -40s-12.5 -24.5 -18.5 -34.5zM420.002 143.001l-90.001 82.001
c-28 26 -54.667 52.667 -80 80c-18 -13.333 -33.167 -28.333 -45.5 -45s-18.5 -38.334 -18.5 -65.001c0 -30 9.83301 -53 29.5 -69s47.834 -24 84.501 -24c19.333 0 38.833 2.83301 58.5 8.5s40.167 16.5 61.5 32.5zM399.001 545.002c0 18 -5.33398 33.1699 -16.001 45.5029
s-27 18.5 -49 18.5c-19.333 0 -35.666 -6.33301 -48.999 -19s-20 -30.334 -20 -53.001c0 -13.333 3.16699 -27.333 9.5 -42s15.833 -30.667 28.5 -48c28 13.333 51 27.166 69 41.499s27 33.166 27 56.499z" />
    <glyph glyph-name="quotesingle" unicode="'" horiz-adv-x="261" 
d="M194 460c-0.666992 -17.333 -6.33203 -30.167 -16.999 -38.5s-25.667 -12.5 -45 -12.5c-40.667 0 -62 17.333 -64 52l-15 106v79c0 18 7.5 31.667 22.5 41s34.167 14 57.5 14c21.333 0 39.166 -4.66699 53.499 -14s21.5 -23.333 21.5 -42v-78z" />
    <glyph glyph-name="parenleft" unicode="(" horiz-adv-x="411" 
d="M396 -82c0 -14.667 -4.66797 -27.667 -14.001 -39c-5.33301 -7.33301 -12 -13.333 -20 -18s-16.333 -7 -25 -7c-6 0 -12.5 1 -19.5 3s-16.833 7 -29.5 15c-76 50 -133.333 112.5 -172 187.5s-58 159.5 -58 253.5s19.167 178.333 57.5 253s96.166 136.667 173.499 186
c12.667 8 22.5 13 29.5 15s13.167 3 18.5 3c22.667 0 39.334 -9.33301 50.001 -28c7.33301 -11.333 11 -23.333 11 -36c0 -8 -2 -16 -6 -24s-12.667 -16.667 -26 -26c-31.333 -22 -57.5 -46.833 -78.5 -74.5s-37.833 -56.5 -50.5 -86.5s-21.5 -60.667 -26.5 -92
s-7.5 -62 -7.5 -92s2.66699 -60.167 8 -90.5s14.333 -60.333 27 -90s29.834 -58.5 51.501 -86.5s48.5 -54.667 80.5 -80c9.33301 -7.33301 16 -14.833 20 -22.5s6 -15.5 6 -23.5z" />
    <glyph glyph-name="parenright" unicode=")" horiz-adv-x="411" 
d="M15 707c0 14.667 4.66797 27.667 14.001 39c5.33301 7.33301 12 13.333 20 18s16.333 7 25 7c6 0 12.5 -1 19.5 -3s16.833 -7 29.5 -15c76 -50 133.333 -112.5 172 -187.5s58 -159.5 58 -253.5s-19.167 -178.333 -57.5 -253s-96.166 -136.667 -173.499 -186
c-12.667 -8 -22.5 -13 -29.5 -15s-13.167 -3 -18.5 -3c-22.667 0 -39.334 9.33301 -50.001 28c-7.33301 11.333 -11 23.333 -11 36c0 8 2 16 6 24s12.667 16.667 26 26c31.333 22 57.5 46.833 78.5 74.5s37.833 56.5 50.5 86.5s21.5 60.667 26.5 92s7.5 62 7.5 92
s-2.66699 60.167 -8 90.5s-14.333 60.333 -27 90s-29.834 58.5 -51.501 86.5s-48.5 54.667 -80.5 80c-9.33301 7.33301 -16 14.833 -20 22.5s-6 15.5 -6 23.5z" />
    <glyph glyph-name="asterisk" unicode="*" horiz-adv-x="376" 
d="M256 512l53.001 -64.001c5.33301 -7.33301 8 -14.333 8 -21c0 -12.667 -6.16699 -23.667 -18.5 -33s-25.166 -14 -38.499 -14c-14.667 0 -25.667 6 -33 18l-39 64l-41 -64c-8 -12 -18.667 -18 -32 -18s-26.166 4.66699 -38.499 14s-18.5 20 -18.5 32
c0 7.33301 3.33301 15 10 23l52 63l-81 23c-9.33301 2.66699 -15.5 6.5 -18.5 11.5s-4.5 12.167 -4.5 21.5c0 6.66699 1 13.5 3 20.5s4.66699 13.5 8 19.5s7.33301 10.833 12 14.5s9.66699 5.5 15 5.5s10.666 -1.16699 15.999 -3.5s9.66602 -4.16602 12.999 -5.49902l60 -25
l-4 82c-0.666992 11.333 3.83301 20 13.5 26s21.834 9 36.501 9c13.333 0 24.5 -2.66699 33.5 -8s13.5 -13.666 13.5 -24.999l-3 -84l59 25c3.33301 1.33301 7.66602 3.16602 12.999 5.49902s10.666 3.5 15.999 3.5s10.333 -1.83301 15 -5.5s8.66699 -8.5 12 -14.5
s6 -12.5 8 -19.5s3 -13.833 3 -20.5c0 -9.33301 -1.5 -16.5 -4.5 -21.5s-9.16699 -8.83301 -18.5 -11.5z" />
    <glyph glyph-name="plus" unicode="+" horiz-adv-x="610" 
d="M127 283c-32 0.666992 -47.999 21.001 -47.999 61.001c0 18.667 3.5 33.667 10.5 45s19.833 17 38.5 17h108v127c0 16 6.5 28 19.5 36s29.5 12 49.5 12c18.667 0 34.667 -3.5 48 -10.5s20 -19.833 20 -38.5v-126h108c18.667 0 31.5 -5.66699 38.5 -17
s10.5 -26.333 10.5 -45c0 -40.667 -17 -61 -51 -61h-106v-124c0 -18.667 -6.66699 -31.5 -20 -38.5s-29.333 -10.5 -48 -10.5c-20.667 0 -37.334 4.16699 -50.001 12.5s-19 21.166 -19 38.499v122h-109z" />
    <glyph glyph-name="comma" unicode="," horiz-adv-x="254" 
d="M43 67c0 26.667 7.66895 47.335 23.002 62.002s35.666 22 60.999 22c27.333 0 49 -9.33301 65 -28s24 -44.667 24 -78c0 -38.667 -7.16699 -75.5 -21.5 -110.5s-36.833 -65.167 -67.5 -90.5c-10 -8 -20.333 -12 -31 -12c-12.667 0 -24.334 4.33301 -35.001 13
c-10 8 -15 18 -15 30c0 10.667 6 21.667 18 33c11.333 11.333 22 23.166 32 35.499s15.667 29.166 17 50.499c-20 1.33301 -36.667 9 -50 23s-20 30.667 -20 50z" />
    <glyph glyph-name="hyphen" unicode="-" horiz-adv-x="336" 
d="M66 188c-16 0.666992 -28.001 6.83398 -36.001 18.501s-12 27.5 -12 47.5c0 18.667 3.5 34.5 10.5 47.5s19.833 19.5 38.5 19.5h202c18.667 0 31.5 -6.5 38.5 -19.5s10.5 -28.833 10.5 -47.5c0 -20.667 -4.16699 -36.834 -12.5 -48.501s-21.166 -17.5 -38.499 -17.5h-201
z" />
    <glyph glyph-name="period" unicode="." horiz-adv-x="249" 
d="M40 67c0 11.333 2.16699 22.166 6.5 32.499s10.333 19.333 18 27s16.667 13.667 27 18s21.5 6.5 33.5 6.5c23.333 0 43.166 -8.16699 59.499 -24.5s24.5 -36.166 24.5 -59.499c0 -12 -2.16699 -23.167 -6.5 -33.5s-10.333 -19.333 -18 -27s-16.667 -13.667 -27 -18
s-21.166 -6.5 -32.499 -6.5c-23.333 0 -43.333 8.33301 -60 25s-25 36.667 -25 60z" />
    <glyph glyph-name="slash" unicode="/" horiz-adv-x="488" 
d="M123 11c-4.66699 -8.66699 -10.667 -15.5 -18 -20.5s-17 -7.5 -29 -7.5c-7.33301 0 -15 1.16699 -23 3.5s-15.333 5.66602 -22 9.99902s-12.167 9.66602 -16.5 15.999s-6.5 13.5 -6.5 21.5c0 7.33301 2 15 6 23l351 624c4.66699 8.66699 10.667 15.834 18 21.501
s17 8.5 29 8.5c7.33301 0 15 -1.16699 23 -3.5s15.333 -5.66602 22 -9.99902s12.167 -9.5 16.5 -15.5s6.5 -12.667 6.5 -20c0 -5.33301 -0.833008 -10.5 -2.5 -15.5s-3.5 -9.16699 -5.5 -12.5z" />
    <glyph glyph-name="zero" unicode="0" horiz-adv-x="610" 
d="M573 340c0 -53.333 -5.66699 -101.666 -17 -144.999s-28.166 -80.333 -50.499 -111s-50.166 -54.334 -83.499 -71.001s-72.333 -25 -117 -25s-83.667 8.33301 -117 25s-61.166 40.334 -83.499 71.001s-39.166 67.667 -50.499 111s-17 91.666 -17 144.999
s5.66699 101.833 17 145.5s28.166 81 50.499 112s50.166 54.833 83.499 71.5s72.333 25 117 25s83.667 -8.33301 117 -25s61.166 -40.5 83.499 -71.5s39.166 -68.333 50.499 -112s17 -92.167 17 -145.5zM433 340c0 41.333 -3.33301 77 -10 107s-15.667 54.5 -27 73.5
s-24.833 33 -40.5 42s-32.5 13.5 -50.5 13.5s-34.667 -4.5 -50 -13.5s-28.833 -23 -40.5 -42s-20.834 -43.5 -27.501 -73.5s-10 -65.667 -10 -107c0 -42 3.33301 -77.667 10 -107s15.834 -53.5 27.501 -72.5s25.167 -32.833 40.5 -41.5s32 -13 50 -13
s34.833 4.33301 50.5 13s29.167 22.5 40.5 41.5s20.333 43.167 27 72.5s10 65 10 107z" />
    <glyph glyph-name="one" unicode="1" horiz-adv-x="610" 
d="M165 0c-20 0 -33.999 5.66602 -41.999 16.999s-12 25.666 -12 42.999c0 36.667 15.333 55 46 55h109v392c-11.333 -8 -21.5 -14.667 -30.5 -20s-20.167 -10.666 -33.5 -15.999c-18 -7.33301 -33.333 -11 -46 -11c-19.333 0 -33.833 6.16699 -43.5 18.5
s-14.5 28.166 -14.5 47.499c0 14.667 3.83301 26.834 11.5 36.501s19.5 18.5 35.5 26.5l35 18l28.5 15.5c9 5 17.833 10.167 26.5 15.5l29 18c13.333 8.66699 25.666 15.667 36.999 21s26 8 44 8c16 0 29.667 -4.33301 41 -13s17 -23 17 -43v-514h105
c30.667 0 46 -18.333 46 -55c0 -17.333 -4 -31.666 -12 -42.999s-22 -17 -42 -17h-335z" />
    <glyph glyph-name="two" unicode="2" horiz-adv-x="610" 
d="M293 579c-25.333 0 -45.666 -5.00098 -60.999 -15.001s-30 -23.333 -44 -40l-30.5 -33.5c-9.66699 -10.333 -22.167 -15.5 -37.5 -15.5c-16 0 -30.167 4.83301 -42.5 14.5s-18.5 24.167 -18.5 43.5c0 11.333 2.33301 21.833 7 31.5s10.667 19.167 18 28.5
c8.66699 11.333 19.334 23 32.001 35s27.834 22.833 45.501 32.5s38 17.667 61 24s49.167 9.5 78.5 9.5c32 0 61.667 -4.16699 89 -12.5s50.833 -20.833 70.5 -37.5s35 -37.667 46 -63s16.5 -55 16.5 -89c0 -26.667 -3.33301 -51.167 -10 -73.5s-15.5 -43 -26.5 -62
s-23.667 -37.167 -38 -54.5s-29.5 -34.333 -45.5 -51l-69 -70.5c-22.667 -22.333 -46.334 -44.166 -71.001 -65.499h230c30.667 0 46 -18.333 46 -55c0 -17.333 -4 -31.666 -12 -42.999s-22 -17 -42 -17h-366c-18.667 0 -32 5.33301 -40 16s-12 22.667 -12 36
c0 21.333 14 45 42 71l91 86.5c27.333 26.333 53.666 53.5 78.999 81.5l49.5 56c13.667 16 25 31 34 45s15.667 28.167 20 42.5s6.5 30.166 6.5 47.499c0 30.667 -8.33301 54.5 -25 71.5s-40.334 25.5 -71.001 25.5z" />
    <glyph glyph-name="three" unicode="3" horiz-adv-x="610" 
d="M87 607c20 24 46.9951 44.5039 80.9951 61.5039s77.333 25.5 130 25.5c68 0 120.833 -16.333 158.5 -49s56.5 -76.334 56.5 -131.001c0 -18 -2.5 -35 -7.5 -51s-11.5 -30.833 -19.5 -44.5s-17.167 -25.667 -27.5 -36s-21.166 -18.5 -32.499 -24.5
c30 -14 55.333 -34 76 -60s31 -60.667 31 -104c0 -34.667 -6.5 -64.834 -19.5 -90.501s-30.5 -47 -52.5 -64s-47.667 -29.833 -77 -38.5s-60.666 -13 -93.999 -13c-30 0 -56.333 2.66699 -79 8s-42.5 12.166 -59.5 20.499s-31.667 17.666 -44 27.999
s-23.166 20.833 -32.499 31.5c-7.33301 8 -14.166 17.833 -20.499 29.5s-9.5 23.167 -9.5 34.5c0 8.66699 2.33301 17 7 25s10.334 15 17.001 21s14 10.667 22 14s15.333 5 22 5c15.333 0 27 -4.5 35 -13.5l33 -37.5c10.667 -12 25.167 -24.333 43.5 -37
s40.833 -19 67.5 -19c14 0 27.333 1.83301 40 5.5s24 9.5 34 17.5s17.833 18.333 23.5 31s8.5 28 8.5 46c0 28.667 -9 51 -27 67s-44 24 -78 24h-47c-18 0 -30.667 6.16699 -38 18.5s-11 25.833 -11 40.5s3.66699 28 11 40s20 18 38 18h30c17.333 0 32.5 2.66699 45.5 8
s23.667 12.333 32 21s14.5 18.5 18.5 29.5s6 22.5 6 34.5c0 23.333 -6.83301 42.833 -20.5 58.5s-37.167 23.5 -70.5 23.5c-23.333 0 -42.833 -4.83301 -58.5 -14.5s-28.167 -20.167 -37.5 -31.5c-6.66699 -7.33301 -12.334 -14 -17.001 -20s-9.33398 -11.167 -14.001 -15.5
s-9.66699 -7.66602 -15 -9.99902s-11.666 -3.5 -18.999 -3.5c-8 0 -16 1.33301 -24 4s-15.333 6.5 -22 11.5s-12.167 11.167 -16.5 18.5s-6.5 15.666 -6.5 24.999c0 11.333 2.83301 22 8.5 32s12.834 20 21.501 30z" />
    <glyph glyph-name="four" unicode="4" horiz-adv-x="610" 
d="M342 141h-253c-21.333 0 -36.666 5.16699 -45.999 15.5s-14 24.166 -14 41.499c0 10 2.16699 20.167 6.5 30.5s9.5 19.833 15.5 28.5l267 380c11.333 16 23 27.833 35 35.5s29.667 11.5 53 11.5c19.333 0 35.5 -4.33301 48.5 -13s19.5 -23 19.5 -43v-374h58
c12 0 21.167 -5.16699 27.5 -15.5s9.5 -24.5 9.5 -42.5c0 -15.333 -3.16699 -28.333 -9.5 -39s-16.5 -16 -30.5 -16h-55v-89c0 -8 -0.833008 -15.5 -2.5 -22.5s-5 -13.167 -10 -18.5s-11.833 -9.66602 -20.5 -12.999s-19.667 -5 -33 -5
c-24.667 0 -41.834 4.66699 -51.501 14s-14.5 24.333 -14.5 45v89zM342 495l-167 -241h167v241z" />
    <glyph glyph-name="five" unicode="5" horiz-adv-x="610" 
d="M458 682c18.667 0 32.6631 -5.33008 41.9961 -15.9971s14 -25.334 14 -44.001c0 -17.333 -4 -31.333 -12 -42s-21.667 -16 -41 -16h-247l-8 -144c9.33301 10 24.333 19.833 45 29.5s47 14.5 79 14.5c34 0 64 -5.66699 90 -17s47.667 -27 65 -47s30.5 -43.667 39.5 -71
s13.5 -57 13.5 -89c0 -43.333 -6.33301 -80.833 -19 -112.5s-30.167 -57.834 -52.5 -78.501s-48.666 -36 -78.999 -46s-63.166 -15 -98.499 -15c-27.333 0 -51.333 2 -72 6s-39 9.33301 -55 16s-29.833 14.667 -41.5 24s-21.834 19 -30.501 29
c-9.33301 11.333 -17.166 23 -23.499 35s-9.5 25 -9.5 39c0 8.66699 2.16699 17 6.5 25s9.83301 14.667 16.5 20s14.167 9.66602 22.5 12.999s16.5 5 24.5 5s14.667 -1 20 -3s10.5 -5 15.5 -9s10 -9.16699 15 -15.5l17.5 -22.5c10 -13.333 22.5 -24.5 37.5 -33.5
s34.167 -13.5 57.5 -13.5c35.333 0 61.5 11 78.5 33s25.5 52.667 25.5 92c0 44 -9.33301 75.833 -28 95.5s-42.334 29.5 -71.001 29.5c-19.333 0 -35 -2.83301 -47 -8.5s-23.167 -12 -33.5 -19s-21.166 -13.333 -32.499 -19s-25.666 -8.5 -42.999 -8.5
c-15.333 0 -29.166 4 -41.499 12s-17.833 21.667 -16.5 41l16 285c0.666992 13.333 4.66699 24.333 12 33s18.333 13 33 13h316z" />
    <glyph glyph-name="six" unicode="6" horiz-adv-x="610" 
d="M338 694c29.333 0 55.835 -3.16797 79.502 -9.50098s43.167 -13.5 58.5 -21.5c17.333 -9.33301 30.5 -18.666 39.5 -27.999s13.5 -22.666 13.5 -39.999s-5.16699 -31.666 -15.5 -42.999s-23.5 -17 -39.5 -17c-10 0 -19.5 1.83301 -28.5 5.5s-17.167 8.16699 -24.5 13.5
c-12.667 7.33301 -24.5 13.166 -35.5 17.499s-26.167 6.5 -45.5 6.5c-17.333 0 -33.833 -3.16699 -49.5 -9.5s-29.834 -17.166 -42.501 -32.499s-22.667 -35.5 -30 -60.5s-11 -56.167 -11 -93.5c3.33301 6.66699 8.83301 14.167 16.5 22.5s17.5 16.166 29.5 23.499
s26 13.5 42 18.5s34 7.5 54 7.5c67.333 0 117.666 -20 150.999 -60s50 -94.333 50 -163c0 -35.333 -5 -67.833 -15 -97.5s-25 -55.334 -45 -77.001s-44.833 -38.5 -74.5 -50.5s-64.167 -18 -103.5 -18c-46 0 -84.833 7.16699 -116.5 21.5s-57.5 35 -77.5 62
s-34.5 60.167 -43.5 99.5s-13.5 84.333 -13.5 135c0 58 5.16699 110.833 15.5 158.5s26.5 88.5 48.5 122.5s50.5 60.333 85.5 79s77.5 28 127.5 28zM412.002 224.999c0 36 -8.50098 64.6689 -25.501 86.002s-42.5 32 -76.5 32c-32.667 0 -58.334 -11.333 -77.001 -34
s-28 -52.334 -28 -89.001c0 -38 8.83301 -68.667 26.5 -92s42.834 -35 75.501 -35s58.334 11.667 77.001 35s28 55.666 28 96.999z" />
    <glyph glyph-name="seven" unicode="7" horiz-adv-x="610" 
d="M301 49c-8.66699 -20.667 -18.4971 -35.167 -29.4971 -43.5s-25.167 -12.5 -42.5 -12.5c-20 0 -36 4.66699 -48 14s-18 22 -18 38c0 5.33301 0.5 10.5 1.5 15.5s2.83301 12.167 5.5 21.5c3.33301 10.667 9.16602 26.167 17.499 46.5s18.666 43.833 30.999 70.5l40.5 86.5
l46.5 94.5l49.5 95l49 88h-214v-34c0 -15.333 -4.16699 -28.5 -12.5 -39.5s-25.5 -16.5 -51.5 -16.5c-24.667 0 -41.334 4.66699 -50.001 14s-13 24.333 -13 45v103c0 13.333 3.83301 24.5 11.5 33.5s19.5 13.5 35.5 13.5h401c16 0 30.167 -4.16699 42.5 -12.5
s18.5 -21.833 18.5 -40.5c0 -12.667 -2.5 -25 -7.5 -37s-11.167 -24.333 -18.5 -37c-48 -82 -92.333 -166.833 -133 -254.5z" />
    <glyph glyph-name="eight" unicode="8" horiz-adv-x="610" 
d="M560 187c0 -25.333 -4.66016 -49.8311 -13.9932 -73.498s-24.333 -44.834 -45 -63.501s-47.334 -33.667 -80.001 -45s-72 -17 -118 -17c-46.667 0 -86.334 5.33301 -119.001 16s-59.334 25 -80.001 43s-35.667 38.667 -45 62s-14 47.666 -14 72.999
c0 22 2.66699 41.833 8 59.5s12.666 33.5 21.999 47.5s20.166 26 32.499 36s25.166 18.333 38.499 25c-25.333 15.333 -44.666 36.333 -57.999 63s-20 55 -20 85c0 35.333 6.83301 65.5 20.5 90.5s31.667 45.333 54 61s47.5 27 75.5 34s56.333 10.5 85 10.5
s57 -3.5 85 -10.5s53 -18.167 75 -33.5s39.833 -35.333 53.5 -60s20.5 -54.667 20.5 -90c0 -30 -6.66699 -58.667 -20 -86s-32.666 -48.666 -57.999 -63.999c13.333 -6.66699 26.166 -14.834 38.499 -24.501s23.166 -21 32.499 -34s16.666 -28.167 21.999 -45.5s8 -37 8 -59
zM399.007 493.002c0 8.66699 -1.33594 18.167 -4.00293 28.5s-7.66699 20 -15 29s-17.166 16.5 -29.499 22.5s-28.166 9 -47.499 9s-35.333 -3 -48 -9s-22.5 -13.5 -29.5 -22.5s-11.833 -18.667 -14.5 -29s-4 -19.833 -4 -28.5c0 -24.667 8.33301 -45.5 25 -62.5
s40.334 -25.5 71.001 -25.5c30 0 53.5 8.5 70.5 25.5s25.5 37.833 25.5 62.5zM417.004 196.002c0 32 -10.667 56.333 -32 73s-48.666 25 -81.999 25c-34 0 -61.667 -8.33301 -83 -25s-32 -41 -32 -73c0 -33.333 10.667 -57.5 32 -72.5s49 -22.5 83 -22.5
c33.333 0 60.666 7.5 81.999 22.5s32 39.167 32 72.5z" />
    <glyph glyph-name="nine" unicode="9" horiz-adv-x="610" 
d="M273 -12c-33.333 0 -61.6689 2.83105 -85.002 8.49805s-42.666 12.167 -57.999 19.5c-18 9.33301 -31.5 19 -40.5 29s-13.5 23.333 -13.5 40c0 18 5.33301 32.5 16 43.5s24.334 16.5 41.001 16.5c11.333 0 21.166 -2 29.499 -6s15.5 -7.66699 21.5 -11
c13.333 -7.33301 26 -13.166 38 -17.499s29.333 -6.5 52 -6.5c17.333 0 33.666 2.83301 48.999 8.5s28.833 15.834 40.5 30.501s20.834 34.167 27.501 58.5s10 55.166 10 92.499c-3.33301 -6.66699 -8.5 -14 -15.5 -22s-16.167 -15.5 -27.5 -22.5s-24.666 -13 -39.999 -18
s-33 -7.5 -53 -7.5c-67.333 0 -118.666 20.667 -153.999 62s-53 96.333 -53 165c0 35.333 5 67.833 15 97.5s25 55.334 45 77.001s44.833 38.5 74.5 50.5s64.167 18 103.5 18c46 0 84.833 -7 116.5 -21s57.5 -34.833 77.5 -62.5s34.5 -61.667 43.5 -102
s13.5 -86.5 13.5 -138.5c0 -58 -4.83301 -110.5 -14.5 -157.5s-25.334 -87.167 -47.001 -120.5s-50 -59 -85 -77s-77.5 -27 -127.5 -27zM195.997 454.998c0 -36 8.50098 -65.168 25.501 -87.501s42.5 -33.5 76.5 -33.5c32.667 0 58.334 11.833 77.001 35.5
s28 53.834 28 90.501c0 38 -8.83301 69 -26.5 93s-42.834 36 -75.501 36s-58.334 -12 -77.001 -36s-28 -56.667 -28 -98z" />
    <glyph glyph-name="colon" unicode=":" horiz-adv-x="249" 
d="M40 433c0 11.333 2.16699 22.166 6.5 32.499s10.333 19.333 18 27s16.667 13.667 27 18s21.5 6.5 33.5 6.5c23.333 0 43.166 -8.16699 59.499 -24.5s24.5 -36.166 24.5 -59.499c0 -12 -2.16699 -23.167 -6.5 -33.5s-10.333 -19.333 -18 -27s-16.667 -13.667 -27 -18
s-21.166 -6.5 -32.499 -6.5c-23.333 0 -43.333 8.33301 -60 25s-25 36.667 -25 60zM40 67c0 11.333 2.16699 22.166 6.5 32.499s10.333 19.333 18 27s16.667 13.667 27 18s21.5 6.5 33.5 6.5c23.333 0 43.166 -8.16699 59.499 -24.5s24.5 -36.166 24.5 -59.499
c0 -12 -2.16699 -23.167 -6.5 -33.5s-10.333 -19.333 -18 -27s-16.667 -13.667 -27 -18s-21.166 -6.5 -32.499 -6.5c-23.333 0 -43.333 8.33301 -60 25s-25 36.667 -25 60z" />
    <glyph glyph-name="semicolon" unicode=";" horiz-adv-x="254" 
d="M43 67c0 26.667 7.66895 47.335 23.002 62.002s35.666 22 60.999 22c27.333 0 49 -9.33301 65 -28s24 -44.667 24 -78c0 -38.667 -7.16699 -75.5 -21.5 -110.5s-36.833 -65.167 -67.5 -90.5c-10 -8 -20.333 -12 -31 -12c-12.667 0 -24.334 4.33301 -35.001 13
c-10 8 -15 18 -15 30c0 10.667 6 21.667 18 33c11.333 11.333 22 23.166 32 35.499s15.667 29.166 17 50.499c-20 1.33301 -36.667 9 -50 23s-20 30.667 -20 50zM46.002 433.001c0 11.333 2.16699 22.166 6.5 32.499s10.333 19.333 18 27s16.667 13.667 27 18
s21.5 6.5 33.5 6.5c23.333 0 43.166 -8.16699 59.499 -24.5s24.5 -36.166 24.5 -59.499c0 -12 -2.16699 -23.167 -6.5 -33.5s-10.333 -19.333 -18 -27s-16.667 -13.667 -27 -18s-21.166 -6.5 -32.499 -6.5c-23.333 0 -43.333 8.33301 -60 25s-25 36.667 -25 60z" />
    <glyph glyph-name="less" unicode="&#x3c;" horiz-adv-x="610" 
d="M492 260c16.667 -6 28.834 -13.8311 36.501 -23.498s11.5 -22.5 11.5 -38.5c0 -20 -5 -36.167 -15 -48.5s-22.333 -18.5 -37 -18.5c-5.33301 0 -10.5 0.666992 -15.5 2s-9.16699 2.66602 -12.5 3.99902l-344 134c-15.333 6 -27.333 14.5 -36 25.5s-13 26.5 -13 46.5
c0 18.667 4.33301 34.167 13 46.5s23 22.5 43 30.5l337 133c3.33301 1.33301 7.5 2.66602 12.5 3.99902s10.167 2 15.5 2c14.667 0 27 -6.16699 37 -18.5s15 -28.5 15 -48.5c0 -16 -3.83301 -28.833 -11.5 -38.5s-19.834 -17.5 -36.501 -23.5l-237 -84z" />
    <glyph glyph-name="equal" unicode="=" horiz-adv-x="610" 
d="M481 502c18.667 0 31.5 -5.33301 38.5 -16s10.5 -25.334 10.5 -44.001c0 -39.333 -17 -59 -51 -59h-352c-32 0 -48 19.667 -48 59c0 18.667 3.5 33.334 10.5 44.001s19.833 16 38.5 16h353zM481 306c18.667 0 31.5 -5.33301 38.5 -16s10.5 -25.334 10.5 -44.001
c0 -39.333 -17 -59 -51 -59h-352c-32 0 -48 19.667 -48 59c0 18.667 3.5 33.334 10.5 44.001s19.833 16 38.5 16h353z" />
    <glyph glyph-name="greater" unicode="&#x3e;" horiz-adv-x="610" 
d="M353 346l-237.002 83.999c-16.667 6 -28.834 13.833 -36.501 23.5s-11.5 22.5 -11.5 38.5c0 20 5.66699 36 17 48s24.333 18 39 18c5.33301 0 10.5 -0.666992 15.5 -2s9.16699 -2.66602 12.5 -3.99902l333 -132c20 -8 34.333 -18.167 43 -30.5s13 -27.833 13 -46.5
c0 -20 -4.33301 -35.5 -13 -46.5s-20.667 -19.5 -36 -25.5l-336 -132c-3.33301 -1.33301 -8.16602 -2.83301 -14.499 -4.5s-12.833 -2.5 -19.5 -2.5c-15.333 0 -28.166 6 -38.499 18s-15.5 28 -15.5 48c0 16 3.83301 28.833 11.5 38.5s19.834 17.5 36.501 23.5z" />
    <glyph glyph-name="question" unicode="?" horiz-adv-x="535" 
d="M252 201c-24.667 0 -42.333 5.16211 -53 15.4951s-16 26.5 -16 48.5c0 16 2.5 30.5 7.5 43.5s11.667 24.833 20 35.5s17.666 20.667 27.999 30l32.5 28c12 10 22.5 19.167 31.5 27.5s16.833 17 23.5 26s11.667 18.333 15 28s5 20.834 5 33.501
c0 25.333 -7.16699 44.5 -21.5 57.5s-32.833 19.5 -55.5 19.5c-24.667 0 -43.5 -5 -56.5 -15s-23.5 -21.333 -31.5 -34l-12 -19.5c-4 -6.33301 -8.5 -12 -13.5 -17s-10.667 -9.16699 -17 -12.5s-14.166 -5 -23.499 -5c-7.33301 0 -15 1.33301 -23 4s-15 5.66699 -21 9
c-10.667 6.66699 -18 13.334 -22 20.001s-6 15.334 -6 26.001c0 11.333 2.33301 22.333 7 33s10.667 20.667 18 30c8 10.667 18 21.834 30 33.501s26.667 22.334 44 32.001s37.666 17.5 60.999 23.5s50.333 9 81 9c28 0 54.5 -4 79.5 -12s47 -19.833 66 -35.5
s34.167 -35.334 45.5 -59.001s17 -50.834 17 -81.501c0 -28.667 -4.16699 -53.167 -12.5 -73.5s-18.833 -38.166 -31.5 -53.499s-26.5 -28.666 -41.5 -39.999l-41.5 -32.5c-12.667 -10.333 -23.167 -20.833 -31.5 -31.5s-12.5 -23 -12.5 -37v-7
c0 -15.333 -6.16699 -27 -18.5 -35s-29.166 -12 -50.499 -12zM171.001 62.9951c0 22 7.83301 40.833 23.5 56.5s34.5 23.5 56.5 23.5s40.833 -7.83301 56.5 -23.5s23.5 -34.5 23.5 -56.5s-7.83301 -40.833 -23.5 -56.5s-34.5 -23.5 -56.5 -23.5s-40.833 7.83301 -56.5 23.5
s-23.5 34.5 -23.5 56.5z" />
    <glyph glyph-name="at" unicode="@" horiz-adv-x="939" 
d="M901 245c0 -54 -7.16797 -98.168 -21.501 -132.501s-32.5 -61 -54.5 -80s-46.167 -32 -72.5 -39s-51.166 -10.5 -74.499 -10.5c-26 0 -48.333 6 -67 18s-32.334 28.667 -41.001 50c-16 -24.667 -35.167 -42.167 -57.5 -52.5s-46.833 -15.5 -73.5 -15.5
c-32 0 -60.333 5.66699 -85 17s-45.5 27 -62.5 47s-29.833 43.833 -38.5 71.5s-13 58.167 -13 91.5c0 32 4.66699 61.667 14 89s22.333 51 39 71s36.667 35.667 60 47s49.333 17 78 17c30 0 55 -5.5 75 -16.5s35 -24.833 45 -41.5v8c0 16.667 5.33301 28.167 16 34.5
s24.667 9.5 42 9.5c12 0 21.667 -1.5 29 -4.5s12.833 -7 16.5 -12s6 -10.833 7 -17.5s1.5 -14 1.5 -22v-249c0 -13.333 2 -23.666 6 -30.999s12.667 -11 26 -11c8.66699 0 18.334 1.83301 29.001 5.5s20.667 11.167 30 22.5s17.333 28 24 50s10 51.333 10 88
c0 36 -6.83301 70.667 -20.5 104s-33.834 62.5 -60.501 87.5s-59.667 45 -99 60s-85 22.5 -137 22.5c-46 0 -88.5 -7.66699 -127.5 -23s-72.5 -37 -100.5 -65s-49.833 -61.667 -65.5 -101s-23.5 -83.333 -23.5 -132c0 -48 8 -91.167 24 -129.5s38.833 -71 68.5 -98
s65.834 -47.833 108.501 -62.5s90.667 -22 144 -22c24.667 0 49.167 2.33301 73.5 7s46.166 9.66699 65.499 15c7.33301 2 15 4.33301 23 7s16.667 4 26 4c6.66699 0 12.5 -1.83301 17.5 -5.5s9.16699 -8.5 12.5 -14.5s5.83301 -12.5 7.5 -19.5s2.5 -13.5 2.5 -19.5
c0 -20.667 -15 -36.667 -45 -48c-22 -8 -50.5 -14.667 -85.5 -20s-72.5 -8 -112.5 -8c-71.333 0 -134.666 9.83301 -189.999 29.5s-102 47.5 -140 83.5s-66.833 79.667 -86.5 131s-29.5 108.666 -29.5 171.999c0 62 10.833 118.833 32.5 170.5s51.667 96.167 90 133.5
s84 66.333 137 87s110.833 31 173.5 31c66.667 0 126.667 -10.167 180 -30.5s98.5 -47.666 135.5 -81.999s65.333 -74.5 85 -120.5s29.5 -94.667 29.5 -146zM549.999 206.999c0 38 -8.16699 68.833 -24.5 92.5s-39.5 35.5 -69.5 35.5c-32 0 -55.833 -11.333 -71.5 -34
s-23.5 -53 -23.5 -91s7.83301 -69.167 23.5 -93.5s39.5 -36.5 71.5 -36.5c30 0 53.167 11.167 69.5 33.5s24.5 53.5 24.5 93.5z" />
    <glyph glyph-name="A" unicode="A" horiz-adv-x="645" 
d="M190 128l-37.001 -97.001c-5.33301 -14 -13.5 -24 -24.5 -30s-22.833 -9 -35.5 -9c-26.667 0 -46 5.5 -58 16.5s-18 24.833 -18 41.5c0 10.667 2.33301 21.334 7 32.001l219 569c7.33301 19.333 18.5 32.5 33.5 39.5s30.833 10.5 47.5 10.5s32.167 -3.16699 46.5 -9.5
s25.5 -19.5 33.5 -39.5l218 -568c4 -10 6 -20 6 -30c0 -16.667 -5.5 -31 -16.5 -43s-28.167 -18 -51.5 -18c-33.333 0 -55.666 13.333 -66.999 40l-40 95h-263zM319.999 510.999l-89 -264h177z" />
    <glyph glyph-name="B" unicode="B" horiz-adv-x="652" 
d="M612 201c0 -70.667 -23.001 -121.834 -69.001 -153.501s-111.333 -47.5 -196 -47.5h-215c-36.667 0 -55 17.667 -55 53v591c0 14.667 4.83301 26.667 14.5 36s24.167 14 43.5 14h202c78.667 0 140.334 -14.167 185.001 -42.5s67 -76.166 67 -143.499
c0 -19.333 -2.33301 -36.833 -7 -52.5s-11 -29.5 -19 -41.5s-17.333 -22.167 -28 -30.5s-21.667 -15.5 -33 -21.5c20 -6.66699 37 -15.5 51 -26.5s25.333 -23.5 34 -37.5s15 -29.333 19 -46s6 -33.667 6 -51zM444.999 495c0 10.667 -1.66699 21 -5 31
s-8.66602 19 -15.999 27s-17.166 14.333 -29.499 19s-27.833 7 -46.5 7h-134v-169h134c18.667 0 34.167 2.33301 46.5 7s22.166 11 29.499 19s12.666 17.167 15.999 27.5s5 20.833 5 31.5zM467.999 205c0 12 -1.66699 23.667 -5 35s-9.33301 21.333 -18 30
s-20 15.5 -34 20.5s-31.333 7.5 -52 7.5h-145v-184h145c38.667 0 66.5 9.16699 83.5 27.5s25.5 39.5 25.5 63.5z" />
    <glyph glyph-name="C" unicode="C" horiz-adv-x="681" 
d="M382 593c-32 0 -59.668 -6.50098 -83.001 -19.501s-42.333 -30.667 -57 -53s-25.5 -48.333 -32.5 -78s-10.5 -60.834 -10.5 -93.501c0 -34 3.5 -66.167 10.5 -96.5s18 -56.666 33 -78.999s34.167 -40 57.5 -53s51.333 -19.5 84 -19.5c14.667 0 28 1.16699 40 3.5
s23.333 6 34 11s21 11.667 31 20s20.667 18.166 32 29.499c14.667 15.333 26.334 26.833 35.001 34.5s20 11.5 34 11.5c17.333 0 32.666 -6.16699 45.999 -18.5s20 -26.833 20 -43.5c0 -26 -12.667 -52 -38 -78c-21.333 -22.667 -52.166 -43 -92.499 -61
s-89.833 -27 -148.5 -27c-60 0 -110.833 10 -152.5 30s-75.167 46.833 -100.5 80.5s-43.666 72.167 -54.999 115.5s-17 88 -17 134c0 48.667 6.5 95.167 19.5 139.5s33.167 83.5 60.5 117.5s62.333 61 105 81s93.667 30 153 30c26 0 50.333 -2.5 73 -7.5
s43.5 -11.5 62.5 -19.5s36 -17.333 51 -28s27.833 -21.667 38.5 -33s19.5 -23.166 26.5 -35.499s10.5 -25.166 10.5 -38.499c0 -18 -6 -33.167 -18 -45.5s-27.667 -18.5 -47 -18.5c-18 0 -31.5 4 -40.5 12s-19.167 18.333 -30.5 31c-21.333 23.333 -41.833 40 -61.5 50
s-43.834 15 -72.501 15z" />
    <glyph glyph-name="D" unicode="D" horiz-adv-x="705" 
d="M655 353c0 -57.333 -8 -108 -24 -152s-39 -80.833 -69 -110.5s-66.5 -52.167 -109.5 -67.5s-91.5 -23 -145.5 -23h-175c-36.667 0 -55 17.667 -55 53v591c0 14.667 4.83301 26.667 14.5 36s23.167 14 40.5 14h175c54 0 102.5 -7 145.5 -21s79.5 -35 109.5 -63
s53 -63.333 69 -106s24 -93 24 -151zM511 353c0 80 -17.333 137.667 -52 173s-82.334 53 -143.001 53h-102v-464h102c60.667 0 108.334 19 143.001 57s52 98.333 52 181z" />
    <glyph glyph-name="E" unicode="E" horiz-adv-x="594" 
d="M132 0c-36.667 0 -55 17.6641 -55 52.9971v591c0 14.667 4.83301 26.667 14.5 36s23.167 14 40.5 14h371c18.667 0 32.667 -5.33301 42 -16s14 -25.334 14 -44.001c0 -17.333 -4 -31.666 -12 -42.999s-21.667 -17 -41 -17h-292v-163h265c17.333 0 30.5 -5.66699 39.5 -17
s13.5 -25.666 13.5 -42.999s-4 -31.666 -12 -42.999s-21.667 -17 -41 -17h-265v-171h298c15.333 0 27 -5.5 35 -16.5s12 -25.5 12 -43.5c0 -17.333 -4 -31.666 -12 -42.999s-22 -17 -42 -17h-373z" />
    <glyph glyph-name="F" unicode="F" horiz-adv-x="574" 
d="M77 644c0 14 4.50098 25.832 13.501 35.499s22.833 14.5 41.5 14.5h362c18.667 0 32.5 -5.33301 41.5 -16s13.5 -25.334 13.5 -44.001c0 -17.333 -3.83301 -31.666 -11.5 -42.999s-21.167 -17 -40.5 -17h-283v-163h256c17.333 0 30.333 -5.5 39 -16.5s13 -25.5 13 -43.5
c0 -17.333 -3.83301 -31.666 -11.5 -42.999s-21.167 -17 -40.5 -17h-256v-239c0 -15.333 -4.5 -29 -13.5 -41s-27.167 -18 -54.5 -18c-24.667 0 -42.334 4.66699 -53.001 14s-16 24.333 -16 45v592z" />
    <glyph glyph-name="G" unicode="G" horiz-adv-x="754" 
d="M394 592c-35.333 0 -65.5049 -6.83398 -90.5049 -20.501s-45.167 -32 -60.5 -55s-26.5 -49.5 -33.5 -79.5s-10.5 -61 -10.5 -93c0 -77.333 15.5 -137.333 46.5 -180s77.833 -64 140.5 -64c26.667 0 49.834 3.66699 69.501 11s38.167 18.666 55.5 33.999
c15.333 14.667 27.833 30.5 37.5 47.5s16.834 38.167 21.501 63.5h-123c-24.667 0 -41.167 6 -49.5 18s-12.5 24.667 -12.5 38c0 40.667 20.667 61 62 61h190c18 0 32.833 -5.16699 44.5 -15.5s17.5 -26.166 17.5 -47.499v-271c0 -6 -0.5 -12 -1.5 -18
s-3.5 -11.5 -7.5 -16.5s-10.167 -9 -18.5 -12s-19.833 -4.5 -34.5 -4.5c-14 0 -25 1.5 -33 4.5s-14.167 7 -18.5 12s-7.16602 10.333 -8.49902 16s-2 11.5 -2 17.5v32c-5.33301 -6.66699 -11 -13 -17 -19s-11.667 -11 -17 -15c-21.333 -17.333 -45.166 -30.5 -71.499 -39.5
s-59.833 -13.5 -100.5 -13.5c-51.333 0 -96.666 8.16699 -135.999 24.5s-72.5 40 -99.5 71s-47.333 68.667 -61 113s-20.5 94.5 -20.5 150.5c0 45.333 6.16699 90.166 18.5 134.499s32.333 83.833 60 118.5s63.167 62.667 106.5 84s96 32 158 32
c50 0 93.667 -6.66699 131 -20s72.333 -35.333 105 -66c10.667 -11.333 19.5 -23.166 26.5 -35.499s10.5 -25.166 10.5 -38.499c0 -18 -6.33301 -33.167 -19 -45.5s-28.667 -18.5 -48 -18.5c-15.333 0 -27.333 4 -36 12l-33 30c-10.667 10 -20.5 18.833 -29.5 26.5
s-18.5 14.167 -28.5 19.5s-21.333 9.5 -34 12.5s-28 4.5 -46 4.5z" />
    <glyph glyph-name="H" unicode="H" horiz-adv-x="710" 
d="M77 645c0 20 6.49805 34.333 19.498 43s30.167 13 51.5 13c20.667 0 37.334 -4.33301 50.001 -13s19 -23 19 -43v-232h276v231c0 20.667 6.5 35.334 19.5 44.001s30.167 13 51.5 13c20.667 0 37.334 -4.33301 50.001 -13s19 -23.334 19 -44.001v-593
c0 -15.333 -4.83301 -28.833 -14.5 -40.5s-27.834 -17.5 -54.501 -17.5c-47.333 0 -71 19.667 -71 59v241h-276v-241c0 -15.333 -4.66699 -29 -14 -41s-27.666 -18 -54.999 -18c-47.333 0 -71 19.667 -71 59v593z" />
    <glyph glyph-name="I" unicode="I" horiz-adv-x="294" 
d="M217 52c0 -15.333 -4.66895 -29 -14.002 -41s-27.666 -18 -54.999 -18c-47.333 0 -71 19.667 -71 59v593c0 20 6.5 34.333 19.5 43s30.167 13 51.5 13c20.667 0 37.334 -4.33301 50.001 -13s19 -23 19 -43v-593z" />
    <glyph glyph-name="J" unicode="J" horiz-adv-x="569" 
d="M499 221c0 -80.667 -20.001 -140.499 -60.001 -179.499s-100.333 -58.5 -181 -58.5c-31.333 0 -58.5 3.16699 -81.5 9.5s-42.667 14.666 -59 24.999s-30 22.166 -41 35.499s-19.833 27.333 -26.5 42c-7.33301 15.333 -12.5 30 -15.5 44s-4.5 26 -4.5 36
c0 24 7.33301 41 22 51s31.667 15 51 15c13.333 0 25.666 -3.16699 36.999 -9.5s20 -21.166 26 -44.499c7.33301 -28 18 -49 32 -63s36.667 -21 68 -21c28.667 0 51.334 7.16699 68.001 21.5s25 40.833 25 79.5v441c0 20 6.5 34.333 19.5 43s30.167 13 51.5 13
c20.667 0 37.334 -4.33301 50.001 -13s19 -23 19 -43v-424z" />
    <glyph glyph-name="K" unicode="K" horiz-adv-x="644" 
d="M299 318l-82.0059 -84.001v-182c0 -15.333 -4.66699 -29 -14 -41s-27.666 -18 -54.999 -18c-47.333 0 -71 19.667 -71 59v593c0 20 6.5 34.333 19.5 43s30.167 13 51.5 13c20.667 0 37.334 -4.33301 50.001 -13s19 -23 19 -43v-243l246 260
c9.33301 9.33301 19 17.666 29 24.999s21.667 11 35 11c10.667 0 19.834 -1.66699 27.501 -5s14.834 -7.66602 21.501 -12.999c14 -12 21 -27 21 -45c0 -7.33301 -2.16699 -15.333 -6.5 -24s-10.166 -16.667 -17.499 -24l-171 -180l223 -320c6 -9.33301 9 -19.666 9 -30.999
c0 -16.667 -6.66699 -31 -20 -43s-32 -18 -56 -18c-15.333 0 -28.166 3.66699 -38.499 11s-19.833 17.333 -28.5 30z" />
    <glyph glyph-name="L" unicode="L" horiz-adv-x="569" 
d="M77 645c0 20 6.49902 34.332 19.499 42.999s30.167 13 51.5 13c20.667 0 37.334 -4.33301 50.001 -13s19 -23 19 -43v-525h290c15.333 0 27 -5.5 35 -16.5s12 -25.5 12 -43.5c0 -17.333 -4 -31.666 -12 -42.999s-22 -17 -42 -17h-377c-14 -0 -25.167 3.83301 -33.5 11.5
s-12.5 21.167 -12.5 40.5v593z" />
    <glyph glyph-name="M" unicode="M" horiz-adv-x="884" 
d="M673 485l-158.002 -437.001c-6 -17.333 -15.5 -29.5 -28.5 -36.5s-27.833 -10.5 -44.5 -10.5c-24 0 -42 4.83301 -54 14.5s-21.333 23.167 -28 40.5l-149 396v-403c0 -15.333 -4.83301 -28.5 -14.5 -39.5s-27.5 -16.5 -53.5 -16.5c-24.667 0 -41.834 4.66699 -51.501 14
s-14.5 24.333 -14.5 45v576c0 24.667 8.33301 42.334 25 53.001s39.334 16 68.001 16c29.333 0 51.833 -5.5 67.5 -16.5s26.834 -26.5 33.501 -46.5l171 -490l164 486c8 24 20.833 41.167 38.5 51.5s41.834 15.5 72.501 15.5c28 0 50 -5.16699 66 -15.5
s24 -26.166 24 -47.499v-585c0 -15.333 -4.83301 -28.5 -14.5 -39.5s-27.5 -16.5 -53.5 -16.5c-24 0 -41 5.16699 -51 15.5s-15 25.166 -15 44.499v432z" />
    <glyph glyph-name="N" unicode="N" horiz-adv-x="724" 
d="M150 701c14 0 27.335 -3 40.002 -9s25.667 -18 39 -36l253 -391c4.66699 -7.33301 10.167 -16.5 16.5 -27.5l15.5 -27.5c-1.33301 12 -2.5 26.833 -3.5 44.5s-1.5 34.167 -1.5 49.5v339c0 21.333 6.16699 36.333 18.5 45s29.166 13 50.499 13s38.166 -4.33301 50.499 -13
s18.5 -23.667 18.5 -45v-586c0 -7.33301 -0.666992 -14.833 -2 -22.5s-4.16602 -14.5 -8.49902 -20.5s-11 -11 -20 -15s-21.167 -6 -36.5 -6c-16.667 0 -30.834 3.33301 -42.501 10s-22.5 17.334 -32.5 32.001l-251 364l-19.5 30.5
c-7.66699 12.333 -14.5 24.166 -20.5 35.499c1.33301 -11.333 2.16602 -25.5 2.49902 -42.5s0.5 -30.167 0.5 -39.5v-331c0 -15.333 -4.66699 -29 -14 -41s-27.666 -18 -54.999 -18c-47.333 0 -71 19.667 -71 59v584c0 22.667 7 39.167 21 49.5s31.333 15.5 52 15.5z" />
    <glyph glyph-name="O" unicode="O" horiz-adv-x="779" 
d="M727 352c0 -54.667 -7.83398 -104.668 -23.501 -150.001s-38.167 -84.166 -67.5 -116.499s-64.666 -57.5 -105.999 -75.5s-88 -27 -140 -27c-54.667 0 -103 8.66699 -145 26s-77.333 42 -106 74s-50.334 70.333 -65.001 115s-22 94 -22 148s7.83301 103.333 23.5 148
s38.167 83.167 67.5 115.5s64.833 57.333 106.5 75s88.5 26.5 140.5 26.5c54 0 101.833 -8.66699 143.5 -26s76.834 -41.833 105.501 -73.5s50.5 -69.5 65.5 -113.5s22.5 -92.667 22.5 -146zM580.999 348.999c0 36 -4 68.668 -12 98.001s-19.833 54.5 -35.5 75.5
s-35.5 37.167 -59.5 48.5s-52 17 -84 17s-60 -5.66699 -84 -17s-44 -27.5 -60 -48.5s-27.833 -46.167 -35.5 -75.5s-11.5 -62 -11.5 -98c0 -76 15.667 -135.5 47 -178.5s79.333 -64.5 144 -64.5c64 0 111.833 21.667 143.5 65s47.5 102.666 47.5 177.999z" />
    <glyph glyph-name="P" unicode="P" horiz-adv-x="621" 
d="M581 472c0 -24 -3.5 -48.832 -10.5 -74.499s-19.667 -49.334 -38 -71.001s-43.5 -39.5 -75.5 -53.5s-73 -21 -123 -21h-119v-202c0 -15.333 -4.5 -28.666 -13.5 -39.999s-26.833 -17 -53.5 -17c-47.333 0 -71 19.667 -71 59v595c0 14.667 5.16699 26.167 15.5 34.5
s23.5 12.5 39.5 12.5h197c88 0 152 -19.333 192 -58s60 -93.334 60 -164.001zM438 471.001c0 14 -2 27.5 -6 40.5s-10.667 24.5 -20 34.5s-21.666 18 -36.999 24s-34.666 9 -57.999 9h-102v-212h102c23.333 0 42.666 2.66699 57.999 8s27.666 12.666 36.999 21.999
s16 20.333 20 33s6 26.334 6 41.001z" />
    <glyph glyph-name="Q" unicode="Q" horiz-adv-x="779" 
d="M727 348c0 -62 -9.99902 -117.5 -29.999 -166.5s-48.333 -89.5 -85 -121.5l53 -86c3.33301 -5.33301 5.83301 -10.666 7.5 -15.999s2.5 -11.666 2.5 -18.999c0 -6.66699 -2 -13.334 -6 -20.001s-9.33301 -12.5 -16 -17.5s-14 -9 -22 -12s-16.333 -4.5 -25 -4.5
c-12 0 -21.833 2.5 -29.5 7.5s-14.834 13.167 -21.501 24.5l-51 84c-17.333 -5.33301 -35.5 -9.66602 -54.5 -12.999s-38.833 -5 -59.5 -5c-54.667 0 -103 8.5 -145 25.5s-77.333 41.167 -106 72.5s-50.334 69.166 -65.001 113.499s-22 93.5 -22 147.5
s7.83301 103.667 23.5 149s38.167 84.166 67.5 116.499s64.833 57.666 106.5 75.999s88.5 27.5 140.5 27.5c54 0 101.833 -9 143.5 -27s76.834 -43 105.501 -75s50.5 -70.167 65.5 -114.5s22.5 -93.166 22.5 -146.499zM581.001 345c0 36 -4.00195 68.833 -12.002 98.5
s-19.833 55.167 -35.5 76.5s-35.5 38 -59.5 50s-52 18 -84 18s-60 -6 -84 -18s-44 -28.667 -60 -50s-27.833 -46.833 -35.5 -76.5s-11.5 -62.5 -11.5 -98.5c0 -76 15.667 -134.833 47 -176.5s79.333 -62.5 144 -62.5c8 0 15.833 0.166992 23.5 0.5
s15.167 1.16602 22.5 2.49902l-57 87c-5.33301 8.66699 -8 18.334 -8 29.001c0 8 2.16699 15.667 6.5 23s10 13.5 17 18.5s14.833 9 23.5 12s17.334 4.5 26.001 4.5c22.667 0 40.334 -10.667 53.001 -32l44 -75c13.333 20 23.333 44.5 30 73.5s10 60.833 10 95.5z" />
    <glyph glyph-name="R" unicode="R" horiz-adv-x="637" 
d="M344 259l-129.002 0.000976562v-209c0 -15.333 -4.5 -28.666 -13.5 -39.999s-26.833 -17 -53.5 -17c-47.333 0 -71 19.667 -71 59v592c0 15.333 5 27.5 15 36.5s22.667 13.5 38 13.5h205c88 0 152 -18.167 192 -54.5s60 -89.833 60 -160.5
c0 -16.667 -1.66699 -33.834 -5 -51.501s-9 -35 -17 -52s-18.667 -33 -32 -48s-30 -27.833 -50 -38.5l115 -208c2.66699 -5.33301 4.83398 -10.5 6.50098 -15.5s2.5 -10.167 2.5 -15.5c0 -16.667 -5.83301 -30.334 -17.5 -41.001s-29.5 -16 -53.5 -16
c-16.667 0 -30.167 3.5 -40.5 10.5s-19.166 17.167 -26.499 30.5zM443.998 478.001c0 14 -2 27.167 -6 39.5s-10.667 23 -20 32s-21.666 16.167 -36.999 21.5s-34.666 8 -57.999 8h-108v-205h108c23.333 0 42.666 2.66699 57.999 8s27.666 12.666 36.999 21.999
s16 20.333 20 33s6 26.334 6 41.001z" />
    <glyph glyph-name="S" unicode="S" horiz-adv-x="617" 
d="M357 411c26 -5.33301 51.998 -12.4951 77.998 -21.4951s49.5 -21.333 70.5 -37s38.167 -35.667 51.5 -60s20 -54.5 20 -90.5c0 -39.333 -7.16699 -72.833 -21.5 -100.5s-33.833 -50.334 -58.5 -68.001s-53.667 -30.5 -87 -38.5s-69 -12 -107 -12
c-52 0 -95.833 5.5 -131.5 16.5s-64.5 23.167 -86.5 36.5c-17.333 10.667 -28.5 21.334 -33.5 32.001s-7.5 20.667 -7.5 30c0 15.333 4 29.666 12 42.999c6 10 13.833 18.333 23.5 25s20.167 10.334 31.5 11.001c11.333 0 21.333 -2.33301 30 -7s18.667 -10.667 30 -18
c8.66699 -6 17.667 -11.833 27 -17.5s19.833 -10.667 31.5 -15s24.834 -8 39.501 -11s31.667 -4.5 51 -4.5c38 0 66.833 6.5 86.5 19.5s29.5 33.5 29.5 61.5s-9.66699 49 -29 63s-49 24.667 -89 32l-53 10c-28 5.33301 -55 12.833 -81 22.5s-49 22.5 -69 38.5
s-36 35.833 -48 59.5s-18 52.5 -18 86.5c0 30.667 5.83301 59.167 17.5 85.5s29 49 52 68s51.333 33.833 85 44.5s72.5 16 116.5 16c29.333 0 58.5 -3 87.5 -9s55 -14.333 78 -25s41.833 -23.334 56.5 -38.001s22 -31 22 -49c0 -10.667 -2.66699 -21.334 -8 -32.001
c-4.66699 -9.33301 -11.5 -17.5 -20.5 -24.5s-19.5 -10.833 -31.5 -11.5c-10.667 0 -19.834 1.5 -27.501 4.5s-15.834 8.16699 -24.501 15.5c-16 12.667 -34.5 24 -55.5 34s-49.5 15 -85.5 15c-22 0 -40.5 -2.33301 -55.5 -7s-27 -10.834 -36 -18.501
s-15.333 -16.667 -19 -27s-5.5 -20.833 -5.5 -31.5c0 -12 2.83301 -22.667 8.5 -32s13.334 -17.333 23.001 -24s20.834 -12.334 33.501 -17.001s26.334 -8.33398 41.001 -11.001z" />
    <glyph glyph-name="T" unicode="T" horiz-adv-x="612" 
d="M372 574v-525c0 -15.333 -5 -28.5 -15 -39.5s-28 -16.5 -54 -16.5c-47.333 0 -71 18.667 -71 56v525h-169c-19.333 0 -33 6 -41 18s-12 26 -12 42s4.16699 30 12.5 42s21.166 18 38.499 18h490c16.667 0 29.334 -6 38.001 -18s13 -26 13 -42s-4 -30 -12 -42
s-21.667 -18 -41 -18h-177z" />
    <glyph glyph-name="U" unicode="U" horiz-adv-x="707" 
d="M635 241c0 -42 -6.83496 -79 -20.502 -111s-33 -58.833 -58 -80.5s-55.167 -38.167 -90.5 -49.5s-74.333 -17 -117 -17c-91.333 0 -160.333 22 -207 66s-70 108 -70 192v404c0 20 6.5 34.333 19.5 43s30.167 13 51.5 13c20.667 0 37.334 -4.33301 50.001 -13
s19 -23 19 -43v-378c0 -57.333 12.167 -98.5 36.5 -123.5s59.5 -37.5 105.5 -37.5s81 12.5 105 37.5s36 66.167 36 123.5v377c0 20.667 6.5 35.334 19.5 44.001s30.167 13 51.5 13c20.667 0 37.334 -4.33301 50.001 -13s19 -23.334 19 -44.001v-403z" />
    <glyph glyph-name="V" unicode="V" horiz-adv-x="653" 
d="M24 603c-4 10 -6.33105 18 -6.99805 24s-1 11.333 -1 16c0 17.333 6.66699 31.333 20 42s32.333 16 57 16c18.667 0 33.5 -3.66699 44.5 -11s18.833 -17.333 23.5 -30l167 -485l168 482c5.33301 15.333 12.833 26.5 22.5 33.5s23.167 10.5 40.5 10.5
c23.333 0 42.166 -5.5 56.499 -16.5s21.5 -24.5 21.5 -40.5c0 -5.33301 -0.5 -11.5 -1.5 -18.5s-3.16699 -14.167 -6.5 -21.5l-215 -561c-7.33301 -18 -18.5 -30.833 -33.5 -38.5s-32.833 -11.5 -53.5 -11.5c-26 0 -46.333 5 -61 15s-25.334 23 -32.001 39z" />
    <glyph glyph-name="W" unicode="W" horiz-adv-x="954" 
d="M28 608c-4.66699 14.667 -6.99512 27 -6.99512 37c0 17.333 6.83301 31 20.5 41s32.167 15 55.5 15c40 0 63.333 -14.667 70 -44l100 -406c2.66699 -9.33301 5.5 -21.666 8.5 -36.999l7.5 -38c2 11.333 4.33301 23.666 7 36.999s5.33398 24.666 8.00098 33.999l103 402
c5.33301 21.333 15.666 35.333 30.999 42s32 10 50 10c17.333 0 33.166 -3.66699 47.499 -11s24.166 -21.666 29.499 -42.999l103 -404c2 -8 4.5 -18.833 7.5 -32.5s5.16699 -24.834 6.5 -33.501c1.33301 8 3.33301 18.333 6 31c2.66699 14 5 25 7 33l105 416
c7.33301 29.333 28.333 44 63 44c23.333 0 41.833 -5.5 55.5 -16.5s20.5 -24.5 20.5 -40.5c0 -5.33301 -0.5 -11.333 -1.5 -18s-2.83301 -13.667 -5.5 -21l-165 -565c-5.33301 -18 -15.333 -30.667 -30 -38s-32.667 -11 -54 -11c-26 0 -46.333 4.66699 -61 14
s-24.334 22.333 -29.001 39l-91 351c-1.33301 4.66699 -2.83301 10.667 -4.5 18l-5 23l-5 24.5c-1.66699 8.33301 -2.83398 15.5 -3.50098 21.5c-0.666992 -5.33301 -1.83398 -12.5 -3.50098 -21.5s-3.5 -18 -5.5 -27l-6 -26c-2 -8.33301 -3.66699 -14.833 -5 -19.5
l-92 -347c-5.33301 -18.667 -15.5 -31.667 -30.5 -39s-32.833 -11 -53.5 -11c-26 0 -45.833 4.83301 -59.5 14.5s-23.167 22.834 -28.5 39.501z" />
    <glyph glyph-name="X" unicode="X" horiz-adv-x="614" 
d="M310 456l136.002 201.001c8.66699 12 17.5 22.333 26.5 31s21.833 13 38.5 13c21.333 0 38.166 -6.16699 50.499 -18.5s18.5 -26.833 18.5 -43.5c0 -11.333 -3.66699 -22.333 -11 -33l-180 -251l197 -269c7.33301 -11.333 11 -22.333 11 -33
c0 -16.667 -6.16699 -31 -18.5 -43s-29.166 -18 -50.499 -18c-17.333 0 -30.833 3.33301 -40.5 10s-18.834 16 -27.501 28l-156 215l-152 -215c-8.66699 -12 -17.334 -21.333 -26.001 -28s-20.667 -10 -36 -10c-24.667 0 -43 6.33301 -55 19s-18 27.334 -18 44.001
c0 10 4 20.667 12 32l196 261l-173 257c-4 5.33301 -7 11.166 -9 17.499s-3 12.166 -3 17.499c0 16.667 6 31 18 43s29 18 51 18c17.333 0 30.5 -4 39.5 -12s17.833 -18.333 26.5 -31z" />
    <glyph glyph-name="Y" unicode="Y" horiz-adv-x="615" 
d="M374 304l0.000976562 -253c0 -15.333 -5 -28.833 -15 -40.5s-28 -17.5 -54 -17.5c-47.333 0 -71 19.333 -71 58v253l-208 296c-10 14 -15 28.333 -15 43c0 16 6.16699 29.667 18.5 41s30.166 17 53.499 17c19.333 0 34 -4 44 -12s18.667 -17.333 26 -28l155 -234l149 224
c9.33301 13.333 19.166 25 29.499 35s25.5 15 45.5 15c22.667 0 40.334 -5.66699 53.001 -17s19 -25 19 -41c0 -6 -1.16699 -13.167 -3.5 -21.5s-5.83301 -15.5 -10.5 -21.5z" />
    <glyph glyph-name="Z" unicode="Z" horiz-adv-x="603" 
d="M86 0c-17.333 0 -32.6699 4.66992 -46.0029 14.0029s-20 23.666 -20 42.999c0 15.333 3.5 29.166 10.5 41.499s16.167 26.166 27.5 41.499l329 429h-306c-19.333 0 -33.166 6.33301 -41.499 19s-12.5 27 -12.5 43s4.66699 30.5 14 43.5s22.666 19.5 39.999 19.5h435
c16.667 0 31.334 -4 44.001 -12s19 -21.667 19 -41c0 -15.333 -4.16699 -29.833 -12.5 -43.5s-18.166 -28.167 -29.499 -43.5l-328 -429h322c16 0 28.667 -6 38 -18s14 -27 14 -45s-4.16699 -32.833 -12.5 -44.5s-22.166 -17.5 -41.499 -17.5h-443z" />
    <glyph glyph-name="bracketleft" unicode="[" horiz-adv-x="352" 
d="M206 -18l80 -0.00292969c19.333 0 33 -5.66699 41 -17s12 -25.666 12 -42.999c0 -38.667 -18.667 -58 -56 -58h-161c-18 0 -31.167 4.83301 -39.5 14.5s-12.5 21.834 -12.5 36.501v770c0 15.333 4.16699 28 12.5 38s21.5 15 39.5 15h161c37.333 0 56 -19.333 56 -58
c0 -17.333 -4 -31.666 -12 -42.999s-21.667 -17 -41 -17h-80v-638z" />
    <glyph glyph-name="backslash" unicode="\" horiz-adv-x="488" 
d="M16 634c-2 3.33301 -3.83301 7.5 -5.5 12.5s-2.5 10.167 -2.5 15.5c0 7.33301 2.16699 14 6.5 20s9.83301 11.167 16.5 15.5s14 7.66602 22 9.99902s15.667 3.5 23 3.5c12 0 21.667 -2.83301 29 -8.5s13.333 -12.834 18 -21.501l351 -624c4 -8 6 -15.667 6 -23
c0 -8 -2.16699 -15.167 -6.5 -21.5s-9.83301 -11.666 -16.5 -15.999s-14 -7.66602 -22 -9.99902s-15.667 -3.5 -23 -3.5c-12 0 -21.667 2.5 -29 7.5s-13.333 11.833 -18 20.5z" />
    <glyph glyph-name="bracketright" unicode="]" horiz-adv-x="352" 
d="M146 620l-80 0.00292969c-19.333 0 -33 5.66699 -41 17s-12 25.666 -12 42.999c0 38.667 18.667 58 56 58h161c18 0 31.167 -5 39.5 -15s12.5 -22.667 12.5 -38v-770c0 -14.667 -4.16699 -26.834 -12.5 -36.501s-21.5 -14.5 -39.5 -14.5h-161
c-37.333 0 -56 19.333 -56 58c0 17.333 4 31.666 12 42.999s21.667 17 41 17h80v638z" />
    <glyph glyph-name="asciicircum" unicode="^" horiz-adv-x="539" 
d="M269 544l-100.998 -197c-8 -15.333 -16.833 -27.166 -26.5 -35.499s-22.5 -12.5 -38.5 -12.5c-20 0 -36.167 5 -48.5 15s-18.5 22.333 -18.5 37c0 5.33301 0.666992 10.5 2 15.5s2.66602 9.16699 3.99902 12.5l153 297c8 20 18.167 34.333 30.5 43s27.833 13 46.5 13
c20 0 35.5 -4.33301 46.5 -13s19.5 -20.667 25.5 -36l154 -304c1.33301 -3.33301 2.66602 -7.5 3.99902 -12.5s2 -10.167 2 -15.5c0 -14.667 -6.16699 -27 -18.5 -37s-28.5 -15 -48.5 -15c-16 0 -28.833 4.16699 -38.5 12.5s-18.5 20.166 -26.5 35.499z" />
    <glyph glyph-name="underscore" unicode="_" horiz-adv-x="496" 
d="M43 -213c-13.333 0 -23.333 5.33398 -30 16.001s-10 23.667 -10 39c0 14 3.66699 26 11 36s17 15 29 15h413c14 0 23.667 -5.33301 29 -16s8 -22.334 8 -35.001c0 -14.667 -3.16699 -27.5 -9.5 -38.5s-16.833 -16.5 -31.5 -16.5h-409z" />
    <glyph glyph-name="grave" unicode="`" horiz-adv-x="464" 
d="M333 664c6 -7.33301 10.1689 -14.334 12.502 -21.001s3.5 -12.667 3.5 -18c0 -12.667 -4.83301 -22.5 -14.5 -29.5s-21.167 -10.5 -34.5 -10.5c-11.333 0 -21.5 2.33301 -30.5 7s-17.167 10.334 -24.5 17.001l-91 77c-14 12 -21 25.333 -21 40
c0 14 6.16699 26.833 18.5 38.5s28.166 17.5 47.499 17.5c12 0 23.667 -2.83301 35 -8.5s22.666 -15.5 33.999 -29.5z" />
    <glyph glyph-name="a" unicode="a" horiz-adv-x="577" 
d="M507 48c0 -19.333 -4.83398 -33.3389 -14.501 -42.0059s-26.167 -13 -49.5 -13c-20 0 -35.833 4.16699 -47.5 12.5s-17.5 22.5 -17.5 42.5v18c-7.33301 -9.33301 -15.5 -18.666 -24.5 -27.999s-20 -17.666 -33 -24.999s-28.167 -13.333 -45.5 -18s-37.333 -7 -60 -7
c-52.667 0 -94.167 13.833 -124.5 41.5s-45.5 64.5 -45.5 110.5c0 26.667 4.5 49.334 13.5 68.001s21.333 34.334 37 47.001s34 22.667 55 30s43.167 13 66.5 17c25.333 4.66699 50.833 8.33398 76.5 11.001s53.5 5 83.5 7v19c0 10 -1.33301 19.833 -4 29.5
s-7.16699 18.5 -13.5 26.5s-15.166 14.333 -26.499 19s-25.333 7 -42 7c-10.667 0 -20.5 -0.666992 -29.5 -2s-17.667 -3.5 -26 -6.5s-17 -7.16699 -26 -12.5l-30.5 -19c-8.66699 -6 -16.834 -11 -24.501 -15s-17.167 -6 -28.5 -6c-15.333 0 -29 5.83301 -41 17.5
s-18 25.834 -18 42.501c0 11.333 4.66699 23.5 14 36.5s23.5 25 42.5 36s42.333 20.167 70 27.5s60.167 11 97.5 11c76.667 0 131.834 -15 165.501 -45s50.5 -76.667 50.5 -140v-298zM376.999 235.994c-25.333 -2.66699 -49.5 -5.66699 -72.5 -9s-40.167 -6.33301 -51.5 -9
c-32 -6.66699 -52.833 -16.167 -62.5 -28.5s-14.5 -24.833 -14.5 -37.5c0 -17.333 5.33301 -30.833 16 -40.5s29 -14.5 55 -14.5c41.333 0 73.333 9.5 96 28.5s34 43.5 34 73.5v37z" />
    <glyph glyph-name="b" unicode="b" horiz-adv-x="625" 
d="M70 644c0 17.333 5.5 31.165 16.5 41.498s27.5 15.5 49.5 15.5c19.333 0 36.166 -3.33301 50.499 -10s21.5 -20.667 21.5 -42v-197c5.33301 8 12.5 16.667 21.5 26s19.833 18 32.5 26s27 14.5 43 19.5s34 7.5 54 7.5c36 0 67.833 -6.83301 95.5 -20.5
s50.834 -32.667 69.501 -57s32.667 -53.166 42 -86.499s14 -69.666 14 -108.999c0 -40 -5.33301 -76.833 -16 -110.5s-25.834 -62.667 -45.501 -87s-43.667 -43.333 -72 -57s-60.166 -20.5 -95.499 -20.5c-28 0 -51.167 3.5 -69.5 10.5s-33.166 14.833 -44.499 23.5
c-13.333 10 -24 21.333 -32 34v-6c0 -20.667 -5.33301 -34.5 -16 -41.5s-28.334 -10.5 -53.001 -10.5c-44 0 -66 18.333 -66 55v596zM438 255.999c0 22.667 -2.50098 43.667 -7.50098 63s-12.5 36.166 -22.5 50.499s-22.333 25.5 -37 33.5s-31.667 12 -51 12
s-36.166 -4 -50.499 -12s-26.5 -19.167 -36.5 -33.5s-17.5 -31.166 -22.5 -50.499s-7.5 -40.333 -7.5 -63c0 -48.667 10 -87.5 30 -116.5s49 -43.5 87 -43.5c39.333 0 68.833 15.167 88.5 45.5s29.5 68.5 29.5 114.5z" />
    <glyph glyph-name="c" unicode="c" horiz-adv-x="552" 
d="M307 531c36.667 0 68.5 -4.99902 95.5 -14.999s49.5 -22 67.5 -36s31.5 -29 40.5 -45s13.5 -30 13.5 -42c0 -17.333 -6.16699 -31.666 -18.5 -42.999s-27.166 -17 -44.499 -17c-12.667 0 -22.834 3.5 -30.501 10.5l-26.5 24.5c-15.333 14 -30 25.167 -44 33.5
s-32.667 12.5 -56 12.5c-27.333 0 -49 -6 -65 -18s-28 -26.5 -36 -43.5s-13.167 -34.833 -15.5 -53.5s-3.5 -34.334 -3.5 -47.001c0 -14 1.5 -30 4.5 -48s9 -34.833 18 -50.5s21.667 -28.834 38 -39.501s37.5 -16 63.5 -16c24.667 0 44 4 58 12s29.333 20.667 46 38
c7.33301 8 14.5 14.833 21.5 20.5s16.167 8.5 27.5 8.5c8 0 15.833 -1.66699 23.5 -5s14.334 -7.83301 20.001 -13.5s10.334 -12.167 14.001 -19.5s5.5 -15 5.5 -23c0 -13.333 -5.16699 -27.833 -15.5 -43.5s-25.166 -30.167 -44.499 -43.5s-42.833 -24.5 -70.5 -33.5
s-59.167 -13.5 -94.5 -13.5c-46.667 0 -86.334 7.5 -119.001 22.5s-59.167 34.833 -79.5 59.5s-35 53 -44 85s-13.5 65 -13.5 99c0 44.667 6.33301 84.667 19 120s30.667 65 54 89s51.166 42.333 83.499 55s68.166 19 107.499 19z" />
    <glyph glyph-name="d" unicode="d" horiz-adv-x="624" 
d="M554 48c0 -36.667 -21.998 -54.999 -65.998 -54.999c-24.667 0 -42.334 4.33301 -53.001 13s-16 22.667 -16 42v4c-8.66699 -13.333 -20 -25 -34 -35c-12 -8.66699 -27.333 -16.5 -46 -23.5s-41.334 -10.5 -68.001 -10.5c-36 0 -68.167 6.83301 -96.5 20.5
s-52 32.667 -71 57s-33.5 53.333 -43.5 87s-15 70.5 -15 110.5c0 39.333 5 75.666 15 108.999s24.833 62.166 44.5 86.499s43.667 43.333 72 57s60.5 20.5 96.5 20.5c20 0 37.833 -2.33301 53.5 -7s29.334 -10.667 41.001 -18s21.5 -15.666 29.5 -24.999
s14.333 -18.333 19 -27v194c0 21.333 7 35.5 21 42.5s30 10.5 48 10.5c23.333 0 40.666 -5 51.999 -15s17 -23.667 17 -41v-597zM187.002 256.001c0 -46 9.66895 -84.001 29.002 -114.001s48.666 -45 87.999 -45c38 0 67 14.333 87 43s30 67.334 30 116.001
c0 22.667 -2.5 43.667 -7.5 63s-12.167 36.166 -21.5 50.499s-21.333 25.5 -36 33.5s-31.334 12 -50.001 12c-19.333 0 -36.5 -4 -51.5 -12s-27.5 -19.167 -37.5 -33.5s-17.5 -31.166 -22.5 -50.499s-7.5 -40.333 -7.5 -63z" />
    <glyph glyph-name="e" unicode="e" horiz-adv-x="577" 
d="M304 531c72.667 0 130.502 -22.5 173.502 -67.5s64.5 -109.5 64.5 -193.5c0 -19.333 -5.83301 -32.666 -17.5 -39.999s-28.167 -11 -49.5 -11h-290c6.66699 -82 51 -123 133 -123c21.333 0 39.333 3.5 54 10.5l38 18.5c10 5.33301 19.333 10.666 28 15.999s19 8 31 8
c13.333 0 25.666 -6.66699 36.999 -20s17 -28.333 17 -45c0 -12 -3.5 -22.5 -10.5 -31.5s-18.5 -18.5 -34.5 -28.5c-21.333 -13.333 -46.833 -23.5 -76.5 -30.5s-58.834 -10.5 -87.501 -10.5c-41.333 0 -78.833 5.33301 -112.5 16s-62.167 27 -85.5 49
s-41.333 49.833 -54 83.5s-19 73.5 -19 119.5c0 35.333 5 69.833 15 103.5s25.667 63.5 47 89.5s48.5 47 81.5 63s72.167 24 117.5 24zM403.002 322c0 12 -2 23.999 -6 35.999s-10.167 23 -18.5 33s-18.833 18 -31.5 24s-28 9 -46 9c-28.667 0 -53.5 -8.66699 -74.5 -26
s-33.167 -42.666 -36.5 -75.999h213z" />
    <glyph glyph-name="f" unicode="f" horiz-adv-x="338" 
d="M252 711c18 0 35.166 -1.33105 51.499 -3.99805s30.833 -6.66699 43.5 -12s22.834 -12.5 30.501 -21.5s11.5 -19.5 11.5 -31.5c0 -14.667 -2.66699 -26.334 -8 -35.001c-8 -13.333 -20.667 -20 -38 -20c-7.33301 0 -14 0.833008 -20 2.5s-11.667 3.66699 -17 6
s-10.833 4.33301 -16.5 6s-12.167 2.5 -19.5 2.5c-15.333 0 -26.833 -5.33301 -34.5 -16s-11.5 -25.334 -11.5 -44.001v-30h73c14 0 23.667 -5.66699 29 -17s8 -22.666 8 -33.999c0 -12 -3 -24.167 -9 -36.5s-15.333 -18.5 -28 -18.5h-73v-359
c0 -20 -5.83301 -34.333 -17.5 -43s-28.167 -13 -49.5 -13c-24.667 0 -42.5 4.66699 -53.5 14s-16.5 23 -16.5 41v360h-44c-11.333 1.33301 -19.833 8 -25.5 20s-8.5 23.667 -8.5 35s2.83301 22.666 8.5 33.999s14.5 17 26.5 17h43v32c0 22 3.33301 43 10 63
s16.667 37.5 30 52.5s30.5 27 51.5 36s45.5 13.5 73.5 13.5z" />
    <glyph glyph-name="g" unicode="g" horiz-adv-x="617" 
d="M551 31c0 -44.667 -5.66504 -83.002 -16.998 -115.002s-27.833 -58.333 -49.5 -79s-48.334 -35.834 -80.001 -45.501s-67.834 -14.5 -108.501 -14.5c-48.667 0 -87 4.16699 -115 12.5s-49 17.5 -63 27.5c-15.333 10.667 -23 25.667 -23 45c0 17.333 5 33 15 47
s24.333 21 43 21c10 0 19 -2.16699 27 -6.5l27 -14.5c10 -5.33301 22 -10.166 36 -14.499s32.333 -6.5 55 -6.5c36.667 0 65.5 10.333 86.5 31s31.5 51.334 31.5 92.001v57c-13.333 -17.333 -32.5 -33 -57.5 -47s-55.833 -21 -92.5 -21c-34 0 -64.667 6.16699 -92 18.5
s-50.5 29.833 -69.5 52.5s-33.667 50.167 -44 82.5s-15.5 68.5 -15.5 108.5c0 40.667 5.33301 77.5 16 110.5s25.667 61 45 84s42.833 40.833 70.5 53.5s58.5 19 92.5 19c20.667 0 38.834 -2.33301 54.501 -7s29.5 -10.5 41.5 -17.5s22.167 -14.667 30.5 -23
s15.166 -16.166 20.499 -23.499v21c0 16.667 6.33301 28.167 19 34.5s27.667 9.5 45 9.5c24.667 0 42.667 -5.83301 54 -17.5s17 -26.167 17 -43.5v-431zM420.002 262.998c0 44.667 -9.66699 81 -29 109s-49 42 -89 42c-36 0 -63.833 -13.833 -83.5 -41.5
s-29.5 -63.834 -29.5 -108.501c0 -45.333 9.83301 -81.166 29.5 -107.499s46.834 -39.5 81.501 -39.5c39.333 0 69.166 12.5 89.499 37.5s30.5 61.167 30.5 108.5z" />
    <glyph glyph-name="h" unicode="h" horiz-adv-x="611" 
d="M360 531c35.333 0 64.168 -5.49609 86.501 -16.4961s41.833 -26.833 58.5 -47.5c17.333 -22.667 27.666 -47.834 30.999 -75.501s5 -53.834 5 -78.501v-265c0 -19.333 -5.66699 -33.333 -17 -42s-28.666 -13 -51.999 -13c-20 0 -36.5 4.16699 -49.5 12.5
s-19.5 22.5 -19.5 42.5v262c0 29.333 -3 50.666 -9 63.999s-15.167 22.666 -27.5 27.999s-27.166 8 -44.499 8s-32.5 -2.66699 -45.5 -8s-23.833 -12 -32.5 -20s-15.334 -16.667 -20.001 -26s-8 -18 -10 -26c-3.33301 -12 -5.16602 -25.667 -5.49902 -41
s-0.5 -28.333 -0.5 -39v-199c0 -20.667 -5.5 -35.5 -16.5 -44.5s-29.167 -13.5 -54.5 -13.5c-20.667 0 -37 4.33301 -49 13s-18 23 -18 43v596c0 18 5.5 31.833 16.5 41.5s29.167 14.5 54.5 14.5c8.66699 0 17 -0.833008 25 -2.5s15.167 -4.5 21.5 -8.5
s11.333 -9.66699 15 -17s5.5 -17 5.5 -29v-187c13.333 18 32.666 34.833 57.999 50.5s56.666 23.5 93.999 23.5z" />
    <glyph glyph-name="i" unicode="i" horiz-adv-x="279" 
d="M141 -7c-47.333 0 -70.999 18 -70.999 54v411c0 19.333 5.66699 34.666 17 45.999s29.666 17 54.999 17c21.333 0 37.833 -4.66699 49.5 -14s17.5 -23.666 17.5 -42.999v-415c0 -20 -6 -34.333 -18 -43s-28.667 -13 -50 -13zM141.001 725c19.333 0 37.166 -6 53.499 -18
s24.5 -30.667 24.5 -56c0 -22.667 -7.16699 -40.667 -21.5 -54s-33.166 -20 -56.499 -20s-42.166 6.66699 -56.499 20s-21.5 31.333 -21.5 54c0 21.333 7.16699 39 21.5 53s33.166 21 56.499 21z" />
    <glyph glyph-name="j" unicode="j" horiz-adv-x="279" 
d="M209 -63c0 -22.667 -3.33301 -43.833 -10 -63.5s-16.667 -36.667 -30 -51s-30 -25.5 -50 -33.5s-43.333 -12 -70 -12c-17.333 0 -34.5 1 -51.5 3s-32.167 5.66699 -45.5 11s-24.166 12.5 -32.499 21.5s-12.5 20.5 -12.5 34.5s4 26.833 12 38.5s20 17.5 36 17.5
c7.33301 0 13.833 -1 19.5 -3s11.334 -4.33301 17.001 -7s11.667 -5 18 -7s14.166 -3 23.499 -3c24.667 0 37 17.667 37 53v525c0 20 6.16699 35 18.5 45s29.166 15 50.499 15c24.667 0 42.5 -5.33301 53.5 -16s16.5 -25 16.5 -43v-525zM141 725.001
c19.333 0 37.166 -6 53.499 -18s24.5 -30.667 24.5 -56c0 -22.667 -7.16699 -40.667 -21.5 -54s-33.166 -20 -56.499 -20s-42.166 6.66699 -56.499 20s-21.5 31.333 -21.5 54c0 21.333 7.16699 39 21.5 53s33.166 21 56.499 21z" />
    <glyph glyph-name="k" unicode="k" horiz-adv-x="549" 
d="M141 -7c-47.333 0 -71 18 -71 54v595c0 39.333 24 59 72 59c17.333 0 32.833 -4 46.5 -12s20.5 -21.667 20.5 -41v-305l151 140c13.333 12.667 25 22.334 35 29.001s22.333 10 37 10c10 0 19.167 -2.16699 27.5 -6.5s15.5 -9.5 21.5 -15.5
c5.33301 -5.33301 9.5 -11.333 12.5 -18s4.5 -14.334 4.5 -23.001c0 -14 -8 -28.333 -24 -43l-114 -100l151 -232c8.66699 -13.333 13 -25.333 13 -36c0 -15.333 -6.5 -28.333 -19.5 -39s-30.167 -16 -51.5 -16c-18.667 0 -33.667 5 -45 15s-22.333 23.667 -33 41l-117 184
l-49 -46v-138c0 -20 -6 -34.333 -18 -43s-28.667 -13 -50 -13z" />
    <glyph glyph-name="l" unicode="l" horiz-adv-x="279" 
d="M141 -7c-47.333 0 -71 17.999 -71 53.999v596c0 38.667 24 58 72 58c17.333 0 32.833 -4.16699 46.5 -12.5s20.5 -22.166 20.5 -41.499v-598c0 -20 -6 -34.333 -18 -43s-28.667 -13 -50 -13z" />
    <glyph glyph-name="m" unicode="m" horiz-adv-x="920" 
d="M353 531c36 0 66.4951 -6.49512 91.4951 -19.4951s44.833 -34.167 59.5 -63.5c19.333 29.333 42.5 50.5 69.5 63.5s58.5 19.5 94.5 19.5c34.667 0 63.5 -5.5 86.5 -16.5s42.833 -26.833 59.5 -47.5c17.333 -22.667 27.666 -47.834 30.999 -75.501s5 -53.834 5 -78.501
v-265c0 -19.333 -5.66699 -33.333 -17 -42s-28.666 -13 -51.999 -13c-20 0 -36.5 4.16699 -49.5 12.5s-19.5 22.5 -19.5 42.5v262c0 29.333 -3 50.666 -9 63.999s-15.167 22.666 -27.5 27.999s-27.166 8 -44.499 8s-31.833 -2.66699 -43.5 -8s-21 -12 -28 -20
s-12.333 -16.667 -16 -26s-6.5 -18 -8.5 -26c-3.33301 -12 -5.16602 -26 -5.49902 -42s-0.5 -29.333 -0.5 -40v-200c0 -19.333 -5.66699 -33.333 -17 -42s-28.666 -13 -51.999 -13c-20 0 -36.5 4.16699 -49.5 12.5s-19.5 22.5 -19.5 42.5v262c0 29.333 -3 50.666 -9 63.999
s-15.167 22.666 -27.5 27.999s-27.166 8 -44.499 8s-31.833 -2.83301 -43.5 -8.5s-21 -12.667 -28 -21s-12.333 -17.166 -16 -26.499s-6.5 -18 -8.5 -26c-3.33301 -12 -5.16602 -25.667 -5.49902 -41s-0.5 -28.333 -0.5 -39v-197c0 -20.667 -5.5 -35.5 -16.5 -44.5
s-29.167 -13.5 -54.5 -13.5c-20.667 0 -37 4.33301 -49 13s-18 23 -18 43v413c0 18 5.16699 32.667 15.5 44s28.166 17 53.499 17c17.333 0 32.666 -3.83301 45.999 -11.5s20 -23.167 20 -46.5v-12c12.667 20 30.834 38 54.501 54s54.834 24 93.501 24z" />
    <glyph glyph-name="n" unicode="n" horiz-adv-x="611" 
d="M359 531c34.667 0 63.502 -5.49805 86.502 -16.498s42.833 -26.833 59.5 -47.5c17.333 -22.667 27.666 -47.834 30.999 -75.501s5 -53.834 5 -78.501v-265c0 -19.333 -5.66699 -33.333 -17 -42s-28.666 -13 -51.999 -13c-20 0 -36.5 4.16699 -49.5 12.5
s-19.5 22.5 -19.5 42.5v262c0 29.333 -3 50.666 -9 63.999s-15.167 22.666 -27.5 27.999s-27.166 8 -44.499 8c-18 0 -33.333 -2.83301 -46 -8.5s-23.334 -12.667 -32.001 -21s-15.334 -17.166 -20.001 -26.499s-8 -18 -10 -26c-3.33301 -12 -5.16602 -25.667 -5.49902 -41
s-0.5 -28.333 -0.5 -39v-197c0 -20.667 -5.5 -35.5 -16.5 -44.5s-29.167 -13.5 -54.5 -13.5c-20.667 0 -37 4.33301 -49 13s-18 23 -18 43v413c0 18 5.16699 32.667 15.5 44s28.166 17 53.499 17c17.333 0 32.666 -3.83301 45.999 -11.5s20 -23.167 20 -46.5v-12
c14 20.667 34.167 38.834 60.5 54.501s57.5 23.5 93.5 23.5z" />
    <glyph glyph-name="o" unicode="o" horiz-adv-x="619" 
d="M576 260c0 -42 -6.33301 -80 -19 -114s-30.667 -63 -54 -87s-51.333 -42.667 -84 -56s-69 -20 -109 -20c-41.333 0 -78.5 6.5 -111.5 19.5s-61 31.5 -84 55.5s-40.667 53 -53 87s-18.5 71.667 -18.5 113s6.5 78.833 19.5 112.5s31.333 62.334 55 86.001
s51.834 42 84.501 55s69 19.5 109 19.5s76.167 -6.5 108.5 -19.5s60.166 -31.167 83.499 -54.5s41.333 -51.833 54 -85.5s19 -70.834 19 -111.501zM437 256c0 49.333 -11 88 -33 116s-53.333 42 -94 42c-38.667 0 -69.167 -13.833 -91.5 -41.5s-33.5 -66.5 -33.5 -116.5
s11.167 -88.667 33.5 -116s52.833 -41 91.5 -41c40 0 71.167 13.667 93.5 41s33.5 66 33.5 116z" />
    <glyph glyph-name="p" unicode="p" horiz-adv-x="622" 
d="M70 463c0 17.333 5.67188 31.665 17.0049 42.998s29.666 17 54.999 17c16.667 0 31.834 -3.5 45.501 -10.5s20.5 -20.833 20.5 -41.5v-19c5.33301 8 12.5 16.667 21.5 26s19.833 18 32.5 26s27 14.5 43 19.5s34 7.5 54 7.5c36 0 67.667 -6.83301 95 -20.5
s50.166 -32.667 68.499 -57s32 -53.166 41 -86.499s13.5 -69.666 13.5 -108.999c0 -40 -5.16699 -76.833 -15.5 -110.5s-25.333 -62.667 -45 -87s-43.834 -43.333 -72.501 -57s-61.334 -20.5 -98.001 -20.5c-26.667 0 -48.834 3.16699 -66.501 9.5s-32.167 13.5 -43.5 21.5
c-12.667 8.66699 -23 19 -31 31v-200c0 -20.667 -5.33301 -35.5 -16 -44.5s-28.334 -13.5 -53.001 -13.5c-44 0 -66 18.333 -66 55v621zM435.005 255.999c0 22.667 -2.50098 43.668 -7.50098 63.001s-12.333 36.166 -22 50.499s-21.667 25.5 -36 33.5s-30.833 12 -49.5 12
c-19.333 0 -36.166 -4 -50.499 -12s-26.5 -19.167 -36.5 -33.5s-17.5 -31.166 -22.5 -50.499s-7.5 -40.333 -7.5 -63c0 -48.667 10 -87.334 30 -116.001s49 -43 87 -43s66.667 15 86 45s29 68 29 114z" />
    <glyph glyph-name="q" unicode="q" horiz-adv-x="621" 
d="M551 -158c0 -36.667 -21.998 -55 -65.998 -55c-24.667 0 -42.334 4.33301 -53.001 13s-16 22.667 -16 42v210c-8.66699 -13.333 -20 -25 -34 -35c-12 -8.66699 -27.333 -16.5 -46 -23.5s-41.334 -10.5 -68.001 -10.5c-36 0 -68 6.83301 -96 20.5s-51.333 32.667 -70 57
s-32.834 53.333 -42.501 87s-14.5 70.5 -14.5 110.5c0 39.333 5 75.666 15 108.999s24.5 62.166 43.5 86.499s42.5 43.333 70.5 57s60 20.5 96 20.5c20 0 37.833 -2.33301 53.5 -7s29.334 -10.667 41.001 -18s21.5 -15.666 29.5 -24.999s14.333 -18.333 19 -27v17
c0 20.667 6.83301 34.5 20.5 41.5s28.834 10.5 45.501 10.5c25.333 0 43.666 -5.66699 54.999 -17s17 -25.666 17 -42.999v-621zM187.002 256c0 -46 9.50098 -84.001 28.501 -114.001s47.5 -45 85.5 -45s67 14.333 87 43s30 67.334 30 116.001c0 22.667 -2.5 43.667 -7.5 63
s-12.167 36.166 -21.5 50.499s-21.333 25.5 -36 33.5s-31.334 12 -50.001 12s-35.167 -4 -49.5 -12s-26.5 -19.167 -36.5 -33.5s-17.5 -31.166 -22.5 -50.499s-7.5 -40.333 -7.5 -63z" />
    <glyph glyph-name="r" unicode="r" horiz-adv-x="399" 
d="M327 531c15.333 0 27.3311 -2.33008 35.998 -6.99707s15.167 -10.334 19.5 -17.001s7 -13.667 8 -21s1.5 -14 1.5 -20s-0.5 -12.5 -1.5 -19.5s-3.5 -13.5 -7.5 -19.5s-9.66699 -11.333 -17 -16s-17.333 -8 -30 -10l-39.5 -8c-13 -2.66699 -27.167 -7.66699 -42.5 -15
c-21.333 -10.667 -34.666 -27.334 -39.999 -50.001s-8 -50 -8 -82v-195c0 -20.667 -5.33301 -35.667 -16 -45s-28 -14 -52 -14c-45.333 0 -68 19.667 -68 59v415c0 14.667 4.83301 27.5 14.5 38.5s27.167 16.5 52.5 16.5c19.333 0 35 -3.33301 47 -10s18 -18.667 18 -36v-22
c13.333 21.333 30.333 39.666 51 54.999s45.334 23 74.001 23z" />
    <glyph glyph-name="s" unicode="s" horiz-adv-x="523" 
d="M477 151c0 -56 -20.3291 -98.001 -60.9961 -126.001s-96 -42 -166 -42c-40 0 -75.833 4.66699 -107.5 14s-57.167 21 -76.5 35c-8.66699 6 -15.167 12.833 -19.5 20.5s-6.5 15.167 -6.5 22.5c0 13.333 3.33301 26 10 38c5.33301 10 12.166 18.333 20.499 25
s18.166 10 29.499 10c10 0 19.667 -3 29 -9l31.5 -20c11.667 -7.33301 25.167 -14 40.5 -20s34.666 -9 57.999 -9c28.667 0 49.334 4.66699 62.001 14s19 22 19 38c0 12 -4.5 23 -13.5 33s-27.5 17.333 -55.5 22l-60 10c-24.667 4 -47.167 9.83301 -67.5 17.5
s-37.833 17.667 -52.5 30s-26 27.333 -34 45s-12 39.167 -12 64.5c0 26.667 5.33301 50.334 16 71.001s25.667 38.167 45 52.5s42.5 25.166 69.5 32.499s56.5 11 88.5 11c46.667 0 84.667 -5.5 114 -16.5s51 -22.167 65 -33.5c8.66699 -7.33301 14.667 -14.666 18 -21.999
s5 -14.666 5 -21.999c0 -16 -4.33301 -29.667 -13 -41c-5.33301 -6.66699 -10.833 -11.834 -16.5 -15.501s-12.834 -5.5 -21.501 -5.5c-7.33301 0 -14.833 1.5 -22.5 4.5s-14.167 6.16699 -19.5 9.5c-18 10.667 -35.333 19.334 -52 26.001s-38.334 10 -65.001 10
c-26 0 -45.167 -4.5 -57.5 -13.5s-18.5 -20.167 -18.5 -33.5c0 -12 4.5 -22.5 13.5 -31.5s28.5 -16.167 58.5 -21.5l53 -10c60.667 -11.333 104.5 -29.333 131.5 -54s40.5 -61.334 40.5 -110.001z" />
    <glyph glyph-name="t" unicode="t" horiz-adv-x="383" 
d="M223 -17c-44 0 -79 11.8311 -105 35.498s-39 60.5 -39 110.5v283h-43c-11.333 0 -19.666 6 -24.999 18s-8 23.667 -8 35c0 12 2.5 23.167 7.5 33.5s13.167 15.5 24.5 15.5h44v95c0 12 2.83301 22.167 8.5 30.5s13 15 22 20s18.667 8.66699 29 11s20.5 3.5 30.5 3.5
c17.333 0 29.5 -4.16699 36.5 -12.5s10.5 -18.833 10.5 -31.5v-116h82c13.333 0 22.666 -4.83301 27.999 -14.5s8 -21.167 8 -34.5c0 -35.333 -12.333 -53 -37 -53h-81v-267c0 -15.333 2.83301 -26.166 8.5 -32.499s14.5 -9.5 26.5 -9.5c8 0 15 1.16699 21 3.5l17 6.5l16 7
c5.33301 2.66699 11.333 4 18 4c17.333 0 29.666 -6.66699 36.999 -20s11 -27.666 11 -42.999c0 -10.667 -1.83301 -20.167 -5.5 -28.5s-10.167 -15.5 -19.5 -21.5c-13.333 -8.66699 -30.166 -15.5 -50.499 -20.5s-44.5 -7.5 -72.5 -7.5z" />
    <glyph glyph-name="u" unicode="u" horiz-adv-x="611" 
d="M250 -17c-62.667 0 -110.668 20.667 -144.001 62c-17.333 22.667 -27.666 48.167 -30.999 76.5s-5 54.833 -5 79.5v265c0 19.333 5.66699 33.333 17 42s28.666 13 51.999 13c20 0 36.5 -4.16699 49.5 -12.5s19.5 -22.5 19.5 -42.5v-265c0 -14 0.666992 -26.5 2 -37.5
s3.66602 -19.833 6.99902 -26.5c6 -13.333 15.167 -22.666 27.5 -27.999s27.166 -8 44.499 -8c18 0 33.333 2.83301 46 8.5s23.334 12.667 32.001 21s15.334 17.166 20.001 26.499s8 18 10 26c3.33301 12 5.16602 25.667 5.49902 41s0.5 28.333 0.5 39v200
c0 20.667 5.5 35.5 16.5 44.5s29.167 13.5 54.5 13.5c20.667 0 37 -4.33301 49 -13s18 -23 18 -43v-411c0 -18 -5.16699 -32.667 -15.5 -44s-28.166 -17 -53.499 -17c-17.333 0 -32.666 3.83301 -45.999 11.5s-20 23.167 -20 46.5v9c-12.667 -19.333 -31.667 -37 -57 -53
s-58.333 -24 -99 -24z" />
    <glyph glyph-name="v" unicode="v" horiz-adv-x="539" 
d="M345 35c-7.33301 -15.333 -16.666 -26.3301 -27.999 -32.9971s-27.333 -10 -48 -10c-13.333 0 -24.166 1.33301 -32.499 4s-15.333 6.16699 -21 10.5s-10.167 9.16602 -13.5 14.499s-6.33301 10.666 -9 15.999l-171 388c-4.66699 10 -7.33398 18 -8.00098 24
s-1 11.333 -1 16c0 17.333 6.83301 31 20.5 41s32.167 15 55.5 15c20 0 34.833 -3.83301 44.5 -11.5s17.167 -18.167 22.5 -31.5l97 -245c10.667 -28.667 17.334 -53.667 20.001 -75c3.33301 23.333 10.666 48.666 21.999 75.999l97 243c6 15.333 13.667 26.5 23 33.5
s22.666 10.5 39.999 10.5c23.333 0 41 -5.5 53 -16.5s18 -24.5 18 -40.5c0 -5.33301 -0.5 -11.5 -1.5 -18.5s-3.16699 -14.167 -6.5 -21.5z" />
    <glyph glyph-name="w" unicode="w" horiz-adv-x="767" 
d="M676 521c24.667 0 43.0049 -5.50195 55.0049 -16.502s18 -24.833 18 -41.5c0 -4.66699 -0.5 -10.334 -1.5 -17.001s-3.16699 -14 -6.5 -22l-132 -385c-3.33301 -10.667 -10.333 -21 -21 -31s-29 -15 -55 -15c-27.333 0 -45.833 4.66699 -55.5 14s-16.167 20 -19.5 32
l-76 286l-69 -283c-4 -16.667 -12.833 -29 -26.5 -37s-30.834 -12 -51.501 -12c-26 0 -44.167 4.66699 -54.5 14s-17.5 19.666 -21.5 30.999l-133 387c-3.33301 10 -5.5 18 -6.5 24s-1.5 11 -1.5 15c0 18 6.66699 32 20 42s31.666 15 54.999 15c16 0 29.667 -3.33301 41 -10
s19.666 -19 24.999 -37l65 -235c2 -7.33301 4.33301 -18.666 7 -33.999s4.66699 -27.666 6 -36.999c4 28.667 8.33301 51.334 13 68.001l62 240c8 30 31.667 45 71 45c13.333 0 24.333 -1.16699 33 -3.5s15.667 -5.5 21 -9.5s9.33301 -8.83301 12 -14.5s5 -11.5 7 -17.5
l68 -251c3.33301 -12.667 5.66602 -24.667 6.99902 -36s2.66602 -20.666 3.99902 -27.999l5 29c2 11.333 4.66699 24 8 38l64 247c4.66699 17.333 12.5 29.333 23.5 36s24.5 10 40.5 10z" />
    <glyph glyph-name="x" unicode="x" horiz-adv-x="512" 
d="M473 89c9.33301 -12.667 14.001 -25.666 14.001 -38.999c0 -14 -6.66699 -27 -20 -39s-31 -18 -53 -18c-18 0 -32.167 5 -42.5 15s-18.5 19 -24.5 27l-93 125l-101 -132c-7.33301 -9.33301 -15.166 -17.5 -23.499 -24.5s-20.833 -10.5 -37.5 -10.5
c-22.667 0 -40.5 6.5 -53.5 19.5s-19.5 26.167 -19.5 39.5c0 14.667 8.33301 32.334 25 53.001l128 160l-121 159c-8.66699 11.333 -13 23.666 -13 36.999c0 8 2 15.5 6 22.5s9.5 13.333 16.5 19s15.167 10.167 24.5 13.5s19.333 5 30 5
c15.333 0 27.166 -3.66699 35.499 -11s16.833 -17 25.5 -29l81 -111l80 108c9.33301 12 18.166 22.167 26.499 30.5s19.5 12.5 33.5 12.5c10.667 0 20.667 -1.66699 30 -5s17.333 -7.83301 24 -13.5s12 -11.834 16 -18.501s6 -13 6 -19c0 -13.333 -5 -27 -15 -41l-120 -157z
" />
    <glyph glyph-name="y" unicode="y" horiz-adv-x="539" 
d="M198 30l-175.998 395c-4.66699 10 -7.33398 18 -8.00098 24s-1 11.333 -1 16c0 17.333 6.83301 31 20.5 41s32.167 15 55.5 15c20 0 34.833 -3.83301 44.5 -11.5s17.167 -18.167 22.5 -31.5l115 -291l121 290c6.66699 15.333 14.5 26.5 23.5 33.5s22.167 10.5 39.5 10.5
c23.333 0 41 -5.5 53 -16.5s18 -24.5 18 -40.5c0 -5.33301 -0.5 -11.5 -1.5 -18.5s-3.16699 -14.167 -6.5 -21.5l-260 -581c-7.33301 -17.333 -16.833 -31 -28.5 -41s-26.167 -15 -43.5 -15c-22 0 -38.833 5.83301 -50.5 17.5s-17.5 24.5 -17.5 38.5
c0 8 1.66699 16.5 5 25.5s6.66602 16.833 9.99902 23.5z" />
    <glyph glyph-name="z" unicode="z" horiz-adv-x="515" 
d="M437 514c15.333 0 27.499 -4.50195 36.499 -13.502s13.5 -21.833 13.5 -38.5c0 -15.333 -2.66699 -28.166 -8 -38.499s-12.333 -20.166 -21 -29.499l-253 -283h245c12.667 0 22.834 -4.83301 30.501 -14.5s11.5 -22.5 11.5 -38.5c0 -17.333 -3.33301 -31.333 -10 -42
s-18.667 -16 -36 -16h-373c-15.333 0 -27.666 5 -36.999 15s-14 22.667 -14 38s3.5 29.333 10.5 42s14.833 23.667 23.5 33l243 275h-218c-17.333 0 -29.333 5.66699 -36 17s-10 25 -10 41c0 15.333 3.66699 28 11 38s17.666 15 30.999 15h360z" />
    <glyph glyph-name="braceleft" unicode="{" horiz-adv-x="362" 
d="M296 -21c19.333 0 32.999 -5.16504 40.999 -15.498s12 -24.166 12 -41.499c0 -38.667 -18.667 -58 -56 -58h-49c-22 0 -41.833 3.66699 -59.5 11s-32.5 17.166 -44.5 29.499s-21.167 27.166 -27.5 44.499s-9.5 36 -9.5 56v179c0 21.333 -3.83301 36.333 -11.5 45
s-21.167 14 -40.5 16c-16 1.33301 -27.167 8.16602 -33.5 20.499s-9.5 25.166 -9.5 38.499c0 15.333 3.5 28.5 10.5 39.5s17.833 17.5 32.5 19.5c20.667 2.66699 34.5 8.16699 41.5 16.5s10.5 23.166 10.5 44.499v173c0 40.667 12.333 74.334 37 101.001
s59.334 40 104.001 40h52c17.333 0 30.5 -5.16699 39.5 -15.5s13.5 -24.5 13.5 -42.5c0 -17.333 -4 -31 -12 -41s-21.667 -15 -41 -15c-20 0 -35.333 -4.33301 -46 -13s-16 -23.667 -16 -45v-164c0 -22.667 -3.66699 -42.167 -11 -58.5s-23.333 -29.5 -48 -39.5
c25.333 -10 41.5 -23.833 48.5 -41.5s10.5 -36.5 10.5 -56.5v-170c0 -21.333 4.83301 -36.166 14.5 -44.499s25.5 -12.5 47.5 -12.5z" />
    <glyph glyph-name="bar" unicode="|" horiz-adv-x="298" 
d="M83 690c0.666992 16 6.83398 28.001 18.501 36.001s27.5 12 47.5 12c18.667 0 34.5 -3.5 47.5 -10.5s19.5 -19.833 19.5 -38.5v-776c0 -18.667 -6.5 -31.5 -19.5 -38.5s-28.833 -10.5 -47.5 -10.5c-20.667 0 -36.834 4.16699 -48.501 12.5s-17.5 21.166 -17.5 38.499v775
z" />
    <glyph glyph-name="braceright" unicode="}" horiz-adv-x="362" 
d="M66 -21c22 0 37.832 4.16504 47.499 12.498s14.5 23.166 14.5 44.499v170c0 20 3.5 38.833 10.5 56.5s23.167 31.5 48.5 41.5c-24.667 10 -40.667 23.167 -48 39.5s-11 35.833 -11 58.5v164c0 21.333 -5.33301 36.333 -16 45s-26 13 -46 13c-19.333 0 -33 5 -41 15
s-12 23.667 -12 41c0 18 4.5 32.167 13.5 42.5s22.167 15.5 39.5 15.5h52c44.667 0 79.334 -13.333 104.001 -40s37 -60.334 37 -101.001v-173c0 -21.333 3.5 -36.166 10.5 -44.499s20.833 -13.833 41.5 -16.5c14.667 -2 25.5 -8.5 32.5 -19.5s10.5 -24.167 10.5 -39.5
c0 -13.333 -3.16699 -26.166 -9.5 -38.499s-17.5 -19.166 -33.5 -20.499c-19.333 -2 -32.833 -7.33301 -40.5 -16s-11.5 -23.667 -11.5 -45v-179c0 -20 -3.16699 -38.667 -9.5 -56s-15.5 -32.166 -27.5 -44.499s-26.833 -22.166 -44.5 -29.499s-37.5 -11 -59.5 -11h-49
c-37.333 0 -56 19.333 -56 58c0 17.333 4 31.166 12 41.499s21.667 15.5 41 15.5z" />
    <glyph glyph-name="asciitilde" unicode="~" horiz-adv-x="641" 
d="M442 174c-23.333 0 -45.167 3.00098 -65.5 9.00098s-39.833 13.667 -58.5 23l-54 28c-14 7.33301 -25.167 12.333 -33.5 15s-17.166 4 -26.499 4c-16.667 0 -30 -4.5 -40 -13.5s-19 -19.167 -27 -30.5c-7.33301 -10.667 -14.666 -19.167 -21.999 -25.5
s-16.666 -9.5 -27.999 -9.5c-7.33301 0 -15.166 1.33301 -23.499 4s-16.166 6.5 -23.499 11.5s-13.333 11 -18 18s-7 14.833 -7 23.5c0 16 4 31.5 12 46.5s17 28.5 27 40.5c19.333 24 42.666 42.667 69.999 56s53.666 20 78.999 20c22 0 42.833 -3 62.5 -9
s38.834 -13.667 57.501 -23l55 -28c14 -7.33301 25.667 -12.5 35 -15.5s19.666 -4.5 30.999 -4.5c17.333 0 30.666 4.66699 39.999 14s17 20.666 23 33.999c6 12.667 12.667 21.5 20 26.5s15.666 7.5 24.999 7.5c8 0 16.333 -1.33301 25 -4s16.5 -6.5 23.5 -11.5
s12.667 -11.333 17 -19s6.5 -16.167 6.5 -25.5c0 -10 -1.33301 -18 -4 -24c-6 -20.667 -15.167 -39.5 -27.5 -56.5s-26.5 -31.5 -42.5 -43.5s-33.333 -21.333 -52 -28s-37.334 -10 -56.001 -10z" />
    <glyph glyph-name="uni00A0" unicode="&#xa0;" horiz-adv-x="245" 
 />
    <glyph glyph-name="exclamdown" unicode="&#xa1;" horiz-adv-x="296" 
d="M227 451c0 -22 -7.83301 -40.833 -23.5 -56.5s-34.5 -23.5 -56.5 -23.5s-40.833 7.83301 -56.5 23.5s-23.5 34.5 -23.5 56.5s7.83301 40.833 23.5 56.5s34.5 23.5 56.5 23.5s40.833 -7.83301 56.5 -23.5s23.5 -34.5 23.5 -56.5zM83 259
c0.666992 17.333 6.33203 30.167 16.999 38.5s25.667 12.5 45 12.5c40.667 0 62 -17.333 64 -52l15 -268v-122c0 -18 -7.5 -31.667 -22.5 -41s-34.167 -14 -57.5 -14c-21.333 0 -39.166 4.66699 -53.499 14s-21.5 23.333 -21.5 42v121z" />
    <glyph glyph-name="cent" unicode="&#xa2;" horiz-adv-x="610" 
d="M285 82c-39.333 4.66699 -73.0039 14.8242 -101.004 30.4912s-51 35.167 -69 58.5s-31.167 49.666 -39.5 78.999s-12.5 60 -12.5 92c0 40.667 5.66699 76.834 17 108.501s27 58.834 47 81.501s43.5 40.834 70.5 54.501s56.167 23.167 87.5 28.5v66
c0 14.667 4.16699 24.834 12.5 30.501s18.166 8.5 29.499 8.5c10 0 19.5 -2.66699 28.5 -8s13.5 -16.666 13.5 -33.999v-63c28 -4 52.833 -11.167 74.5 -21.5s40 -22.166 55 -35.499s26.333 -27 34 -41s11.5 -26.333 11.5 -37c0 -17.333 -6 -31.666 -18 -42.999
s-26.667 -17 -44 -17c-12.667 0 -22.667 2.83301 -30 8.5s-14.666 12.834 -21.999 21.501c-17.333 20 -37.666 34.333 -60.999 43v-290c13.333 4 25 9.66699 35 17s19.333 14.666 28 21.999s16.667 13.666 24 18.999s15 8 23 8s15.833 -2 23.5 -6s14.334 -9 20.001 -15
s10.334 -12.833 14.001 -20.5s5.5 -15.5 5.5 -23.5c0 -12 -4.5 -24.333 -13.5 -37s-21.167 -24.667 -36.5 -36s-33.5 -21.166 -54.5 -29.499s-43.833 -14.166 -68.5 -17.499v-67c0 -17.333 -4.5 -28.666 -13.5 -33.999s-18.5 -8 -28.5 -8
c-11.333 0 -21.166 2.83301 -29.499 8.5s-12.5 15.834 -12.5 30.501v68zM197.996 349.99c0 -14 1.33008 -28.668 3.99707 -44.001s7.33398 -29.666 14.001 -42.999s15.667 -25.333 27 -36s25.333 -18.667 42 -24v293c-18 -5.33301 -32.667 -13.5 -44 -24.5
s-20.166 -23.333 -26.499 -37s-10.666 -28 -12.999 -43s-3.5 -28.833 -3.5 -41.5z" />
    <glyph glyph-name="sterling" unicode="&#xa3;" horiz-adv-x="610" 
d="M124 0c-21.333 0 -36.1631 5.16602 -44.4961 15.499s-12.5 22.166 -12.5 35.499c0 9.33301 2.33301 18.333 7 27s13.667 17 27 25c9.33301 6 18.833 12.5 28.5 19.5s18.5 15.167 26.5 24.5s14.5 20.333 19.5 33s7.5 27.667 7.5 45c0 13.333 -1.33301 25.833 -4 37.5
s-6.33398 22.5 -11.001 32.5h-93c-11.333 0 -20.333 4.5 -27 13.5s-10 21.167 -10 36.5s3.33301 27.666 10 36.999s15.667 14 27 14h60c-6.66699 12.667 -12.667 28 -18 46s-8 41 -8 69c0 25.333 5.5 49 16.5 71s26.833 41.333 47.5 58s45.5 29.667 74.5 39
s61.167 14 96.5 14c28 0 52.5 -2.33301 73.5 -7s39.167 -10.167 54.5 -16.5s28 -13.166 38 -20.499s18 -13.666 24 -18.999c12 -11.333 21 -21.666 27 -30.999s9 -20.333 9 -33c0 -17.333 -5.5 -31 -16.5 -41s-24.5 -15 -40.5 -15c-13.333 0 -25 3.16699 -35 9.5
s-20 13.5 -30 21.5c-12.667 10 -26.334 19.5 -41.001 28.5s-33.667 13.5 -57 13.5c-17.333 0 -32 -2.33301 -44 -7s-21.667 -10.834 -29 -18.501s-12.666 -16.5 -15.999 -26.5s-5 -20.333 -5 -31c0 -20.667 2.66699 -39.334 8 -56.001s12 -32.667 20 -48h153
c11.333 0 20.333 -4.66699 27 -14s10 -21.666 10 -36.999c0 -33.333 -12.333 -50 -37 -50h-123c3.33301 -7.33301 6.16602 -16.833 8.49902 -28.5s3.5 -25.5 3.5 -41.5c0 -19.333 -4.83301 -38.666 -14.5 -57.999s-22.834 -36.666 -39.501 -51.999h264
c30.667 0 46 -18.333 46 -55c0 -16.667 -3.83301 -30.834 -11.5 -42.501s-20.834 -17.5 -39.501 -17.5h-407z" />
    <glyph glyph-name="currency" unicode="&#xa4;" horiz-adv-x="631" 
d="M485 81l-52.999 55c-17.333 -8.66699 -35.333 -15.5 -54 -20.5s-38.667 -7.5 -60 -7.5c-20.667 0 -40.334 2.5 -59.001 7.5s-36.667 11.833 -54 20.5l-55 -56c-12.667 -12.667 -27.334 -19 -44.001 -19c-9.33301 0 -18.333 2 -27 6s-16.5 9.5 -23.5 16.5
s-12.5 14.833 -16.5 23.5s-6 17.667 -6 27c0 14.667 5.66699 27.667 17 39l57 57c-9.33301 17.333 -16.666 35.5 -21.999 54.5s-8 39.167 -8 60.5s2.66699 41.5 8 60.5s12.666 37.167 21.999 54.5l-58 57c-6 6 -10.167 12.167 -12.5 18.5s-3.5 13.166 -3.5 20.499
c0 9.33301 2 18.333 6 27s9.5 16.5 16.5 23.5s14.833 12.5 23.5 16.5s17.667 6 27 6c16 0 30.667 -6.66699 44 -20l55 -54c17.333 8.66699 35.333 15.334 54 20.001s38.334 7 59.001 7c20 0 39.5 -2.5 58.5 -7.5s37.167 -11.833 54.5 -20.5l54 55c13.333 13.333 28 20 44 20
c9.33301 0 18.333 -2 27 -6s16.5 -9.5 23.5 -16.5s12.5 -14.833 16.5 -23.5s6 -17.667 6 -27c0 -15.333 -6 -29 -18 -41l-55 -55c9.33301 -17.333 16.666 -35.5 21.999 -54.5s8 -39.167 8 -60.5c0 -20.667 -2.66699 -40.667 -8 -60s-12.666 -37.666 -21.999 -54.999l57 -57
c6 -6 10.167 -12.333 12.5 -19s3.5 -13.334 3.5 -20.001c0 -9.33301 -2 -18.333 -6 -27s-9.5 -16.5 -16.5 -23.5s-14.833 -12.5 -23.5 -16.5s-17.667 -6 -27 -6c-16 0 -30.667 6.66699 -44 20zM437.001 345c0 17.333 -3.16699 33.5 -9.5 48.5s-14.833 28.167 -25.5 39.5
s-23.334 20.333 -38.001 27s-30.334 10 -47.001 10c-17.333 0 -33.166 -3.33301 -47.499 -10s-26.833 -15.667 -37.5 -27s-19 -24.5 -25 -39.5s-9 -31.167 -9 -48.5s3 -33.5 9 -48.5s14.333 -28.167 25 -39.5s23.167 -20.333 37.5 -27s30.166 -10 47.499 -10
c16.667 0 32.334 3.33301 47.001 10s27.334 15.667 38.001 27s19.167 24.5 25.5 39.5s9.5 31.167 9.5 48.5z" />
    <glyph glyph-name="yen" unicode="&#xa5;" horiz-adv-x="610" 
d="M425 399l81.001 -0.00195312c13.333 0 22.666 -4.5 27.999 -13.5s8 -20.167 8 -33.5c0 -33.333 -12.333 -50 -37 -50h-131v-60h131c13.333 0 22.666 -4.33301 27.999 -13s8 -19.667 8 -33c0 -17.333 -3.33301 -29.833 -10 -37.5s-15.667 -11.5 -27 -11.5h-130v-96
c0 -15.333 -5 -28.833 -15 -40.5s-28 -17.5 -54 -17.5c-47.333 0 -71 19.333 -71 58v96h-127c-11.333 0 -20 5 -26 15s-9 20.667 -9 32c0 12 2.83301 23 8.5 33s14.167 15 25.5 15h128v60h-127c-12.667 0 -21.667 5.33301 -27 16s-8 21.667 -8 33c0 12 2.83301 23 8.5 33
s14.167 15 25.5 15h79l-122 183c-10 14 -15 28.667 -15 44c0 16 6.33301 29.333 19 40c6 5.33301 13.667 9.83301 23 13.5s20 5.5 32 5.5c17.333 0 30.333 -4.16699 39 -12.5s16.334 -18.166 23.001 -29.499l124 -202l119 194c8.66699 13.333 17.5 25 26.5 35
s23.167 15 42.5 15c11.333 0 21 -1.83301 29 -5.5s15 -8.16699 21 -13.5c5.33301 -5.33301 10 -11.166 14 -17.499s6 -13.5 6 -21.5c0 -6 -1 -12.667 -3 -20s-5.66699 -15 -11 -23z" />
    <glyph glyph-name="brokenbar" unicode="&#xa6;" horiz-adv-x="298" 
d="M83 215c0.666992 16 6.83398 28.001 18.501 36.001s27.5 12 47.5 12c18.667 0 34.5 -3.5 47.5 -10.5s19.5 -19.833 19.5 -38.5v-300c0 -18.667 -6.5 -31.5 -19.5 -38.5s-28.833 -10.5 -47.5 -10.5c-20.667 0 -36.834 4.16699 -48.501 12.5s-17.5 21.166 -17.5 38.499v299
zM83 690.001c0.666992 16 6.83398 28.001 18.501 36.001s27.5 12 47.5 12c18.667 0 34.5 -3.5 47.5 -10.5s19.5 -19.833 19.5 -38.5v-300c0 -18.667 -6.5 -31.5 -19.5 -38.5s-28.833 -10.5 -47.5 -10.5c-20.667 0 -36.834 4.16699 -48.501 12.5s-17.5 21.166 -17.5 38.499
v299z" />
    <glyph glyph-name="section" unicode="&#xa7;" horiz-adv-x="574" 
d="M384 82c0 15.333 -5.49902 30.0039 -16.499 44.0039s-30.833 22.667 -59.5 26l-96 10c-49.333 5.33301 -89 20 -119 44s-45 57.667 -45 101c0 31.333 8 56.166 24 74.499s35.333 32.833 58 43.5c-24 12 -41.5 28.333 -52.5 49s-16.5 43.334 -16.5 68.001
c0 22.667 5 44.167 15 64.5s24.667 38.166 44 53.499s43.333 27.5 72 36.5s61.667 13.5 99 13.5c43.333 0 83.666 -5.5 120.999 -16.5s67.666 -28.167 90.999 -51.5c10.667 -10.667 16 -23.667 16 -39c0 -14 -4.33301 -26 -13 -36c-10 -11.333 -24 -17 -42 -17
c-16.667 0 -29.167 2.33301 -37.5 7s-18.5 10.667 -30.5 18c-11.333 6.66699 -25.833 13.167 -43.5 19.5s-39.167 9.5 -64.5 9.5c-19.333 0 -34.666 -2 -45.999 -6s-20.166 -9 -26.499 -15s-10.5 -12.833 -12.5 -20.5s-3 -14.834 -3 -21.501s1.16699 -13.5 3.5 -20.5
s6.16602 -13.5 11.499 -19.5s12.5 -11.167 21.5 -15.5s20.5 -7.16602 34.5 -8.49902l82 -7c52.667 -4.66699 94.667 -18.167 126 -40.5s47 -56.833 47 -103.5c0 -28.667 -7.5 -52.667 -22.5 -72s-34.833 -34.333 -59.5 -45c30 -14 51 -32.833 63 -56.5s18 -48.5 18 -74.5
c0 -27.333 -6 -51.833 -18 -73.5s-28.5 -39.834 -49.5 -54.501s-46 -25.834 -75 -33.501s-60.5 -11.5 -94.5 -11.5c-42.667 0 -83 5.16699 -121 15.5s-69.333 24.166 -94 41.499c-18 13.333 -27 29.666 -27 48.999c0 11.333 2.66699 22 8 32s12.333 18 21 24s18.667 9 30 9
c10 0 19.667 -3.16699 29 -9.5s20.5 -13.5 33.5 -21.5s29 -15.333 48 -22s43.167 -10 72.5 -10c32 0 56 6.33301 72 19s24 29.334 24 50.001zM396.001 312.004c0 6 -1.66504 12.3311 -4.99805 18.998s-9.83301 12.667 -19.5 18s-23 9.83301 -40 13.5s-38.833 5.5 -65.5 5.5
c-19.333 0 -34.833 -1.66699 -46.5 -5s-20.5 -7.5 -26.5 -12.5s-10 -10.333 -12 -16s-3 -11.167 -3 -16.5c0 -4 1.5 -9.16699 4.5 -15.5s9 -12.333 18 -18s21.667 -10.5 38 -14.5s38.166 -6 65.499 -6c20 0 36.167 1.33301 48.5 4s21.666 6.33398 27.999 11.001
s10.5 9.83398 12.5 15.501s3 11.5 3 17.5z" />
    <glyph glyph-name="dieresis" unicode="&#xa8;" horiz-adv-x="496" 
d="M374 735c18 0 34.499 -5.5 49.499 -16.5s22.5 -28.167 22.5 -51.5c0 -20.667 -6.66699 -37.167 -20 -49.5s-30.666 -18.5 -51.999 -18.5s-38.666 6.16699 -51.999 18.5s-20 28.833 -20 49.5c0 20 6.66699 36.333 20 49s30.666 19 51.999 19zM140.999 735
c18 0 34.499 -5.5 49.499 -16.5s22.5 -28.167 22.5 -51.5c0 -20.667 -6.66699 -37.167 -20 -49.5s-30.666 -18.5 -51.999 -18.5s-38.666 6.16699 -51.999 18.5s-20 28.833 -20 49.5c0 20 6.66699 36.333 20 49s30.666 19 51.999 19z" />
    <glyph glyph-name="copyright" unicode="&#xa9;" horiz-adv-x="858" 
d="M818 355c0 -51.333 -10.167 -99.666 -30.5 -144.999s-48.166 -85 -83.499 -119s-76.5 -60.833 -123.5 -80.5s-97.5 -29.5 -151.5 -29.5c-62 0 -117 9.83301 -165 29.5s-88.667 46.5 -122 80.5s-58.666 73.667 -75.999 119s-26 93.666 -26 144.999
s10.167 99.666 30.5 144.999s48.166 85 83.499 119s76.5 60.833 123.5 80.5s97.5 29.5 151.5 29.5s104.5 -9.83301 151.5 -29.5s88.167 -46.5 123.5 -80.5s63.166 -73.667 83.499 -119s30.5 -93.666 30.5 -144.999zM714 355c0 38.667 -7.50195 75.334 -22.502 110.001
s-35.5 64.834 -61.5 90.501s-56.333 46 -91 61s-71.334 22.5 -110.001 22.5c-39.333 0 -76.166 -7.5 -110.499 -22.5s-64.5 -35.333 -90.5 -61s-46.5 -55.834 -61.5 -90.501s-22.5 -71.334 -22.5 -110.001c0 -39.333 6.83301 -76.166 20.5 -110.499
s32.834 -64.333 57.501 -90s54.5 -46 89.5 -61s74.167 -22.5 117.5 -22.5c38.667 0 75.334 7.5 110.001 22.5s65 35.333 91 61s46.5 55.667 61.5 90s22.5 71.166 22.5 110.499zM427.998 138c-29.333 0 -56.5 5.00195 -81.5 15.002s-46.667 24.5 -65 43.5
s-32.666 41.833 -42.999 68.5s-15.5 57 -15.5 91c0 32.667 5 62.5 15 89.5s24.333 50 43 69s41 33.833 67 44.5s54.667 16 86 16c35.333 0 66.833 -7.66699 94.5 -23s50.167 -37 67.5 -65c5.33301 -7.33301 9.5 -14.666 12.5 -21.999s4.5 -15.666 4.5 -24.999
c0 -12.667 -4.66699 -22.834 -14 -30.501s-20.666 -11.5 -33.999 -11.5c-10 0 -18.333 2.33301 -25 7s-13.667 12 -21 22c-12.667 17.333 -25.334 31.166 -38.001 41.499s-30.667 15.5 -54 15.5c-28.667 0 -51.834 -11.167 -69.501 -33.5s-26.5 -53.833 -26.5 -94.5
s8.83301 -72.334 26.5 -95.001s43.834 -34 78.501 -34c18 0 33.5 3.5 46.5 10.5s26.167 18.833 39.5 35.5c7.33301 9.33301 14.166 16.666 20.499 21.999s13.833 8 22.5 8c13.333 0 24.666 -4 33.999 -12s14 -17.667 14 -29c0 -14 -3.66699 -27 -11 -39
s-15.666 -22.667 -24.999 -32c-16.667 -17.333 -38 -30.5 -64 -39.5s-54.333 -13.5 -85 -13.5z" />
    <glyph glyph-name="ordfeminine" unicode="&#xaa;" horiz-adv-x="376" 
d="M351 371c0 -14 -5.00195 -23.9961 -15.002 -29.9961s-23.333 -9 -40 -9c-14 0 -25.833 3 -35.5 9s-14.5 16 -14.5 30v11c-9.33301 -13.333 -22.666 -25 -39.999 -35s-42 -15 -74 -15c-36.667 0 -65.667 9.83301 -87 29.5s-32 45.5 -32 77.5
c0 18.667 3.16699 34.667 9.5 48s15 24.666 26 33.999s23.833 16.666 38.5 21.999s30.334 9.33301 47.001 12c17.333 3.33301 35 6.16602 53 8.49902s37.667 4.16602 59 5.49902v12c0 14.667 -3.83301 26.167 -11.5 34.5s-24.167 12.5 -49.5 12.5
c-12.667 0 -26.167 -1.5 -40.5 -4.5s-26.833 -10.5 -37.5 -22.5c-5.33301 -5.33301 -10.5 -9.66602 -15.5 -12.999s-11.5 -5 -19.5 -5c-7.33301 0 -13.333 1.16699 -18 3.5s-9 5.16602 -13 8.49902c-9.33301 9.33301 -14 20.666 -14 33.999
c0 8.66699 3.66699 17.834 11 27.501s18 18.5 32 26.5s31.167 14.667 51.5 20s43.5 8 69.5 8c54 0 94.167 -10.5 120.5 -31.5s39.5 -53.833 39.5 -98.5v-210zM245.998 506.004c-18 -2 -32.667 -4.00195 -44 -6.00195s-20.666 -4 -27.999 -6
c-22.667 -4.66699 -37.334 -11.167 -44.001 -19.5s-10 -17.166 -10 -26.499c0 -11.333 3.66699 -20.166 11 -26.499s19.666 -9.5 36.999 -9.5c24.667 0 43.834 6.5 57.501 19.5s20.5 30.167 20.5 51.5v23z" />
    <glyph glyph-name="guillemotleft" unicode="&#xab;" horiz-adv-x="556" 
d="M38 228c-10 12 -15 25.9951 -15 41.9951c0 14.667 4.33301 27.334 13 38.001l134 154c12.667 15.333 28.334 23 47.001 23c7.33301 0 14.666 -1.66699 21.999 -5s14 -7.66602 20 -12.999s11 -11.5 15 -18.5s6 -14.5 6 -22.5c0 -7.33301 -1.66699 -14.5 -5 -21.5
s-9.33301 -15.167 -18 -24.5l-93 -106l92 -110c8 -9.33301 13.5 -17.166 16.5 -23.499s4.5 -13.166 4.5 -20.499c0 -8 -2 -15.5 -6 -22.5s-9 -13.167 -15 -18.5s-12.833 -9.66602 -20.5 -12.999s-15.167 -5 -22.5 -5c-17.333 0 -33.333 8 -48 24zM281 227.995
c-10 12 -15 25.9951 -15 41.9951c0 14.667 4.33301 27.334 13 38.001l134 154c12.667 15.333 28.334 23 47.001 23c7.33301 0 14.666 -1.66699 21.999 -5s14 -7.66602 20 -12.999s11 -11.5 15 -18.5s6 -14.5 6 -22.5c0 -7.33301 -1.66699 -14.5 -5 -21.5
s-9.33301 -15.167 -18 -24.5l-93 -106l92 -110c8 -9.33301 13.5 -17.166 16.5 -23.499s4.5 -13.166 4.5 -20.499c0 -8 -2 -15.5 -6 -22.5s-9 -13.167 -15 -18.5s-12.833 -9.66602 -20.5 -12.999s-15.167 -5 -22.5 -5c-17.333 0 -33.333 8 -48 24z" />
    <glyph glyph-name="logicalnot" unicode="&#xac;" horiz-adv-x="610" 
d="M401 354l-274 0.000976562c-32 0 -48 20.333 -48 61c0 18.667 3.5 33.667 10.5 45s19.833 17 38.5 17h353c18.667 0 31.334 -5.66699 38.001 -17s10 -26.333 10 -45v-176c0 -18.667 -5.83301 -31.5 -17.5 -38.5s-26.834 -10.5 -45.501 -10.5
c-20.667 0 -36.667 4.16699 -48 12.5s-17 21.166 -17 38.499v113z" />
    <glyph glyph-name="uni00AD" unicode="&#xad;" horiz-adv-x="336" 
d="M63 188c-16 0.666992 -28.001 6.83398 -36.001 18.501s-12 27.5 -12 47.5c0 18.667 3.5 34.5 10.5 47.5s19.833 19.5 38.5 19.5h202c18.667 0 31.5 -6.5 38.5 -19.5s10.5 -28.833 10.5 -47.5c0 -20.667 -4.16699 -36.834 -12.5 -48.501s-21.166 -17.5 -38.499 -17.5h-201
z" />
    <glyph glyph-name="registered" unicode="&#xae;" horiz-adv-x="858" 
d="M818 355c0 -51.333 -10.167 -99.666 -30.5 -144.999s-48.166 -85 -83.499 -119s-76.5 -60.833 -123.5 -80.5s-97.5 -29.5 -151.5 -29.5s-104.5 9.83301 -151.5 29.5s-88.167 46.5 -123.5 80.5s-63.166 73.667 -83.499 119s-30.5 93.666 -30.5 144.999
s10.167 99.666 30.5 144.999s48.166 85 83.499 119s76.5 60.833 123.5 80.5s97.5 29.5 151.5 29.5s104.5 -9.83301 151.5 -29.5s88.167 -46.5 123.5 -80.5s63.166 -73.667 83.499 -119s30.5 -93.666 30.5 -144.999zM714 355c0 38.667 -7.5 75.334 -22.5 110.001
s-35.5 64.834 -61.5 90.501s-56.333 46 -91 61s-71.334 22.5 -110.001 22.5c-39.333 0 -76.166 -7.5 -110.499 -22.5s-64.5 -35.333 -90.5 -61s-46.5 -55.834 -61.5 -90.501s-22.5 -71.334 -22.5 -110.001c0 -39.333 7.5 -76.166 22.5 -110.499s35.5 -64.333 61.5 -90
s56.167 -46 90.5 -61s71.166 -22.5 110.499 -22.5c38.667 0 75.334 7.5 110.001 22.5s65 35.333 91 61s46.5 55.667 61.5 90s22.5 71.166 22.5 110.499zM436 291l-67.999 -0.00292969v-112c0 -11.333 -4.83301 -19.5 -14.5 -24.5s-20.5 -7.5 -32.5 -7.5
c-12.667 0 -24.334 2.5 -35.001 7.5s-16 13.167 -16 24.5v358c0 8.66699 2.16699 16 6.5 22s12.166 9 23.499 9h120c57.333 0 101.5 -10.833 132.5 -32.5s46.5 -56.834 46.5 -105.501c0 -8.66699 -1 -18.167 -3 -28.5s-5.66699 -20.666 -11 -30.999
s-12.333 -20.166 -21 -29.499s-19.334 -17.666 -32.001 -24.999l51 -118c2 -5.33301 3 -10.333 3 -15c0 -11.333 -5.16699 -20.166 -15.5 -26.499s-22.166 -9.5 -35.499 -9.5c-27.333 0 -45.666 11.333 -54.999 34zM494.001 430.997c0 16.667 -5 29.5 -15 38.5
s-26.667 13.5 -50 13.5h-61v-105h61c23.333 0 40 4.66699 50 14s15 22.333 15 39z" />
    <glyph glyph-name="macron" unicode="&#xaf;" horiz-adv-x="346" 
d="M66 615c-16 0 -28.001 3.83301 -36.001 11.5s-12 21.5 -12 41.5c0 18.667 3.5 32.5 10.5 41.5s19.833 13.5 38.5 13.5h212c18.667 0 31.5 -4.5 38.5 -13.5s10.5 -22.833 10.5 -41.5c0 -20.667 -4.16699 -34.667 -12.5 -42s-21.166 -11 -38.499 -11h-211z" />
    <glyph glyph-name="degree" unicode="&#xb0;" horiz-adv-x="394" 
d="M372 545c0 -22.667 -4.5 -44.167 -13.5 -64.5s-21.167 -38 -36.5 -53s-33.333 -26.833 -54 -35.5s-42.667 -13 -66 -13s-45.333 4.33301 -66 13s-38.667 20.5 -54 35.5s-27.5 32.667 -36.5 53s-13.5 41.833 -13.5 64.5s4.5 44.167 13.5 64.5s21.167 38 36.5 53
s33.333 26.833 54 35.5s42.667 13 66 13s45.333 -4.33301 66 -13s38.667 -20.5 54 -35.5s27.5 -32.667 36.5 -53s13.5 -41.833 13.5 -64.5zM280 545c0 21.333 -7.66699 39.835 -23 55.502s-33.666 23.5 -54.999 23.5c-10 0 -19.833 -2.16699 -29.5 -6.5s-18 -10 -25 -17
s-12.667 -15.333 -17 -25s-6.5 -19.834 -6.5 -30.501s2.16699 -20.834 6.5 -30.501s10 -18 17 -25s15.333 -12.667 25 -17s19.5 -6.5 29.5 -6.5c21.333 0 39.666 7.83301 54.999 23.5s23 34.167 23 55.5z" />
    <glyph glyph-name="plusminus" unicode="&#xb1;" horiz-adv-x="610" 
d="M127 333c-32 0.666992 -47.999 21.001 -47.999 61.001c0 18.667 3.5 33.667 10.5 45s19.833 17 38.5 17h108v117c0 16 6.5 28 19.5 36s29.5 12 49.5 12c18.667 0 34.667 -3.5 48 -10.5s20 -19.833 20 -38.5v-116h108c18.667 0 31.5 -5.66699 38.5 -17
s10.5 -26.333 10.5 -45c0 -40.667 -17 -61 -51 -61h-106v-114c0 -18.667 -6.66699 -31.5 -20 -38.5s-29.333 -10.5 -48 -10.5c-20.667 0 -37.334 4.16699 -50.001 12.5s-19 21.166 -19 38.499v112h-109zM127.001 0.000976562c-32 0 -48 20.333 -48 61
c0 18.667 3.5 33.667 10.5 45s19.833 17 38.5 17h353c18.667 0 31.5 -5.66699 38.5 -17s10.5 -26.333 10.5 -45c0 -40.667 -17 -61 -51 -61h-352z" />
    <glyph glyph-name="twosuperior" unicode="&#xb2;" 
d="M229 607c-19.333 0 -33.667 -3.83398 -43 -11.501s-16.666 -15.834 -21.999 -24.501c-6 -9.33301 -12.333 -17 -19 -23s-15.667 -9 -27 -9c-12 0 -22.333 2.66699 -31 8c-8 4.66699 -13.5 10.5 -16.5 17.5s-4.5 14.167 -4.5 21.5c0 8 1.66699 16 5 24
s7.66602 15 12.999 21c6 8 13.333 15.833 22 23.5s19 14.834 31 21.501s26 12 42 16s34.667 6 56 6c22.667 0 43.667 -3 63 -9s36.166 -14.833 50.499 -26.5s25.5 -26.334 33.5 -44.001s12 -38.167 12 -61.5c0 -33.333 -7.16699 -61.166 -21.5 -83.499
s-31.833 -43.5 -52.5 -63.5c-15.333 -15.333 -28.5 -27.666 -39.5 -36.999s-21.833 -18 -32.5 -26h125c10.667 0 18.667 -4.5 24 -13.5s8 -19.833 8 -32.5c0 -12 -2.83301 -22.667 -8.5 -32s-15.5 -14 -29.5 -14h-250c-13.333 0 -22.666 4.16699 -27.999 12.5
s-8 17.166 -8 26.499c0 8.66699 2 17.334 6 26.001s12.667 18.667 26 30l51.5 43.5c18.333 15.667 34.5 30.167 48.5 43.5c21.333 21.333 38.5 40.833 51.5 58.5s19.5 36.167 19.5 55.5c0 37.333 -18.333 56 -55 56z" />
    <glyph glyph-name="threesuperior" unicode="&#xb3;" 
d="M95 640c14 13.333 31.6689 25.168 53.002 35.501s51 15.5 89 15.5c47.333 0 84.666 -9.83301 111.999 -29.5s41 -48.834 41 -87.501c0 -25.333 -5.83301 -45.833 -17.5 -61.5s-25.167 -27.834 -40.5 -36.501c20.667 -8.66699 38 -20.667 52 -36s21 -37.333 21 -66
c0 -24.667 -4.83301 -45.334 -14.5 -62.001s-22.5 -30.167 -38.5 -40.5s-34 -17.666 -54 -21.999s-40 -6.5 -60 -6.5c-36.667 0 -67.334 4.5 -92.001 13.5s-44.667 20.5 -60 34.5c-9.33301 9.33301 -15.666 17.333 -18.999 24s-5 14.334 -5 23.001
c0 12 5.16699 23.333 15.5 34s21.833 16 34.5 16c8.66699 0 16.5 -2.16699 23.5 -6.5s14.167 -10.166 21.5 -17.499c8.66699 -8.66699 19.5 -16.167 32.5 -22.5s28.167 -9.5 45.5 -9.5c6.66699 0 13.5 0.666992 20.5 2s13.167 3.66602 18.5 6.99902s9.83301 8 13.5 14
s5.5 13.667 5.5 23c0 19.333 -6.5 32.333 -19.5 39s-28.167 10 -45.5 10h-25c-12.667 0 -21.5 4.5 -26.5 13.5s-7.5 18.5 -7.5 28.5s2.5 19.667 7.5 29s13.833 14 26.5 14h18c42.667 0 64 16.333 64 49c0 16 -5.5 27.167 -16.5 33.5s-23.167 9.5 -36.5 9.5
c-18.667 0 -32.334 -3.33301 -41.001 -10s-16.334 -13.667 -23.001 -21l-20 -20c-5.33301 -5.33301 -13.333 -8 -24 -8c-6 0 -12.5 1.16699 -19.5 3.5s-12.833 5.5 -17.5 9.5c-10.667 8 -16 19.333 -16 34c0 9.33301 2.33301 18 7 26s10.334 15.333 17.001 22z" />
    <glyph glyph-name="acute" unicode="&#xb4;" horiz-adv-x="464" 
d="M214 744c11.333 14 22.668 23.834 34.001 29.501s23 8.5 35 8.5c19.333 0 35.166 -5.83301 47.499 -17.5s18.5 -24.5 18.5 -38.5c0 -14.667 -7 -28 -21 -40l-91 -77c-7.33301 -6.66699 -15.5 -12.334 -24.5 -17.001s-19.167 -7 -30.5 -7
c-13.333 0 -24.833 3.5 -34.5 10.5s-14.5 16.833 -14.5 29.5c0 5.33301 1.16699 11.333 3.5 18s6.5 13.667 12.5 21z" />
    <glyph glyph-name="mu" unicode="&#xb5;" horiz-adv-x="635" 
d="M284 -12c-17.333 0 -33.998 3.16699 -49.998 9.5s-27.667 15.166 -35 26.499v-182c0 -19.333 -5.5 -33.333 -16.5 -42s-27.167 -13 -48.5 -13c-20 0 -36.5 4.16699 -49.5 12.5s-19.5 22.5 -19.5 42.5v311c-0.666992 8 -1 16 -1 24v291c0 19.333 5.66699 33.333 17 42
s28.666 13 51.999 13c20 0 36.5 -4.16699 49.5 -12.5s19.5 -22.5 19.5 -42.5v-268c0 -14 0.666992 -26.5 2 -37.5s3.66602 -19.833 6.99902 -26.5c6 -13.333 15.167 -23 27.5 -29s27.166 -9 44.499 -9c18 0 33.333 3 46 9s23.334 13.333 32.001 22
s15.334 17.834 20.001 27.501s8 18.5 10 26.5c3.33301 12 5.16602 25.667 5.49902 41s0.5 28.333 0.5 39v202c0 20.667 5.5 35.5 16.5 44.5s29.167 13.5 54.5 13.5c20.667 0 37 -4.33301 49 -13s18 -23 18 -43v-333c0 -12 1.5 -20 4.5 -24s7.16699 -6 12.5 -6
s11.166 1.16699 17.499 3.5s12.5 3.5 18.5 3.5c13.333 0 22.833 -4.83301 28.5 -14.5s8.5 -22.834 8.5 -39.501c0 -10 -1.16699 -18.5 -3.5 -25.5s-7.16602 -13.167 -14.499 -18.5c-10 -8 -22.5 -14.167 -37.5 -18.5s-29.5 -6.5 -43.5 -6.5
c-18.667 0 -34.667 2.16699 -48 6.5s-24.5 9.83301 -33.5 16.5s-16.167 14.334 -21.5 23.001s-9 17.667 -11 27c-11.333 -21.333 -27.5 -38.833 -48.5 -52.5s-47.5 -20.5 -79.5 -20.5z" />
    <glyph glyph-name="paragraph" unicode="&#xb6;" horiz-adv-x="605" 
d="M475 694c16 0 29.168 -4.16797 39.501 -12.501s15.5 -19.833 15.5 -34.5v-684c0 -20.667 -4.33301 -35.667 -13 -45s-25.334 -14 -50.001 -14c-25.333 0 -41.666 5.66699 -48.999 17s-11 24.666 -11 39.999v643h-95v-644c0 -19.333 -4.5 -33.5 -13.5 -42.5
s-25.5 -13.5 -49.5 -13.5c-12.667 0 -22.834 1.5 -30.501 4.5s-13.667 7.16699 -18 12.5s-7.33301 11.5 -9 18.5s-2.5 14.167 -2.5 21.5v341c-20 4.66699 -39.5 12.167 -58.5 22.5s-36 23.5 -51 39.5s-27 35 -36 57s-13.5 47 -13.5 75c0 32 6 60.333 18 85
s29 45.334 51 62.001s48.333 29.334 79 38.001s65 13 103 13h194z" />
    <glyph glyph-name="periodcentered" unicode="&#xb7;" horiz-adv-x="289" 
d="M60 317c0 11.333 2.16699 22.166 6.5 32.499s10.333 19.333 18 27s16.667 13.667 27 18s21.5 6.5 33.5 6.5c23.333 0 43.166 -8.16699 59.499 -24.5s24.5 -36.166 24.5 -59.499c0 -12 -2.16699 -23.167 -6.5 -33.5s-10.333 -19.333 -18 -27s-16.667 -13.667 -27 -18
s-21.166 -6.5 -32.499 -6.5c-23.333 0 -43.333 8.33301 -60 25s-25 36.667 -25 60z" />
    <glyph glyph-name="cedilla" unicode="&#xb8;" horiz-adv-x="464" 
d="M344 -125c0 -32 -10.9961 -58.168 -32.9961 -78.501s-53 -30.5 -93 -30.5c-24.667 0 -45 2.83301 -61 8.5s-27.333 11.167 -34 16.5c-5.33301 4 -9 8.83301 -11 14.5s-3 11.167 -3 16.5c0 10 3.16699 19.167 9.5 27.5s14.833 12.5 25.5 12.5
c6.66699 0 12.5 -1.16699 17.5 -3.5l15.5 -7c5.33301 -2.33301 11.166 -4.66602 17.499 -6.99902s14.166 -3.5 23.499 -3.5c14 0 24 2.83301 30 8.5s9 13.167 9 22.5c0 19.333 -18 29 -54 29c-8.66699 0 -17.334 1.16699 -26.001 3.5s-11.334 9.83301 -8.00098 22.5l20 73
h72l-12 -42c30.667 -2 54.167 -10.333 70.5 -25s24.5 -34 24.5 -58z" />
    <glyph glyph-name="onesuperior" unicode="&#xb9;" 
d="M329 284c0 -10.667 -4.49902 -20.167 -13.499 -28.5s-23.167 -12.5 -42.5 -12.5c-17.333 0 -31.5 3.33301 -42.5 10s-16.5 17 -16.5 31v267l-22 -13.5c-6 -3.66699 -13.667 -7.5 -23 -11.5c-12.667 -5.33301 -23.667 -8 -33 -8c-13.333 0 -23.666 5.16699 -30.999 15.5
s-11 22.5 -11 36.5c0 20.667 11.667 37 35 49l24.5 12c7 3.33301 13.5 6.83301 19.5 10.5l18 10.5c6 3.33301 12.667 7.33301 20 12c9.33301 6 19.666 11.167 30.999 15.5s23.666 6.5 36.999 6.5c11.333 0 22.5 -3 33.5 -9s16.5 -16 16.5 -30v-363z" />
    <glyph glyph-name="ordmasculine" unicode="&#xba;" horiz-adv-x="390" 
d="M381 519c0 -29.333 -4.5 -55.834 -13.5 -79.501s-21.667 -43.667 -38 -60s-35.833 -29 -58.5 -38s-48 -13.5 -76 -13.5c-58 0 -103.667 16.833 -137 50.5s-50 79.834 -50 138.501c0 28.667 4.5 55 13.5 79s21.833 44.5 38.5 61.5s36.5 30.167 59.5 39.5s48.5 14 76.5 14
s53.333 -4.66699 76 -14s42 -22.5 58 -39.5s28.5 -37.167 37.5 -60.5s13.5 -49.333 13.5 -78zM271 515.999c0 31.333 -6.33203 56.166 -18.999 74.499s-31.667 27.5 -57 27.5c-24.667 0 -43.334 -9.16699 -56.001 -27.5s-19 -43.166 -19 -74.499c0 -64 25 -96 75 -96
c50.667 0 76 32 76 96z" />
    <glyph glyph-name="guillemotright" unicode="&#xbb;" horiz-adv-x="556" 
d="M140 85c-14.667 -16 -30.668 -23.9971 -48.001 -23.9971c-7.33301 0 -14.833 1.66699 -22.5 5s-14.5 7.66602 -20.5 12.999s-11 11.5 -15 18.5s-6 14.5 -6 22.5c0 7.33301 1.5 14.166 4.5 20.499s8.5 14.166 16.5 23.499l92 110l-93 106
c-8.66699 9.33301 -14.667 17.5 -18 24.5s-5 14.167 -5 21.5c0 8 2 15.5 6 22.5s9 13.167 15 18.5s12.667 9.66602 20 12.999s14.666 5 21.999 5c18.667 0 34.334 -7.66699 47.001 -23l134 -154c8.66699 -9.33301 13 -22 13 -38c0 -7.33301 -1.16699 -14.666 -3.5 -21.999
s-6.16602 -14 -11.499 -20zM382.999 85.0029c-14.667 -16 -30.668 -23.9971 -48.001 -23.9971c-7.33301 0 -14.833 1.66699 -22.5 5s-14.5 7.66602 -20.5 12.999s-11 11.5 -15 18.5s-6 14.5 -6 22.5c0 7.33301 1.5 14.166 4.5 20.499s8.5 14.166 16.5 23.499l92 110l-93 106
c-8.66699 9.33301 -14.667 17.5 -18 24.5s-5 14.167 -5 21.5c0 8 2 15.5 6 22.5s9 13.167 15 18.5s12.667 9.66602 20 12.999s14.666 5 21.999 5c18.667 0 34.334 -7.66699 47.001 -23l134 -154c8.66699 -9.33301 13 -22 13 -38c0 -7.33301 -1.16699 -14.666 -3.5 -21.999
s-6.16602 -14 -11.499 -20z" />
    <glyph glyph-name="onequarter" unicode="&#xbc;" horiz-adv-x="1001" 
d="M362 11c-4.66699 -8.66699 -10.667 -15.501 -18 -20.501s-17 -7.5 -29 -7.5c-14.667 0 -28.667 4.5 -42 13.5s-20 21.5 -20 37.5c0 7.33301 2 15 6 23l320 613c4.66699 8.66699 10.667 15.834 18 21.501s17 8.5 29 8.5c14.667 0 28.667 -4.5 42 -13.5
s20 -20.833 20 -35.5c0 -5.33301 -0.833008 -10.5 -2.5 -15.5s-3.5 -9.16699 -5.5 -12.5zM257 293.999c0 -10.667 -4.49902 -20.167 -13.499 -28.5s-23.167 -12.5 -42.5 -12.5c-17.333 0 -31.5 3.33301 -42.5 10s-16.5 17 -16.5 31v267l-22 -13.5
c-6 -3.66699 -13.667 -7.5 -23 -11.5c-12.667 -5.33301 -23.667 -8 -33 -8c-13.333 0 -23.666 5.16699 -30.999 15.5s-11 22.5 -11 36.5c0 20.667 11.667 37 35 49l24.5 12c7 3.33301 13.5 6.83301 19.5 10.5l18 10.5c6 3.33301 12.667 7.33301 20 12
c9.33301 6 19.666 11.167 30.999 15.5s23.666 6.5 36.999 6.5c11.333 0 22.5 -3 33.5 -9s16.5 -16 16.5 -30v-363zM773.001 80.999h-173.999c-14.667 0 -25.334 4.16699 -32.001 12.5s-10 18.833 -10 31.5c0 14 5 27 15 39l187 237c16.667 22 40.667 33 72 33
c13.333 0 25.5 -3 36.5 -9s16.5 -16 16.5 -30v-233h41c17.333 0 26 -13.333 26 -40c0 -10.667 -2.16699 -20.167 -6.5 -28.5s-11.5 -12.5 -21.5 -12.5h-39v-49c0 -10.667 -3.83301 -20.167 -11.5 -28.5s-21.167 -12.5 -40.5 -12.5c-18 0 -32.333 3.33301 -43 10
s-16 17 -16 31v49zM773.002 290.999l-99 -129h99v129z" />
    <glyph glyph-name="onehalf" unicode="&#xbd;" horiz-adv-x="1001" 
d="M336 11c-4.66699 -8.66699 -10.667 -15.501 -18 -20.501s-17 -7.5 -29 -7.5c-14.667 0 -28.667 4.5 -42 13.5s-20 21.5 -20 37.5c0 7.33301 2 15 6 23l320 613c4.66699 8.66699 10.667 15.834 18 21.501s17 8.5 29 8.5c14.667 0 28.667 -4.5 42 -13.5
s20 -20.833 20 -35.5c0 -5.33301 -0.833008 -10.5 -2.5 -15.5s-3.5 -9.16699 -5.5 -12.5zM253 293.999c0 -10.667 -4.49902 -20.167 -13.499 -28.5s-23.167 -12.5 -42.5 -12.5c-17.333 0 -31.5 3.33301 -42.5 10s-16.5 17 -16.5 31v267l-22 -13.5
c-6 -3.66699 -13.667 -7.5 -23 -11.5c-12.667 -5.33301 -23.667 -8 -33 -8c-13.333 0 -23.666 5.16699 -30.999 15.5s-11 22.5 -11 36.5c0 20.667 11.667 37 35 49l24.5 12c7 3.33301 13.5 6.83301 19.5 10.5l18 10.5c6 3.33301 12.667 7.33301 20 12
c9.33301 6 19.666 11.167 30.999 15.5s23.666 6.5 36.999 6.5c11.333 0 22.5 -3 33.5 -9s16.5 -16 16.5 -30v-363zM767.001 353.999c-19.333 0 -33.667 -3.83398 -43 -11.501s-16.666 -15.834 -21.999 -24.501c-6 -9.33301 -12.333 -17 -19 -23s-15.667 -9 -27 -9
c-12 0 -22.333 2.66699 -31 8c-8 4.66699 -13.5 10.5 -16.5 17.5s-4.5 14.167 -4.5 21.5c0 8 1.66699 16 5 24s7.66602 15 12.999 21c6 8 13.333 15.833 22 23.5s19 14.834 31 21.501s26 12 42 16s34.667 6 56 6c22.667 0 43.667 -3 63 -9s36.166 -14.833 50.499 -26.5
s25.5 -26.334 33.5 -44.001s12 -38.167 12 -61.5c0 -33.333 -7.16699 -61.166 -21.5 -83.499s-31.833 -43.5 -52.5 -63.5c-15.333 -15.333 -28.5 -27.666 -39.5 -36.999s-21.833 -18 -32.5 -26h125c10.667 0 18.667 -4.5 24 -13.5s8 -19.833 8 -32.5
c0 -12 -2.83301 -22.667 -8.5 -32s-15.5 -14 -29.5 -14h-250c-13.333 0 -22.666 4.16699 -27.999 12.5s-8 17.166 -8 26.499c0 8.66699 2 17.334 6 26.001s12.667 18.667 26 30l51.5 43.5c18.333 15.667 34.5 30.167 48.5 43.5c21.333 21.333 38.5 40.833 51.5 58.5
s19.5 36.167 19.5 55.5c0 37.333 -18.333 56 -55 56z" />
    <glyph glyph-name="threequarters" unicode="&#xbe;" horiz-adv-x="1001" 
d="M413 11c-4.66699 -8.66699 -10.667 -15.501 -18 -20.501s-17 -7.5 -29 -7.5c-14.667 0 -28.667 4.5 -42 13.5s-20 21.5 -20 37.5c0 7.33301 2 15 6 23l320 613c4.66699 8.66699 10.667 15.834 18 21.501s17 8.5 29 8.5c14.667 0 28.667 -4.5 42 -13.5
s20 -20.833 20 -35.5c0 -5.33301 -0.833008 -10.5 -2.5 -15.5s-3.5 -9.16699 -5.5 -12.5zM76 644.999c14 13.333 31.6689 25.168 53.002 35.501s51 15.5 89 15.5c47.333 0 84.666 -9.83301 111.999 -29.5s41 -48.834 41 -87.501c0 -25.333 -5.83301 -45.833 -17.5 -61.5
s-25.167 -27.834 -40.5 -36.501c20.667 -8.66699 38 -20.667 52 -36s21 -37.333 21 -66c0 -24.667 -4.83301 -45.334 -14.5 -62.001s-22.5 -30.167 -38.5 -40.5s-34 -17.666 -54 -21.999s-40 -6.5 -60 -6.5c-36.667 0 -67.334 4.5 -92.001 13.5s-44.667 20.5 -60 34.5
c-9.33301 9.33301 -15.666 17.333 -18.999 24s-5 14.334 -5 23.001c0 12 5.16699 23.333 15.5 34s21.833 16 34.5 16c8.66699 0 16.5 -2.16699 23.5 -6.5s14.167 -10.166 21.5 -17.499c8.66699 -8.66699 19.5 -16.167 32.5 -22.5s28.167 -9.5 45.5 -9.5
c6.66699 0 13.5 0.666992 20.5 2s13.167 3.66602 18.5 6.99902s9.83301 8 13.5 14s5.5 13.667 5.5 23c0 19.333 -6.5 32.333 -19.5 39s-28.167 10 -45.5 10h-25c-12.667 0 -21.5 4.5 -26.5 13.5s-7.5 18.5 -7.5 28.5s2.5 19.667 7.5 29s13.833 14 26.5 14h18
c42.667 0 64 16.333 64 49c0 16 -5.5 27.167 -16.5 33.5s-23.167 9.5 -36.5 9.5c-18.667 0 -32.334 -3.33301 -41.001 -10s-16.334 -13.667 -23.001 -21l-20 -20c-5.33301 -5.33301 -13.333 -8 -24 -8c-6 0 -12.5 1.16699 -19.5 3.5s-12.833 5.5 -17.5 9.5
c-10.667 8 -16 19.333 -16 34c0 9.33301 2.33301 18 7 26s10.334 15.333 17.001 22zM784.002 79.001h-173.999c-14.667 0 -25.334 4.16699 -32.001 12.5s-10 18.833 -10 31.5c0 14 5 27 15 39l187 237c16.667 22 40.667 33 72 33c13.333 0 25.5 -3 36.5 -9
s16.5 -16 16.5 -30v-233h41c17.333 0 26 -13.333 26 -40c0 -10.667 -2.16699 -20.167 -6.5 -28.5s-11.5 -12.5 -21.5 -12.5h-39v-49c0 -10.667 -3.83301 -20.167 -11.5 -28.5s-21.167 -12.5 -40.5 -12.5c-18 0 -32.333 3.33301 -43 10s-16 17 -16 31v49zM784.003 289.001
l-99 -129h99v129z" />
    <glyph glyph-name="questiondown" unicode="&#xbf;" horiz-adv-x="535" 
d="M282 313c24.667 0 42.333 -5.16211 53 -15.4951s16 -26.5 16 -48.5c0 -16 -2.5 -30.5 -7.5 -43.5s-11.667 -24.833 -20 -35.5s-17.666 -20.667 -27.999 -30l-32.5 -28c-12 -10 -22.5 -19.167 -31.5 -27.5s-16.833 -17 -23.5 -26s-11.667 -18.333 -15 -28
s-5 -20.834 -5 -33.501c0 -25.333 7.16699 -44.5 21.5 -57.5s32.833 -19.5 55.5 -19.5c24.667 0 43.5 5 56.5 15s23.5 21.333 31.5 34l12 19.5c4 6.33301 8.5 12 13.5 17s10.667 9.16699 17 12.5s14.166 5 23.499 5c7.33301 0 15 -1.33301 23 -4s15 -5.66699 21 -9
c10.667 -6.66699 18 -13.334 22 -20.001s6 -15.334 6 -26.001c0 -11.333 -2.33301 -22.333 -7 -33s-10.667 -20.667 -18 -30c-8 -10.667 -18 -21.834 -30 -33.501s-26.667 -22.334 -44 -32.001s-37.666 -17.5 -60.999 -23.5s-50.333 -9 -81 -9c-28 0 -54.5 4 -79.5 12
s-47 19.833 -66 35.5s-34.167 35.334 -45.5 59.001s-17 50.834 -17 81.501c0 28.667 4.16699 53.167 12.5 73.5s18.833 38.166 31.5 53.499s26.5 28.666 41.5 39.999l41.5 32.5c12.667 10.333 23.167 20.833 31.5 31.5s12.5 23 12.5 37v7c0 15.333 6.16699 27 18.5 35
s29.166 12 50.499 12zM362.999 451.005c0 -22 -7.83301 -40.833 -23.5 -56.5s-34.5 -23.5 -56.5 -23.5s-40.833 7.83301 -56.5 23.5s-23.5 34.5 -23.5 56.5s7.83301 40.833 23.5 56.5s34.5 23.5 56.5 23.5s40.833 -7.83301 56.5 -23.5s23.5 -34.5 23.5 -56.5z" />
    <glyph glyph-name="Agrave" unicode="&#xc0;" horiz-adv-x="645" 
d="M190 128l-37.001 -97.001c-5.33301 -14 -13.5 -24 -24.5 -30s-22.833 -9 -35.5 -9c-26.667 0 -46 5.5 -58 16.5s-18 24.833 -18 41.5c0 10.667 2.33301 21.334 7 32.001l219 569c7.33301 19.333 18.5 32.5 33.5 39.5s30.833 10.5 47.5 10.5s32.167 -3.16699 46.5 -9.5
s25.5 -19.5 33.5 -39.5l218 -568c4 -10 6 -20 6 -30c0 -16.667 -5.5 -31 -16.5 -43s-28.167 -18 -51.5 -18c-33.333 0 -55.666 13.333 -66.999 40l-40 95h-263zM319.999 510.999l-89 -264h177zM410.999 833.999c16.667 -12.667 25 -26.666 25 -41.999
c0 -13.333 -4.66699 -24.666 -14 -33.999s-20.666 -14 -33.999 -14c-7.33301 0 -14.666 1.16699 -21.999 3.5s-14.333 5.16602 -21 8.49902l-103 56c-10 5.33301 -18 11.833 -24 19.5s-9 16.167 -9 25.5c0 8 1.66699 15.833 5 23.5s8 14.667 14 21s13 11.5 21 15.5
s16.667 6 26 6s19.166 -2.83301 29.499 -8.5s21.166 -12.834 32.499 -21.501z" />
    <glyph glyph-name="Aacute" unicode="&#xc1;" horiz-adv-x="645" 
d="M190 128l-37.001 -97.001c-5.33301 -14 -13.5 -24 -24.5 -30s-22.833 -9 -35.5 -9c-26.667 0 -46 5.5 -58 16.5s-18 24.833 -18 41.5c0 10.667 2.33301 21.334 7 32.001l219 569c7.33301 19.333 18.5 32.5 33.5 39.5s30.833 10.5 47.5 10.5s32.167 -3.16699 46.5 -9.5
s25.5 -19.5 33.5 -39.5l218 -568c4 -10 6 -20 6 -30c0 -16.667 -5.5 -31 -16.5 -43s-28.167 -18 -51.5 -18c-33.333 0 -55.666 13.333 -66.999 40l-40 95h-263zM319.999 510.999l-89 -264h177zM307.999 892.999c11.333 8.66699 22.166 15.833 32.499 21.5
s20.166 8.5 29.499 8.5s18 -2 26 -6s15 -9.16699 21 -15.5s10.667 -13.333 14 -21s5 -15.5 5 -23.5c0 -9.33301 -3 -17.833 -9 -25.5s-14 -14.167 -24 -19.5l-103 -56c-6.66699 -3.33301 -13.667 -6.16602 -21 -8.49902s-14.666 -3.5 -21.999 -3.5
c-13.333 0 -24.666 4.66699 -33.999 14s-14 20.666 -14 33.999c0 15.333 8.33301 29.333 25 42z" />
    <glyph glyph-name="Acircumflex" unicode="&#xc2;" horiz-adv-x="645" 
d="M190 128l-37.001 -97.001c-5.33301 -14 -13.5 -24 -24.5 -30s-22.833 -9 -35.5 -9c-26.667 0 -46 5.5 -58 16.5s-18 24.833 -18 41.5c0 10.667 2.33301 21.334 7 32.001l219 569c7.33301 19.333 18.5 32.5 33.5 39.5s30.833 10.5 47.5 10.5s32.167 -3.16699 46.5 -9.5
s25.5 -19.5 33.5 -39.5l218 -568c4 -10 6 -20 6 -30c0 -16.667 -5.5 -31 -16.5 -43s-28.167 -18 -51.5 -18c-33.333 0 -55.666 13.333 -66.999 40l-40 95h-263zM319.999 510.999l-89 -264h177zM464.999 828.999c6 -5.33301 10.833 -10.668 14.5 -16.001s5.5 -12 5.5 -20
c0 -13.333 -4.66699 -24.833 -14 -34.5s-21.666 -14.5 -36.999 -14.5c-11.333 0 -21.5 2.66699 -30.5 8s-17.167 11.333 -24.5 18l-58 52l-56 -52c-7.33301 -6.66699 -15.5 -12.5 -24.5 -17.5s-19.167 -7.5 -30.5 -7.5c-14.667 0 -26.5 4.5 -35.5 13.5
s-13.5 20.167 -13.5 33.5c0 14.667 6.33301 27.334 19 38.001l67 60c13.333 12 26 20.5 38 25.5s24.667 7.5 38 7.5c12 0 23.667 -2.33301 35 -7s23.666 -13 36.999 -25z" />
    <glyph glyph-name="Atilde" unicode="&#xc3;" horiz-adv-x="645" 
d="M190 128l-37.001 -97.001c-5.33301 -14 -13.5 -24 -24.5 -30s-22.833 -9 -35.5 -9c-26.667 0 -46 5.5 -58 16.5s-18 24.833 -18 41.5c0 10.667 2.33301 21.334 7 32.001l219 569c7.33301 19.333 18.5 32.5 33.5 39.5s30.833 10.5 47.5 10.5s32.167 -3.16699 46.5 -9.5
s25.5 -19.5 33.5 -39.5l218 -568c4 -10 6 -20 6 -30c0 -16.667 -5.5 -31 -16.5 -43s-28.167 -18 -51.5 -18c-33.333 0 -55.666 13.333 -66.999 40l-40 95h-263zM319.999 510.999l-89 -264h177zM397.999 756.999c-15.333 0 -28.9961 2.16895 -40.9961 6.50195
s-23.667 8.83301 -35 13.5l-25 10c-8.66699 3.33301 -16.5 6.16602 -23.5 8.49902s-13.167 3.5 -18.5 3.5c-9.33301 0 -17 -2.33301 -23 -7s-11 -10.667 -15 -18c-4.66699 -6.66699 -9.33398 -11 -14.001 -13s-10.334 -3 -17.001 -3c-11.333 0 -21.333 3.5 -30 10.5
s-13 16.833 -13 29.5c0 11.333 2.5 21.666 7.5 30.999s10.167 17.666 15.5 24.999c11.333 14.667 25 26.167 41 34.5s31.667 12.5 47 12.5c13.333 0 25.666 -1.83301 36.999 -5.5s22.666 -8.16699 33.999 -13.5l30 -13l22.5 -8.5c6.33301 -2.33301 12.833 -3.5 19.5 -3.5
c10 0 17.667 2 23 6s9.66602 10 12.999 18c6.66699 14 15.667 21 27 21c9.33301 0 19.333 -3.33301 30 -10s16 -15.667 16 -27c0 -4.66699 -0.666992 -9.66699 -2 -15c-4 -12.667 -9.33301 -24.667 -16 -36s-14.667 -21.166 -24 -29.499s-19.666 -15 -30.999 -20
s-23 -7.5 -35 -7.5z" />
    <glyph glyph-name="Adieresis" unicode="&#xc4;" horiz-adv-x="645" 
d="M190 128l-37.001 -97.001c-5.33301 -14 -13.5 -24 -24.5 -30s-22.833 -9 -35.5 -9c-26.667 0 -46 5.5 -58 16.5s-18 24.833 -18 41.5c0 10.667 2.33301 21.334 7 32.001l219 569c7.33301 19.333 18.5 32.5 33.5 39.5s30.833 10.5 47.5 10.5s32.167 -3.16699 46.5 -9.5
s25.5 -19.5 33.5 -39.5l218 -568c4 -10 6 -20 6 -30c0 -16.667 -5.5 -31 -16.5 -43s-28.167 -18 -51.5 -18c-33.333 0 -55.666 13.333 -66.999 40l-40 95h-263zM319.999 510.999l-89 -264h177zM438.999 884.999c18 0 34.499 -5.5 49.499 -16.5s22.5 -28.167 22.5 -51.5
c0 -20.667 -6.66699 -37.167 -20 -49.5s-30.666 -18.5 -51.999 -18.5s-38.666 6.16699 -51.999 18.5s-20 28.833 -20 49.5c0 20 6.66699 36.333 20 49s30.666 19 51.999 19zM205.998 884.999c18 0 34.499 -5.5 49.499 -16.5s22.5 -28.167 22.5 -51.5
c0 -20.667 -6.66699 -37.167 -20 -49.5s-30.666 -18.5 -51.999 -18.5s-38.666 6.16699 -51.999 18.5s-20 28.833 -20 49.5c0 20 6.66699 36.333 20 49s30.666 19 51.999 19z" />
    <glyph glyph-name="Aring" unicode="&#xc5;" horiz-adv-x="645" 
d="M190 128l-37.001 -97.001c-5.33301 -14 -13.5 -24 -24.5 -30s-22.833 -9 -35.5 -9c-26.667 0 -46 5.5 -58 16.5s-18 24.833 -18 41.5c0 10.667 2.33301 21.334 7 32.001l219 569c7.33301 19.333 18.5 32.5 33.5 39.5s30.833 10.5 47.5 10.5s32.167 -3.16699 46.5 -9.5
s25.5 -19.5 33.5 -39.5l218 -568c4 -10 6 -20 6 -30c0 -16.667 -5.5 -31 -16.5 -43s-28.167 -18 -51.5 -18c-33.333 0 -55.666 13.333 -66.999 40l-40 95h-263zM319.999 510.999l-89 -264h177zM442.999 848.999c0 -16 -3.16699 -31.167 -9.5 -45.5s-15 -26.666 -26 -36.999
s-23.833 -18.5 -38.5 -24.5s-30.334 -9 -47.001 -9s-32.334 3 -47.001 9s-27.5 14.167 -38.5 24.5s-19.667 22.666 -26 36.999s-9.5 29.5 -9.5 45.5c0 16.667 3.16699 32 9.5 46s15 26.167 26 36.5s23.833 18.5 38.5 24.5s30.334 9 47.001 9s32.334 -3 47.001 -9
s27.5 -14.167 38.5 -24.5s19.667 -22.5 26 -36.5s9.5 -29.333 9.5 -46zM367.999 848.999c0 12.667 -4.5 23.5 -13.5 32.5s-19.833 13.5 -32.5 13.5s-23.5 -4.5 -32.5 -13.5s-13.5 -19.833 -13.5 -32.5s4.5 -23.5 13.5 -32.5s19.833 -13.5 32.5 -13.5s23.5 4.5 32.5 13.5
s13.5 19.833 13.5 32.5z" />
    <glyph glyph-name="AE" unicode="&#xc6;" horiz-adv-x="933" 
d="M307 651c8.66699 17.333 18.5 28.8281 29.5 34.4951s24.167 8.5 39.5 8.5h466c18.667 0 32.667 -5.33301 42 -16s14 -25.334 14 -44.001c0 -17.333 -4 -31.666 -12 -42.999s-21.667 -17 -41 -17h-292v-163h265c17.333 0 30.5 -5.66699 39.5 -17
s13.5 -25.666 13.5 -42.999s-4 -31.666 -12 -42.999s-21.667 -17 -41 -17h-265v-171h298c15.333 0 27 -5.5 35 -16.5s12 -25.5 12 -43.5c0 -17.333 -4 -31.666 -12 -42.999s-22 -17 -42 -17h-373c-36.667 0 -55 17.667 -55 53v107h-197l-67 -133
c-6.66699 -13.333 -15.167 -23.166 -25.5 -29.499s-21.833 -9.5 -34.5 -9.5c-26.667 0 -46 5.5 -58 16.5s-18 24.833 -18 41.5c0 10.667 2.33301 21.334 7 32.001zM416 278.995v305l-147 -305h147z" />
    <glyph glyph-name="Ccedilla" unicode="&#xc7;" horiz-adv-x="681" 
d="M513 -125c0 -32 -10.9971 -58.1689 -32.9971 -78.502s-53 -30.5 -93 -30.5c-24.667 0 -45 2.83301 -61 8.5s-27.333 11.167 -34 16.5c-5.33301 4 -9 8.83301 -11 14.5s-3 11.167 -3 16.5c0 10 3.16699 19.167 9.5 27.5s14.833 12.5 25.5 12.5
c6.66699 0 12.5 -1.16699 17.5 -3.5l15.5 -7c5.33301 -2.33301 11.166 -4.66602 17.499 -6.99902s14.166 -3.5 23.499 -3.5c14 0 24 2.83301 30 8.5s9 13.167 9 22.5c0 19.333 -18 29 -54 29c-8.66699 0 -17.334 1.16699 -26.001 3.5s-11.334 9.83301 -8.00098 22.5l15 57
c-50 2 -93 11.667 -129 29c-41.333 20 -74.666 46.833 -99.999 80.5s-43.666 72.167 -54.999 115.5s-17 88 -17 134c0 48.667 6.5 95.167 19.5 139.5s33.167 83.5 60.5 117.5s62.333 61 105 81s93.667 30 153 30c26 0 50.333 -2.5 73 -7.5s43.5 -11.5 62.5 -19.5
s36 -17.333 51 -28s27.833 -21.667 38.5 -33s19.5 -23.166 26.5 -35.499s10.5 -25.166 10.5 -38.499c0 -18 -6 -33.167 -18 -45.5s-27.667 -18.5 -47 -18.5c-18 0 -31.5 4 -40.5 12s-19.167 18.333 -30.5 31c-21.333 23.333 -41.833 40 -61.5 50s-43.834 15 -72.501 15
c-32 0 -59.667 -6.5 -83 -19.5s-42.333 -30.667 -57 -53s-25.5 -48.333 -32.5 -78s-10.5 -60.834 -10.5 -93.501c0 -34 3.5 -66.167 10.5 -96.5s18 -56.666 33 -78.999s34.167 -40 57.5 -53s51.333 -19.5 84 -19.5c14.667 0 28 1.16699 40 3.5s23.333 6 34 11
s21 11.667 31 20s20.667 18.166 32 29.499c14.667 15.333 26.334 26.833 35.001 34.5s20 11.5 34 11.5c17.333 0 32.666 -6.16699 45.999 -18.5s20 -26.833 20 -43.5c0 -26 -12.667 -52 -38 -78c-21.333 -22.667 -52.333 -43 -93 -61c-28 -12.667 -61 -20.667 -99 -24
l-8 -28c30.667 -2 54.167 -10.333 70.5 -25s24.5 -34 24.5 -58z" />
    <glyph glyph-name="Egrave" unicode="&#xc8;" horiz-adv-x="594" 
d="M132 0c-36.667 0 -55 17.6641 -55 52.9971v591c0 14.667 4.83301 26.667 14.5 36s23.167 14 40.5 14h371c18.667 0 32.667 -5.33301 42 -16s14 -25.334 14 -44.001c0 -17.333 -4 -31.666 -12 -42.999s-21.667 -17 -41 -17h-292v-163h265c17.333 0 30.5 -5.66699 39.5 -17
s13.5 -25.666 13.5 -42.999s-4 -31.666 -12 -42.999s-21.667 -17 -41 -17h-265v-171h298c15.333 0 27 -5.5 35 -16.5s12 -25.5 12 -43.5c0 -17.333 -4 -31.666 -12 -42.999s-22 -17 -42 -17h-373zM385 833.997c16.667 -12.667 25 -26.666 25 -41.999
c0 -13.333 -4.66699 -24.666 -14 -33.999s-20.666 -14 -33.999 -14c-7.33301 0 -14.666 1.16699 -21.999 3.5s-14.333 5.16602 -21 8.49902l-103 56c-10 5.33301 -18 11.833 -24 19.5s-9 16.167 -9 25.5c0 8 1.66699 15.833 5 23.5s8 14.667 14 21s13 11.5 21 15.5
s16.667 6 26 6s19.166 -2.83301 29.499 -8.5s21.166 -12.834 32.499 -21.501z" />
    <glyph glyph-name="Eacute" unicode="&#xc9;" horiz-adv-x="594" 
d="M132 0c-36.667 0 -55 17.6641 -55 52.9971v591c0 14.667 4.83301 26.667 14.5 36s23.167 14 40.5 14h371c18.667 0 32.667 -5.33301 42 -16s14 -25.334 14 -44.001c0 -17.333 -4 -31.666 -12 -42.999s-21.667 -17 -41 -17h-292v-163h265c17.333 0 30.5 -5.66699 39.5 -17
s13.5 -25.666 13.5 -42.999s-4 -31.666 -12 -42.999s-21.667 -17 -41 -17h-265v-171h298c15.333 0 27 -5.5 35 -16.5s12 -25.5 12 -43.5c0 -17.333 -4 -31.666 -12 -42.999s-22 -17 -42 -17h-373zM308 892.997c11.333 8.66699 22.166 15.833 32.499 21.5
s20.166 8.5 29.499 8.5s18 -2 26 -6s15 -9.16699 21 -15.5s10.667 -13.333 14 -21s5 -15.5 5 -23.5c0 -9.33301 -3 -17.833 -9 -25.5s-14 -14.167 -24 -19.5l-103 -56c-6.66699 -3.33301 -13.667 -6.16602 -21 -8.49902s-14.666 -3.5 -21.999 -3.5
c-13.333 0 -24.666 4.66699 -33.999 14s-14 20.666 -14 33.999c0 15.333 8.33301 29.333 25 42z" />
    <glyph glyph-name="Ecircumflex" unicode="&#xca;" horiz-adv-x="594" 
d="M132 0c-36.667 0 -55 17.6641 -55 52.9971v591c0 14.667 4.83301 26.667 14.5 36s23.167 14 40.5 14h371c18.667 0 32.667 -5.33301 42 -16s14 -25.334 14 -44.001c0 -17.333 -4 -31.666 -12 -42.999s-21.667 -17 -41 -17h-292v-163h265c17.333 0 30.5 -5.66699 39.5 -17
s13.5 -25.666 13.5 -42.999s-4 -31.666 -12 -42.999s-21.667 -17 -41 -17h-265v-171h298c15.333 0 27 -5.5 35 -16.5s12 -25.5 12 -43.5c0 -17.333 -4 -31.666 -12 -42.999s-22 -17 -42 -17h-373zM455 828.997c6 -5.33301 10.833 -10.668 14.5 -16.001s5.5 -12 5.5 -20
c0 -13.333 -4.66699 -24.833 -14 -34.5s-21.666 -14.5 -36.999 -14.5c-11.333 0 -21.5 2.66699 -30.5 8s-17.167 11.333 -24.5 18l-58 52l-56 -52c-7.33301 -6.66699 -15.5 -12.5 -24.5 -17.5s-19.167 -7.5 -30.5 -7.5c-14.667 0 -26.5 4.5 -35.5 13.5
s-13.5 20.167 -13.5 33.5c0 14.667 6.33301 27.334 19 38.001l67 60c13.333 12 26 20.5 38 25.5s24.667 7.5 38 7.5c12 0 23.667 -2.33301 35 -7s23.666 -13 36.999 -25z" />
    <glyph glyph-name="Edieresis" unicode="&#xcb;" horiz-adv-x="594" 
d="M132 0c-36.667 0 -55 17.6641 -55 52.9971v591c0 14.667 4.83301 26.667 14.5 36s23.167 14 40.5 14h371c18.667 0 32.667 -5.33301 42 -16s14 -25.334 14 -44.001c0 -17.333 -4 -31.666 -12 -42.999s-21.667 -17 -41 -17h-292v-163h265c17.333 0 30.5 -5.66699 39.5 -17
s13.5 -25.666 13.5 -42.999s-4 -31.666 -12 -42.999s-21.667 -17 -41 -17h-265v-171h298c15.333 0 27 -5.5 35 -16.5s12 -25.5 12 -43.5c0 -17.333 -4 -31.666 -12 -42.999s-22 -17 -42 -17h-373zM426 884.997c18 0 34.499 -5.5 49.499 -16.5s22.5 -28.167 22.5 -51.5
c0 -20.667 -6.66699 -37.167 -20 -49.5s-30.666 -18.5 -51.999 -18.5s-38.666 6.16699 -51.999 18.5s-20 28.833 -20 49.5c0 20 6.66699 36.333 20 49s30.666 19 51.999 19zM192.999 884.997c18 0 34.499 -5.5 49.499 -16.5s22.5 -28.167 22.5 -51.5
c0 -20.667 -6.66699 -37.167 -20 -49.5s-30.666 -18.5 -51.999 -18.5s-38.666 6.16699 -51.999 18.5s-20 28.833 -20 49.5c0 20 6.66699 36.333 20 49s30.666 19 51.999 19z" />
    <glyph glyph-name="Igrave" unicode="&#xcc;" horiz-adv-x="294" 
d="M217 52c0 -15.333 -4.66895 -29 -14.002 -41s-27.666 -18 -54.999 -18c-47.333 0 -71 19.667 -71 59v593c0 20 6.5 34.333 19.5 43s30.167 13 51.5 13c20.667 0 37.334 -4.33301 50.001 -13s19 -23 19 -43v-593zM237.998 834c16.667 -12.667 25 -26.666 25 -41.999
c0 -13.333 -4.66699 -24.666 -14 -33.999s-20.666 -14 -33.999 -14c-7.33301 0 -14.666 1.16699 -21.999 3.5s-14.333 5.16602 -21 8.49902l-103 56c-10 5.33301 -18 11.833 -24 19.5s-9 16.167 -9 25.5c0 8 1.66699 15.833 5 23.5s8 14.667 14 21s13 11.5 21 15.5
s16.667 6 26 6s19.166 -2.83301 29.499 -8.5s21.166 -12.834 32.499 -21.501z" />
    <glyph glyph-name="Iacute" unicode="&#xcd;" horiz-adv-x="294" 
d="M217 52c0 -15.333 -4.66895 -29 -14.002 -41s-27.666 -18 -54.999 -18c-47.333 0 -71 19.667 -71 59v593c0 20 6.5 34.333 19.5 43s30.167 13 51.5 13c20.667 0 37.334 -4.33301 50.001 -13s19 -23 19 -43v-593zM134.998 893c11.333 8.66699 22.166 15.833 32.499 21.5
s20.166 8.5 29.499 8.5s18 -2 26 -6s15 -9.16699 21 -15.5s10.667 -13.333 14 -21s5 -15.5 5 -23.5c0 -9.33301 -3 -17.833 -9 -25.5s-14 -14.167 -24 -19.5l-103 -56c-6.66699 -3.33301 -13.667 -6.16602 -21 -8.49902s-14.666 -3.5 -21.999 -3.5
c-13.333 0 -24.666 4.66699 -33.999 14s-14 20.666 -14 33.999c0 15.333 8.33301 29.333 25 42z" />
    <glyph glyph-name="Icircumflex" unicode="&#xce;" horiz-adv-x="294" 
d="M217 52c0 -15.333 -4.66895 -29 -14.002 -41s-27.666 -18 -54.999 -18c-47.333 0 -71 19.667 -71 59v593c0 20 6.5 34.333 19.5 43s30.167 13 51.5 13c20.667 0 37.334 -4.33301 50.001 -13s19 -23 19 -43v-593zM291.998 829c6 -5.33301 10.833 -10.668 14.5 -16.001
s5.5 -12 5.5 -20c0 -13.333 -4.66699 -24.833 -14 -34.5s-21.666 -14.5 -36.999 -14.5c-11.333 0 -21.5 2.66699 -30.5 8s-17.167 11.333 -24.5 18l-58 52l-56 -52c-7.33301 -6.66699 -15.5 -12.5 -24.5 -17.5s-19.167 -7.5 -30.5 -7.5c-14.667 0 -26.5 4.5 -35.5 13.5
s-13.5 20.167 -13.5 33.5c0 14.667 6.33301 27.334 19 38.001l67 60c13.333 12 26 20.5 38 25.5s24.667 7.5 38 7.5c12 0 23.667 -2.33301 35 -7s23.666 -13 36.999 -25z" />
    <glyph glyph-name="Idieresis" unicode="&#xcf;" horiz-adv-x="294" 
d="M217 52c0 -15.333 -4.66895 -29 -14.002 -41s-27.666 -18 -54.999 -18c-47.333 0 -71 19.667 -71 59v593c0 20 6.5 34.333 19.5 43s30.167 13 51.5 13c20.667 0 37.334 -4.33301 50.001 -13s19 -23 19 -43v-593zM265.998 885c18 0 34.499 -5.5 49.499 -16.5
s22.5 -28.167 22.5 -51.5c0 -20.667 -6.66699 -37.167 -20 -49.5s-30.666 -18.5 -51.999 -18.5s-38.666 6.16699 -51.999 18.5s-20 28.833 -20 49.5c0 20 6.66699 36.333 20 49s30.666 19 51.999 19zM32.9971 885c18 0 34.499 -5.5 49.499 -16.5s22.5 -28.167 22.5 -51.5
c0 -20.667 -6.66699 -37.167 -20 -49.5s-30.666 -18.5 -51.999 -18.5s-38.666 6.16699 -51.999 18.5s-20 28.833 -20 49.5c0 20 6.66699 36.333 20 49s30.666 19 51.999 19z" />
    <glyph glyph-name="Eth" unicode="&#xd0;" horiz-adv-x="714" 
d="M664 353c0 -57.333 -8.00098 -108 -24.001 -152s-39 -80.833 -69 -110.5s-66.5 -52.167 -109.5 -67.5s-91.5 -23 -145.5 -23h-175c-36.667 0 -55 17.667 -55 53v247h-50c-11.333 0 -19.666 6 -24.999 18s-8 23.667 -8 35c0 12 2.5 23.167 7.5 33.5s13.167 15.5 24.5 15.5
h51v242c0 14.667 4.83301 26.667 14.5 36s23.167 14 40.5 14h175c54 0 102.5 -7 145.5 -21s79.5 -35 109.5 -63s53 -63.333 69 -106s24 -93 24 -151zM519.999 353c0 80 -17.332 137.667 -51.999 173s-82.334 53 -143.001 53h-102v-177h141
c13.333 0 22.666 -4.83301 27.999 -14.5s8 -21.167 8 -34.5c0 -35.333 -12.333 -53 -37 -53h-140v-185h102c60.667 0 108.334 19 143.001 57s52 98.333 52 181z" />
    <glyph glyph-name="Ntilde" unicode="&#xd1;" horiz-adv-x="724" 
d="M150 701c14 0 27.335 -3 40.002 -9s25.667 -18 39 -36l253 -391c4.66699 -7.33301 10.167 -16.5 16.5 -27.5l15.5 -27.5c-1.33301 12 -2.5 26.833 -3.5 44.5s-1.5 34.167 -1.5 49.5v339c0 21.333 6.16699 36.333 18.5 45s29.166 13 50.499 13s38.166 -4.33301 50.499 -13
s18.5 -23.667 18.5 -45v-586c0 -7.33301 -0.666992 -14.833 -2 -22.5s-4.16602 -14.5 -8.49902 -20.5s-11 -11 -20 -15s-21.167 -6 -36.5 -6c-16.667 0 -30.834 3.33301 -42.501 10s-22.5 17.334 -32.5 32.001l-251 364l-19.5 30.5
c-7.66699 12.333 -14.5 24.166 -20.5 35.499c1.33301 -11.333 2.16602 -25.5 2.49902 -42.5s0.5 -30.167 0.5 -39.5v-331c0 -15.333 -4.66699 -29 -14 -41s-27.666 -18 -54.999 -18c-47.333 0 -71 19.667 -71 59v584c0 22.667 7 39.167 21 49.5s31.333 15.5 52 15.5z
M450.002 757c-15.333 0 -28.9961 2.16895 -40.9961 6.50195s-23.667 8.83301 -35 13.5l-25 10c-8.66699 3.33301 -16.5 6.16602 -23.5 8.49902s-13.167 3.5 -18.5 3.5c-9.33301 0 -17 -2.33301 -23 -7s-11 -10.667 -15 -18c-4.66699 -6.66699 -9.33398 -11 -14.001 -13
s-10.334 -3 -17.001 -3c-11.333 0 -21.333 3.5 -30 10.5s-13 16.833 -13 29.5c0 11.333 2.5 21.666 7.5 30.999s10.167 17.666 15.5 24.999c11.333 14.667 25 26.167 41 34.5s31.667 12.5 47 12.5c13.333 0 25.666 -1.83301 36.999 -5.5s22.666 -8.16699 33.999 -13.5
l30 -13l22.5 -8.5c6.33301 -2.33301 12.833 -3.5 19.5 -3.5c10 0 17.667 2 23 6s9.66602 10 12.999 18c6.66699 14 15.667 21 27 21c9.33301 0 19.333 -3.33301 30 -10s16 -15.667 16 -27c0 -4.66699 -0.666992 -9.66699 -2 -15c-4 -12.667 -9.33301 -24.667 -16 -36
s-14.667 -21.166 -24 -29.499s-19.666 -15 -30.999 -20s-23 -7.5 -35 -7.5z" />
    <glyph glyph-name="Ograve" unicode="&#xd2;" horiz-adv-x="779" 
d="M727 352c0 -54.667 -7.83398 -104.668 -23.501 -150.001s-38.167 -84.166 -67.5 -116.499s-64.666 -57.5 -105.999 -75.5s-88 -27 -140 -27c-54.667 0 -103 8.66699 -145 26s-77.333 42 -106 74s-50.334 70.333 -65.001 115s-22 94 -22 148s7.83301 103.333 23.5 148
s38.167 83.167 67.5 115.5s64.833 57.333 106.5 75s88.5 26.5 140.5 26.5c54 0 101.833 -8.66699 143.5 -26s76.834 -41.833 105.501 -73.5s50.5 -69.5 65.5 -113.5s22.5 -92.667 22.5 -146zM580.999 348.999c0 36 -4 68.668 -12 98.001s-19.833 54.5 -35.5 75.5
s-35.5 37.167 -59.5 48.5s-52 17 -84 17s-60 -5.66699 -84 -17s-44 -27.5 -60 -48.5s-27.833 -46.167 -35.5 -75.5s-11.5 -62 -11.5 -98c0 -76 15.667 -135.5 47 -178.5s79.333 -64.5 144 -64.5c64 0 111.833 21.667 143.5 65s47.5 102.666 47.5 177.999zM477.999 834
c16.667 -12.667 25 -26.666 25 -41.999c0 -13.333 -4.66699 -24.666 -14 -33.999s-20.666 -14 -33.999 -14c-7.33301 0 -14.666 1.16699 -21.999 3.5s-14.333 5.16602 -21 8.49902l-103 56c-10 5.33301 -18 11.833 -24 19.5s-9 16.167 -9 25.5c0 8 1.66699 15.833 5 23.5
s8 14.667 14 21s13 11.5 21 15.5s16.667 6 26 6s19.166 -2.83301 29.499 -8.5s21.166 -12.834 32.499 -21.501z" />
    <glyph glyph-name="Oacute" unicode="&#xd3;" horiz-adv-x="779" 
d="M727 352c0 -54.667 -7.83398 -104.668 -23.501 -150.001s-38.167 -84.166 -67.5 -116.499s-64.666 -57.5 -105.999 -75.5s-88 -27 -140 -27c-54.667 0 -103 8.66699 -145 26s-77.333 42 -106 74s-50.334 70.333 -65.001 115s-22 94 -22 148s7.83301 103.333 23.5 148
s38.167 83.167 67.5 115.5s64.833 57.333 106.5 75s88.5 26.5 140.5 26.5c54 0 101.833 -8.66699 143.5 -26s76.834 -41.833 105.501 -73.5s50.5 -69.5 65.5 -113.5s22.5 -92.667 22.5 -146zM580.999 348.999c0 36 -4 68.668 -12 98.001s-19.833 54.5 -35.5 75.5
s-35.5 37.167 -59.5 48.5s-52 17 -84 17s-60 -5.66699 -84 -17s-44 -27.5 -60 -48.5s-27.833 -46.167 -35.5 -75.5s-11.5 -62 -11.5 -98c0 -76 15.667 -135.5 47 -178.5s79.333 -64.5 144 -64.5c64 0 111.833 21.667 143.5 65s47.5 102.666 47.5 177.999zM374.999 893
c11.333 8.66699 22.166 15.833 32.499 21.5s20.166 8.5 29.499 8.5s18 -2 26 -6s15 -9.16699 21 -15.5s10.667 -13.333 14 -21s5 -15.5 5 -23.5c0 -9.33301 -3 -17.833 -9 -25.5s-14 -14.167 -24 -19.5l-103 -56c-6.66699 -3.33301 -13.667 -6.16602 -21 -8.49902
s-14.666 -3.5 -21.999 -3.5c-13.333 0 -24.666 4.66699 -33.999 14s-14 20.666 -14 33.999c0 15.333 8.33301 29.333 25 42z" />
    <glyph glyph-name="Ocircumflex" unicode="&#xd4;" horiz-adv-x="779" 
d="M727 352c0 -54.667 -7.83398 -104.668 -23.501 -150.001s-38.167 -84.166 -67.5 -116.499s-64.666 -57.5 -105.999 -75.5s-88 -27 -140 -27c-54.667 0 -103 8.66699 -145 26s-77.333 42 -106 74s-50.334 70.333 -65.001 115s-22 94 -22 148s7.83301 103.333 23.5 148
s38.167 83.167 67.5 115.5s64.833 57.333 106.5 75s88.5 26.5 140.5 26.5c54 0 101.833 -8.66699 143.5 -26s76.834 -41.833 105.501 -73.5s50.5 -69.5 65.5 -113.5s22.5 -92.667 22.5 -146zM580.999 348.999c0 36 -4 68.668 -12 98.001s-19.833 54.5 -35.5 75.5
s-35.5 37.167 -59.5 48.5s-52 17 -84 17s-60 -5.66699 -84 -17s-44 -27.5 -60 -48.5s-27.833 -46.167 -35.5 -75.5s-11.5 -62 -11.5 -98c0 -76 15.667 -135.5 47 -178.5s79.333 -64.5 144 -64.5c64 0 111.833 21.667 143.5 65s47.5 102.666 47.5 177.999zM531.999 829
c6 -5.33301 10.833 -10.668 14.5 -16.001s5.5 -12 5.5 -20c0 -13.333 -4.66699 -24.833 -14 -34.5s-21.666 -14.5 -36.999 -14.5c-11.333 0 -21.5 2.66699 -30.5 8s-17.167 11.333 -24.5 18l-58 52l-56 -52c-7.33301 -6.66699 -15.5 -12.5 -24.5 -17.5
s-19.167 -7.5 -30.5 -7.5c-14.667 0 -26.5 4.5 -35.5 13.5s-13.5 20.167 -13.5 33.5c0 14.667 6.33301 27.334 19 38.001l67 60c13.333 12 26 20.5 38 25.5s24.667 7.5 38 7.5c12 0 23.667 -2.33301 35 -7s23.666 -13 36.999 -25z" />
    <glyph glyph-name="Otilde" unicode="&#xd5;" horiz-adv-x="779" 
d="M727 352c0 -54.667 -7.83398 -104.668 -23.501 -150.001s-38.167 -84.166 -67.5 -116.499s-64.666 -57.5 -105.999 -75.5s-88 -27 -140 -27c-54.667 0 -103 8.66699 -145 26s-77.333 42 -106 74s-50.334 70.333 -65.001 115s-22 94 -22 148s7.83301 103.333 23.5 148
s38.167 83.167 67.5 115.5s64.833 57.333 106.5 75s88.5 26.5 140.5 26.5c54 0 101.833 -8.66699 143.5 -26s76.834 -41.833 105.501 -73.5s50.5 -69.5 65.5 -113.5s22.5 -92.667 22.5 -146zM580.999 348.999c0 36 -4 68.668 -12 98.001s-19.833 54.5 -35.5 75.5
s-35.5 37.167 -59.5 48.5s-52 17 -84 17s-60 -5.66699 -84 -17s-44 -27.5 -60 -48.5s-27.833 -46.167 -35.5 -75.5s-11.5 -62 -11.5 -98c0 -76 15.667 -135.5 47 -178.5s79.333 -64.5 144 -64.5c64 0 111.833 21.667 143.5 65s47.5 102.666 47.5 177.999zM464.999 757
c-15.333 0 -28.9961 2.16895 -40.9961 6.50195s-23.667 8.83301 -35 13.5l-25 10c-8.66699 3.33301 -16.5 6.16602 -23.5 8.49902s-13.167 3.5 -18.5 3.5c-9.33301 0 -17 -2.33301 -23 -7s-11 -10.667 -15 -18c-4.66699 -6.66699 -9.33398 -11 -14.001 -13
s-10.334 -3 -17.001 -3c-11.333 0 -21.333 3.5 -30 10.5s-13 16.833 -13 29.5c0 11.333 2.5 21.666 7.5 30.999s10.167 17.666 15.5 24.999c11.333 14.667 25 26.167 41 34.5s31.667 12.5 47 12.5c13.333 0 25.666 -1.83301 36.999 -5.5s22.666 -8.16699 33.999 -13.5
l30 -13l22.5 -8.5c6.33301 -2.33301 12.833 -3.5 19.5 -3.5c10 0 17.667 2 23 6s9.66602 10 12.999 18c6.66699 14 15.667 21 27 21c9.33301 0 19.333 -3.33301 30 -10s16 -15.667 16 -27c0 -4.66699 -0.666992 -9.66699 -2 -15c-4 -12.667 -9.33301 -24.667 -16 -36
s-14.667 -21.166 -24 -29.499s-19.666 -15 -30.999 -20s-23 -7.5 -35 -7.5z" />
    <glyph glyph-name="Odieresis" unicode="&#xd6;" horiz-adv-x="779" 
d="M727 352c0 -54.667 -7.83398 -104.668 -23.501 -150.001s-38.167 -84.166 -67.5 -116.499s-64.666 -57.5 -105.999 -75.5s-88 -27 -140 -27c-54.667 0 -103 8.66699 -145 26s-77.333 42 -106 74s-50.334 70.333 -65.001 115s-22 94 -22 148s7.83301 103.333 23.5 148
s38.167 83.167 67.5 115.5s64.833 57.333 106.5 75s88.5 26.5 140.5 26.5c54 0 101.833 -8.66699 143.5 -26s76.834 -41.833 105.501 -73.5s50.5 -69.5 65.5 -113.5s22.5 -92.667 22.5 -146zM580.999 348.999c0 36 -4 68.668 -12 98.001s-19.833 54.5 -35.5 75.5
s-35.5 37.167 -59.5 48.5s-52 17 -84 17s-60 -5.66699 -84 -17s-44 -27.5 -60 -48.5s-27.833 -46.167 -35.5 -75.5s-11.5 -62 -11.5 -98c0 -76 15.667 -135.5 47 -178.5s79.333 -64.5 144 -64.5c64 0 111.833 21.667 143.5 65s47.5 102.666 47.5 177.999zM505.999 885
c18 0 34.499 -5.5 49.499 -16.5s22.5 -28.167 22.5 -51.5c0 -20.667 -6.66699 -37.167 -20 -49.5s-30.666 -18.5 -51.999 -18.5s-38.666 6.16699 -51.999 18.5s-20 28.833 -20 49.5c0 20 6.66699 36.333 20 49s30.666 19 51.999 19zM272.998 885
c18 0 34.499 -5.5 49.499 -16.5s22.5 -28.167 22.5 -51.5c0 -20.667 -6.66699 -37.167 -20 -49.5s-30.666 -18.5 -51.999 -18.5s-38.666 6.16699 -51.999 18.5s-20 28.833 -20 49.5c0 20 6.66699 36.333 20 49s30.666 19 51.999 19z" />
    <glyph glyph-name="multiply" unicode="&#xd7;" horiz-adv-x="610" 
d="M131 426c-10 10.667 -15 22.998 -15 36.998c0 16.667 8 33 24 49s33.333 24 52 24c15.333 0 28.333 -5.33301 39 -16l76 -78l81 85c10 10 21.667 15 35 15c18 0 35.333 -8.33301 52 -25c7.33301 -7.33301 13.333 -15.5 18 -24.5s7 -18.167 7 -27.5
c0 -6 -1.16699 -12.167 -3.5 -18.5s-6.16602 -12.166 -11.499 -17.499l-81 -84l76 -76c10.667 -10.667 16 -22.667 16 -36c0 -16.667 -8 -33.667 -24 -51c-14.667 -14.667 -31.334 -22 -50.001 -22c-16 0 -30.333 5.66699 -43 17l-74 75l-84 -86
c-10.667 -10.667 -22.667 -16 -36 -16c-9.33301 0 -18.5 2.33301 -27.5 7s-17.167 10.667 -24.5 18c-16 16 -24 33 -24 51c0 14.667 5.33301 27.334 16 38.001l83 85z" />
    <glyph glyph-name="Oslash" unicode="&#xd8;" horiz-adv-x="779" 
d="M727 344c0 -54.667 -7.83398 -104.167 -23.501 -148.5s-38.167 -82.333 -67.5 -114s-64.666 -56 -105.999 -73s-88 -25.5 -140 -25.5c-58 0 -109.333 9.66699 -154 29l-30 -45c-5.33301 -8 -11.833 -14.667 -19.5 -20s-17.5 -8 -29.5 -8c-14.667 0 -29 5.16699 -43 15.5
s-21 23.5 -21 39.5c0 3.33301 0.5 7.33301 1.5 12s3.16699 9.33398 6.5 14.001l40 58c-59.333 63.333 -89 150 -89 260c0 54 7.83301 103.833 23.5 149.5s38.167 85 67.5 118s64.833 58.833 106.5 77.5s88.5 28 140.5 28c31.333 0 60.5 -3.33301 87.5 -10
s52.167 -15.667 75.5 -27l21 32c7.33301 10 14.333 17.833 21 23.5s16 8.5 28 8.5c7.33301 0 14.833 -1.66699 22.5 -5s14.667 -7.66602 21 -12.999s11.5 -11.333 15.5 -18s6 -13.667 6 -21c0 -10.667 -4 -22.334 -12 -35.001l-32 -44
c27.333 -32.667 48 -70.834 62 -114.501s21 -91.5 21 -143.5zM198.999 341c0 -56 9 -103 27 -141l253 366c-26 14.667 -55.667 22 -89 22c-32 0 -60 -6.16699 -84 -18.5s-44 -29.5 -60 -51.5s-27.833 -48 -35.5 -78s-11.5 -63 -11.5 -99zM580.999 341
c0 51.333 -8 96 -24 134l-246 -355c24 -9.33301 50.333 -14 79 -14c64.667 0 112.667 20.333 144 61s47 98.667 47 174z" />
    <glyph glyph-name="Ugrave" unicode="&#xd9;" horiz-adv-x="707" 
d="M635 241c0 -42 -6.83496 -79 -20.502 -111s-33 -58.833 -58 -80.5s-55.167 -38.167 -90.5 -49.5s-74.333 -17 -117 -17c-91.333 0 -160.333 22 -207 66s-70 108 -70 192v404c0 20 6.5 34.333 19.5 43s30.167 13 51.5 13c20.667 0 37.334 -4.33301 50.001 -13
s19 -23 19 -43v-378c0 -57.333 12.167 -98.5 36.5 -123.5s59.5 -37.5 105.5 -37.5s81 12.5 105 37.5s36 66.167 36 123.5v377c0 20.667 6.5 35.334 19.5 44.001s30.167 13 51.5 13c20.667 0 37.334 -4.33301 50.001 -13s19 -23.334 19 -44.001v-403zM441.998 834
c16.667 -12.667 25 -26.666 25 -41.999c0 -13.333 -4.66699 -24.666 -14 -33.999s-20.666 -14 -33.999 -14c-7.33301 0 -14.666 1.16699 -21.999 3.5s-14.333 5.16602 -21 8.49902l-103 56c-10 5.33301 -18 11.833 -24 19.5s-9 16.167 -9 25.5c0 8 1.66699 15.833 5 23.5
s8 14.667 14 21s13 11.5 21 15.5s16.667 6 26 6s19.166 -2.83301 29.499 -8.5s21.166 -12.834 32.499 -21.501z" />
    <glyph glyph-name="Uacute" unicode="&#xda;" horiz-adv-x="707" 
d="M635 241c0 -42 -6.83496 -79 -20.502 -111s-33 -58.833 -58 -80.5s-55.167 -38.167 -90.5 -49.5s-74.333 -17 -117 -17c-91.333 0 -160.333 22 -207 66s-70 108 -70 192v404c0 20 6.5 34.333 19.5 43s30.167 13 51.5 13c20.667 0 37.334 -4.33301 50.001 -13
s19 -23 19 -43v-378c0 -57.333 12.167 -98.5 36.5 -123.5s59.5 -37.5 105.5 -37.5s81 12.5 105 37.5s36 66.167 36 123.5v377c0 20.667 6.5 35.334 19.5 44.001s30.167 13 51.5 13c20.667 0 37.334 -4.33301 50.001 -13s19 -23.334 19 -44.001v-403zM356.998 893
c11.333 8.66699 22.166 15.833 32.499 21.5s20.166 8.5 29.499 8.5s18 -2 26 -6s15 -9.16699 21 -15.5s10.667 -13.333 14 -21s5 -15.5 5 -23.5c0 -9.33301 -3 -17.833 -9 -25.5s-14 -14.167 -24 -19.5l-103 -56c-6.66699 -3.33301 -13.667 -6.16602 -21 -8.49902
s-14.666 -3.5 -21.999 -3.5c-13.333 0 -24.666 4.66699 -33.999 14s-14 20.666 -14 33.999c0 15.333 8.33301 29.333 25 42z" />
    <glyph glyph-name="Ucircumflex" unicode="&#xdb;" horiz-adv-x="707" 
d="M635 241c0 -42 -6.83496 -79 -20.502 -111s-33 -58.833 -58 -80.5s-55.167 -38.167 -90.5 -49.5s-74.333 -17 -117 -17c-91.333 0 -160.333 22 -207 66s-70 108 -70 192v404c0 20 6.5 34.333 19.5 43s30.167 13 51.5 13c20.667 0 37.334 -4.33301 50.001 -13
s19 -23 19 -43v-378c0 -57.333 12.167 -98.5 36.5 -123.5s59.5 -37.5 105.5 -37.5s81 12.5 105 37.5s36 66.167 36 123.5v377c0 20.667 6.5 35.334 19.5 44.001s30.167 13 51.5 13c20.667 0 37.334 -4.33301 50.001 -13s19 -23.334 19 -44.001v-403zM502.998 829
c6 -5.33301 10.833 -10.668 14.5 -16.001s5.5 -12 5.5 -20c0 -13.333 -4.66699 -24.833 -14 -34.5s-21.666 -14.5 -36.999 -14.5c-11.333 0 -21.5 2.66699 -30.5 8s-17.167 11.333 -24.5 18l-58 52l-56 -52c-7.33301 -6.66699 -15.5 -12.5 -24.5 -17.5
s-19.167 -7.5 -30.5 -7.5c-14.667 0 -26.5 4.5 -35.5 13.5s-13.5 20.167 -13.5 33.5c0 14.667 6.33301 27.334 19 38.001l67 60c13.333 12 26 20.5 38 25.5s24.667 7.5 38 7.5c12 0 23.667 -2.33301 35 -7s23.666 -13 36.999 -25z" />
    <glyph glyph-name="Udieresis" unicode="&#xdc;" horiz-adv-x="707" 
d="M635 241c0 -42 -6.83496 -79 -20.502 -111s-33 -58.833 -58 -80.5s-55.167 -38.167 -90.5 -49.5s-74.333 -17 -117 -17c-91.333 0 -160.333 22 -207 66s-70 108 -70 192v404c0 20 6.5 34.333 19.5 43s30.167 13 51.5 13c20.667 0 37.334 -4.33301 50.001 -13
s19 -23 19 -43v-378c0 -57.333 12.167 -98.5 36.5 -123.5s59.5 -37.5 105.5 -37.5s81 12.5 105 37.5s36 66.167 36 123.5v377c0 20.667 6.5 35.334 19.5 44.001s30.167 13 51.5 13c20.667 0 37.334 -4.33301 50.001 -13s19 -23.334 19 -44.001v-403zM475.998 885
c18 0 34.499 -5.5 49.499 -16.5s22.5 -28.167 22.5 -51.5c0 -20.667 -6.66699 -37.167 -20 -49.5s-30.666 -18.5 -51.999 -18.5s-38.666 6.16699 -51.999 18.5s-20 28.833 -20 49.5c0 20 6.66699 36.333 20 49s30.666 19 51.999 19zM242.997 885
c18 0 34.499 -5.5 49.499 -16.5s22.5 -28.167 22.5 -51.5c0 -20.667 -6.66699 -37.167 -20 -49.5s-30.666 -18.5 -51.999 -18.5s-38.666 6.16699 -51.999 18.5s-20 28.833 -20 49.5c0 20 6.66699 36.333 20 49s30.666 19 51.999 19z" />
    <glyph glyph-name="Yacute" unicode="&#xdd;" horiz-adv-x="615" 
d="M374 304l0.000976562 -253c0 -15.333 -5 -28.833 -15 -40.5s-28 -17.5 -54 -17.5c-47.333 0 -71 19.333 -71 58v253l-208 296c-10 14 -15 28.333 -15 43c0 16 6.16699 29.667 18.5 41s30.166 17 53.499 17c19.333 0 34 -4 44 -12s18.667 -17.333 26 -28l155 -234l149 224
c9.33301 13.333 19.166 25 29.499 35s25.5 15 45.5 15c22.667 0 40.334 -5.66699 53.001 -17s19 -25 19 -41c0 -6 -1.16699 -13.167 -3.5 -21.5s-5.83301 -15.5 -10.5 -21.5zM309.001 893c11.333 8.66699 22.166 15.833 32.499 21.5s20.166 8.5 29.499 8.5s18 -2 26 -6
s15 -9.16699 21 -15.5s10.667 -13.333 14 -21s5 -15.5 5 -23.5c0 -9.33301 -3 -17.833 -9 -25.5s-14 -14.167 -24 -19.5l-103 -56c-6.66699 -3.33301 -13.667 -6.16602 -21 -8.49902s-14.666 -3.5 -21.999 -3.5c-13.333 0 -24.666 4.66699 -33.999 14s-14 20.666 -14 33.999
c0 15.333 8.33301 29.333 25 42z" />
    <glyph glyph-name="Thorn" unicode="&#xde;" horiz-adv-x="621" 
d="M77 645c0 20 6.5 34.334 19.5 43.001s30.167 13 51.5 13c20.667 0 37.334 -4.33301 50.001 -13s19 -23 19 -43v-71h112c88 0 152 -19.333 192 -58s60 -93.334 60 -164.001c0 -24 -3.5 -48.833 -10.5 -74.5s-19.667 -49.334 -38 -71.001s-43.5 -39.5 -75.5 -53.5
s-73 -21 -123 -21h-117v-89c0 -15.333 -4.83301 -28.666 -14.5 -39.999s-27.834 -17 -54.501 -17c-47.333 0 -71 19.667 -71 59v600zM438 351.001c0 14 -2 27.5 -6 40.5s-10.667 24.5 -20 34.5s-21.666 18 -36.999 24s-34.666 9 -57.999 9h-100v-212h100
c23.333 0 42.666 2.66699 57.999 8s27.666 12.666 36.999 21.999s16 20.333 20 33s6 26.334 6 41.001z" />
    <glyph glyph-name="germandbls" unicode="&#xdf;" horiz-adv-x="648" 
d="M599 204c0 -34.667 -4.99609 -65.3311 -14.9961 -91.998s-24.333 -49.167 -43 -67.5s-40.834 -32.333 -66.501 -42s-54.5 -14.5 -86.5 -14.5c-21.333 0 -40.5 1.5 -57.5 4.5s-31.167 7.5 -42.5 13.5c-10.667 5.33301 -17.667 11.833 -21 19.5s-5 15.834 -5 24.501
c0 19.333 4.5 36 13.5 50s21.167 21 36.5 21c10.667 0 21.667 -2.5 33 -7.5s25.666 -7.5 42.999 -7.5c19.333 0 36 7.16699 50 21.5s21 38.166 21 71.499c0 19.333 -3.16699 35.5 -9.5 48.5s-15 23.333 -26 31s-23.667 13.167 -38 16.5s-29.833 5 -46.5 5h-18
c-18 0 -30.667 6.16699 -38 18.5s-11 25.833 -11 40.5s3.66699 28 11 40s20 18 38 18h13c22.667 0 41 8.16699 55 24.5s21 38.5 21 66.5c0 30.667 -9.16699 53.334 -27.5 68.001s-41.833 22 -70.5 22c-33.333 0 -58.833 -10.333 -76.5 -31s-26.5 -52 -26.5 -94v-433
c0 -18.667 -6.16699 -32 -18.5 -40s-28.833 -12 -49.5 -12c-47.333 0 -71 18 -71 54v436c0 70.667 20.167 127 60.5 169s102.5 63 186.5 63c40 0 74.5 -4.83301 103.5 -14.5s53.167 -22.834 72.5 -39.501s33.666 -36.334 42.999 -59.001s14 -47.334 14 -74.001
c0 -22 -3 -41.333 -9 -58s-13.5 -31 -22.5 -43s-18.833 -22 -29.5 -30s-20.334 -14 -29.001 -18c40.667 -10 74 -28.667 100 -56s39 -65.333 39 -114z" />
    <glyph glyph-name="agrave" unicode="&#xe0;" horiz-adv-x="577" 
d="M507 48c0 -19.333 -4.83398 -33.3389 -14.501 -42.0059s-26.167 -13 -49.5 -13c-20 0 -35.833 4.16699 -47.5 12.5s-17.5 22.5 -17.5 42.5v18c-7.33301 -9.33301 -15.5 -18.666 -24.5 -27.999s-20 -17.666 -33 -24.999s-28.167 -13.333 -45.5 -18s-37.333 -7 -60 -7
c-52.667 0 -94.167 13.833 -124.5 41.5s-45.5 64.5 -45.5 110.5c0 26.667 4.5 49.334 13.5 68.001s21.333 34.334 37 47.001s34 22.667 55 30s43.167 13 66.5 17c25.333 4.66699 50.833 8.33398 76.5 11.001s53.5 5 83.5 7v19c0 10 -1.33301 19.833 -4 29.5
s-7.16699 18.5 -13.5 26.5s-15.166 14.333 -26.499 19s-25.333 7 -42 7c-10.667 0 -20.5 -0.666992 -29.5 -2s-17.667 -3.5 -26 -6.5s-17 -7.16699 -26 -12.5l-30.5 -19c-8.66699 -6 -16.834 -11 -24.501 -15s-17.167 -6 -28.5 -6c-15.333 0 -29 5.83301 -41 17.5
s-18 25.834 -18 42.501c0 11.333 4.66699 23.5 14 36.5s23.5 25 42.5 36s42.333 20.167 70 27.5s60.167 11 97.5 11c76.667 0 131.834 -15 165.501 -45s50.5 -76.667 50.5 -140v-298zM376.999 235.994c-25.333 -2.66699 -49.5 -5.66699 -72.5 -9s-40.167 -6.33301 -51.5 -9
c-32 -6.66699 -52.833 -16.167 -62.5 -28.5s-14.5 -24.833 -14.5 -37.5c0 -17.333 5.33301 -30.833 16 -40.5s29 -14.5 55 -14.5c41.333 0 73.333 9.5 96 28.5s34 43.5 34 73.5v37zM379.999 663.994c6 -7.33301 10.1689 -14.334 12.502 -21.001s3.5 -12.667 3.5 -18
c0 -12.667 -4.83301 -22.5 -14.5 -29.5s-21.167 -10.5 -34.5 -10.5c-11.333 0 -21.5 2.33301 -30.5 7s-17.167 10.334 -24.5 17.001l-91 77c-14 12 -21 25.333 -21 40c0 14 6.16699 26.833 18.5 38.5s28.166 17.5 47.499 17.5c12 0 23.667 -2.83301 35 -8.5
s22.666 -15.5 33.999 -29.5z" />
    <glyph glyph-name="aacute" unicode="&#xe1;" horiz-adv-x="577" 
d="M507 48c0 -19.333 -4.83398 -33.3389 -14.501 -42.0059s-26.167 -13 -49.5 -13c-20 0 -35.833 4.16699 -47.5 12.5s-17.5 22.5 -17.5 42.5v18c-7.33301 -9.33301 -15.5 -18.666 -24.5 -27.999s-20 -17.666 -33 -24.999s-28.167 -13.333 -45.5 -18s-37.333 -7 -60 -7
c-52.667 0 -94.167 13.833 -124.5 41.5s-45.5 64.5 -45.5 110.5c0 26.667 4.5 49.334 13.5 68.001s21.333 34.334 37 47.001s34 22.667 55 30s43.167 13 66.5 17c25.333 4.66699 50.833 8.33398 76.5 11.001s53.5 5 83.5 7v19c0 10 -1.33301 19.833 -4 29.5
s-7.16699 18.5 -13.5 26.5s-15.166 14.333 -26.499 19s-25.333 7 -42 7c-10.667 0 -20.5 -0.666992 -29.5 -2s-17.667 -3.5 -26 -6.5s-17 -7.16699 -26 -12.5l-30.5 -19c-8.66699 -6 -16.834 -11 -24.501 -15s-17.167 -6 -28.5 -6c-15.333 0 -29 5.83301 -41 17.5
s-18 25.834 -18 42.501c0 11.333 4.66699 23.5 14 36.5s23.5 25 42.5 36s42.333 20.167 70 27.5s60.167 11 97.5 11c76.667 0 131.834 -15 165.501 -45s50.5 -76.667 50.5 -140v-298zM376.999 235.994c-25.333 -2.66699 -49.5 -5.66699 -72.5 -9s-40.167 -6.33301 -51.5 -9
c-32 -6.66699 -52.833 -16.167 -62.5 -28.5s-14.5 -24.833 -14.5 -37.5c0 -17.333 5.33301 -30.833 16 -40.5s29 -14.5 55 -14.5c41.333 0 73.333 9.5 96 28.5s34 43.5 34 73.5v37zM285.999 743.994c11.333 14 22.668 23.834 34.001 29.501s23 8.5 35 8.5
c19.333 0 35.166 -5.83301 47.499 -17.5s18.5 -24.5 18.5 -38.5c0 -14.667 -7 -28 -21 -40l-91 -77c-7.33301 -6.66699 -15.5 -12.334 -24.5 -17.001s-19.167 -7 -30.5 -7c-13.333 0 -24.833 3.5 -34.5 10.5s-14.5 16.833 -14.5 29.5c0 5.33301 1.16699 11.333 3.5 18
s6.5 13.667 12.5 21z" />
    <glyph glyph-name="acircumflex" unicode="&#xe2;" horiz-adv-x="577" 
d="M507 48c0 -19.333 -4.83398 -33.3389 -14.501 -42.0059s-26.167 -13 -49.5 -13c-20 0 -35.833 4.16699 -47.5 12.5s-17.5 22.5 -17.5 42.5v18c-7.33301 -9.33301 -15.5 -18.666 -24.5 -27.999s-20 -17.666 -33 -24.999s-28.167 -13.333 -45.5 -18s-37.333 -7 -60 -7
c-52.667 0 -94.167 13.833 -124.5 41.5s-45.5 64.5 -45.5 110.5c0 26.667 4.5 49.334 13.5 68.001s21.333 34.334 37 47.001s34 22.667 55 30s43.167 13 66.5 17c25.333 4.66699 50.833 8.33398 76.5 11.001s53.5 5 83.5 7v19c0 10 -1.33301 19.833 -4 29.5
s-7.16699 18.5 -13.5 26.5s-15.166 14.333 -26.499 19s-25.333 7 -42 7c-10.667 0 -20.5 -0.666992 -29.5 -2s-17.667 -3.5 -26 -6.5s-17 -7.16699 -26 -12.5l-30.5 -19c-8.66699 -6 -16.834 -11 -24.501 -15s-17.167 -6 -28.5 -6c-15.333 0 -29 5.83301 -41 17.5
s-18 25.834 -18 42.501c0 11.333 4.66699 23.5 14 36.5s23.5 25 42.5 36s42.333 20.167 70 27.5s60.167 11 97.5 11c76.667 0 131.834 -15 165.501 -45s50.5 -76.667 50.5 -140v-298zM376.999 235.994c-25.333 -2.66699 -49.5 -5.66699 -72.5 -9s-40.167 -6.33301 -51.5 -9
c-32 -6.66699 -52.833 -16.167 -62.5 -28.5s-14.5 -24.833 -14.5 -37.5c0 -17.333 5.33301 -30.833 16 -40.5s29 -14.5 55 -14.5c41.333 0 73.333 9.5 96 28.5s34 43.5 34 73.5v37zM216.999 743.994c12.667 13.333 24.668 23 36.001 29s23 9 35 9
c13.333 0 25.666 -3 36.999 -9s23.333 -15.667 36 -29l72 -77c11.333 -11.333 17 -23 17 -35c0 -14 -4.66699 -25.333 -14 -34s-21 -13 -35 -13c-11.333 0 -21.5 2.16699 -30.5 6.5s-17.167 10.166 -24.5 17.499l-56 59l-58 -59
c-7.33301 -7.33301 -15.5 -13.166 -24.5 -17.499s-19.167 -6.5 -30.5 -6.5c-14 0 -25.667 4 -35 12s-14 19.333 -14 34c0 12.667 5.66699 24.667 17 36z" />
    <glyph glyph-name="atilde" unicode="&#xe3;" horiz-adv-x="577" 
d="M507 48c0 -19.333 -4.83398 -33.3389 -14.501 -42.0059s-26.167 -13 -49.5 -13c-20 0 -35.833 4.16699 -47.5 12.5s-17.5 22.5 -17.5 42.5v18c-7.33301 -9.33301 -15.5 -18.666 -24.5 -27.999s-20 -17.666 -33 -24.999s-28.167 -13.333 -45.5 -18s-37.333 -7 -60 -7
c-52.667 0 -94.167 13.833 -124.5 41.5s-45.5 64.5 -45.5 110.5c0 26.667 4.5 49.334 13.5 68.001s21.333 34.334 37 47.001s34 22.667 55 30s43.167 13 66.5 17c25.333 4.66699 50.833 8.33398 76.5 11.001s53.5 5 83.5 7v19c0 10 -1.33301 19.833 -4 29.5
s-7.16699 18.5 -13.5 26.5s-15.166 14.333 -26.499 19s-25.333 7 -42 7c-10.667 0 -20.5 -0.666992 -29.5 -2s-17.667 -3.5 -26 -6.5s-17 -7.16699 -26 -12.5l-30.5 -19c-8.66699 -6 -16.834 -11 -24.501 -15s-17.167 -6 -28.5 -6c-15.333 0 -29 5.83301 -41 17.5
s-18 25.834 -18 42.501c0 11.333 4.66699 23.5 14 36.5s23.5 25 42.5 36s42.333 20.167 70 27.5s60.167 11 97.5 11c76.667 0 131.834 -15 165.501 -45s50.5 -76.667 50.5 -140v-298zM376.999 235.994c-25.333 -2.66699 -49.5 -5.66699 -72.5 -9s-40.167 -6.33301 -51.5 -9
c-32 -6.66699 -52.833 -16.167 -62.5 -28.5s-14.5 -24.833 -14.5 -37.5c0 -17.333 5.33301 -30.833 16 -40.5s29 -14.5 55 -14.5c41.333 0 73.333 9.5 96 28.5s34 43.5 34 73.5v37zM373.999 596.994c-15.333 0 -28.9961 2.16895 -40.9961 6.50195s-23.667 8.83301 -35 13.5
l-25 10c-8.66699 3.33301 -16.5 6.16602 -23.5 8.49902s-13.167 3.5 -18.5 3.5c-9.33301 0 -17 -2.33301 -23 -7s-11 -10.667 -15 -18c-4.66699 -6.66699 -9.33398 -11 -14.001 -13s-10.334 -3 -17.001 -3c-11.333 0 -21.333 3.5 -30 10.5s-13 16.833 -13 29.5
c0 11.333 2.5 21.666 7.5 30.999s10.167 17.666 15.5 24.999c11.333 14.667 25 26.167 41 34.5s31.667 12.5 47 12.5c13.333 0 25.666 -1.83301 36.999 -5.5s22.666 -8.16699 33.999 -13.5l30 -13l22.5 -8.5c6.33301 -2.33301 12.833 -3.5 19.5 -3.5c10 0 17.667 2 23 6
s9.66602 10 12.999 18c6.66699 14 15.667 21 27 21c9.33301 0 19.333 -3.33301 30 -10s16 -15.667 16 -27c0 -4.66699 -0.666992 -9.66699 -2 -15c-4 -12.667 -9.33301 -24.667 -16 -36s-14.667 -21.166 -24 -29.499s-19.666 -15 -30.999 -20s-23 -7.5 -35 -7.5z" />
    <glyph glyph-name="adieresis" unicode="&#xe4;" horiz-adv-x="577" 
d="M507 48c0 -19.333 -4.83398 -33.3389 -14.501 -42.0059s-26.167 -13 -49.5 -13c-20 0 -35.833 4.16699 -47.5 12.5s-17.5 22.5 -17.5 42.5v18c-7.33301 -9.33301 -15.5 -18.666 -24.5 -27.999s-20 -17.666 -33 -24.999s-28.167 -13.333 -45.5 -18s-37.333 -7 -60 -7
c-52.667 0 -94.167 13.833 -124.5 41.5s-45.5 64.5 -45.5 110.5c0 26.667 4.5 49.334 13.5 68.001s21.333 34.334 37 47.001s34 22.667 55 30s43.167 13 66.5 17c25.333 4.66699 50.833 8.33398 76.5 11.001s53.5 5 83.5 7v19c0 10 -1.33301 19.833 -4 29.5
s-7.16699 18.5 -13.5 26.5s-15.166 14.333 -26.499 19s-25.333 7 -42 7c-10.667 0 -20.5 -0.666992 -29.5 -2s-17.667 -3.5 -26 -6.5s-17 -7.16699 -26 -12.5l-30.5 -19c-8.66699 -6 -16.834 -11 -24.501 -15s-17.167 -6 -28.5 -6c-15.333 0 -29 5.83301 -41 17.5
s-18 25.834 -18 42.501c0 11.333 4.66699 23.5 14 36.5s23.5 25 42.5 36s42.333 20.167 70 27.5s60.167 11 97.5 11c76.667 0 131.834 -15 165.501 -45s50.5 -76.667 50.5 -140v-298zM376.999 235.994c-25.333 -2.66699 -49.5 -5.66699 -72.5 -9s-40.167 -6.33301 -51.5 -9
c-32 -6.66699 -52.833 -16.167 -62.5 -28.5s-14.5 -24.833 -14.5 -37.5c0 -17.333 5.33301 -30.833 16 -40.5s29 -14.5 55 -14.5c41.333 0 73.333 9.5 96 28.5s34 43.5 34 73.5v37zM404.999 734.994c18 0 34.499 -5.5 49.499 -16.5s22.5 -28.167 22.5 -51.5
c0 -20.667 -6.66699 -37.167 -20 -49.5s-30.666 -18.5 -51.999 -18.5s-38.666 6.16699 -51.999 18.5s-20 28.833 -20 49.5c0 20 6.66699 36.333 20 49s30.666 19 51.999 19zM171.998 734.994c18 0 34.499 -5.5 49.499 -16.5s22.5 -28.167 22.5 -51.5
c0 -20.667 -6.66699 -37.167 -20 -49.5s-30.666 -18.5 -51.999 -18.5s-38.666 6.16699 -51.999 18.5s-20 28.833 -20 49.5c0 20 6.66699 36.333 20 49s30.666 19 51.999 19z" />
    <glyph glyph-name="aring" unicode="&#xe5;" horiz-adv-x="577" 
d="M507 48c0 -19.333 -4.83398 -33.3389 -14.501 -42.0059s-26.167 -13 -49.5 -13c-20 0 -35.833 4.16699 -47.5 12.5s-17.5 22.5 -17.5 42.5v18c-7.33301 -9.33301 -15.5 -18.666 -24.5 -27.999s-20 -17.666 -33 -24.999s-28.167 -13.333 -45.5 -18s-37.333 -7 -60 -7
c-52.667 0 -94.167 13.833 -124.5 41.5s-45.5 64.5 -45.5 110.5c0 26.667 4.5 49.334 13.5 68.001s21.333 34.334 37 47.001s34 22.667 55 30s43.167 13 66.5 17c25.333 4.66699 50.833 8.33398 76.5 11.001s53.5 5 83.5 7v19c0 10 -1.33301 19.833 -4 29.5
s-7.16699 18.5 -13.5 26.5s-15.166 14.333 -26.499 19s-25.333 7 -42 7c-10.667 0 -20.5 -0.666992 -29.5 -2s-17.667 -3.5 -26 -6.5s-17 -7.16699 -26 -12.5l-30.5 -19c-8.66699 -6 -16.834 -11 -24.501 -15s-17.167 -6 -28.5 -6c-15.333 0 -29 5.83301 -41 17.5
s-18 25.834 -18 42.501c0 11.333 4.66699 23.5 14 36.5s23.5 25 42.5 36s42.333 20.167 70 27.5s60.167 11 97.5 11c76.667 0 131.834 -15 165.501 -45s50.5 -76.667 50.5 -140v-298zM376.999 235.994c-25.333 -2.66699 -49.5 -5.66699 -72.5 -9s-40.167 -6.33301 -51.5 -9
c-32 -6.66699 -52.833 -16.167 -62.5 -28.5s-14.5 -24.833 -14.5 -37.5c0 -17.333 5.33301 -30.833 16 -40.5s29 -14.5 55 -14.5c41.333 0 73.333 9.5 96 28.5s34 43.5 34 73.5v37zM417.999 690.994c0 -16 -3.16699 -31.167 -9.5 -45.5s-15 -26.666 -26 -36.999
s-23.833 -18.5 -38.5 -24.5s-30.334 -9 -47.001 -9s-32.334 3 -47.001 9s-27.5 14.167 -38.5 24.5s-19.667 22.666 -26 36.999s-9.5 29.5 -9.5 45.5c0 16.667 3.16699 32 9.5 46s15 26.167 26 36.5s23.833 18.5 38.5 24.5s30.334 9 47.001 9s32.334 -3 47.001 -9
s27.5 -14.167 38.5 -24.5s19.667 -22.5 26 -36.5s9.5 -29.333 9.5 -46zM342.999 690.994c0 12.667 -4.5 23.5 -13.5 32.5s-19.833 13.5 -32.5 13.5s-23.5 -4.5 -32.5 -13.5s-13.5 -19.833 -13.5 -32.5s4.5 -23.5 13.5 -32.5s19.833 -13.5 32.5 -13.5s23.5 4.5 32.5 13.5
s13.5 19.833 13.5 32.5z" />
    <glyph glyph-name="ae" unicode="&#xe6;" horiz-adv-x="911" 
d="M638 531c72.667 0 130.5 -22.499 173.5 -67.499s64.5 -109.5 64.5 -193.5c0 -19.333 -5.83301 -32.666 -17.5 -39.999s-28.167 -11 -49.5 -11h-290c6.66699 -82 51 -123 133 -123c21.333 0 39.333 3.5 54 10.5l38 18.5c10 5.33301 19.333 10.666 28 15.999s19 8 31 8
c13.333 0 25.666 -6.66699 36.999 -20s17 -28.333 17 -45c0 -12 -3.5 -22.5 -10.5 -31.5s-18.5 -18.5 -34.5 -28.5c-21.333 -13.333 -46.833 -23.5 -76.5 -30.5s-58.834 -10.5 -87.501 -10.5c-52 0 -97.333 7.66699 -136 23s-69.334 40.666 -92.001 75.999
c-11.333 -14 -23.5 -26.667 -36.5 -38s-27.5 -21.166 -43.5 -29.499s-33.833 -14.833 -53.5 -19.5s-41.834 -7 -66.501 -7c-58.667 0 -102.5 13.833 -131.5 41.5s-43.5 64.5 -43.5 110.5c0 26.667 4.5 49.334 13.5 68.001s21.333 34.334 37 47.001s34 22.667 55 30
s43.167 13 66.5 17c25.333 4.66699 50.833 8.33398 76.5 11.001s53.5 5 83.5 7v24c0 10 -1.33301 19.667 -4 29s-7.5 17.666 -14.5 24.999s-16.667 13.166 -29 17.499s-27.833 6.5 -46.5 6.5c-17.333 0 -34.666 -2.33301 -51.999 -7s-33.666 -15.334 -48.999 -32.001
c-7.33301 -7.33301 -14.666 -13.5 -21.999 -18.5s-16.666 -7.5 -27.999 -7.5c-10 0 -18.5 1.5 -25.5 4.5s-13.167 7.16699 -18.5 12.5c-6 5.33301 -11 11.666 -15 18.999s-6 16.333 -6 27c0 11.333 4.83301 23.5 14.5 36.5s23.667 25 42 36s41 20.167 68 27.5
s57.833 11 92.5 11c44 0 80 -6.66699 108 -20s51.333 -31.666 70 -54.999c20 21.333 44.333 39.166 73 53.499s63 21.5 103 21.5zM377 236.001c-25.333 -2.66699 -49.5 -5.66699 -72.5 -9s-40.167 -6.33301 -51.5 -9c-32 -6.66699 -52.833 -16.167 -62.5 -28.5
s-14.5 -24.833 -14.5 -37.5c0 -17.333 5.33301 -30.833 16 -40.5s29 -14.5 55 -14.5c41.333 0 73.333 9.5 96 28.5s34 43.5 34 73.5v37zM737 322.001c0 12 -2 23.999 -6 35.999s-10.167 23 -18.5 33s-18.833 18 -31.5 24s-28 9 -46 9c-28.667 0 -53.5 -8.66699 -74.5 -26
s-33.167 -42.666 -36.5 -75.999h213z" />
    <glyph glyph-name="ccedilla" unicode="&#xe7;" horiz-adv-x="552" 
d="M418 -125c0 -32 -10.9971 -58.167 -32.9971 -78.5s-53 -30.5 -93 -30.5c-24.667 0 -45 2.83301 -61 8.5s-27.333 11.167 -34 16.5c-5.33301 4 -9 8.83301 -11 14.5s-3 11.167 -3 16.5c0 10 3.16699 19.167 9.5 27.5s14.833 12.5 25.5 12.5
c6.66699 0 12.5 -1.16699 17.5 -3.5l15.5 -7c5.33301 -2.33301 11.166 -4.66602 17.499 -6.99902s14.166 -3.5 23.499 -3.5c14 0 24 2.83301 30 8.5s9 13.167 9 22.5c0 19.333 -18 29 -54 29c-8.66699 0 -17.334 1.16699 -26.001 3.5s-11.334 9.83301 -8.00098 22.5l15 57
c-29.333 3.33301 -55.333 10 -78 20c-32.667 15.333 -59.167 35.333 -79.5 60s-35 53 -44 85s-13.5 65 -13.5 99c0 44.667 6.33301 84.667 19 120s30.667 65 54 89s51.166 42.333 83.499 55s68.166 19 107.499 19c36.667 0 68.5 -5 95.5 -15s49.5 -22 67.5 -36
s31.5 -29 40.5 -45s13.5 -30 13.5 -42c0 -17.333 -6.16699 -31.666 -18.5 -42.999s-27.166 -17 -44.499 -17c-12.667 0 -22.834 3.5 -30.501 10.5l-26.5 24.5c-15.333 14 -30 25.167 -44 33.5s-32.667 12.5 -56 12.5c-27.333 0 -49 -6 -65 -18s-28 -26.5 -36 -43.5
s-13.167 -34.833 -15.5 -53.5s-3.5 -34.334 -3.5 -47.001c0 -14 1.5 -30 4.5 -48s9 -34.833 18 -50.5s21.667 -28.834 38 -39.501s37.5 -16 63.5 -16c24.667 0 44 4 58 12s29.333 20.667 46 38c7.33301 8 14.5 14.833 21.5 20.5s16.167 8.5 27.5 8.5
c8 0 15.833 -1.66699 23.5 -5s14.334 -7.83301 20.001 -13.5s10.334 -12.167 14.001 -19.5s5.5 -15 5.5 -23c0 -13.333 -5.16699 -27.833 -15.5 -43.5s-25.166 -30.167 -44.499 -43.5s-43 -24.333 -71 -33c-19.333 -6.66699 -40.333 -11 -63 -13l-7 -25
c30.667 -2 54.167 -10.333 70.5 -25s24.5 -34 24.5 -58z" />
    <glyph glyph-name="egrave" unicode="&#xe8;" horiz-adv-x="577" 
d="M304 531c72.667 0 130.502 -22.5 173.502 -67.5s64.5 -109.5 64.5 -193.5c0 -19.333 -5.83301 -32.666 -17.5 -39.999s-28.167 -11 -49.5 -11h-290c6.66699 -82 51 -123 133 -123c21.333 0 39.333 3.5 54 10.5l38 18.5c10 5.33301 19.333 10.666 28 15.999s19 8 31 8
c13.333 0 25.666 -6.66699 36.999 -20s17 -28.333 17 -45c0 -12 -3.5 -22.5 -10.5 -31.5s-18.5 -18.5 -34.5 -28.5c-21.333 -13.333 -46.833 -23.5 -76.5 -30.5s-58.834 -10.5 -87.501 -10.5c-41.333 0 -78.833 5.33301 -112.5 16s-62.167 27 -85.5 49
s-41.333 49.833 -54 83.5s-19 73.5 -19 119.5c0 35.333 5 69.833 15 103.5s25.667 63.5 47 89.5s48.5 47 81.5 63s72.167 24 117.5 24zM403.002 322c0 12 -2 23.999 -6 35.999s-10.167 23 -18.5 33s-18.833 18 -31.5 24s-28 9 -46 9c-28.667 0 -53.5 -8.66699 -74.5 -26
s-33.167 -42.666 -36.5 -75.999h213zM383.002 663.999c6 -7.33301 10.1689 -14.334 12.502 -21.001s3.5 -12.667 3.5 -18c0 -12.667 -4.83301 -22.5 -14.5 -29.5s-21.167 -10.5 -34.5 -10.5c-11.333 0 -21.5 2.33301 -30.5 7s-17.167 10.334 -24.5 17.001l-91 77
c-14 12 -21 25.333 -21 40c0 14 6.16699 26.833 18.5 38.5s28.166 17.5 47.499 17.5c12 0 23.667 -2.83301 35 -8.5s22.666 -15.5 33.999 -29.5z" />
    <glyph glyph-name="eacute" unicode="&#xe9;" horiz-adv-x="577" 
d="M304 531c72.667 0 130.502 -22.5 173.502 -67.5s64.5 -109.5 64.5 -193.5c0 -19.333 -5.83301 -32.666 -17.5 -39.999s-28.167 -11 -49.5 -11h-290c6.66699 -82 51 -123 133 -123c21.333 0 39.333 3.5 54 10.5l38 18.5c10 5.33301 19.333 10.666 28 15.999s19 8 31 8
c13.333 0 25.666 -6.66699 36.999 -20s17 -28.333 17 -45c0 -12 -3.5 -22.5 -10.5 -31.5s-18.5 -18.5 -34.5 -28.5c-21.333 -13.333 -46.833 -23.5 -76.5 -30.5s-58.834 -10.5 -87.501 -10.5c-41.333 0 -78.833 5.33301 -112.5 16s-62.167 27 -85.5 49
s-41.333 49.833 -54 83.5s-19 73.5 -19 119.5c0 35.333 5 69.833 15 103.5s25.667 63.5 47 89.5s48.5 47 81.5 63s72.167 24 117.5 24zM403.002 322c0 12 -2 23.999 -6 35.999s-10.167 23 -18.5 33s-18.833 18 -31.5 24s-28 9 -46 9c-28.667 0 -53.5 -8.66699 -74.5 -26
s-33.167 -42.666 -36.5 -75.999h213zM294.002 743.999c11.333 14 22.668 23.834 34.001 29.501s23 8.5 35 8.5c19.333 0 35.166 -5.83301 47.499 -17.5s18.5 -24.5 18.5 -38.5c0 -14.667 -7 -28 -21 -40l-91 -77c-7.33301 -6.66699 -15.5 -12.334 -24.5 -17.001
s-19.167 -7 -30.5 -7c-13.333 0 -24.833 3.5 -34.5 10.5s-14.5 16.833 -14.5 29.5c0 5.33301 1.16699 11.333 3.5 18s6.5 13.667 12.5 21z" />
    <glyph glyph-name="ecircumflex" unicode="&#xea;" horiz-adv-x="577" 
d="M304 531c72.667 0 130.502 -22.5 173.502 -67.5s64.5 -109.5 64.5 -193.5c0 -19.333 -5.83301 -32.666 -17.5 -39.999s-28.167 -11 -49.5 -11h-290c6.66699 -82 51 -123 133 -123c21.333 0 39.333 3.5 54 10.5l38 18.5c10 5.33301 19.333 10.666 28 15.999s19 8 31 8
c13.333 0 25.666 -6.66699 36.999 -20s17 -28.333 17 -45c0 -12 -3.5 -22.5 -10.5 -31.5s-18.5 -18.5 -34.5 -28.5c-21.333 -13.333 -46.833 -23.5 -76.5 -30.5s-58.834 -10.5 -87.501 -10.5c-41.333 0 -78.833 5.33301 -112.5 16s-62.167 27 -85.5 49
s-41.333 49.833 -54 83.5s-19 73.5 -19 119.5c0 35.333 5 69.833 15 103.5s25.667 63.5 47 89.5s48.5 47 81.5 63s72.167 24 117.5 24zM403.002 322c0 12 -2 23.999 -6 35.999s-10.167 23 -18.5 33s-18.833 18 -31.5 24s-28 9 -46 9c-28.667 0 -53.5 -8.66699 -74.5 -26
s-33.167 -42.666 -36.5 -75.999h213zM239.002 743.999c12.667 13.333 24.668 23 36.001 29s23 9 35 9c13.333 0 25.666 -3 36.999 -9s23.333 -15.667 36 -29l72 -77c11.333 -11.333 17 -23 17 -35c0 -14 -4.66699 -25.333 -14 -34s-21 -13 -35 -13
c-11.333 0 -21.5 2.16699 -30.5 6.5s-17.167 10.166 -24.5 17.499l-56 59l-58 -59c-7.33301 -7.33301 -15.5 -13.166 -24.5 -17.499s-19.167 -6.5 -30.5 -6.5c-14 0 -25.667 4 -35 12s-14 19.333 -14 34c0 12.667 5.66699 24.667 17 36z" />
    <glyph glyph-name="edieresis" unicode="&#xeb;" horiz-adv-x="577" 
d="M304 531c72.667 0 130.502 -22.5 173.502 -67.5s64.5 -109.5 64.5 -193.5c0 -19.333 -5.83301 -32.666 -17.5 -39.999s-28.167 -11 -49.5 -11h-290c6.66699 -82 51 -123 133 -123c21.333 0 39.333 3.5 54 10.5l38 18.5c10 5.33301 19.333 10.666 28 15.999s19 8 31 8
c13.333 0 25.666 -6.66699 36.999 -20s17 -28.333 17 -45c0 -12 -3.5 -22.5 -10.5 -31.5s-18.5 -18.5 -34.5 -28.5c-21.333 -13.333 -46.833 -23.5 -76.5 -30.5s-58.834 -10.5 -87.501 -10.5c-41.333 0 -78.833 5.33301 -112.5 16s-62.167 27 -85.5 49
s-41.333 49.833 -54 83.5s-19 73.5 -19 119.5c0 35.333 5 69.833 15 103.5s25.667 63.5 47 89.5s48.5 47 81.5 63s72.167 24 117.5 24zM403.002 322c0 12 -2 23.999 -6 35.999s-10.167 23 -18.5 33s-18.833 18 -31.5 24s-28 9 -46 9c-28.667 0 -53.5 -8.66699 -74.5 -26
s-33.167 -42.666 -36.5 -75.999h213zM419.002 734.999c18 0 34.499 -5.5 49.499 -16.5s22.5 -28.167 22.5 -51.5c0 -20.667 -6.66699 -37.167 -20 -49.5s-30.666 -18.5 -51.999 -18.5s-38.666 6.16699 -51.999 18.5s-20 28.833 -20 49.5c0 20 6.66699 36.333 20 49
s30.666 19 51.999 19zM186.001 734.999c18 0 34.499 -5.5 49.499 -16.5s22.5 -28.167 22.5 -51.5c0 -20.667 -6.66699 -37.167 -20 -49.5s-30.666 -18.5 -51.999 -18.5s-38.666 6.16699 -51.999 18.5s-20 28.833 -20 49.5c0 20 6.66699 36.333 20 49s30.666 19 51.999 19z
" />
    <glyph glyph-name="igrave" unicode="&#xec;" horiz-adv-x="279" 
d="M141 -7c-47.333 0 -70.999 18 -70.999 54v411c0 19.333 5.66699 34.666 17 45.999s29.666 17 54.999 17c21.333 0 37.833 -4.66699 49.5 -14s17.5 -23.666 17.5 -42.999v-415c0 -20 -6 -34.333 -18 -43s-28.667 -13 -50 -13zM234.001 664
c6 -7.33301 10.1689 -14.334 12.502 -21.001s3.5 -12.667 3.5 -18c0 -12.667 -4.83301 -22.5 -14.5 -29.5s-21.167 -10.5 -34.5 -10.5c-11.333 0 -21.5 2.33301 -30.5 7s-17.167 10.334 -24.5 17.001l-91 77c-14 12 -21 25.333 -21 40c0 14 6.16699 26.833 18.5 38.5
s28.166 17.5 47.499 17.5c12 0 23.667 -2.83301 35 -8.5s22.666 -15.5 33.999 -29.5z" />
    <glyph glyph-name="iacute" unicode="&#xed;" horiz-adv-x="279" 
d="M141 -7c-47.333 0 -70.999 18 -70.999 54v411c0 19.333 5.66699 34.666 17 45.999s29.666 17 54.999 17c21.333 0 37.833 -4.66699 49.5 -14s17.5 -23.666 17.5 -42.999v-415c0 -20 -6 -34.333 -18 -43s-28.667 -13 -50 -13zM115.001 744
c11.333 14 22.668 23.834 34.001 29.501s23 8.5 35 8.5c19.333 0 35.166 -5.83301 47.499 -17.5s18.5 -24.5 18.5 -38.5c0 -14.667 -7 -28 -21 -40l-91 -77c-7.33301 -6.66699 -15.5 -12.334 -24.5 -17.001s-19.167 -7 -30.5 -7c-13.333 0 -24.833 3.5 -34.5 10.5
s-14.5 16.833 -14.5 29.5c0 5.33301 1.16699 11.333 3.5 18s6.5 13.667 12.5 21z" />
    <glyph glyph-name="icircumflex" unicode="&#xee;" horiz-adv-x="279" 
d="M141 -7c-47.333 0 -70.999 18 -70.999 54v411c0 19.333 5.66699 34.666 17 45.999s29.666 17 54.999 17c21.333 0 37.833 -4.66699 49.5 -14s17.5 -23.666 17.5 -42.999v-415c0 -20 -6 -34.333 -18 -43s-28.667 -13 -50 -13zM70.001 744
c12.667 13.333 24.668 23 36.001 29s23 9 35 9c13.333 0 25.666 -3 36.999 -9s23.333 -15.667 36 -29l72 -77c11.333 -11.333 17 -23 17 -35c0 -14 -4.66699 -25.333 -14 -34s-21 -13 -35 -13c-11.333 0 -21.5 2.16699 -30.5 6.5s-17.167 10.166 -24.5 17.499l-56 59
l-58 -59c-7.33301 -7.33301 -15.5 -13.166 -24.5 -17.499s-19.167 -6.5 -30.5 -6.5c-14 0 -25.667 4 -35 12s-14 19.333 -14 34c0 12.667 5.66699 24.667 17 36z" />
    <glyph glyph-name="idieresis" unicode="&#xef;" horiz-adv-x="279" 
d="M229 735c40.667 0 61 -22.667 61 -68s-20.333 -68 -61 -68s-61 22.667 -61 68s20.333 68 61 68zM51 735c40.667 0 61 -22.667 61 -68s-20.333 -68 -61 -68s-61 22.667 -61 68s20.333 68 61 68zM141 -7c-47.333 0 -70.999 18 -70.999 54v411
c0 19.333 5.66699 34.666 17 45.999s29.666 17 54.999 17c21.333 0 37.833 -4.66699 49.5 -14s17.5 -23.666 17.5 -42.999v-415c0 -20 -6 -34.333 -18 -43s-28.667 -13 -50 -13z" />
    <glyph glyph-name="eth" unicode="&#xf0;" horiz-adv-x="585" 
d="M459 580c51.333 -74 77 -164 77 -270c0 -47.333 -4.5 -91.166 -13.5 -131.499s-23.667 -75 -44 -104s-46.666 -51.667 -78.999 -68s-71.833 -24.5 -118.5 -24.5c-38.667 0 -72.834 6 -102.501 18s-54.5 28.667 -74.5 50s-35.167 46.333 -45.5 75s-15.5 60 -15.5 94
c0 32.667 4.33301 62.667 13 90s21.667 51 39 71s39 35.667 65 47s56.333 17 91 17c20.667 0 39.334 -2.5 56.001 -7.5s31 -11.333 43 -19s21.833 -15.667 29.5 -24s13.167 -15.5 16.5 -21.5c-2.66699 24.667 -7.66699 49.334 -15 74.001s-17 45.667 -29 63l-30 -17
c-12.667 -7.33301 -24.667 -11 -36 -11c-10.667 0 -20.667 3.16699 -30 9.5s-16 14.5 -20 24.5c-2.66699 5.33301 -4 11.666 -4 18.999s1.5 14.166 4.5 20.499s7.83301 11.833 14.5 16.5l37 23c-12.667 6.66699 -27.334 10 -44.001 10c-9.33301 0 -17.333 -1 -24 -3
s-13 -4.16699 -19 -6.5s-12.167 -4.5 -18.5 -6.5s-13.833 -3 -22.5 -3c-18.667 0 -32.834 5.16699 -42.501 15.5s-14.5 22.833 -14.5 37.5s4.33301 26.834 13 36.501s19.834 17 33.501 22s28.667 8.5 45 10.5s32.166 3 47.499 3c32 0 60.833 -4.33301 86.5 -13
s48.167 -20.334 67.5 -35.001l56 36c7.33301 4 14 7.33301 20 10s12.333 4 19 4c10.667 0 19.834 -3.5 27.501 -10.5s13.167 -13.5 16.5 -19.5c3.33301 -5.33301 5.33301 -10 6 -14s1 -7.66699 1 -11c0 -16.667 -9.33301 -30.667 -28 -42zM184 216
c0 -38 9.33203 -68.502 27.999 -91.502s44.334 -34.5 77.001 -34.5s57.667 11.333 75 34s26 53.334 26 92.001c0 36.667 -9.16699 65.334 -27.5 86.001s-43.833 31 -76.5 31c-34 0 -59.5 -10 -76.5 -30s-25.5 -49 -25.5 -87z" />
    <glyph glyph-name="ntilde" unicode="&#xf1;" horiz-adv-x="611" 
d="M359 531c34.667 0 63.502 -5.49805 86.502 -16.498s42.833 -26.833 59.5 -47.5c17.333 -22.667 27.666 -47.834 30.999 -75.501s5 -53.834 5 -78.501v-265c0 -19.333 -5.66699 -33.333 -17 -42s-28.666 -13 -51.999 -13c-20 0 -36.5 4.16699 -49.5 12.5
s-19.5 22.5 -19.5 42.5v262c0 29.333 -3 50.666 -9 63.999s-15.167 22.666 -27.5 27.999s-27.166 8 -44.499 8c-18 0 -33.333 -2.83301 -46 -8.5s-23.334 -12.667 -32.001 -21s-15.334 -17.166 -20.001 -26.499s-8 -18 -10 -26c-3.33301 -12 -5.16602 -25.667 -5.49902 -41
s-0.5 -28.333 -0.5 -39v-197c0 -20.667 -5.5 -35.5 -16.5 -44.5s-29.167 -13.5 -54.5 -13.5c-20.667 0 -37 4.33301 -49 13s-18 23 -18 43v413c0 18 5.16699 32.667 15.5 44s28.166 17 53.499 17c17.333 0 32.666 -3.83301 45.999 -11.5s20 -23.167 20 -46.5v-12
c14 20.667 34.167 38.834 60.5 54.501s57.5 23.5 93.5 23.5zM400.002 597.002c-15.333 0 -28.9961 2.16895 -40.9961 6.50195s-23.667 8.83301 -35 13.5l-25 10c-8.66699 3.33301 -16.5 6.16602 -23.5 8.49902s-13.167 3.5 -18.5 3.5c-9.33301 0 -17 -2.33301 -23 -7
s-11 -10.667 -15 -18c-4.66699 -6.66699 -9.33398 -11 -14.001 -13s-10.334 -3 -17.001 -3c-11.333 0 -21.333 3.5 -30 10.5s-13 16.833 -13 29.5c0 11.333 2.5 21.666 7.5 30.999s10.167 17.666 15.5 24.999c11.333 14.667 25 26.167 41 34.5s31.667 12.5 47 12.5
c13.333 0 25.666 -1.83301 36.999 -5.5s22.666 -8.16699 33.999 -13.5l30 -13l22.5 -8.5c6.33301 -2.33301 12.833 -3.5 19.5 -3.5c10 0 17.667 2 23 6s9.66602 10 12.999 18c6.66699 14 15.667 21 27 21c9.33301 0 19.333 -3.33301 30 -10s16 -15.667 16 -27
c0 -4.66699 -0.666992 -9.66699 -2 -15c-4 -12.667 -9.33301 -24.667 -16 -36s-14.667 -21.166 -24 -29.499s-19.666 -15 -30.999 -20s-23 -7.5 -35 -7.5z" />
    <glyph glyph-name="ograve" unicode="&#xf2;" horiz-adv-x="619" 
d="M576 260c0 -42 -6.33301 -80 -19 -114s-30.667 -63 -54 -87s-51.333 -42.667 -84 -56s-69 -20 -109 -20c-41.333 0 -78.5 6.5 -111.5 19.5s-61 31.5 -84 55.5s-40.667 53 -53 87s-18.5 71.667 -18.5 113s6.5 78.833 19.5 112.5s31.333 62.334 55 86.001
s51.834 42 84.501 55s69 19.5 109 19.5s76.167 -6.5 108.5 -19.5s60.166 -31.167 83.499 -54.5s41.333 -51.833 54 -85.5s19 -70.834 19 -111.501zM437 256c0 49.333 -11 88 -33 116s-53.333 42 -94 42c-38.667 0 -69.167 -13.833 -91.5 -41.5s-33.5 -66.5 -33.5 -116.5
s11.167 -88.667 33.5 -116s52.833 -41 91.5 -41c40 0 71.167 13.667 93.5 41s33.5 66 33.5 116zM401 664c6 -7.33301 10.1689 -14.334 12.502 -21.001s3.5 -12.667 3.5 -18c0 -12.667 -4.83301 -22.5 -14.5 -29.5s-21.167 -10.5 -34.5 -10.5
c-11.333 0 -21.5 2.33301 -30.5 7s-17.167 10.334 -24.5 17.001l-91 77c-14 12 -21 25.333 -21 40c0 14 6.16699 26.833 18.5 38.5s28.166 17.5 47.499 17.5c12 0 23.667 -2.83301 35 -8.5s22.666 -15.5 33.999 -29.5z" />
    <glyph glyph-name="oacute" unicode="&#xf3;" horiz-adv-x="619" 
d="M576 260c0 -42 -6.33301 -80 -19 -114s-30.667 -63 -54 -87s-51.333 -42.667 -84 -56s-69 -20 -109 -20c-41.333 0 -78.5 6.5 -111.5 19.5s-61 31.5 -84 55.5s-40.667 53 -53 87s-18.5 71.667 -18.5 113s6.5 78.833 19.5 112.5s31.333 62.334 55 86.001
s51.834 42 84.501 55s69 19.5 109 19.5s76.167 -6.5 108.5 -19.5s60.166 -31.167 83.499 -54.5s41.333 -51.833 54 -85.5s19 -70.834 19 -111.501zM437 256c0 49.333 -11 88 -33 116s-53.333 42 -94 42c-38.667 0 -69.167 -13.833 -91.5 -41.5s-33.5 -66.5 -33.5 -116.5
s11.167 -88.667 33.5 -116s52.833 -41 91.5 -41c40 0 71.167 13.667 93.5 41s33.5 66 33.5 116zM309 744c11.333 14 22.668 23.834 34.001 29.501s23 8.5 35 8.5c19.333 0 35.166 -5.83301 47.499 -17.5s18.5 -24.5 18.5 -38.5c0 -14.667 -7 -28 -21 -40l-91 -77
c-7.33301 -6.66699 -15.5 -12.334 -24.5 -17.001s-19.167 -7 -30.5 -7c-13.333 0 -24.833 3.5 -34.5 10.5s-14.5 16.833 -14.5 29.5c0 5.33301 1.16699 11.333 3.5 18s6.5 13.667 12.5 21z" />
    <glyph glyph-name="ocircumflex" unicode="&#xf4;" horiz-adv-x="619" 
d="M576 260c0 -42 -6.33301 -80 -19 -114s-30.667 -63 -54 -87s-51.333 -42.667 -84 -56s-69 -20 -109 -20c-41.333 0 -78.5 6.5 -111.5 19.5s-61 31.5 -84 55.5s-40.667 53 -53 87s-18.5 71.667 -18.5 113s6.5 78.833 19.5 112.5s31.333 62.334 55 86.001
s51.834 42 84.501 55s69 19.5 109 19.5s76.167 -6.5 108.5 -19.5s60.166 -31.167 83.499 -54.5s41.333 -51.833 54 -85.5s19 -70.834 19 -111.501zM437 256c0 49.333 -11 88 -33 116s-53.333 42 -94 42c-38.667 0 -69.167 -13.833 -91.5 -41.5s-33.5 -66.5 -33.5 -116.5
s11.167 -88.667 33.5 -116s52.833 -41 91.5 -41c40 0 71.167 13.667 93.5 41s33.5 66 33.5 116zM238 744c12.667 13.333 24.668 23 36.001 29s23 9 35 9c13.333 0 25.666 -3 36.999 -9s23.333 -15.667 36 -29l72 -77c11.333 -11.333 17 -23 17 -35
c0 -14 -4.66699 -25.333 -14 -34s-21 -13 -35 -13c-11.333 0 -21.5 2.16699 -30.5 6.5s-17.167 10.166 -24.5 17.499l-56 59l-58 -59c-7.33301 -7.33301 -15.5 -13.166 -24.5 -17.499s-19.167 -6.5 -30.5 -6.5c-14 0 -25.667 4 -35 12s-14 19.333 -14 34
c0 12.667 5.66699 24.667 17 36z" />
    <glyph glyph-name="otilde" unicode="&#xf5;" horiz-adv-x="619" 
d="M576 260c0 -42 -6.33301 -80 -19 -114s-30.667 -63 -54 -87s-51.333 -42.667 -84 -56s-69 -20 -109 -20c-41.333 0 -78.5 6.5 -111.5 19.5s-61 31.5 -84 55.5s-40.667 53 -53 87s-18.5 71.667 -18.5 113s6.5 78.833 19.5 112.5s31.333 62.334 55 86.001
s51.834 42 84.501 55s69 19.5 109 19.5s76.167 -6.5 108.5 -19.5s60.166 -31.167 83.499 -54.5s41.333 -51.833 54 -85.5s19 -70.834 19 -111.501zM437 256c0 49.333 -11 88 -33 116s-53.333 42 -94 42c-38.667 0 -69.167 -13.833 -91.5 -41.5s-33.5 -66.5 -33.5 -116.5
s11.167 -88.667 33.5 -116s52.833 -41 91.5 -41c40 0 71.167 13.667 93.5 41s33.5 66 33.5 116zM385 597c-15.333 0 -28.9961 2.16895 -40.9961 6.50195s-23.667 8.83301 -35 13.5l-25 10c-8.66699 3.33301 -16.5 6.16602 -23.5 8.49902s-13.167 3.5 -18.5 3.5
c-9.33301 0 -17 -2.33301 -23 -7s-11 -10.667 -15 -18c-4.66699 -6.66699 -9.33398 -11 -14.001 -13s-10.334 -3 -17.001 -3c-11.333 0 -21.333 3.5 -30 10.5s-13 16.833 -13 29.5c0 11.333 2.5 21.666 7.5 30.999s10.167 17.666 15.5 24.999
c11.333 14.667 25 26.167 41 34.5s31.667 12.5 47 12.5c13.333 0 25.666 -1.83301 36.999 -5.5s22.666 -8.16699 33.999 -13.5l30 -13l22.5 -8.5c6.33301 -2.33301 12.833 -3.5 19.5 -3.5c10 0 17.667 2 23 6s9.66602 10 12.999 18c6.66699 14 15.667 21 27 21
c9.33301 0 19.333 -3.33301 30 -10s16 -15.667 16 -27c0 -4.66699 -0.666992 -9.66699 -2 -15c-4 -12.667 -9.33301 -24.667 -16 -36s-14.667 -21.166 -24 -29.499s-19.666 -15 -30.999 -20s-23 -7.5 -35 -7.5z" />
    <glyph glyph-name="odieresis" unicode="&#xf6;" horiz-adv-x="619" 
d="M576 260c0 -42 -6.33301 -80 -19 -114s-30.667 -63 -54 -87s-51.333 -42.667 -84 -56s-69 -20 -109 -20c-41.333 0 -78.5 6.5 -111.5 19.5s-61 31.5 -84 55.5s-40.667 53 -53 87s-18.5 71.667 -18.5 113s6.5 78.833 19.5 112.5s31.333 62.334 55 86.001
s51.834 42 84.501 55s69 19.5 109 19.5s76.167 -6.5 108.5 -19.5s60.166 -31.167 83.499 -54.5s41.333 -51.833 54 -85.5s19 -70.834 19 -111.501zM437 256c0 49.333 -11 88 -33 116s-53.333 42 -94 42c-38.667 0 -69.167 -13.833 -91.5 -41.5s-33.5 -66.5 -33.5 -116.5
s11.167 -88.667 33.5 -116s52.833 -41 91.5 -41c40 0 71.167 13.667 93.5 41s33.5 66 33.5 116zM426 735c18 0 34.499 -5.5 49.499 -16.5s22.5 -28.167 22.5 -51.5c0 -20.667 -6.66699 -37.167 -20 -49.5s-30.666 -18.5 -51.999 -18.5s-38.666 6.16699 -51.999 18.5
s-20 28.833 -20 49.5c0 20 6.66699 36.333 20 49s30.666 19 51.999 19zM192.999 735c18 0 34.499 -5.5 49.499 -16.5s22.5 -28.167 22.5 -51.5c0 -20.667 -6.66699 -37.167 -20 -49.5s-30.666 -18.5 -51.999 -18.5s-38.666 6.16699 -51.999 18.5s-20 28.833 -20 49.5
c0 20 6.66699 36.333 20 49s30.666 19 51.999 19z" />
    <glyph glyph-name="divide" unicode="&#xf7;" horiz-adv-x="610" 
d="M229 536c0 20.667 7.5 38.5 22.5 53.5s33.167 22.5 54.5 22.5c20.667 0 38.5 -7.5 53.5 -22.5s22.5 -32.833 22.5 -53.5c0 -21.333 -7.5 -39.5 -22.5 -54.5s-32.833 -22.5 -53.5 -22.5c-21.333 0 -39.5 7.5 -54.5 22.5s-22.5 33.167 -22.5 54.5zM127 283
c-32 0 -48 20.333 -48 61c0 18.667 3.5 33.667 10.5 45s19.833 17 38.5 17h353c18.667 0 31.5 -5.66699 38.5 -17s10.5 -26.333 10.5 -45c0 -40.667 -17 -61 -51 -61h-352zM229 153c0 20.667 7.5 38.5 22.5 53.5s33.167 22.5 54.5 22.5c20.667 0 38.5 -7.5 53.5 -22.5
s22.5 -32.833 22.5 -53.5c0 -21.333 -7.5 -39.5 -22.5 -54.5s-32.833 -22.5 -53.5 -22.5c-21.333 0 -39.5 7.5 -54.5 22.5s-22.5 33.167 -22.5 54.5z" />
    <glyph glyph-name="oslash" unicode="&#xf8;" horiz-adv-x="619" 
d="M576 255c0 -42 -6.33496 -79.6641 -19.002 -112.997s-30.667 -61.833 -54 -85.5s-51.333 -41.834 -84 -54.501s-69 -19 -109 -19c-41.333 0 -79.333 6.66699 -114 20l-38 -55c-5.33301 -7.33301 -11.5 -13.333 -18.5 -18s-16.167 -7 -27.5 -7
c-15.333 0 -28.333 4.66699 -39 14c-4.66699 4 -8.5 8.66699 -11.5 14s-4.5 12 -4.5 20c0 7.33301 2 15 6 23l47 67c-21.333 23.333 -37.833 51.166 -49.5 83.499s-17.5 68.5 -17.5 108.5c0 41.333 6.5 79 19.5 113s31.333 63.333 55 88s51.834 43.667 84.501 57
s69 20 109 20c40.667 0 78.334 -7.33301 113.001 -22l32 45c7.33301 10 14 18 20 24s15 9 27 9c7.33301 0 14.333 -1.5 21 -4.5s12.667 -6.5 18 -10.5s9.5 -8.5 12.5 -13.5s4.5 -11.167 4.5 -18.5c0 -10.667 -4 -22.334 -12 -35.001l-39 -56c21.333 -24 38 -52.333 50 -85
s18 -69 18 -109zM436.998 251.003c0 30 -4 56 -12 78l-157 -224c12.667 -4 26.667 -6 42 -6c40 0 71.167 12.833 93.5 38.5s33.5 63.5 33.5 113.5zM184.998 251.003c0 -27.333 3.33203 -50.667 9.99902 -70l158 226c-6.66699 2 -13.667 3.66699 -21 5s-14.666 2 -21.999 2
c-38.667 0 -69.167 -14.667 -91.5 -44s-33.5 -69 -33.5 -119z" />
    <glyph glyph-name="ugrave" unicode="&#xf9;" horiz-adv-x="611" 
d="M250 -17c-62.667 0 -110.668 20.667 -144.001 62c-17.333 22.667 -27.666 48.167 -30.999 76.5s-5 54.833 -5 79.5v265c0 19.333 5.66699 33.333 17 42s28.666 13 51.999 13c20 0 36.5 -4.16699 49.5 -12.5s19.5 -22.5 19.5 -42.5v-265c0 -14 0.666992 -26.5 2 -37.5
s3.66602 -19.833 6.99902 -26.5c6 -13.333 15.167 -22.666 27.5 -27.999s27.166 -8 44.499 -8c18 0 33.333 2.83301 46 8.5s23.334 12.667 32.001 21s15.334 17.166 20.001 26.499s8 18 10 26c3.33301 12 5.16602 25.667 5.49902 41s0.5 28.333 0.5 39v200
c0 20.667 5.5 35.5 16.5 44.5s29.167 13.5 54.5 13.5c20.667 0 37 -4.33301 49 -13s18 -23 18 -43v-411c0 -18 -5.16699 -32.667 -15.5 -44s-28.166 -17 -53.499 -17c-17.333 0 -32.666 3.83301 -45.999 11.5s-20 23.167 -20 46.5v9c-12.667 -19.333 -31.667 -37 -57 -53
s-58.333 -24 -99 -24zM396.999 664c6 -7.33301 10.1689 -14.334 12.502 -21.001s3.5 -12.667 3.5 -18c0 -12.667 -4.83301 -22.5 -14.5 -29.5s-21.167 -10.5 -34.5 -10.5c-11.333 0 -21.5 2.33301 -30.5 7s-17.167 10.334 -24.5 17.001l-91 77c-14 12 -21 25.333 -21 40
c0 14 6.16699 26.833 18.5 38.5s28.166 17.5 47.499 17.5c12 0 23.667 -2.83301 35 -8.5s22.666 -15.5 33.999 -29.5z" />
    <glyph glyph-name="uacute" unicode="&#xfa;" horiz-adv-x="611" 
d="M250 -17c-62.667 0 -110.668 20.667 -144.001 62c-17.333 22.667 -27.666 48.167 -30.999 76.5s-5 54.833 -5 79.5v265c0 19.333 5.66699 33.333 17 42s28.666 13 51.999 13c20 0 36.5 -4.16699 49.5 -12.5s19.5 -22.5 19.5 -42.5v-265c0 -14 0.666992 -26.5 2 -37.5
s3.66602 -19.833 6.99902 -26.5c6 -13.333 15.167 -22.666 27.5 -27.999s27.166 -8 44.499 -8c18 0 33.333 2.83301 46 8.5s23.334 12.667 32.001 21s15.334 17.166 20.001 26.499s8 18 10 26c3.33301 12 5.16602 25.667 5.49902 41s0.5 28.333 0.5 39v200
c0 20.667 5.5 35.5 16.5 44.5s29.167 13.5 54.5 13.5c20.667 0 37 -4.33301 49 -13s18 -23 18 -43v-411c0 -18 -5.16699 -32.667 -15.5 -44s-28.166 -17 -53.499 -17c-17.333 0 -32.666 3.83301 -45.999 11.5s-20 23.167 -20 46.5v9c-12.667 -19.333 -31.667 -37 -57 -53
s-58.333 -24 -99 -24zM302.999 744c11.333 14 22.668 23.834 34.001 29.501s23 8.5 35 8.5c19.333 0 35.166 -5.83301 47.499 -17.5s18.5 -24.5 18.5 -38.5c0 -14.667 -7 -28 -21 -40l-91 -77c-7.33301 -6.66699 -15.5 -12.334 -24.5 -17.001s-19.167 -7 -30.5 -7
c-13.333 0 -24.833 3.5 -34.5 10.5s-14.5 16.833 -14.5 29.5c0 5.33301 1.16699 11.333 3.5 18s6.5 13.667 12.5 21z" />
    <glyph glyph-name="ucircumflex" unicode="&#xfb;" horiz-adv-x="611" 
d="M250 -17c-62.667 0 -110.668 20.667 -144.001 62c-17.333 22.667 -27.666 48.167 -30.999 76.5s-5 54.833 -5 79.5v265c0 19.333 5.66699 33.333 17 42s28.666 13 51.999 13c20 0 36.5 -4.16699 49.5 -12.5s19.5 -22.5 19.5 -42.5v-265c0 -14 0.666992 -26.5 2 -37.5
s3.66602 -19.833 6.99902 -26.5c6 -13.333 15.167 -22.666 27.5 -27.999s27.166 -8 44.499 -8c18 0 33.333 2.83301 46 8.5s23.334 12.667 32.001 21s15.334 17.166 20.001 26.499s8 18 10 26c3.33301 12 5.16602 25.667 5.49902 41s0.5 28.333 0.5 39v200
c0 20.667 5.5 35.5 16.5 44.5s29.167 13.5 54.5 13.5c20.667 0 37 -4.33301 49 -13s18 -23 18 -43v-411c0 -18 -5.16699 -32.667 -15.5 -44s-28.166 -17 -53.499 -17c-17.333 0 -32.666 3.83301 -45.999 11.5s-20 23.167 -20 46.5v9c-12.667 -19.333 -31.667 -37 -57 -53
s-58.333 -24 -99 -24zM240.999 744c12.667 13.333 24.668 23 36.001 29s23 9 35 9c13.333 0 25.666 -3 36.999 -9s23.333 -15.667 36 -29l72 -77c11.333 -11.333 17 -23 17 -35c0 -14 -4.66699 -25.333 -14 -34s-21 -13 -35 -13c-11.333 0 -21.5 2.16699 -30.5 6.5
s-17.167 10.166 -24.5 17.499l-56 59l-58 -59c-7.33301 -7.33301 -15.5 -13.166 -24.5 -17.499s-19.167 -6.5 -30.5 -6.5c-14 0 -25.667 4 -35 12s-14 19.333 -14 34c0 12.667 5.66699 24.667 17 36z" />
    <glyph glyph-name="udieresis" unicode="&#xfc;" horiz-adv-x="611" 
d="M250 -17c-62.667 0 -110.668 20.667 -144.001 62c-17.333 22.667 -27.666 48.167 -30.999 76.5s-5 54.833 -5 79.5v265c0 19.333 5.66699 33.333 17 42s28.666 13 51.999 13c20 0 36.5 -4.16699 49.5 -12.5s19.5 -22.5 19.5 -42.5v-265c0 -14 0.666992 -26.5 2 -37.5
s3.66602 -19.833 6.99902 -26.5c6 -13.333 15.167 -22.666 27.5 -27.999s27.166 -8 44.499 -8c18 0 33.333 2.83301 46 8.5s23.334 12.667 32.001 21s15.334 17.166 20.001 26.499s8 18 10 26c3.33301 12 5.16602 25.667 5.49902 41s0.5 28.333 0.5 39v200
c0 20.667 5.5 35.5 16.5 44.5s29.167 13.5 54.5 13.5c20.667 0 37 -4.33301 49 -13s18 -23 18 -43v-411c0 -18 -5.16699 -32.667 -15.5 -44s-28.166 -17 -53.499 -17c-17.333 0 -32.666 3.83301 -45.999 11.5s-20 23.167 -20 46.5v9c-12.667 -19.333 -31.667 -37 -57 -53
s-58.333 -24 -99 -24zM421.999 735c18 0 34.499 -5.5 49.499 -16.5s22.5 -28.167 22.5 -51.5c0 -20.667 -6.66699 -37.167 -20 -49.5s-30.666 -18.5 -51.999 -18.5s-38.666 6.16699 -51.999 18.5s-20 28.833 -20 49.5c0 20 6.66699 36.333 20 49s30.666 19 51.999 19z
M188.998 735c18 0 34.499 -5.5 49.499 -16.5s22.5 -28.167 22.5 -51.5c0 -20.667 -6.66699 -37.167 -20 -49.5s-30.666 -18.5 -51.999 -18.5s-38.666 6.16699 -51.999 18.5s-20 28.833 -20 49.5c0 20 6.66699 36.333 20 49s30.666 19 51.999 19z" />
    <glyph glyph-name="yacute" unicode="&#xfd;" horiz-adv-x="539" 
d="M198 30l-175.998 395c-4.66699 10 -7.33398 18 -8.00098 24s-1 11.333 -1 16c0 17.333 6.83301 31 20.5 41s32.167 15 55.5 15c20 0 34.833 -3.83301 44.5 -11.5s17.167 -18.167 22.5 -31.5l115 -291l121 290c6.66699 15.333 14.5 26.5 23.5 33.5s22.167 10.5 39.5 10.5
c23.333 0 41 -5.5 53 -16.5s18 -24.5 18 -40.5c0 -5.33301 -0.5 -11.5 -1.5 -18.5s-3.16699 -14.167 -6.5 -21.5l-260 -581c-7.33301 -17.333 -16.833 -31 -28.5 -41s-26.167 -15 -43.5 -15c-22 0 -38.833 5.83301 -50.5 17.5s-17.5 24.5 -17.5 38.5
c0 8 1.66699 16.5 5 25.5s6.66602 16.833 9.99902 23.5zM271.002 744c11.333 14 22.668 23.834 34.001 29.501s23 8.5 35 8.5c19.333 0 35.166 -5.83301 47.499 -17.5s18.5 -24.5 18.5 -38.5c0 -14.667 -7 -28 -21 -40l-91 -77
c-7.33301 -6.66699 -15.5 -12.334 -24.5 -17.001s-19.167 -7 -30.5 -7c-13.333 0 -24.833 3.5 -34.5 10.5s-14.5 16.833 -14.5 29.5c0 5.33301 1.16699 11.333 3.5 18s6.5 13.667 12.5 21z" />
    <glyph glyph-name="thorn" unicode="&#xfe;" horiz-adv-x="622" 
d="M70 645c0 17.333 5.67188 30.998 17.0049 40.998s29.666 15 54.999 15c16.667 0 31.834 -3.83301 45.501 -11.5s20.5 -22.167 20.5 -43.5v-194c5.33301 8 12.5 16.667 21.5 26s19.833 18 32.5 26s27 14.5 43 19.5s34 7.5 54 7.5c36 0 67.667 -6.83301 95 -20.5
s50.166 -32.667 68.499 -57s32 -53.166 41 -86.499s13.5 -69.666 13.5 -108.999c0 -40 -5.16699 -76.833 -15.5 -110.5s-25.333 -62.667 -45 -87s-43.834 -43.333 -72.501 -57s-61.334 -20.5 -98.001 -20.5c-26.667 0 -48.834 3.16699 -66.501 9.5s-32.167 13.5 -43.5 21.5
c-12.667 8.66699 -23 19 -31 31v-200c0 -20.667 -5.33301 -35.5 -16 -44.5s-28.334 -13.5 -53.001 -13.5c-44 0 -66 18.333 -66 55v803zM435.005 255.998c0 22.667 -2.50098 43.668 -7.50098 63.001s-12.333 36.166 -22 50.499s-21.667 25.5 -36 33.5s-30.833 12 -49.5 12
c-19.333 0 -36.166 -4 -50.499 -12s-26.5 -19.167 -36.5 -33.5s-17.5 -31.166 -22.5 -50.499s-7.5 -40.333 -7.5 -63c0 -48.667 10 -87.334 30 -116.001s49 -43 87 -43s66.667 15 86 45s29 68 29 114z" />
    <glyph glyph-name="ydieresis" unicode="&#xff;" horiz-adv-x="539" 
d="M198 30l-175.998 395c-4.66699 10 -7.33398 18 -8.00098 24s-1 11.333 -1 16c0 17.333 6.83301 31 20.5 41s32.167 15 55.5 15c20 0 34.833 -3.83301 44.5 -11.5s17.167 -18.167 22.5 -31.5l115 -291l121 290c6.66699 15.333 14.5 26.5 23.5 33.5s22.167 10.5 39.5 10.5
c23.333 0 41 -5.5 53 -16.5s18 -24.5 18 -40.5c0 -5.33301 -0.5 -11.5 -1.5 -18.5s-3.16699 -14.167 -6.5 -21.5l-260 -581c-7.33301 -17.333 -16.833 -31 -28.5 -41s-26.167 -15 -43.5 -15c-22 0 -38.833 5.83301 -50.5 17.5s-17.5 24.5 -17.5 38.5
c0 8 1.66699 16.5 5 25.5s6.66602 16.833 9.99902 23.5zM395.002 735c18 0 34.499 -5.5 49.499 -16.5s22.5 -28.167 22.5 -51.5c0 -20.667 -6.66699 -37.167 -20 -49.5s-30.666 -18.5 -51.999 -18.5s-38.666 6.16699 -51.999 18.5s-20 28.833 -20 49.5
c0 20 6.66699 36.333 20 49s30.666 19 51.999 19zM162.001 735c18 0 34.499 -5.5 49.499 -16.5s22.5 -28.167 22.5 -51.5c0 -20.667 -6.66699 -37.167 -20 -49.5s-30.666 -18.5 -51.999 -18.5s-38.666 6.16699 -51.999 18.5s-20 28.833 -20 49.5c0 20 6.66699 36.333 20 49
s30.666 19 51.999 19z" />
    <glyph glyph-name="Amacron" unicode="&#x100;" horiz-adv-x="645" 
d="M190 128l-37.001 -97.001c-5.33301 -14 -13.5 -24 -24.5 -30s-22.833 -9 -35.5 -9c-26.667 0 -46 5.5 -58 16.5s-18 24.833 -18 41.5c0 10.667 2.33301 21.334 7 32.001l219 569c7.33301 19.333 18.5 32.5 33.5 39.5s30.833 10.5 47.5 10.5s32.167 -3.16699 46.5 -9.5
s25.5 -19.5 33.5 -39.5l218 -568c4 -10 6 -20 6 -30c0 -16.667 -5.5 -31 -16.5 -43s-28.167 -18 -51.5 -18c-33.333 0 -55.666 13.333 -66.999 40l-40 95h-263zM319.999 510.999l-89 -264h177zM214.999 764.999c-16 0 -28.001 3.83301 -36.001 11.5s-12 21.5 -12 41.5
c0 18.667 3.5 32.5 10.5 41.5s19.833 13.5 38.5 13.5h212c18.667 0 31.5 -4.5 38.5 -13.5s10.5 -22.833 10.5 -41.5c0 -20.667 -4.16699 -34.667 -12.5 -42s-21.166 -11 -38.499 -11h-211z" />
    <glyph glyph-name="amacron" unicode="&#x101;" horiz-adv-x="577" 
d="M507 48c0 -19.333 -4.83398 -33.3389 -14.501 -42.0059s-26.167 -13 -49.5 -13c-20 0 -35.833 4.16699 -47.5 12.5s-17.5 22.5 -17.5 42.5v18c-7.33301 -9.33301 -15.5 -18.666 -24.5 -27.999s-20 -17.666 -33 -24.999s-28.167 -13.333 -45.5 -18s-37.333 -7 -60 -7
c-52.667 0 -94.167 13.833 -124.5 41.5s-45.5 64.5 -45.5 110.5c0 26.667 4.5 49.334 13.5 68.001s21.333 34.334 37 47.001s34 22.667 55 30s43.167 13 66.5 17c25.333 4.66699 50.833 8.33398 76.5 11.001s53.5 5 83.5 7v19c0 10 -1.33301 19.833 -4 29.5
s-7.16699 18.5 -13.5 26.5s-15.166 14.333 -26.499 19s-25.333 7 -42 7c-10.667 0 -20.5 -0.666992 -29.5 -2s-17.667 -3.5 -26 -6.5s-17 -7.16699 -26 -12.5l-30.5 -19c-8.66699 -6 -16.834 -11 -24.501 -15s-17.167 -6 -28.5 -6c-15.333 0 -29 5.83301 -41 17.5
s-18 25.834 -18 42.501c0 11.333 4.66699 23.5 14 36.5s23.5 25 42.5 36s42.333 20.167 70 27.5s60.167 11 97.5 11c76.667 0 131.834 -15 165.501 -45s50.5 -76.667 50.5 -140v-298zM376.999 235.994c-25.333 -2.66699 -49.5 -5.66699 -72.5 -9s-40.167 -6.33301 -51.5 -9
c-32 -6.66699 -52.833 -16.167 -62.5 -28.5s-14.5 -24.833 -14.5 -37.5c0 -17.333 5.33301 -30.833 16 -40.5s29 -14.5 55 -14.5c41.333 0 73.333 9.5 96 28.5s34 43.5 34 73.5v37zM185.999 614.994c-16 0 -28.001 3.83301 -36.001 11.5s-12 21.5 -12 41.5
c0 18.667 3.5 32.5 10.5 41.5s19.833 13.5 38.5 13.5h212c18.667 0 31.5 -4.5 38.5 -13.5s10.5 -22.833 10.5 -41.5c0 -20.667 -4.16699 -34.667 -12.5 -42s-21.166 -11 -38.499 -11h-211z" />
    <glyph glyph-name="Abreve" unicode="&#x102;" horiz-adv-x="645" 
d="M190 128l-37.001 -97.001c-5.33301 -14 -13.5 -24 -24.5 -30s-22.833 -9 -35.5 -9c-26.667 0 -46 5.5 -58 16.5s-18 24.833 -18 41.5c0 10.667 2.33301 21.334 7 32.001l219 569c7.33301 19.333 18.5 32.5 33.5 39.5s30.833 10.5 47.5 10.5s32.167 -3.16699 46.5 -9.5
s25.5 -19.5 33.5 -39.5l218 -568c4 -10 6 -20 6 -30c0 -16.667 -5.5 -31 -16.5 -43s-28.167 -18 -51.5 -18c-33.333 0 -55.666 13.333 -66.999 40l-40 95h-263zM319.999 510.999l-89 -264h177zM482.999 845.999c-2 -11.333 -6.33398 -23 -13.001 -35
s-16.167 -22.833 -28.5 -32.5s-28.166 -17.667 -47.499 -24s-42.666 -9.5 -69.999 -9.5c-28 0 -51.667 3.16699 -71 9.5s-35.166 14.333 -47.499 24s-21.833 20.5 -28.5 32.5s-11 23.667 -13 35c0 1.33301 -0.166992 2.5 -0.5 3.5s-0.5 2.16699 -0.5 3.5
c0 12 5.66699 21.833 17 29.5s26.666 11.5 45.999 11.5c11.333 0 19.833 -2.16699 25.5 -6.5s10.167 -10.166 13.5 -17.499c4 -10 9.83301 -19.833 17.5 -29.5s21.5 -14.5 41.5 -14.5c19.333 0 32.833 4.83301 40.5 14.5s13.5 19.5 17.5 29.5
c3.33301 7.33301 7.83301 13.166 13.5 17.499s14.167 6.5 25.5 6.5c19.333 0 34.666 -3.83301 45.999 -11.5s17 -17.5 17 -29.5c0 -1.33301 -0.166992 -2.5 -0.5 -3.5s-0.5 -2.16699 -0.5 -3.5z" />
    <glyph glyph-name="abreve" unicode="&#x103;" horiz-adv-x="577" 
d="M507 48c0 -19.333 -4.83398 -33.3389 -14.501 -42.0059s-26.167 -13 -49.5 -13c-20 0 -35.833 4.16699 -47.5 12.5s-17.5 22.5 -17.5 42.5v18c-7.33301 -9.33301 -15.5 -18.666 -24.5 -27.999s-20 -17.666 -33 -24.999s-28.167 -13.333 -45.5 -18s-37.333 -7 -60 -7
c-52.667 0 -94.167 13.833 -124.5 41.5s-45.5 64.5 -45.5 110.5c0 26.667 4.5 49.334 13.5 68.001s21.333 34.334 37 47.001s34 22.667 55 30s43.167 13 66.5 17c25.333 4.66699 50.833 8.33398 76.5 11.001s53.5 5 83.5 7v19c0 10 -1.33301 19.833 -4 29.5
s-7.16699 18.5 -13.5 26.5s-15.166 14.333 -26.499 19s-25.333 7 -42 7c-10.667 0 -20.5 -0.666992 -29.5 -2s-17.667 -3.5 -26 -6.5s-17 -7.16699 -26 -12.5l-30.5 -19c-8.66699 -6 -16.834 -11 -24.501 -15s-17.167 -6 -28.5 -6c-15.333 0 -29 5.83301 -41 17.5
s-18 25.834 -18 42.501c0 11.333 4.66699 23.5 14 36.5s23.5 25 42.5 36s42.333 20.167 70 27.5s60.167 11 97.5 11c76.667 0 131.834 -15 165.501 -45s50.5 -76.667 50.5 -140v-298zM376.999 235.994c-25.333 -2.66699 -49.5 -5.66699 -72.5 -9s-40.167 -6.33301 -51.5 -9
c-32 -6.66699 -52.833 -16.167 -62.5 -28.5s-14.5 -24.833 -14.5 -37.5c0 -17.333 5.33301 -30.833 16 -40.5s29 -14.5 55 -14.5c41.333 0 73.333 9.5 96 28.5s34 43.5 34 73.5v37zM296.999 584.994c-27.333 0 -51 3.66504 -71 10.998s-36.667 16.666 -50 27.999
s-23.333 23.5 -30 36.5s-10 25.5 -10 37.5c0 16 5.33301 27.667 16 35s24.667 11 42 11c11.333 0 20.166 -2 26.499 -6s11.5 -10.333 15.5 -19c2.66699 -5.33301 5.33398 -11.166 8.00098 -17.499s6.33398 -12.166 11.001 -17.499s10.334 -9.66602 17.001 -12.999
s15 -5 25 -5s18.333 1.66699 25 5s12.167 7.66602 16.5 12.999s8 10.833 11 16.5s5.5 11.167 7.5 16.5c3.33301 8.66699 8.16602 15.334 14.499 20.001s15.166 7 26.499 7c19.333 0 34 -4 44 -12s15 -18.333 15 -31s-3.33301 -25.834 -10 -39.501s-16.5 -26.167 -29.5 -37.5
s-29.667 -20.666 -50 -27.999s-43.833 -11 -70.5 -11z" />
    <glyph glyph-name="Aogonek" unicode="&#x104;" horiz-adv-x="645" 
d="M553 -236c-24 0 -44.165 3.16602 -60.498 9.49902s-29.333 14.833 -39 25.5s-16.667 22.5 -21 35.5s-6.5 26.167 -6.5 39.5c0 31.333 8.16699 57.5 24.5 78.5s34.833 37.167 55.5 48.5l-53 127h-263l-38 -101c-5.33301 -14 -13.5 -24 -24.5 -30s-22.833 -9 -35.5 -9
c-26.667 0 -46 5.5 -58 16.5s-18 24.833 -18 41.5c0 10.667 2.33301 21.334 7 32.001l220 573c7.33301 19.333 18.5 32.5 33.5 39.5s30.833 10.5 47.5 10.5s32.167 -3.16699 46.5 -9.5s25.5 -19.5 33.5 -39.5l219 -573c4 -10 6 -20 6 -30c0 -13.333 -2.33301 -24.333 -7 -33
s-13 -17.334 -25 -26.001c-16 -11.333 -31.167 -25.166 -45.5 -41.499s-21.5 -33.5 -21.5 -51.5c0 -15.333 3.83301 -25.833 11.5 -31.5s16.167 -8.5 25.5 -8.5c12 0 21 1.83301 27 5.5s13 5.5 21 5.5c9.33301 0 17.166 -4.33301 23.499 -13s9.5 -18 9.5 -28
c0 -6.66699 -0.833008 -13.167 -2.5 -19.5s-5.5 -12.5 -11.5 -18.5c-8.66699 -8.66699 -20.334 -15 -35.001 -19s-30 -6 -46 -6zM320.002 510.999l-89 -264h177z" />
    <glyph glyph-name="aogonek" unicode="&#x105;" horiz-adv-x="577" 
d="M507 43c0 -21.333 -9.00293 -38.3369 -27.0029 -51.0039c-16 -11.333 -31 -25.5 -45 -42.5s-21 -34.5 -21 -52.5c0 -15.333 3.83301 -25.833 11.5 -31.5s16.167 -8.5 25.5 -8.5c12 0 21 1.83301 27 5.5s13 5.5 21 5.5c9.33301 0 17.166 -4.33301 23.499 -13
s9.5 -18 9.5 -28c0 -6.66699 -0.833008 -13.167 -2.5 -19.5s-5.5 -12.5 -11.5 -18.5c-8.66699 -8.66699 -20.334 -15 -35.001 -19s-30 -6 -46 -6c-24 0 -44.167 3.16699 -60.5 9.5s-29.333 14.833 -39 25.5s-16.667 22.5 -21 35.5s-6.5 26.167 -6.5 39.5
c0 30.667 7.33301 56 22 76s30 36 46 48v68c-7.33301 -9.33301 -15.5 -18.666 -24.5 -27.999s-20 -17.666 -33 -24.999s-28.167 -13.333 -45.5 -18s-37.333 -7 -60 -7c-52.667 0 -94.167 13.833 -124.5 41.5s-45.5 64.5 -45.5 110.5c0 26.667 4.5 49.334 13.5 68.001
s21.333 34.334 37 47.001s34 22.667 55 30s43.167 13 66.5 17c25.333 4.66699 50.833 8.33398 76.5 11.001s53.5 5 83.5 7v24c0 10 -1.16699 19.5 -3.5 28.5s-6.83301 17 -13.5 24s-16.167 12.5 -28.5 16.5s-28.5 6 -48.5 6c-17.333 0 -34.666 -2.16699 -51.999 -6.5
s-33.666 -14.833 -48.999 -31.5c-7.33301 -7.33301 -14.666 -13.5 -21.999 -18.5s-16.666 -7.5 -27.999 -7.5c-10 0 -18.5 1.5 -25.5 4.5s-13.167 7.16699 -18.5 12.5c-6 5.33301 -11 11.666 -15 18.999s-6 16.333 -6 27c0 11.333 4.66699 23.5 14 36.5s23.5 25 42.5 36
s42.333 20.167 70 27.5s60.167 11 97.5 11c76.667 0 131.834 -15 165.501 -45s50.5 -76.667 50.5 -140v-301zM376.997 235.996c-25.333 -2.66699 -49.5 -5.66699 -72.5 -9s-40.167 -6.33301 -51.5 -9c-32 -6.66699 -52.833 -16.167 -62.5 -28.5s-14.5 -24.833 -14.5 -37.5
c0 -17.333 5.33301 -30.833 16 -40.5s29 -14.5 55 -14.5c41.333 0 73.333 9.5 96 28.5s34 43.5 34 73.5v37z" />
    <glyph glyph-name="Cacute" unicode="&#x106;" horiz-adv-x="681" 
d="M382 593c-32 0 -59.668 -6.50098 -83.001 -19.501s-42.333 -30.667 -57 -53s-25.5 -48.333 -32.5 -78s-10.5 -60.834 -10.5 -93.501c0 -34 3.5 -66.167 10.5 -96.5s18 -56.666 33 -78.999s34.167 -40 57.5 -53s51.333 -19.5 84 -19.5c14.667 0 28 1.16699 40 3.5
s23.333 6 34 11s21 11.667 31 20s20.667 18.166 32 29.499c14.667 15.333 26.334 26.833 35.001 34.5s20 11.5 34 11.5c17.333 0 32.666 -6.16699 45.999 -18.5s20 -26.833 20 -43.5c0 -26 -12.667 -52 -38 -78c-21.333 -22.667 -52.166 -43 -92.499 -61
s-89.833 -27 -148.5 -27c-60 0 -110.833 10 -152.5 30s-75.167 46.833 -100.5 80.5s-43.666 72.167 -54.999 115.5s-17 88 -17 134c0 48.667 6.5 95.167 19.5 139.5s33.167 83.5 60.5 117.5s62.333 61 105 81s93.667 30 153 30c26 0 50.333 -2.5 73 -7.5
s43.5 -11.5 62.5 -19.5s36 -17.333 51 -28s27.833 -21.667 38.5 -33s19.5 -23.166 26.5 -35.499s10.5 -25.166 10.5 -38.499c0 -18 -6 -33.167 -18 -45.5s-27.667 -18.5 -47 -18.5c-18 0 -31.5 4 -40.5 12s-19.167 18.333 -30.5 31c-21.333 23.333 -41.833 40 -61.5 50
s-43.834 15 -72.501 15zM365.999 892.999c11.333 8.66699 22.166 15.833 32.499 21.5s20.166 8.5 29.499 8.5s18 -2 26 -6s15 -9.16699 21 -15.5s10.667 -13.333 14 -21s5 -15.5 5 -23.5c0 -9.33301 -3 -17.833 -9 -25.5s-14 -14.167 -24 -19.5l-103 -56
c-6.66699 -3.33301 -13.667 -6.16602 -21 -8.49902s-14.666 -3.5 -21.999 -3.5c-13.333 0 -24.666 4.66699 -33.999 14s-14 20.666 -14 33.999c0 15.333 8.33301 29.333 25 42z" />
    <glyph glyph-name="cacute" unicode="&#x107;" horiz-adv-x="552" 
d="M307 531c36.667 0 68.5 -4.99902 95.5 -14.999s49.5 -22 67.5 -36s31.5 -29 40.5 -45s13.5 -30 13.5 -42c0 -17.333 -6.16699 -31.666 -18.5 -42.999s-27.166 -17 -44.499 -17c-12.667 0 -22.834 3.5 -30.501 10.5l-26.5 24.5c-15.333 14 -30 25.167 -44 33.5
s-32.667 12.5 -56 12.5c-27.333 0 -49 -6 -65 -18s-28 -26.5 -36 -43.5s-13.167 -34.833 -15.5 -53.5s-3.5 -34.334 -3.5 -47.001c0 -14 1.5 -30 4.5 -48s9 -34.833 18 -50.5s21.667 -28.834 38 -39.501s37.5 -16 63.5 -16c24.667 0 44 4 58 12s29.333 20.667 46 38
c7.33301 8 14.5 14.833 21.5 20.5s16.167 8.5 27.5 8.5c8 0 15.833 -1.66699 23.5 -5s14.334 -7.83301 20.001 -13.5s10.334 -12.167 14.001 -19.5s5.5 -15 5.5 -23c0 -13.333 -5.16699 -27.833 -15.5 -43.5s-25.166 -30.167 -44.499 -43.5s-42.833 -24.5 -70.5 -33.5
s-59.167 -13.5 -94.5 -13.5c-46.667 0 -86.334 7.5 -119.001 22.5s-59.167 34.833 -79.5 59.5s-35 53 -44 85s-13.5 65 -13.5 99c0 44.667 6.33301 84.667 19 120s30.667 65 54 89s51.166 42.333 83.499 55s68.166 19 107.499 19zM291 744.001
c11.333 14 22.668 23.834 34.001 29.501s23 8.5 35 8.5c19.333 0 35.166 -5.83301 47.499 -17.5s18.5 -24.5 18.5 -38.5c0 -14.667 -7 -28 -21 -40l-91 -77c-7.33301 -6.66699 -15.5 -12.334 -24.5 -17.001s-19.167 -7 -30.5 -7c-13.333 0 -24.833 3.5 -34.5 10.5
s-14.5 16.833 -14.5 29.5c0 5.33301 1.16699 11.333 3.5 18s6.5 13.667 12.5 21z" />
    <glyph glyph-name="Ccircumflex" unicode="&#x108;" horiz-adv-x="681" 
d="M382 593c-32 0 -59.668 -6.50098 -83.001 -19.501s-42.333 -30.667 -57 -53s-25.5 -48.333 -32.5 -78s-10.5 -60.834 -10.5 -93.501c0 -34 3.5 -66.167 10.5 -96.5s18 -56.666 33 -78.999s34.167 -40 57.5 -53s51.333 -19.5 84 -19.5c14.667 0 28 1.16699 40 3.5
s23.333 6 34 11s21 11.667 31 20s20.667 18.166 32 29.499c14.667 15.333 26.334 26.833 35.001 34.5s20 11.5 34 11.5c17.333 0 32.666 -6.16699 45.999 -18.5s20 -26.833 20 -43.5c0 -26 -12.667 -52 -38 -78c-21.333 -22.667 -52.166 -43 -92.499 -61
s-89.833 -27 -148.5 -27c-60 0 -110.833 10 -152.5 30s-75.167 46.833 -100.5 80.5s-43.666 72.167 -54.999 115.5s-17 88 -17 134c0 48.667 6.5 95.167 19.5 139.5s33.167 83.5 60.5 117.5s62.333 61 105 81s93.667 30 153 30c26 0 50.333 -2.5 73 -7.5
s43.5 -11.5 62.5 -19.5s36 -17.333 51 -28s27.833 -21.667 38.5 -33s19.5 -23.166 26.5 -35.499s10.5 -25.166 10.5 -38.499c0 -18 -6 -33.167 -18 -45.5s-27.667 -18.5 -47 -18.5c-18 0 -31.5 4 -40.5 12s-19.167 18.333 -30.5 31c-21.333 23.333 -41.833 40 -61.5 50
s-43.834 15 -72.501 15zM525.999 828.999c6 -5.33301 10.833 -10.668 14.5 -16.001s5.5 -12 5.5 -20c0 -13.333 -4.66699 -24.833 -14 -34.5s-21.666 -14.5 -36.999 -14.5c-11.333 0 -21.5 2.66699 -30.5 8s-17.167 11.333 -24.5 18l-58 52l-56 -52
c-7.33301 -6.66699 -15.5 -12.5 -24.5 -17.5s-19.167 -7.5 -30.5 -7.5c-14.667 0 -26.5 4.5 -35.5 13.5s-13.5 20.167 -13.5 33.5c0 14.667 6.33301 27.334 19 38.001l67 60c13.333 12 26 20.5 38 25.5s24.667 7.5 38 7.5c12 0 23.667 -2.33301 35 -7s23.666 -13 36.999 -25
z" />
    <glyph glyph-name="ccircumflex" unicode="&#x109;" horiz-adv-x="552" 
d="M307 531c36.667 0 68.5 -4.99902 95.5 -14.999s49.5 -22 67.5 -36s31.5 -29 40.5 -45s13.5 -30 13.5 -42c0 -17.333 -6.16699 -31.666 -18.5 -42.999s-27.166 -17 -44.499 -17c-12.667 0 -22.834 3.5 -30.501 10.5l-26.5 24.5c-15.333 14 -30 25.167 -44 33.5
s-32.667 12.5 -56 12.5c-27.333 0 -49 -6 -65 -18s-28 -26.5 -36 -43.5s-13.167 -34.833 -15.5 -53.5s-3.5 -34.334 -3.5 -47.001c0 -14 1.5 -30 4.5 -48s9 -34.833 18 -50.5s21.667 -28.834 38 -39.501s37.5 -16 63.5 -16c24.667 0 44 4 58 12s29.333 20.667 46 38
c7.33301 8 14.5 14.833 21.5 20.5s16.167 8.5 27.5 8.5c8 0 15.833 -1.66699 23.5 -5s14.334 -7.83301 20.001 -13.5s10.334 -12.167 14.001 -19.5s5.5 -15 5.5 -23c0 -13.333 -5.16699 -27.833 -15.5 -43.5s-25.166 -30.167 -44.499 -43.5s-42.833 -24.5 -70.5 -33.5
s-59.167 -13.5 -94.5 -13.5c-46.667 0 -86.334 7.5 -119.001 22.5s-59.167 34.833 -79.5 59.5s-35 53 -44 85s-13.5 65 -13.5 99c0 44.667 6.33301 84.667 19 120s30.667 65 54 89s51.166 42.333 83.499 55s68.166 19 107.499 19zM237 744.001
c12.667 13.333 24.668 23 36.001 29s23 9 35 9c13.333 0 25.666 -3 36.999 -9s23.333 -15.667 36 -29l72 -77c11.333 -11.333 17 -23 17 -35c0 -14 -4.66699 -25.333 -14 -34s-21 -13 -35 -13c-11.333 0 -21.5 2.16699 -30.5 6.5s-17.167 10.166 -24.5 17.499l-56 59
l-58 -59c-7.33301 -7.33301 -15.5 -13.166 -24.5 -17.499s-19.167 -6.5 -30.5 -6.5c-14 0 -25.667 4 -35 12s-14 19.333 -14 34c0 12.667 5.66699 24.667 17 36z" />
    <glyph glyph-name="Cdotaccent" unicode="&#x10a;" horiz-adv-x="681" 
d="M382 593c-32 0 -59.668 -6.50098 -83.001 -19.501s-42.333 -30.667 -57 -53s-25.5 -48.333 -32.5 -78s-10.5 -60.834 -10.5 -93.501c0 -34 3.5 -66.167 10.5 -96.5s18 -56.666 33 -78.999s34.167 -40 57.5 -53s51.333 -19.5 84 -19.5c14.667 0 28 1.16699 40 3.5
s23.333 6 34 11s21 11.667 31 20s20.667 18.166 32 29.499c14.667 15.333 26.334 26.833 35.001 34.5s20 11.5 34 11.5c17.333 0 32.666 -6.16699 45.999 -18.5s20 -26.833 20 -43.5c0 -26 -12.667 -52 -38 -78c-21.333 -22.667 -52.166 -43 -92.499 -61
s-89.833 -27 -148.5 -27c-60 0 -110.833 10 -152.5 30s-75.167 46.833 -100.5 80.5s-43.666 72.167 -54.999 115.5s-17 88 -17 134c0 48.667 6.5 95.167 19.5 139.5s33.167 83.5 60.5 117.5s62.333 61 105 81s93.667 30 153 30c26 0 50.333 -2.5 73 -7.5
s43.5 -11.5 62.5 -19.5s36 -17.333 51 -28s27.833 -21.667 38.5 -33s19.5 -23.166 26.5 -35.499s10.5 -25.166 10.5 -38.499c0 -18 -6 -33.167 -18 -45.5s-27.667 -18.5 -47 -18.5c-18 0 -31.5 4 -40.5 12s-19.167 18.333 -30.5 31c-21.333 23.333 -41.833 40 -61.5 50
s-43.834 15 -72.501 15zM389.999 906.999c19.333 0 37.166 -6 53.499 -18s24.5 -30.667 24.5 -56c0 -22.667 -7.16699 -40.667 -21.5 -54s-33.166 -20 -56.499 -20s-42.166 6.66699 -56.499 20s-21.5 31.333 -21.5 54c0 21.333 7.16699 39 21.5 53s33.166 21 56.499 21z" />
    <glyph glyph-name="cdotaccent" unicode="&#x10b;" horiz-adv-x="552" 
d="M307 531c36.667 0 68.5 -4.99902 95.5 -14.999s49.5 -22 67.5 -36s31.5 -29 40.5 -45s13.5 -30 13.5 -42c0 -17.333 -6.16699 -31.666 -18.5 -42.999s-27.166 -17 -44.499 -17c-12.667 0 -22.834 3.5 -30.501 10.5l-26.5 24.5c-15.333 14 -30 25.167 -44 33.5
s-32.667 12.5 -56 12.5c-27.333 0 -49 -6 -65 -18s-28 -26.5 -36 -43.5s-13.167 -34.833 -15.5 -53.5s-3.5 -34.334 -3.5 -47.001c0 -14 1.5 -30 4.5 -48s9 -34.833 18 -50.5s21.667 -28.834 38 -39.501s37.5 -16 63.5 -16c24.667 0 44 4 58 12s29.333 20.667 46 38
c7.33301 8 14.5 14.833 21.5 20.5s16.167 8.5 27.5 8.5c8 0 15.833 -1.66699 23.5 -5s14.334 -7.83301 20.001 -13.5s10.334 -12.167 14.001 -19.5s5.5 -15 5.5 -23c0 -13.333 -5.16699 -27.833 -15.5 -43.5s-25.166 -30.167 -44.499 -43.5s-42.833 -24.5 -70.5 -33.5
s-59.167 -13.5 -94.5 -13.5c-46.667 0 -86.334 7.5 -119.001 22.5s-59.167 34.833 -79.5 59.5s-35 53 -44 85s-13.5 65 -13.5 99c0 44.667 6.33301 84.667 19 120s30.667 65 54 89s51.166 42.333 83.499 55s68.166 19 107.499 19zM309 747.001
c19.333 0 37.166 -6 53.499 -18s24.5 -30.667 24.5 -56c0 -22.667 -7.16699 -40.667 -21.5 -54s-33.166 -20 -56.499 -20s-42.166 6.66699 -56.499 20s-21.5 31.333 -21.5 54c0 21.333 7.16699 39 21.5 53s33.166 21 56.499 21z" />
    </font>
</defs>
</svg>
